<svg width="64" height="64" viewBox="0 0 64 64" fill="none" xmlns="http://www.w3.org/2000/svg">
<rect width="64" height="64" rx="32" fill="#E13A33" fill-opacity="0.1"/>
<rect x="8" y="8" width="48" height="48" rx="24" fill="#E13A33" fill-opacity="0.2"/>
<path d="M46 31H42.9538C42.7167 28.4401 41.5919 26.0438 39.7741 24.2259C37.9562 22.4081 35.5599 21.2833 33 21.0462V18C33 17.7348 32.8946 17.4804 32.7071 17.2929C32.5196 17.1054 32.2652 17 32 17C31.7348 17 31.4804 17.1054 31.2929 17.2929C31.1054 17.4804 31 17.7348 31 18V21.0462C28.4401 21.2833 26.0438 22.4081 24.2259 24.2259C22.4081 26.0438 21.2833 28.4401 21.0462 31H18C17.7348 31 17.4804 31.1054 17.2929 31.2929C17.1054 31.4804 17 31.7348 17 32C17 32.2652 17.1054 32.5196 17.2929 32.7071C17.4804 32.8946 17.7348 33 18 33H21.0462C21.2833 35.5599 22.4081 37.9562 24.2259 39.7741C26.0438 41.5919 28.4401 42.7167 31 42.9538V46C31 46.2652 31.1054 46.5196 31.2929 46.7071C31.4804 46.8946 31.7348 47 32 47C32.2652 47 32.5196 46.8946 32.7071 46.7071C32.8946 46.5196 33 46.2652 33 46V42.9538C35.5599 42.7167 37.9562 41.5919 39.7741 39.7741C41.5919 37.9562 42.7167 35.5599 42.9538 33H46C46.2652 33 46.5196 32.8946 46.7071 32.7071C46.8946 32.5196 47 32.2652 47 32C47 31.7348 46.8946 31.4804 46.7071 31.2929C46.5196 31.1054 46.2652 31 46 31ZM32 41C30.22 41 28.4799 40.4722 26.9999 39.4832C25.5198 38.4943 24.3663 37.0887 23.6851 35.4442C23.0039 33.7996 22.8257 31.99 23.1729 30.2442C23.5202 28.4984 24.3774 26.8947 25.636 25.636C26.8947 24.3774 28.4984 23.5202 30.2442 23.1729C31.99 22.8257 33.7996 23.0039 35.4442 23.6851C37.0887 24.3663 38.4943 25.5198 39.4832 26.9999C40.4722 28.4799 41 30.22 41 32C40.9974 34.3861 40.0483 36.6738 38.361 38.361C36.6738 40.0483 34.3861 40.9974 32 41ZM32 27C31.0111 27 30.0444 27.2932 29.2221 27.8427C28.3999 28.3921 27.759 29.173 27.3806 30.0866C27.0022 31.0002 26.9031 32.0055 27.0961 32.9755C27.289 33.9454 27.7652 34.8363 28.4645 35.5355C29.1637 36.2348 30.0546 36.711 31.0245 36.9039C31.9945 37.0969 32.9998 36.9978 33.9134 36.6194C34.827 36.241 35.6079 35.6001 36.1573 34.7779C36.7068 33.9556 37 32.9889 37 32C37 30.6739 36.4732 29.4021 35.5355 28.4645C34.5979 27.5268 33.3261 27 32 27ZM32 35C31.4067 35 30.8266 34.8241 30.3333 34.4944C29.8399 34.1648 29.4554 33.6962 29.2284 33.1481C29.0013 32.5999 28.9419 31.9967 29.0576 31.4147C29.1734 30.8328 29.4591 30.2982 29.8787 29.8787C30.2982 29.4591 30.8328 29.1734 31.4147 29.0576C31.9967 28.9419 32.5999 29.0013 33.1481 29.2284C33.6962 29.4554 34.1648 29.8399 34.4944 30.3333C34.8241 30.8266 35 31.4067 35 32C35 32.7956 34.6839 33.5587 34.1213 34.1213C33.5587 34.6839 32.7956 35 32 35Z" fill="#E13A33"/>
</svg>
