<svg width="64" height="64" viewBox="0 0 64 64" fill="none" xmlns="http://www.w3.org/2000/svg">
<rect width="64" height="64" rx="32" fill="#2377E6" fill-opacity="0.1"/>
<rect x="8" y="8" width="48" height="48" rx="24" fill="#2377E6" fill-opacity="0.2"/>
<path d="M45.65 34.9842C45.5665 34.7512 45.4684 34.5237 45.3563 34.303L40.1575 22.4755C40.1083 22.3616 40.0379 22.2581 39.95 22.1705C39.5786 21.799 39.1376 21.5042 38.6522 21.3032C38.1668 21.1021 37.6466 20.9986 37.1213 20.9986C36.5959 20.9986 36.0757 21.1021 35.5903 21.3032C35.1049 21.5042 34.6639 21.799 34.2925 22.1705C34.1056 22.3576 34.0005 22.6111 34 22.8755V26.0005H30V22.8755C30.0001 22.7441 29.9743 22.614 29.9241 22.4926C29.8739 22.3712 29.8003 22.2609 29.7075 22.168C29.3361 21.7965 28.8951 21.5017 28.4097 21.3007C27.9243 21.0996 27.4041 20.9961 26.8788 20.9961C26.3534 20.9961 25.8332 21.0996 25.3478 21.3007C24.8624 21.5017 24.4214 21.7965 24.05 22.168C23.9621 22.2556 23.8917 22.3591 23.8425 22.473L18.6438 34.3005C18.5316 34.5212 18.4335 34.7487 18.35 34.9817C18.0556 35.8054 17.9449 36.6835 18.0256 37.5544C18.1063 38.4254 18.3764 39.2682 18.8171 40.0238C19.2577 40.7794 19.8583 41.4295 20.5766 41.9285C21.2949 42.4276 22.1137 42.7636 22.9756 42.9129C23.8374 43.0623 24.7215 43.0214 25.5659 42.7931C26.4103 42.5648 27.1945 42.1547 27.8637 41.5914C28.5329 41.0282 29.0709 40.3254 29.4399 39.5324C29.8089 38.7393 30.0001 37.8752 30 37.0005V28.0005H34V37.0005C33.9996 37.8753 34.1904 38.7396 34.5592 39.5329C34.928 40.3261 35.4658 41.0292 36.1349 41.5927C36.804 42.1562 37.5882 42.5667 38.4326 42.7952C39.277 43.0237 40.1612 43.0648 41.0232 42.9156C41.8852 42.7664 42.7041 42.4306 43.4226 41.9316C44.1411 41.4325 44.7418 40.7824 45.1826 40.0268C45.6234 39.2712 45.8937 38.4283 45.9744 37.5573C46.0551 36.6862 45.9444 35.808 45.65 34.9842ZM25.5888 23.4692C25.9222 23.1885 26.3381 23.0244 26.7734 23.0018C27.2086 22.9793 27.6394 23.0995 28 23.3442V32.533C27.2193 31.8319 26.268 31.3484 25.2415 31.1307C24.215 30.9131 23.1493 30.9691 22.1513 31.293L25.5888 23.4692ZM24 41.0005C23.2089 41.0005 22.4355 40.7659 21.7777 40.3264C21.1199 39.8868 20.6072 39.2621 20.3045 38.5312C20.0017 37.8003 19.9225 36.9961 20.0769 36.2201C20.2312 35.4442 20.6122 34.7315 21.1716 34.1721C21.731 33.6127 22.4437 33.2317 23.2196 33.0773C23.9956 32.923 24.7998 33.0022 25.5307 33.305C26.2616 33.6077 26.8864 34.1204 27.3259 34.7782C27.7654 35.436 28 36.2094 28 37.0005C28 38.0614 27.5786 39.0788 26.8284 39.8289C26.0783 40.5791 25.0609 41.0005 24 41.0005ZM36 23.343C36.3606 23.0982 36.7914 22.978 37.2266 23.0006C37.6619 23.0231 38.0779 23.1873 38.4112 23.468L41.8487 31.2905C40.8506 30.9667 39.7849 30.911 38.7584 31.1288C37.7318 31.3467 36.7806 31.8305 36 32.5317V23.343ZM40 41.0005C39.2089 41.0005 38.4355 40.7659 37.7777 40.3264C37.1199 39.8868 36.6072 39.2621 36.3045 38.5312C36.0017 37.8003 35.9225 36.9961 36.0769 36.2201C36.2312 35.4442 36.6122 34.7315 37.1716 34.1721C37.731 33.6127 38.4437 33.2317 39.2196 33.0773C39.9956 32.923 40.7998 33.0022 41.5307 33.305C42.2616 33.6077 42.8864 34.1204 43.3259 34.7782C43.7654 35.436 44 36.2094 44 37.0005C44 38.0614 43.5786 39.0788 42.8284 39.8289C42.0783 40.5791 41.0609 41.0005 40 41.0005Z" fill="#2377E6"/>
</svg>
