<svg width="64" height="64" viewBox="0 0 64 64" fill="none" xmlns="http://www.w3.org/2000/svg">
<rect width="64" height="64" rx="32" fill="#6FBF3A" fill-opacity="0.1"/>
<rect x="8" y="8" width="48" height="48" rx="24" fill="#6FBF3A" fill-opacity="0.2"/>
<path d="M32.9981 24.9902V30.3715L37.5506 28.0952C37.7878 27.9766 38.0624 27.957 38.314 28.0408C38.5657 28.1246 38.7737 28.3049 38.8924 28.5421C39.0111 28.7793 39.0307 29.054 38.9469 29.3056C38.8631 29.5573 38.6828 29.7653 38.4456 29.884L32.4456 32.884C32.2931 32.9603 32.1237 32.9963 31.9535 32.9887C31.7832 32.9811 31.6177 32.9301 31.4727 32.8406C31.3277 32.751 31.2079 32.6259 31.1249 32.4771C31.0418 32.3283 30.9981 32.1607 30.9981 31.9902V24.9902C30.9981 24.725 31.1034 24.4707 31.2909 24.2831C31.4785 24.0956 31.7328 23.9902 31.9981 23.9902C32.2633 23.9902 32.5176 24.0956 32.7052 24.2831C32.8927 24.4707 32.9981 24.725 32.9981 24.9902ZM31.9981 42.9902C29.8225 42.9902 27.6957 42.3451 25.8868 41.1364C24.0778 39.9277 22.6679 38.2097 21.8354 36.1998C21.0028 34.1898 20.785 31.978 21.2094 29.8442C21.6339 27.7105 22.6815 25.7504 24.2199 24.2121C25.7583 22.6737 27.7183 21.626 29.8521 21.2016C31.9859 20.7772 34.1976 20.995 36.2076 21.8276C38.2176 22.6601 39.9355 24.07 41.1442 25.879C42.3529 27.6879 42.9981 29.8146 42.9981 31.9902C42.9981 32.2555 43.1034 32.5098 43.2909 32.6973C43.4785 32.8849 43.7328 32.9902 43.9981 32.9902C44.2633 32.9902 44.5176 32.8849 44.7052 32.6973C44.8927 32.5098 44.9981 32.2555 44.9981 31.9902C44.9981 29.4191 44.2356 26.9057 42.8072 24.7678C41.3787 22.63 39.3484 20.9637 36.9729 19.9798C34.5975 18.9959 31.9836 18.7384 29.4619 19.24C26.9401 19.7416 24.6237 20.9798 22.8057 22.7979C20.9876 24.6159 19.7495 26.9323 19.2478 29.4541C18.7462 31.9758 19.0037 34.5897 19.9876 36.9651C20.9716 39.3406 22.6378 41.3709 24.7756 42.7993C26.9135 44.2278 29.4269 44.9902 31.9981 44.9902C32.2633 44.9902 32.5176 44.8849 32.7052 44.6973C32.8927 44.5098 32.9981 44.2555 32.9981 43.9902C32.9981 43.725 32.8927 43.4707 32.7052 43.2831C32.5176 43.0956 32.2633 42.9902 31.9981 42.9902ZM44.9643 43.7327C45.0009 43.8605 45.0117 43.9944 44.996 44.1264C44.9804 44.2584 44.9385 44.386 44.8729 44.5016C44.8073 44.6173 44.7193 44.7187 44.6141 44.8C44.5088 44.8812 44.3884 44.9406 44.26 44.9748C44.1315 45.0089 43.9975 45.0171 43.8658 44.9989C43.7341 44.9806 43.6073 44.9363 43.493 44.8685C43.3786 44.8007 43.2789 44.7107 43.1997 44.6039C43.1206 44.4971 43.0635 44.3756 43.0318 44.2465C42.6781 42.9177 41.4306 41.9902 39.9981 41.9902C38.5656 41.9902 37.3181 42.9177 36.9643 44.2465C36.9078 44.4597 36.7824 44.6482 36.6077 44.7827C36.4329 44.9172 36.2186 44.9902 35.9981 44.9902C35.9111 44.99 35.8246 44.9787 35.7406 44.9565C35.4843 44.8882 35.2657 44.7209 35.1327 44.4914C34.9998 44.2619 34.9635 43.989 35.0318 43.7327C35.3562 42.5283 36.119 41.4886 37.1706 40.8177C36.6107 40.2585 36.2293 39.5458 36.0746 38.7697C35.9199 37.9937 35.9989 37.1892 36.3015 36.458C36.6041 35.7269 37.1168 35.1019 37.7747 34.6622C38.4326 34.2225 39.2061 33.9878 39.9974 33.9878C40.7887 33.9878 41.5623 34.2225 42.2202 34.6622C42.8781 35.1019 43.3907 35.7269 43.6934 36.458C43.996 37.1892 44.0749 37.9937 43.9202 38.7697C43.7656 39.5458 43.3842 40.2585 42.8243 40.8177C43.8763 41.4884 44.6396 42.5281 44.9643 43.7327ZM37.9981 37.9902C37.9981 38.3858 38.1154 38.7725 38.3351 39.1014C38.5549 39.4303 38.8672 39.6866 39.2327 39.838C39.5981 39.9894 40.0003 40.029 40.3882 39.9518C40.7762 39.8746 41.1326 39.6842 41.4123 39.4045C41.692 39.1247 41.8825 38.7684 41.9596 38.3804C42.0368 37.9925 41.9972 37.5903 41.8458 37.2249C41.6944 36.8594 41.4381 36.5471 41.1092 36.3273C40.7803 36.1075 40.3936 35.9902 39.9981 35.9902C39.4676 35.9902 38.9589 36.201 38.5838 36.576C38.2088 36.9511 37.9981 37.4598 37.9981 37.9902Z" fill="#6FBF3A"/>
</svg>
