<svg width="64" height="64" viewBox="0 0 64 64" fill="none" xmlns="http://www.w3.org/2000/svg">
<rect width="64" height="64" rx="32" fill="#FFAF1E" fill-opacity="0.1"/>
<rect x="8" y="8" width="48" height="48" rx="24" fill="#FFAF1E" fill-opacity="0.2"/>
<path d="M40.6967 32.1325L34.2492 29.75L31.8742 23.2975C31.7336 22.9154 31.4791 22.5857 31.1452 22.3527C30.8112 22.1198 30.4139 21.9949 30.0067 21.9949C29.5996 21.9949 29.2022 22.1198 28.8683 22.3527C28.5343 22.5857 28.2799 22.9154 28.1392 23.2975L25.7492 29.75L19.2967 32.125C18.9146 32.2656 18.5849 32.5201 18.352 32.854C18.119 33.188 17.9941 33.5853 17.9941 33.9925C17.9941 34.3997 18.119 34.797 18.352 35.131C18.5849 35.4649 18.9146 35.7194 19.2967 35.86L25.7492 38.25L28.1242 44.7025C28.2649 45.0846 28.5193 45.4143 28.8533 45.6473C29.1872 45.8802 29.5846 46.0051 29.9917 46.0051C30.3989 46.0051 30.7962 45.8802 31.1302 45.6473C31.4641 45.4143 31.7186 45.0846 31.8592 44.7025L34.2492 38.25L40.7017 35.875C41.0838 35.7344 41.4136 35.4799 41.6465 35.146C41.8794 34.812 42.0043 34.4147 42.0043 34.0075C42.0043 33.6003 41.8794 33.203 41.6465 32.869C41.4136 32.5351 41.0838 32.2806 40.7017 32.14L40.6967 32.1325ZM33.1242 36.5275C32.9885 36.5775 32.8652 36.6564 32.7629 36.7587C32.6606 36.861 32.5817 36.9843 32.5317 37.12L29.9992 43.9813L27.4717 37.125C27.4218 36.9878 27.3424 36.8633 27.2392 36.76C27.136 36.6568 27.0114 36.5774 26.8742 36.5275L20.018 34L26.8742 31.4725C27.0114 31.4226 27.136 31.3432 27.2392 31.24C27.3424 31.1367 27.4218 31.0122 27.4717 30.875L29.9992 24.0188L32.5267 30.875C32.5767 31.0107 32.6556 31.134 32.7579 31.2363C32.8602 31.3386 32.9835 31.4175 33.1192 31.4675L39.9805 34L33.1242 36.5275ZM33.9992 21C33.9992 20.7348 34.1046 20.4804 34.2921 20.2929C34.4797 20.1054 34.734 20 34.9992 20H36.9992V18C36.9992 17.7348 37.1046 17.4804 37.2921 17.2929C37.4797 17.1054 37.734 17 37.9992 17C38.2644 17 38.5188 17.1054 38.7063 17.2929C38.8939 17.4804 38.9992 17.7348 38.9992 18V20H40.9992C41.2644 20 41.5188 20.1054 41.7063 20.2929C41.8939 20.4804 41.9992 20.7348 41.9992 21C41.9992 21.2652 41.8939 21.5196 41.7063 21.7071C41.5188 21.8946 41.2644 22 40.9992 22H38.9992V24C38.9992 24.2652 38.8939 24.5196 38.7063 24.7071C38.5188 24.8946 38.2644 25 37.9992 25C37.734 25 37.4797 24.8946 37.2921 24.7071C37.1046 24.5196 36.9992 24.2652 36.9992 24V22H34.9992C34.734 22 34.4797 21.8946 34.2921 21.7071C34.1046 21.5196 33.9992 21.2652 33.9992 21ZM46.9992 27C46.9992 27.2652 46.8939 27.5196 46.7063 27.7071C46.5188 27.8946 46.2644 28 45.9992 28H44.9992V29C44.9992 29.2652 44.8939 29.5196 44.7063 29.7071C44.5188 29.8946 44.2644 30 43.9992 30C43.734 30 43.4797 29.8946 43.2921 29.7071C43.1046 29.5196 42.9992 29.2652 42.9992 29V28H41.9992C41.734 28 41.4797 27.8946 41.2921 27.7071C41.1046 27.5196 40.9992 27.2652 40.9992 27C40.9992 26.7348 41.1046 26.4804 41.2921 26.2929C41.4797 26.1054 41.734 26 41.9992 26H42.9992V25C42.9992 24.7348 43.1046 24.4804 43.2921 24.2929C43.4797 24.1054 43.734 24 43.9992 24C44.2644 24 44.5188 24.1054 44.7063 24.2929C44.8939 24.4804 44.9992 24.7348 44.9992 25V26H45.9992C46.2644 26 46.5188 26.1054 46.7063 26.2929C46.8939 26.4804 46.9992 26.7348 46.9992 27Z" fill="#FFAF1E"/>
</svg>
