<svg width="33" height="32" viewBox="0 0 33 32" fill="none" xmlns="http://www.w3.org/2000/svg">
<g id="PersonArmsSpread">
<path id="Vector" d="M20.5001 5C20.5001 4.20888 20.2655 3.43552 19.826 2.77772C19.3864 2.11992 18.7617 1.60723 18.0308 1.30448C17.2999 1.00173 16.4956 0.92252 15.7197 1.07686C14.9438 1.2312 14.2311 1.61216 13.6716 2.17157C13.1122 2.73098 12.7313 3.44372 12.5769 4.21964C12.4226 4.99556 12.5018 5.79983 12.8046 6.53074C13.1073 7.26164 13.62 7.88635 14.2778 8.32588C14.9356 8.76541 15.709 9 16.5001 9C17.5609 9 18.5784 8.57857 19.3285 7.82843C20.0786 7.07828 20.5001 6.06087 20.5001 5ZM16.5001 7C16.1045 7 15.7178 6.8827 15.3889 6.66294C15.06 6.44318 14.8037 6.13082 14.6523 5.76537C14.5009 5.39992 14.4613 4.99778 14.5385 4.60982C14.6157 4.22186 14.8062 3.86549 15.0859 3.58579C15.3656 3.30608 15.7219 3.1156 16.1099 3.03843C16.4979 2.96126 16.9 3.00087 17.2654 3.15224C17.6309 3.30362 17.9433 3.55996 18.163 3.88886C18.3828 4.21776 18.5001 4.60444 18.5001 5C18.5001 5.53044 18.2894 6.03914 17.9143 6.41422C17.5392 6.78929 17.0305 7 16.5001 7ZM29.4376 10.9638C29.3237 10.4037 29.0179 9.90099 28.5728 9.54245C28.1278 9.18391 27.5715 8.99204 27.0001 9H6.00008C5.43018 8.99998 4.87738 9.19468 4.43328 9.55183C3.98918 9.90898 3.68043 10.4071 3.55819 10.9638C3.43595 11.5204 3.50756 12.1021 3.76116 12.6125C4.01475 13.1228 4.43511 13.5312 4.95258 13.77H4.96883L11.3126 16.5638L8.68758 26.5288C8.41291 27.1338 8.38984 27.8231 8.62344 28.4452C8.85704 29.0672 9.32818 29.571 9.9332 29.8456C10.5382 30.1203 11.2276 30.1434 11.8496 29.9098C12.4717 29.6762 12.9754 29.205 13.2501 28.6L16.5001 22.9913L19.7501 28.6C20.0389 29.1792 20.5411 29.6239 21.1511 29.8404C21.761 30.0569 22.4312 30.0285 23.0206 29.761C23.61 29.4935 24.0726 29.0078 24.3113 28.4062C24.5499 27.8045 24.5459 27.1338 24.3001 26.535L21.6751 16.57L28.0188 13.7763H28.0351C28.5609 13.5455 28.9891 13.1377 29.2454 12.6238C29.5016 12.11 29.5696 11.5226 29.4376 10.9638ZM27.2126 11.9513L20.0963 15.0838C19.8785 15.1797 19.702 15.3503 19.5987 15.5648C19.4953 15.7792 19.4719 16.0235 19.5326 16.2538L22.3913 27.125C22.4059 27.1832 22.4264 27.2398 22.4526 27.2938C22.4945 27.3835 22.5089 27.4836 22.4938 27.5815C22.4788 27.6794 22.435 27.7706 22.3681 27.8436C22.3011 27.9165 22.214 27.968 22.1178 27.9914C22.0216 28.0148 21.9206 28.0091 21.8276 27.975C21.7033 27.9294 21.6021 27.8363 21.5463 27.7163C21.5337 27.6892 21.5195 27.6629 21.5038 27.6375L17.3651 20.5C17.2772 20.3485 17.151 20.2227 16.9992 20.1352C16.8474 20.0478 16.6753 20.0018 16.5001 20.0018C16.3249 20.0018 16.1528 20.0478 16.001 20.1352C15.8492 20.2227 15.723 20.3485 15.6351 20.5L11.5001 27.6313C11.4844 27.6567 11.4702 27.683 11.4576 27.71C11.4018 27.8301 11.3006 27.9231 11.1763 27.9688C11.0833 28.0028 10.9823 28.0085 10.8861 27.9851C10.7899 27.9617 10.7028 27.9103 10.6358 27.8373C10.5689 27.7643 10.5251 27.6731 10.5101 27.5752C10.495 27.4774 10.5094 27.3772 10.5513 27.2875C10.5775 27.2335 10.598 27.177 10.6126 27.1188L13.4676 16.25C13.5283 16.0198 13.5048 15.7755 13.4015 15.561C13.2981 15.3466 13.1217 15.176 12.9038 15.08L5.78758 11.9513C5.68543 11.9025 5.60284 11.8206 5.55331 11.7188C5.50379 11.617 5.49026 11.5014 5.51493 11.391C5.53961 11.2805 5.60103 11.1817 5.68916 11.1107C5.77728 11.0397 5.8869 11.0006 6.00008 11H27.0001C27.1136 10.9998 27.2238 11.0382 27.3125 11.1089C27.4013 11.1797 27.4634 11.2785 27.4885 11.3892C27.5137 11.4998 27.5005 11.6158 27.451 11.7179C27.4015 11.8201 27.3188 11.9024 27.2163 11.9513H27.2126Z" fill="white"/>
</g>
</svg>
