<svg width="25" height="25" viewBox="0 0 25 25" fill="none" xmlns="http://www.w3.org/2000/svg">
<g id="Translate">
<path id="Vector" d="M23.6703 20.4144L18.4203 9.91437C18.358 9.78982 18.2623 9.68506 18.1438 9.61185C18.0253 9.53864 17.8888 9.49986 17.7495 9.49986C17.6103 9.49986 17.4737 9.53864 17.3553 9.61185C17.2368 9.68506 17.141 9.78982 17.0787 9.91437L15.0434 13.9859C13.4481 13.8962 11.9131 13.3452 10.625 12.3997C12.1363 10.7857 13.052 8.70463 13.2209 6.5H15.5C15.6989 6.5 15.8897 6.42098 16.0303 6.28033C16.171 6.13968 16.25 5.94891 16.25 5.75C16.25 5.55109 16.171 5.36032 16.0303 5.21967C15.8897 5.07902 15.6989 5 15.5 5H10.25V3.5C10.25 3.30109 10.171 3.11032 10.0303 2.96967C9.88968 2.82902 9.69891 2.75 9.5 2.75C9.30109 2.75 9.11032 2.82902 8.96967 2.96967C8.82902 3.11032 8.75 3.30109 8.75 3.5V5H3.5C3.30109 5 3.11032 5.07902 2.96967 5.21967C2.82902 5.36032 2.75 5.55109 2.75 5.75C2.75 5.94891 2.82902 6.13968 2.96967 6.28033C3.11032 6.42098 3.30109 6.5 3.5 6.5H11.7153C11.5483 8.33811 10.768 10.0667 9.5 11.4078C8.70984 10.5741 8.10306 9.58406 7.71875 8.50156C7.68715 8.40712 7.63705 8.31991 7.57139 8.24503C7.50572 8.17015 7.4258 8.1091 7.33629 8.06544C7.24678 8.02178 7.14946 7.99639 7.05003 7.99074C6.9506 7.98509 6.85104 7.99931 6.75715 8.03255C6.66327 8.0658 6.57695 8.11741 6.50323 8.18437C6.42951 8.25133 6.36987 8.33231 6.32778 8.42257C6.28569 8.51283 6.26199 8.61057 6.25808 8.71009C6.25417 8.8096 6.27012 8.9089 6.305 9.00219C6.75244 10.2677 7.45726 11.4267 8.375 12.4062C6.96197 13.4446 5.25353 14.0031 3.5 14C3.30109 14 3.11032 14.079 2.96967 14.2197C2.82902 14.3603 2.75 14.5511 2.75 14.75C2.75 14.9489 2.82902 15.1397 2.96967 15.2803C3.11032 15.421 3.30109 15.5 3.5 15.5C5.67555 15.5024 7.78875 14.7734 9.5 13.43C10.8965 14.5211 12.5635 15.2117 14.3225 15.4278L11.8287 20.4144C11.7847 20.5025 11.7584 20.5984 11.7514 20.6966C11.7444 20.7949 11.7568 20.8935 11.7879 20.987C11.8507 21.1757 11.986 21.3318 12.1639 21.4208C12.3418 21.5098 12.5478 21.5245 12.7365 21.4616C12.9253 21.3988 13.0813 21.2635 13.1703 21.0856L14.4631 18.5H21.0359L22.3288 21.0856C22.3911 21.2102 22.4869 21.315 22.6055 21.3882C22.7241 21.4614 22.8607 21.5001 23 21.5C23.1278 21.4999 23.2535 21.4672 23.3651 21.4049C23.4768 21.3426 23.5706 21.2528 23.6378 21.144C23.7049 21.0353 23.7432 20.9111 23.7489 20.7834C23.7546 20.6557 23.7275 20.5287 23.6703 20.4144ZM15.2131 17L17.75 11.9272L20.2859 17H15.2131Z" fill="white"/>
</g>
</svg>
