<svg width="29" height="28" viewBox="0 0 29 28" fill="none" xmlns="http://www.w3.org/2000/svg">
<path id="Vector" d="M28.4794 2.12056C28.4462 1.57448 28.2143 1.05942 27.8274 0.672573C27.4405 0.285722 26.9254 0.0538272 26.3792 0.0206415C24.6179 -0.0843546 20.1166 0.0766392 16.3812 3.8103L15.7162 4.48368H7.54946C7.25415 4.48201 6.96146 4.53908 6.68841 4.65156C6.41536 4.76403 6.1674 4.92968 5.95896 5.13885L1.15666 9.94347C0.862149 10.2378 0.655489 10.6083 0.559872 11.0135C0.464255 11.4187 0.483465 11.8425 0.615348 12.2374C0.747231 12.6322 0.986566 12.9826 1.30649 13.249C1.62642 13.5154 2.01428 13.6874 2.42654 13.7457L7.81267 14.4975L14.0025 20.6867L14.7543 26.0751C14.8121 26.4873 14.9841 26.8752 15.2508 27.1948C15.5175 27.5144 15.8683 27.7531 16.2636 27.8838C16.4938 27.9607 16.7349 27.9999 16.9776 28C17.2715 28.0005 17.5626 27.9429 17.8342 27.8305C18.1057 27.7181 18.3523 27.553 18.5597 27.3448L23.3648 22.543C23.574 22.3346 23.7397 22.0866 23.8522 21.8136C23.9647 21.5406 24.0217 21.2479 24.0201 20.9527V12.7868L24.6879 12.119C28.4234 8.38393 28.5844 3.8831 28.4794 2.12056ZM7.54946 6.72359H13.476L7.94148 12.2562L2.73876 11.531L7.54946 6.72359ZM17.9675 5.40064C19.0438 4.31783 20.3388 3.47712 21.7659 2.93466C23.1931 2.3922 24.7196 2.16047 26.2434 2.25496C26.3416 3.77947 26.1122 5.30733 25.5708 6.73586C25.0294 8.16439 24.1884 9.46049 23.1044 10.537L15.0595 18.5783L9.924 13.4433L17.9675 5.40064ZM21.7799 20.9527L16.9734 25.7629L16.2468 20.5593L21.7799 15.0267V20.9527ZM11.3969 22.2826C10.7669 23.663 8.65973 26.8828 2.73876 26.8828C2.4417 26.8828 2.1568 26.7648 1.94675 26.5548C1.7367 26.3448 1.61869 26.0599 1.61869 25.7629C1.61869 19.8425 4.83889 17.7356 6.21938 17.1042C6.35323 17.0432 6.49779 17.0091 6.64481 17.0039C6.79184 16.9987 6.93844 17.0226 7.07625 17.0741C7.21406 17.1255 7.34038 17.2037 7.448 17.3039C7.55562 17.4042 7.64242 17.5247 7.70347 17.6586C7.76451 17.7924 7.79859 17.937 7.80376 18.084C7.80894 18.231 7.7851 18.3776 7.73362 18.5154C7.68213 18.6532 7.60401 18.7795 7.50371 18.8871C7.4034 18.9947 7.28288 19.0815 7.14903 19.1425C6.24878 19.5527 4.26205 20.8729 3.91203 24.5897C7.62926 24.2397 8.95234 22.2532 9.35977 21.353C9.42081 21.2192 9.50762 21.0987 9.61524 20.9984C9.72286 20.8981 9.84918 20.82 9.98699 20.7685C10.1248 20.717 10.2714 20.6932 10.4184 20.6984C10.5654 20.7036 10.71 20.7376 10.8439 20.7987C10.9777 20.8597 11.0982 20.9465 11.1985 21.0541C11.2988 21.1617 11.377 21.288 11.4284 21.4258C11.4799 21.5636 11.5038 21.7102 11.4986 21.8572C11.4934 22.0042 11.4593 22.1488 11.3983 22.2826H11.3969Z" fill="white"/>
</svg>
