<svg width="25" height="24" viewBox="0 0 25 24" fill="none" xmlns="http://www.w3.org/2000/svg">
<g id="Tooth">
<path id="Vector" d="M16.5312 6.69562L14.5194 7.5L16.5312 8.30344C16.7159 8.37803 16.8633 8.5229 16.9411 8.70619C17.0189 8.88948 17.0207 9.09617 16.9461 9.28078C16.8715 9.4654 16.7266 9.61282 16.5433 9.69062C16.3601 9.76842 16.1534 9.77022 15.9688 9.69562L12.5 8.30719L9.03125 9.69562C8.93984 9.73256 8.84205 9.75113 8.74346 9.75027C8.64487 9.74941 8.54742 9.72914 8.45666 9.69062C8.36591 9.6521 8.28363 9.59608 8.21452 9.52576C8.14542 9.45544 8.09084 9.37219 8.05391 9.28078C8.01697 9.18937 7.9984 9.09158 7.99926 8.99299C8.00012 8.8944 8.02039 8.79695 8.05891 8.70619C8.09744 8.61544 8.15346 8.53316 8.22378 8.46405C8.2941 8.39495 8.37734 8.34037 8.46875 8.30344L10.4806 7.5L8.46875 6.69562C8.37734 6.65869 8.2941 6.60411 8.22378 6.53501C8.15346 6.4659 8.09744 6.38363 8.05891 6.29287C8.02039 6.20212 8.00012 6.10466 7.99926 6.00607C7.9984 5.90749 8.01697 5.80969 8.05391 5.71828C8.09084 5.62687 8.14542 5.54363 8.21452 5.47331C8.28363 5.40299 8.36591 5.34697 8.45666 5.30844C8.54742 5.26992 8.64487 5.24965 8.74346 5.24879C8.84205 5.24794 8.93984 5.2665 9.03125 5.30344L12.5 6.69187L15.9688 5.30344C16.0602 5.2665 16.158 5.24794 16.2565 5.24879C16.3551 5.24965 16.4526 5.26992 16.5433 5.30844C16.6341 5.34697 16.7164 5.40299 16.7855 5.47331C16.8546 5.54363 16.9092 5.62687 16.9461 5.71828C16.983 5.80969 17.0016 5.90749 17.0007 6.00607C16.9999 6.10466 16.9796 6.20212 16.9411 6.29287C16.9026 6.38363 16.8465 6.4659 16.7762 6.53501C16.7059 6.60411 16.6227 6.65869 16.5312 6.69562ZM21.5 7.47656C21.5 11.4816 20.75 14.5453 20.1228 16.4091C19.3044 18.8278 18.1888 20.6737 17.0619 21.4716C16.8475 21.6258 16.5955 21.7195 16.3323 21.7428C16.0692 21.766 15.8047 21.718 15.5666 21.6038C15.3251 21.4898 15.1182 21.3138 14.967 21.0938C14.8158 20.8737 14.7257 20.6175 14.7059 20.3512C14.6263 19.2731 14.2325 15.75 12.5 15.75C10.7675 15.75 10.3738 19.2741 10.2941 20.3541C10.266 20.733 10.0959 21.0874 9.81776 21.3464C9.53966 21.6054 9.17407 21.7499 8.79406 21.7509C8.48685 21.7505 8.1875 21.6538 7.93812 21.4744C6.81312 20.6747 5.69562 18.8288 4.87719 16.4119C4.25 14.5453 3.5 11.4816 3.5 7.47656C3.5062 6.08824 4.06206 4.7589 5.04595 3.77939C6.02985 2.79989 7.36166 2.24999 8.75 2.25H16.25C17.6383 2.24999 18.9702 2.79989 19.954 3.77939C20.9379 4.7589 21.4938 6.08824 21.5 7.47656ZM20 7.47656C19.9938 6.48607 19.596 5.53825 18.8934 4.84005C18.1908 4.14185 17.2405 3.74998 16.25 3.75H8.75C7.75932 3.74998 6.80889 4.14198 6.10627 4.84038C5.40365 5.53879 5.00594 6.48684 5 7.4775C5 11.2791 5.70406 14.1712 6.29844 15.9281C7.33437 18.99 8.45469 19.9941 8.79313 20.2406C9.08469 16.3753 10.3991 14.25 12.5 14.25C14.6009 14.25 15.9172 16.3791 16.2022 20.2444C16.5397 20.0016 17.6619 19.0013 18.7016 15.9319C19.2959 14.1713 20 11.2791 20 7.4775V7.47656Z" fill="black" fill-opacity="0.8"/>
</g>
</svg>
