<svg width="24" height="24" viewBox="0 0 24 24" fill="none" xmlns="http://www.w3.org/2000/svg">
<g id="arrow (2) 1">
<g id="Vector">
<path d="M18.3748 4.125L12.9261 11.9738L9.74008 9.95566C9.69941 9.9267 9.65338 9.90613 9.60468 9.89515C9.55597 9.88418 9.50557 9.88303 9.45641 9.89175C9.40725 9.90048 9.36033 9.91892 9.31838 9.94599C9.27642 9.97306 9.24029 10.0082 9.21208 10.0494L3.06808 18.8979C3.02852 18.9552 3.00527 19.0221 3.00079 19.0915C2.99632 19.161 3.0108 19.2303 3.04269 19.2922C3.07458 19.354 3.12267 19.406 3.18183 19.4427C3.241 19.4793 3.309 19.4992 3.37858 19.5002C3.49858 19.5002 3.61633 19.4439 3.68983 19.3374L9.61558 10.8017L12.8016 12.819C12.8424 12.8477 12.8884 12.8681 12.9371 12.879C12.9858 12.8899 13.0361 12.891 13.0853 12.8824C13.1344 12.8737 13.1813 12.8555 13.2234 12.8286C13.2654 12.8018 13.3018 12.7669 13.3303 12.726L18.9973 4.5645L18.3748 4.125Z" fill="#E13A33"/>
<path d="M19.262 4.05992C19.2538 4.0113 19.236 3.9648 19.2096 3.92313C19.1833 3.88145 19.1489 3.84544 19.1085 3.81717C19.0681 3.78891 19.0224 3.76896 18.9742 3.75849C18.9261 3.74801 18.8763 3.74723 18.8278 3.75617L16.8103 4.11242C16.7617 4.12084 16.7153 4.13877 16.6737 4.16518C16.6321 4.19158 16.5961 4.22595 16.5678 4.26629C16.5395 4.30664 16.5195 4.35218 16.5088 4.40029C16.4982 4.44841 16.4972 4.49815 16.5058 4.54667C16.514 4.59537 16.5318 4.64194 16.5583 4.68367C16.5847 4.7254 16.6191 4.76145 16.6596 4.78972C16.7001 4.818 16.7458 4.83793 16.7941 4.84835C16.8424 4.85877 16.8922 4.85947 16.9408 4.85042L18.62 4.62017L18.6245 4.61792L18.8803 6.20867C18.8872 6.25865 18.904 6.30674 18.9299 6.35004C18.9558 6.39334 18.9902 6.43097 19.031 6.46068C19.0718 6.49039 19.1181 6.51156 19.1673 6.52293C19.2164 6.53429 19.2674 6.53562 19.3171 6.52684C19.3668 6.51805 19.4142 6.49933 19.4564 6.47179C19.4987 6.44426 19.535 6.40847 19.5631 6.36658C19.5913 6.32469 19.6106 6.27756 19.6201 6.228C19.6296 6.17844 19.629 6.12748 19.6183 6.07817L19.262 4.05992Z" fill="#E13A33"/>
</g>
</g>
</svg>
