<svg width="25" height="24" viewBox="0 0 25 24" fill="none" xmlns="http://www.w3.org/2000/svg">
<g id="404 1" clip-path="url(#clip0_5741_2180)">
<path id="Vector" d="M22.0081 6.45477C22.0083 5.14619 21.1878 3.97807 19.9567 3.53448L15.0926 1.78339L15.1218 1.70234L15.0926 1.78343C13.4354 1.18677 11.622 1.18677 9.96475 1.78343L5.0943 3.53767C3.86431 3.98088 3.044 5.14744 3.04297 6.45486V14.2692C3.04297 16.2584 4.436 18.0024 6.17766 19.4034C7.91596 20.8016 9.98147 21.8419 11.2849 22.426L11.2851 22.4261C11.675 22.6021 12.0978 22.6932 12.5255 22.6932C12.9532 22.6932 13.3761 22.6021 13.7659 22.4261L13.7661 22.426C15.0695 21.8419 17.1351 20.8001 18.8734 19.401C20.6151 17.9992 22.0081 16.2553 22.0081 14.2692V6.45477Z" fill="white" stroke="#E1E4E5" stroke-width="0.172352"/>
<path id="Vector_2" fill-rule="evenodd" clip-rule="evenodd" d="M20.4426 13.8975V7.44347C20.4429 6.33271 19.7463 5.34112 18.7013 4.96458L14.684 3.51833C13.2997 3.01993 11.7849 3.01993 10.4006 3.51833L6.37799 4.96721C5.33388 5.34345 4.63758 6.33366 4.63672 7.44347V13.8975C4.63672 17.251 9.32844 19.7325 11.4859 20.6993C11.8171 20.8488 12.1763 20.9262 12.5397 20.9262C12.903 20.9262 13.2622 20.8488 13.5934 20.6993C15.7509 19.7325 20.4426 17.2457 20.4426 13.8975Z" fill="#5B90F8"/>
<path id="Vector_3" d="M15.8386 9.95312L11.7183 14.0465L9.24609 11.5905" stroke="white" stroke-width="1.33573" stroke-linecap="round" stroke-linejoin="round"/>
</g>
<defs>
<clipPath id="clip0_5741_2180">
<rect width="24" height="24" fill="white" transform="translate(0.5)"/>
</clipPath>
</defs>
</svg>
