<svg width="24" height="24" viewBox="0 0 24 24" fill="none" xmlns="http://www.w3.org/2000/svg">
<g id="location 2">
<path id="Vector" d="M12.4798 0.958984C10.1892 0.961614 7.99304 1.89299 6.37328 3.54879C4.75353 5.20458 3.84242 7.44957 3.83984 9.79121C3.83984 13.3848 6.39188 16.369 9.09512 19.5276C9.95048 20.5279 10.8361 21.5624 11.6245 22.609C11.7254 22.7428 11.855 22.8511 12.0032 22.9257C12.1515 23.0002 12.3146 23.039 12.4798 23.039C12.6451 23.039 12.8081 23.0002 12.9564 22.9257C13.1047 22.8511 13.2343 22.7428 13.3352 22.609C14.1236 21.5624 15.0092 20.5279 15.8646 19.5276C18.5678 16.369 21.1198 13.3848 21.1198 9.79121C21.1173 7.44957 20.2062 5.20458 18.5864 3.54879C16.9666 1.89299 14.7705 0.961614 12.4798 0.958984ZM12.4798 13.1033C11.839 13.1033 11.2126 12.909 10.6798 12.5451C10.147 12.1812 9.7317 11.6639 9.48647 11.0587C9.24125 10.4535 9.17708 9.78754 9.3021 9.14506C9.42712 8.50258 9.7357 7.91242 10.1888 7.44922C10.6419 6.98601 11.2193 6.67057 11.8478 6.54277C12.4762 6.41497 13.1277 6.48056 13.7197 6.73125C14.3118 6.98193 14.8178 7.40645 15.1738 7.95112C15.5298 8.49579 15.7198 9.13615 15.7198 9.79121C15.7198 10.6696 15.3785 11.5121 14.7709 12.1332C14.1633 12.7543 13.3391 13.1033 12.4798 13.1033Z" fill="black" fill-opacity="0.64"/>
</g>
</svg>
