<svg width="24" height="24" viewBox="0 0 24 24" fill="none" xmlns="http://www.w3.org/2000/svg">
<g id="star (1) 1">
<path id="Vector" d="M12.7428 3.87914L14.8771 8.20328C14.9365 8.3236 15.0243 8.42768 15.1328 8.50654C15.2414 8.5854 15.3675 8.63669 15.5003 8.65597L20.2722 9.34949C20.425 9.37168 20.5686 9.43621 20.6867 9.53578C20.8048 9.63534 20.8926 9.76597 20.9404 9.91287C20.9881 10.0598 20.9937 10.2171 20.9566 10.3671C20.9196 10.517 20.8413 10.6536 20.7306 10.7613L17.2771 14.1271C17.0818 14.3175 16.9933 14.5914 17.0388 14.8596L17.854 19.6124C17.88 19.7646 17.863 19.921 17.8048 20.0641C17.7466 20.2071 17.6496 20.331 17.5246 20.4217C17.3997 20.5125 17.2519 20.5665 17.0979 20.5776C16.9439 20.5887 16.7898 20.5565 16.6531 20.4847L12.3844 18.2402C12.2656 18.1779 12.1334 18.1453 11.9992 18.1453C11.865 18.1453 11.7328 18.1779 11.614 18.2402L7.34527 20.4847C7.20859 20.5565 7.05454 20.5887 6.90053 20.5776C6.74652 20.5665 6.59869 20.5125 6.47376 20.4217C6.34883 20.331 6.25178 20.2071 6.19358 20.0641C6.13538 19.921 6.11836 19.7646 6.14444 19.6124L6.95961 14.8596C6.98231 14.7273 6.97246 14.5915 6.93094 14.4639C6.88941 14.3363 6.81745 14.2207 6.72127 14.1271L3.26775 10.7613C3.1571 10.6536 3.07881 10.517 3.04175 10.3671C3.00469 10.2171 3.01033 10.0598 3.05804 9.91287C3.10575 9.76597 3.19361 9.63534 3.3117 9.53578C3.42978 9.43621 3.57338 9.37168 3.72623 9.34949L8.49809 8.65597C8.63088 8.63669 8.75699 8.5854 8.86555 8.50654C8.97412 8.42768 9.06187 8.3236 9.12127 8.20328L11.2556 3.87914C11.5618 3.26424 12.4391 3.26424 12.7428 3.87914Z" fill="#FFD911"/>
</g>
</svg>
