<svg width="18" height="20" viewBox="0 0 18 20" fill="none" xmlns="http://www.w3.org/2000/svg">
<path id="Vector" d="M16.4062 0.625H1.59375C1.17106 0.625 0.765685 0.792912 0.466798 1.0918C0.167912 1.39068 0 1.79606 0 2.21875V6.83219C0.00039526 7.13845 0.0890271 7.43812 0.255289 7.69533C0.421552 7.95253 0.658402 8.15639 0.9375 8.2825L6.80625 10.9497C5.93728 11.436 5.25414 12.1967 4.86383 13.1128C4.47353 14.0289 4.3981 15.0486 4.64937 16.0121C4.90063 16.9757 5.4644 17.8287 6.25236 18.4375C7.04032 19.0464 8.00797 19.3766 9.00375 19.3766C9.99952 19.3766 10.9672 19.0464 11.7551 18.4375C12.5431 17.8287 13.1069 16.9757 13.3581 16.0121C13.6094 15.0486 13.534 14.0289 13.1437 13.1128C12.7534 12.1967 12.0702 11.436 11.2013 10.9497L17.0625 8.2825C17.3416 8.15639 17.5784 7.95253 17.7447 7.69533C17.911 7.43812 17.9996 7.13845 18 6.83219V2.21875C18 1.79606 17.8321 1.39068 17.5332 1.0918C17.2343 0.792912 16.8289 0.625 16.4062 0.625ZM12 2.125V8.93781L9 10.3009L6 8.93781V2.125H12ZM1.5 6.83219V2.21875C1.5 2.19389 1.50988 2.17004 1.52746 2.15246C1.54504 2.13488 1.56889 2.125 1.59375 2.125H4.5V8.25531L1.55531 6.9175C1.53886 6.91011 1.5249 6.89812 1.51509 6.88299C1.50528 6.86786 1.50004 6.85022 1.5 6.83219ZM9 17.875C8.40666 17.875 7.82664 17.6991 7.33329 17.3694C6.83994 17.0398 6.45542 16.5712 6.22836 16.023C6.0013 15.4749 5.94189 14.8717 6.05764 14.2897C6.1734 13.7078 6.45912 13.1732 6.87868 12.7537C7.29824 12.3341 7.83279 12.0484 8.41473 11.9326C8.99667 11.8169 9.59987 11.8763 10.1481 12.1034C10.6962 12.3304 11.1648 12.7149 11.4944 13.2083C11.8241 13.7016 12 14.2817 12 14.875C12 15.6706 11.6839 16.4337 11.1213 16.9963C10.5587 17.5589 9.79565 17.875 9 17.875ZM16.5 6.83219C16.5 6.85022 16.4947 6.86786 16.4849 6.88299C16.4751 6.89812 16.4611 6.91011 16.4447 6.9175L13.5 8.25531V2.125H16.4062C16.4311 2.125 16.455 2.13488 16.4725 2.15246C16.4901 2.17004 16.5 2.19389 16.5 2.21875V6.83219Z" fill="#E13A33"/>
</svg>
