<svg width="25" height="24" viewBox="0 0 25 24" fill="none" xmlns="http://www.w3.org/2000/svg">
<g id="GlobeSimple">
<path id="Vector" d="M12.5 2.25C10.5716 2.25 8.68657 2.82183 7.08319 3.89317C5.47982 4.96451 4.23013 6.48726 3.49218 8.26884C2.75422 10.0504 2.56114 12.0108 2.93735 13.9021C3.31355 15.7934 4.24215 17.5307 5.60571 18.8943C6.96928 20.2579 8.70656 21.1865 10.5979 21.5627C12.4892 21.9389 14.4496 21.7458 16.2312 21.0078C18.0127 20.2699 19.5355 19.0202 20.6068 17.4168C21.6782 15.8134 22.25 13.9284 22.25 12C22.247 9.41505 21.2188 6.93683 19.391 5.109C17.5632 3.28116 15.085 2.25298 12.5 2.25ZM20.7144 11.25H16.9803C16.8125 7.82719 15.4944 5.40656 14.4134 3.975C16.0918 4.37804 17.602 5.29628 18.7321 6.60095C19.8623 7.90562 20.5558 9.53129 20.7153 11.25H20.7144ZM9.52157 12.75H15.4784C15.2619 16.6509 13.3944 19.0416 12.5 19.9688C11.6047 19.0406 9.73813 16.65 9.52157 12.75ZM9.52157 11.25C9.73813 7.34906 11.6056 4.95844 12.5 4.03125C13.3953 4.96219 15.2619 7.35281 15.4784 11.25H9.52157ZM10.5866 3.975C9.50563 5.40656 8.1875 7.82719 8.01969 11.25H4.28469C4.44425 9.53129 5.13773 7.90562 6.26788 6.60095C7.39803 5.29628 8.90818 4.37804 10.5866 3.975ZM4.28469 12.75H8.01969C8.19032 16.1728 9.50563 18.5934 10.5866 20.025C8.90818 19.622 7.39803 18.7037 6.26788 17.399C5.13773 16.0944 4.44425 14.4687 4.28469 12.75ZM14.4097 20.025C15.4906 18.5934 16.8059 16.1728 16.9766 12.75H20.7116C20.5522 14.4682 19.8593 16.0935 18.7299 17.3981C17.6005 18.7027 16.0911 19.6213 14.4134 20.025H14.4097Z" fill="black" fill-opacity="0.64"/>
</g>
</svg>
