<svg width="20" height="21" viewBox="0 0 20 21" fill="none" xmlns="http://www.w3.org/2000/svg">
<g id="MapPinSimpleArea">
<path id="Vector" d="M9.375 8.56186V14.2494C9.375 14.4151 9.44085 14.5741 9.55806 14.6913C9.67527 14.8085 9.83424 14.8744 10 14.8744C10.1658 14.8744 10.3247 14.8085 10.4419 14.6913C10.5592 14.5741 10.625 14.4151 10.625 14.2494V8.56186C11.3838 8.40698 12.058 7.97587 12.517 7.35212C12.976 6.72837 13.187 5.95641 13.1092 5.18591C13.0313 4.41541 12.6702 3.70125 12.0957 3.1819C11.5213 2.66255 10.7744 2.375 10 2.375C9.22558 2.375 8.47874 2.66255 7.90428 3.1819C7.32982 3.70125 6.96866 4.41541 6.89082 5.18591C6.81299 5.95641 7.02402 6.72837 7.483 7.35212C7.94199 7.97587 8.61622 8.40698 9.375 8.56186ZM10 3.62436C10.3708 3.62436 10.7334 3.73433 11.0417 3.94036C11.35 4.14638 11.5904 4.43922 11.7323 4.78183C11.8742 5.12444 11.9113 5.50144 11.839 5.86516C11.7666 6.22887 11.588 6.56296 11.3258 6.82519C11.0636 7.08741 10.7295 7.26599 10.3658 7.33834C10.0021 7.41068 9.62508 7.37355 9.28247 7.23164C8.93986 7.08972 8.64702 6.8494 8.44099 6.54106C8.23497 6.23271 8.125 5.8702 8.125 5.49936C8.125 5.00208 8.32254 4.52517 8.67417 4.17354C9.02581 3.82191 9.50272 3.62436 10 3.62436ZM18.75 14.2494C18.75 16.6853 14.2414 17.9994 10 17.9994C5.75859 17.9994 1.25 16.6853 1.25 14.2494C1.25 13.6447 1.54766 12.7548 2.96875 11.9517C3.92656 11.4095 5.24375 10.9931 6.77891 10.747C6.86011 10.7342 6.94305 10.7375 7.02298 10.7567C7.10291 10.7759 7.17827 10.8107 7.24475 10.8591C7.31124 10.9074 7.36756 10.9684 7.41048 11.0385C7.4534 11.1086 7.4821 11.1865 7.49492 11.2677C7.50775 11.3489 7.50445 11.4319 7.48522 11.5118C7.466 11.5917 7.43121 11.6671 7.38286 11.7336C7.33451 11.8001 7.27354 11.8564 7.20342 11.8993C7.13331 11.9422 7.05542 11.9709 6.97422 11.9837C5.60391 12.2041 4.39609 12.5798 3.58203 13.0423C2.89453 13.429 2.5 13.8697 2.5 14.2494C2.5 15.2931 5.35313 16.7494 10 16.7494C14.6469 16.7494 17.5 15.2931 17.5 14.2494C17.5 13.8697 17.1055 13.429 16.418 13.0392C15.6008 12.5767 14.3961 12.2009 13.0258 11.9806C12.9429 11.9698 12.8629 11.9424 12.7908 11.9001C12.7186 11.8579 12.6557 11.8015 12.6057 11.7345C12.5557 11.6674 12.5197 11.591 12.4997 11.5098C12.4798 11.4286 12.4764 11.3442 12.4897 11.2616C12.5029 11.179 12.5327 11.1 12.5771 11.0291C12.6215 10.9582 12.6796 10.897 12.7481 10.849C12.8166 10.801 12.8941 10.7673 12.9758 10.7497C13.0576 10.7322 13.1421 10.7313 13.2242 10.747C14.7594 10.9931 16.0766 11.4095 17.0344 11.9517C18.4523 12.7548 18.75 13.6447 18.75 14.2494Z" fill="black" fill-opacity="0.64"/>
</g>
</svg>
