<svg width="21" height="18" viewBox="0 0 21 18" fill="none" xmlns="http://www.w3.org/2000/svg">
<path id="Vector" d="M15.1875 0.00195312C13.2516 0.00195312 11.5566 0.834453 10.5 2.24164C9.44344 0.834453 7.74844 0.00195312 5.8125 0.00195312C4.27146 0.00369007 2.79404 0.616635 1.70436 1.70631C0.614681 2.79599 0.00173694 4.27342 0 5.81445C0 12.377 9.73031 17.6888 10.1447 17.9082C10.2539 17.967 10.376 17.9977 10.5 17.9977C10.624 17.9977 10.7461 17.967 10.8553 17.9082C11.2697 17.6888 21 12.377 21 5.81445C20.9983 4.27342 20.3853 2.79599 19.2956 1.70631C18.206 0.616635 16.7285 0.00369007 15.1875 0.00195312ZM10.5 16.3895C8.78813 15.392 1.5 10.8479 1.5 5.81445C1.50149 4.67116 1.95632 3.57513 2.76475 2.7667C3.57317 1.95827 4.66921 1.50344 5.8125 1.50195C7.63594 1.50195 9.16687 2.4732 9.80625 4.0332C9.86275 4.17076 9.95888 4.28842 10.0824 4.37122C10.2059 4.45402 10.3513 4.49823 10.5 4.49823C10.6487 4.49823 10.7941 4.45402 10.9176 4.37122C11.0411 4.28842 11.1372 4.17076 11.1937 4.0332C11.8331 2.47039 13.3641 1.50195 15.1875 1.50195C16.3308 1.50344 17.4268 1.95827 18.2353 2.7667C19.0437 3.57513 19.4985 4.67116 19.5 5.81445C19.5 10.8404 12.21 15.391 10.5 16.3895Z" fill="#E13A33"/>
</svg>
