<svg width="21" height="20" viewBox="0 0 21 20" fill="none" xmlns="http://www.w3.org/2000/svg">
<path id="Vector" d="M20.4375 6.63625C20.2263 6.39693 19.9666 6.20528 19.6757 6.07403C19.3847 5.94278 19.0692 5.87494 18.75 5.875H13.5V4.375C13.5 3.38044 13.1049 2.42661 12.4017 1.72335C11.6984 1.02009 10.7446 0.625 9.75 0.625C9.61067 0.6249 9.47406 0.663617 9.3555 0.736808C9.23693 0.809999 9.1411 0.914771 9.07875 1.03938L5.53687 8.125H1.5C1.10218 8.125 0.720644 8.28304 0.43934 8.56434C0.158035 8.84564 0 9.22718 0 9.625V17.875C0 18.2728 0.158035 18.6544 0.43934 18.9357C0.720644 19.217 1.10218 19.375 1.5 19.375H17.625C18.1732 19.3752 18.7025 19.1753 19.1137 18.8128C19.5249 18.4503 19.7896 17.9501 19.8581 17.4062L20.9831 8.40625C21.023 8.0894 20.995 7.76768 20.9009 7.4625C20.8068 7.15732 20.6488 6.87566 20.4375 6.63625ZM1.5 9.625H5.25V17.875H1.5V9.625ZM19.4944 8.21875L18.3694 17.2188C18.3465 17.4 18.2583 17.5668 18.1212 17.6876C17.9842 17.8084 17.8077 17.8751 17.625 17.875H6.75V9.05219L10.1916 2.16813C10.7016 2.27021 11.1606 2.5459 11.4903 2.94826C11.82 3.35062 12.0001 3.8548 12 4.375V6.625C12 6.82391 12.079 7.01468 12.2197 7.15533C12.3603 7.29598 12.5511 7.375 12.75 7.375H18.75C18.8564 7.37496 18.9616 7.39758 19.0587 7.44134C19.1557 7.48511 19.2423 7.54902 19.3127 7.62883C19.3831 7.70863 19.4357 7.80252 19.467 7.90423C19.4984 8.00594 19.5077 8.11316 19.4944 8.21875Z" fill="#2377E6"/>
</svg>
