<svg width="37" height="24" viewBox="0 0 37 24" fill="none" xmlns="http://www.w3.org/2000/svg">
<g id="377 1" clip-path="url(#clip0_5713_909)">
<path id="Vector" d="M31.3669 15.2448H28.8803C28.2711 15.2448 27.7605 14.8301 27.7605 14.3048C27.7605 14.0422 27.8923 13.8072 28.0899 13.6413C28.2875 13.4754 28.5675 13.3648 28.8803 13.3648H29.2426C29.5555 13.3648 29.8355 13.2543 30.0331 13.0884C30.2307 12.9225 30.3624 12.6875 30.3624 12.4249C30.3624 11.9134 29.8684 11.4849 29.2426 11.4849H21.6477C21.4493 11.4849 21.3217 11.241 21.3217 11.0426C21.3217 10.545 20.8442 10.1441 20.2514 10.1441H17.425C17.3535 10.1441 17.285 10.1157 17.2344 10.0652C17.1839 10.0146 17.1555 9.94604 17.1555 9.87455C17.1555 9.80306 17.1839 9.7345 17.2344 9.68394C17.285 9.63339 17.3535 9.60499 17.425 9.60499H28.2546C28.7321 9.60499 29.1768 9.43911 29.4897 9.17647C29.8025 8.91383 30.0001 8.54063 30.0001 8.13975C30.0001 7.32419 29.2097 6.67451 28.2546 6.67451H22.6613C21.7836 6.67451 20.9149 5.99719 20.0373 5.99719H16.9145C16.4564 5.99719 16.0851 5.62587 16.0851 5.16783C16.0851 4.70979 16.4564 4.33843 16.9145 4.33843H23.9071C24.2365 4.33843 24.5494 4.22787 24.7635 4.04815C24.9776 3.86847 25.1093 3.61967 25.1093 3.32935C25.1093 2.77647 24.5659 2.32031 23.9071 2.32031H7.78547C7.45611 2.32031 7.14323 2.43087 6.92915 2.61059C6.71507 2.79027 6.58331 3.03911 6.58331 3.32939C6.58331 3.88231 7.12675 4.33843 7.78547 4.33843H8.19715C8.74059 4.33843 9.20167 4.71167 9.20167 5.18163C9.20167 5.41663 9.08639 5.62399 8.90523 5.77603C8.72411 5.92807 8.47707 6.02483 8.19715 6.02483H6.20455C5.85875 6.02483 5.52939 6.14927 5.29887 6.34279C5.06831 6.53631 4.92011 6.79895 4.92011 7.10303C4.92011 7.69743 5.49647 8.16739 6.18811 8.16739H8.21359C8.87231 8.16739 9.41575 8.62355 9.41575 9.17647C9.41575 9.45295 9.28399 9.70175 9.06991 9.88147C8.85583 10.0612 8.55943 10.1718 8.23007 10.1718H6.41863C6.12223 10.1718 5.85875 10.2685 5.66115 10.4344C5.46355 10.6003 5.34827 10.8214 5.34827 11.0702C5.34827 11.5679 5.82583 11.9687 6.41863 11.9687H7.88427C8.72411 11.9687 9.39927 12.5355 9.39927 13.2404C9.39927 13.586 9.23459 13.9178 8.95463 14.139C8.67471 14.3739 8.29595 14.5122 7.88427 14.5122H5.84227C5.43059 14.5122 5.05183 14.6504 4.78835 14.8854C4.50843 15.1066 4.34375 15.4245 4.34375 15.77C4.34375 16.4612 5.01891 17.0279 5.84227 17.0279H12.1476C12.8439 17.0279 13.5279 17.415 14.2243 17.415H15.3726C15.8116 17.415 16.1674 17.7708 16.1674 18.2098C16.1674 18.6488 15.8116 19.0046 15.3726 19.0046H12.5775C12.2152 19.0046 11.9024 19.129 11.6718 19.3226C11.4412 19.5161 11.293 19.7925 11.293 20.0828C11.293 20.6772 11.8694 21.161 12.5775 21.161H29.7037C30.066 21.161 30.3789 21.0366 30.6095 20.8431C30.84 20.6496 30.9882 20.3731 30.9882 20.0828C30.9882 19.4884 30.4118 19.0046 29.7037 19.0046H29.1932C28.6663 19.0046 28.2546 18.6452 28.2546 18.2167C28.2546 17.9956 28.3534 17.802 28.5345 17.6638C28.6992 17.5256 28.9462 17.4288 29.2097 17.4288H31.3669C31.7292 17.4288 32.0421 17.3044 32.2727 17.1109C32.5032 16.9174 32.6514 16.6409 32.6514 16.3506C32.6514 15.7286 32.0751 15.2448 31.3669 15.2448Z" fill="url(#paint0_linear_5713_909)"/>
<path id="Vector_2" d="M33.3158 13.7617C32.8964 13.9697 32.3398 13.7022 32.3398 13.7022C32.3398 13.7022 32.4635 13.0975 32.8831 12.8898C33.3025 12.6818 33.8589 12.949 33.8589 12.949C33.8589 12.949 33.7352 13.5536 33.3158 13.7617Z" fill="url(#paint1_linear_5713_909)"/>
<path id="Vector_3" d="M3.96357 13.5454C4.57593 13.9124 5.45449 13.5731 5.45449 13.5731C5.45449 13.5731 5.33965 12.6389 4.72689 12.2723C4.11449 11.9053 3.23633 12.2441 3.23633 12.2441C3.23633 12.2441 3.35121 13.1783 3.96357 13.5454Z" fill="url(#paint2_linear_5713_909)"/>
<path id="Vector_4" d="M31.8402 7.3054C31.6829 7.3054 31.5554 7.43291 31.5554 7.5902C31.5554 7.74749 31.6829 7.875 31.8402 7.875C31.9975 7.875 32.125 7.74749 32.125 7.5902C32.125 7.43291 31.9975 7.3054 31.8402 7.3054Z" fill="#E13A33"/>
<path id="Vector_5" d="M28.3315 18.6748C28.0357 18.6748 27.7959 18.9146 27.7959 19.2105C27.7959 19.5063 28.0357 19.7461 28.3315 19.7461C28.6274 19.7461 28.8672 19.5063 28.8672 19.2105C28.8672 18.9146 28.6274 18.6748 28.3315 18.6748Z" fill="#E13A33"/>
<path id="Vector_6" d="M8.2682 19.1199C8.03339 19.1199 7.84304 18.9295 7.84304 18.6947C7.84304 18.4599 8.03339 18.2695 8.2682 18.2695C8.50301 18.2695 8.69336 18.4599 8.69336 18.6947C8.69336 18.9295 8.50301 19.1199 8.2682 19.1199Z" fill="#E13A33"/>
<path id="Vector_7" d="M10.938 7.74319C10.7808 7.74319 10.6533 7.61573 10.6533 7.45851C10.6533 7.30128 10.7808 7.17383 10.938 7.17383C11.0952 7.17383 11.2227 7.30128 11.2227 7.45851C11.2227 7.61573 11.0952 7.74319 10.938 7.74319Z" fill="#E13A33"/>
<path id="Vector_8" d="M3.6198 19.4557C3.32784 19.4557 3.09116 19.219 3.09116 18.9271C3.09116 18.6351 3.32784 18.3984 3.6198 18.3984C3.91176 18.3984 4.14844 18.6351 4.14844 18.9271C4.14844 19.219 3.91176 19.4557 3.6198 19.4557Z" fill="#E1E4E5"/>
<path id="Vector_9" d="M32.2637 19.545C32.0414 19.545 31.8613 19.3648 31.8613 19.1426C31.8613 18.9204 32.0414 18.7402 32.2637 18.7402C32.4859 18.7402 32.666 18.9204 32.666 19.1426C32.666 19.3648 32.4859 19.545 32.2637 19.545Z" fill="#E1E4E5"/>
<path id="Vector_10" d="M27.2774 5.39629C26.9981 5.39629 26.7717 5.16985 26.7717 4.89053C26.7717 4.6112 26.9981 4.38477 27.2774 4.38477C27.5568 4.38477 27.7832 4.6112 27.7832 4.89053C27.7832 5.16985 27.5568 5.39629 27.2774 5.39629Z" fill="#E1E4E5"/>
<path id="Vector_11" d="M7.9776 9.28163C8.03502 9.49591 7.90786 9.71617 7.69357 9.77359C7.47929 9.831 7.25904 9.70384 7.20162 9.48956C7.1442 9.27527 7.27137 9.05502 7.48565 8.9976C7.69993 8.94018 7.92019 9.06735 7.9776 9.28163Z" fill="#E1E4E5"/>
<path id="Vector_12" d="M12.1531 4.91255C11.858 4.91255 11.6187 4.67329 11.6187 4.37815C11.6187 4.08301 11.858 3.84375 12.1531 3.84375C12.4482 3.84375 12.6875 4.08301 12.6875 4.37815C12.6875 4.67329 12.4482 4.91255 12.1531 4.91255Z" fill="#E1E4E5"/>
<path id="Vector_13" d="M29.8936 14.6362C29.6666 14.6362 29.4825 14.489 29.4825 14.3074C29.4825 14.1257 29.6666 13.9785 29.8936 13.9785C30.1206 13.9785 30.3047 14.1257 30.3047 14.3074C30.3047 14.489 30.1206 14.6362 29.8936 14.6362Z" fill="#E1E4E5"/>
<path id="Vector_14" d="M23.0973 4.21467C23.0973 4.57702 22.8036 4.87075 22.4412 4.87075C22.0789 4.87075 21.7852 4.57702 21.7852 4.21467C21.7852 3.85233 22.0789 3.55859 22.4412 3.55859C22.8036 3.55859 23.0973 3.85233 23.0973 4.21467Z" fill="#E1E4E5"/>
<path id="Vector_15" d="M8.29055 4.88281H8.29638C8.33106 5.37409 8.69646 5.38165 8.69646 5.38165C8.69646 5.38165 8.29354 5.38953 8.29354 5.95725C8.29354 5.38953 7.89062 5.38165 7.89062 5.38165C7.89062 5.38165 8.25587 5.37409 8.29055 4.88281ZM8.64766 20.6456H8.65326C8.68658 21.1354 9.03739 21.143 9.03739 21.143C9.03739 21.143 8.65055 21.1508 8.65055 21.7168C8.65055 21.1508 8.2637 21.143 8.2637 21.143C8.2637 21.143 8.61434 21.1354 8.64766 20.6456Z" fill="#E1E4E5"/>
<path id="Vector_16" fill-rule="evenodd" clip-rule="evenodd" d="M22.5836 6.29985L23.7163 4.03429C24.4374 2.59217 22.9395 1.04653 21.4758 1.72213L18.4994 3.09601L15.523 1.72213C14.0593 1.04653 12.5615 2.59105 13.2825 4.03429L14.4153 6.29985M13.6659 9.71209L11.713 12.8363C10.3244 15.0587 10.4666 17.9111 12.0702 19.9844C13.2553 21.5175 15.0841 22.4137 17.0221 22.4137H19.978C21.9149 22.4137 23.7437 21.5164 24.9288 19.9844C26.5336 17.9111 26.6757 15.0587 25.2871 12.8352C24.6672 11.8423 23.9871 10.755 23.3343 9.70981" fill="#E13A33"/>
<path id="Vector_17" d="M21.5389 14.8816C22.4566 15.7993 22.4566 17.2872 21.5389 18.2049C20.6212 19.1226 19.1333 19.1226 18.2156 18.2049C17.2979 17.2872 17.2979 15.7993 18.2156 14.8816C19.1333 13.9639 20.6212 13.9639 21.5389 14.8816Z" stroke="white" stroke-width="1.35952" stroke-linecap="round" stroke-linejoin="round"/>
<path id="Vector_18" d="M19.436 14.2361C19.359 13.7683 19.1454 13.3186 18.7844 12.9576C17.8669 12.0402 16.379 12.0402 15.4615 12.9576C14.5441 13.8751 14.5441 15.363 15.4615 16.2805C16.0328 16.8518 16.8244 17.0663 17.5622 16.9263" stroke="white" stroke-width="1.35952" stroke-linecap="round" stroke-linejoin="round"/>
<path id="Vector_19" fill-rule="evenodd" clip-rule="evenodd" d="M22.0848 6.8125H14.9139C14.4741 6.8125 14.1172 7.16942 14.1172 7.60926V8.40602C14.1172 8.84582 14.4741 9.20278 14.9139 9.20278H22.0848C22.5246 9.20278 22.8816 8.84582 22.8816 8.40602V7.60926C22.8816 7.16942 22.5246 6.8125 22.0848 6.8125Z" fill="#E13A33"/>
</g>
<defs>
<linearGradient id="paint0_linear_5713_909" x1="19.1011" y1="31.7242" x2="18.7145" y2="-18.1789" gradientUnits="userSpaceOnUse">
<stop stop-color="white"/>
<stop offset="1" stop-color="#EEEEEE"/>
</linearGradient>
<linearGradient id="paint1_linear_5713_909" x1="31.7054" y1="14.4105" x2="35.1644" y2="11.6745" gradientUnits="userSpaceOnUse">
<stop stop-color="white"/>
<stop offset="1" stop-color="#EEEEEE"/>
</linearGradient>
<linearGradient id="paint2_linear_5713_909" x1="6.33329" y1="14.7268" x2="1.40593" y2="10.1486" gradientUnits="userSpaceOnUse">
<stop stop-color="white"/>
<stop offset="1" stop-color="#EEEEEE"/>
</linearGradient>
<clipPath id="clip0_5713_909">
<rect width="36" height="24" fill="white" transform="translate(0.5)"/>
</clipPath>
</defs>
</svg>
