<svg width="23" height="24" viewBox="0 0 23 24" fill="none" xmlns="http://www.w3.org/2000/svg">
<path id="Vector" d="M19.0332 16.6582C20.1459 15.7477 21.0347 14.6056 21.6343 13.3161C22.2339 12.0266 22.529 10.6225 22.4978 9.2072C22.3878 4.30948 18.3612 0.271091 13.3426 0.0139367C12.0477 -0.0547251 10.7518 0.130817 9.53199 0.559544C8.31214 0.988272 7.19316 1.65144 6.24152 2.50967C5.28988 3.36789 4.52498 4.40367 3.99224 5.55549C3.4595 6.70731 3.1698 7.95168 3.14032 9.2147L0.671151 13.8413C0.661252 13.8606 0.651353 13.8799 0.642554 13.8992C0.465533 14.3012 0.452916 14.7538 0.607287 15.1646C0.761659 15.5753 1.07134 15.913 1.47294 16.1086L1.50044 16.1204L4.02021 17.2443V20.5723C4.02021 21.027 4.20561 21.4631 4.53563 21.7846C4.86565 22.1061 5.31325 22.2867 5.77997 22.2867H11.0593C11.2926 22.2867 11.5164 22.1964 11.6814 22.0356C11.8465 21.8749 11.9392 21.6569 11.9392 21.4295C11.9392 21.2022 11.8465 20.9842 11.6814 20.8234C11.5164 20.6627 11.2926 20.5723 11.0593 20.5723H5.77997V16.6947C5.7801 16.5304 5.73175 16.3695 5.64069 16.2312C5.54963 16.0929 5.41969 15.983 5.26634 15.9146L2.26044 14.5721L4.7978 9.82116C4.86394 9.70041 4.89904 9.56585 4.90009 9.429C4.89983 7.68071 5.50914 5.98419 6.62816 4.61741C7.74718 3.25064 9.30956 2.29467 11.0593 1.90616V3.57659C10.4722 3.7788 9.97741 4.17668 9.66234 4.69991C9.34728 5.22315 9.23223 5.83804 9.33752 6.43592C9.44282 7.0338 9.76168 7.57617 10.2378 7.96716C10.7138 8.35816 11.3165 8.57261 11.9392 8.57261C12.5618 8.57261 13.1645 8.35816 13.6406 7.96716C14.1166 7.57617 14.4355 7.0338 14.5408 6.43592C14.6461 5.83804 14.531 5.22315 14.216 4.69991C13.9009 4.17668 13.4061 3.7788 12.819 3.57659V1.71437C12.962 1.71437 13.105 1.71437 13.248 1.72508C14.8083 1.81216 16.3077 2.34548 17.5585 3.25835C18.8093 4.17122 19.7561 5.42312 20.2805 6.85745H18.0983C17.9693 6.85741 17.8418 6.88503 17.7249 6.93836C17.608 6.99169 17.5045 7.06942 17.4219 7.16604L14.6162 10.4469C14.031 10.2345 13.3876 10.2305 12.7998 10.4357C12.2119 10.6409 11.7174 11.042 11.4038 11.568C11.0902 12.0941 10.9777 12.7113 11.0862 13.3104C11.1947 13.9095 11.5171 14.4519 11.9965 14.8417C12.4759 15.2316 13.0814 15.4437 13.7058 15.4406C14.3303 15.4374 14.9335 15.2193 15.4088 14.8246C15.884 14.43 16.2007 13.8844 16.3028 13.2842C16.405 12.6841 16.2859 12.0681 15.9668 11.5452L18.5108 8.57182H20.6874C20.7138 8.79468 20.7299 9.01969 20.7358 9.24685C20.7632 10.4746 20.4905 11.6911 19.9401 12.7959C19.3897 13.9007 18.5775 14.8621 17.5704 15.6007C17.4463 15.6913 17.349 15.8123 17.2884 15.9513C17.2277 16.0904 17.2059 16.2426 17.2251 16.3925L18.1049 23.25C18.1317 23.457 18.2351 23.6474 18.3956 23.7854C18.5562 23.9235 18.763 23.9998 18.9771 24C19.0139 24 19.0506 23.9978 19.0871 23.9936C19.2018 23.9797 19.3126 23.9439 19.413 23.8883C19.5135 23.8326 19.6018 23.7583 19.6728 23.6694C19.7438 23.5806 19.7961 23.479 19.8267 23.3704C19.8574 23.2618 19.8658 23.1485 19.8515 23.0367L19.0332 16.6582ZM11.9392 6.85745C11.7651 6.85745 11.595 6.80718 11.4503 6.71299C11.3056 6.6188 11.1928 6.48493 11.1263 6.3283C11.0597 6.17167 11.0422 5.99932 11.0762 5.83305C11.1101 5.66677 11.1939 5.51403 11.317 5.39416C11.44 5.27428 11.5968 5.19264 11.7675 5.15956C11.9382 5.12649 12.1151 5.14346 12.2759 5.20834C12.4367 5.27322 12.5741 5.38309 12.6708 5.52405C12.7674 5.66501 12.819 5.83074 12.819 6.00027C12.819 6.22761 12.7263 6.44564 12.5613 6.60639C12.3963 6.76714 12.1725 6.85745 11.9392 6.85745ZM13.6989 13.7149C13.5249 13.7149 13.3548 13.6646 13.2101 13.5704C13.0654 13.4763 12.9526 13.3424 12.886 13.1857C12.8194 13.0291 12.802 12.8568 12.8359 12.6905C12.8699 12.5242 12.9537 12.3715 13.0768 12.2516C13.1998 12.1317 13.3566 12.0501 13.5273 12.017C13.6979 11.9839 13.8749 12.0009 14.0356 12.0658C14.1964 12.1307 14.3338 12.2405 14.4305 12.3815C14.5272 12.5225 14.5788 12.6882 14.5788 12.8577C14.5788 13.0851 14.4861 13.3031 14.3211 13.4638C14.1561 13.6246 13.9323 13.7149 13.6989 13.7149Z" fill="white"/>
</svg>
