<svg width="25" height="24" viewBox="0 0 25 24" fill="none" xmlns="http://www.w3.org/2000/svg">
<g id="StarFour">
<path id="Vector" d="M22.0151 10.5933L16.0676 8.43138L13.9058 2.48388C13.7992 2.19682 13.6073 1.94924 13.356 1.7744C13.1046 1.59957 12.8057 1.50586 12.4995 1.50586C12.1933 1.50586 11.8944 1.59957 11.6431 1.7744C11.3917 1.94924 11.1998 2.19682 11.0933 2.48388L8.93138 8.43138L2.98388 10.5933C2.69682 10.6998 2.44924 10.8917 2.2744 11.1431C2.09957 11.3944 2.00586 11.6933 2.00586 11.9995C2.00586 12.3057 2.09957 12.6046 2.2744 12.856C2.44924 13.1073 2.69682 13.2992 2.98388 13.4058L8.93138 15.5686L11.0933 21.5151C11.1998 21.8022 11.3917 22.0498 11.6431 22.2246C11.8944 22.3994 12.1933 22.4932 12.4995 22.4932C12.8057 22.4932 13.1046 22.3994 13.356 22.2246C13.6073 22.0498 13.7992 21.8022 13.9058 21.5151L16.0686 15.5676L22.0151 13.4058C22.3022 13.2992 22.5498 13.1073 22.7246 12.856C22.8994 12.6046 22.9932 12.3057 22.9932 11.9995C22.9932 11.6933 22.8994 11.3944 22.7246 11.1431C22.5498 10.8917 22.3022 10.6998 22.0151 10.5933ZM15.2258 14.2776C15.1229 14.3151 15.0295 14.3746 14.952 14.452C14.8746 14.5295 14.8151 14.6229 14.7776 14.7258L12.4995 20.9901L10.2214 14.7258C10.1839 14.6229 10.1244 14.5295 10.047 14.452C9.96956 14.3746 9.87613 14.3151 9.77326 14.2776L3.50888 11.9995L9.77326 9.72138C9.87613 9.68392 9.96956 9.62439 10.047 9.54698C10.1244 9.46956 10.1839 9.37613 10.2214 9.27326L12.4995 3.00888L14.7776 9.27326C14.8151 9.37613 14.8746 9.46956 14.952 9.54698C15.0295 9.62439 15.1229 9.68392 15.2258 9.72138L21.4901 11.9995L15.2258 14.2776Z" fill="black" fill-opacity="0.8"/>
</g>
</svg>
