<svg width="21" height="22" viewBox="0 0 21 22" fill="none" xmlns="http://www.w3.org/2000/svg">
<path id="Vector" d="M19.6744 8.63937C19.3209 8.27 18.9553 7.88938 18.8175 7.55469C18.69 7.24813 18.6825 6.74 18.675 6.24781C18.6609 5.33281 18.6459 4.29594 17.925 3.575C17.2041 2.85406 16.1672 2.83906 15.2522 2.825C14.76 2.8175 14.2519 2.81 13.9453 2.6825C13.6116 2.54469 13.23 2.17906 12.8606 1.82562C12.2137 1.20406 11.4788 0.5 10.5 0.5C9.52125 0.5 8.78719 1.20406 8.13937 1.82562C7.77 2.17906 7.38938 2.54469 7.05469 2.6825C6.75 2.81 6.24 2.8175 5.74781 2.825C4.83281 2.83906 3.79594 2.85406 3.075 3.575C2.35406 4.29594 2.34375 5.33281 2.325 6.24781C2.3175 6.74 2.31 7.24813 2.1825 7.55469C2.04469 7.88844 1.67906 8.27 1.32562 8.63937C0.704062 9.28625 0 10.0212 0 11C0 11.9788 0.704062 12.7128 1.32562 13.3606C1.67906 13.73 2.04469 14.1106 2.1825 14.4453C2.31 14.7519 2.3175 15.26 2.325 15.7522C2.33906 16.6672 2.35406 17.7041 3.075 18.425C3.79594 19.1459 4.83281 19.1609 5.74781 19.175C6.24 19.1825 6.74813 19.19 7.05469 19.3175C7.38844 19.4553 7.77 19.8209 8.13937 20.1744C8.78625 20.7959 9.52125 21.5 10.5 21.5C11.4788 21.5 12.2128 20.7959 12.8606 20.1744C13.23 19.8209 13.6106 19.4553 13.9453 19.3175C14.2519 19.19 14.76 19.1825 15.2522 19.175C16.1672 19.1609 17.2041 19.1459 17.925 18.425C18.6459 17.7041 18.6609 16.6672 18.675 15.7522C18.6825 15.26 18.69 14.7519 18.8175 14.4453C18.9553 14.1116 19.3209 13.73 19.6744 13.3606C20.2959 12.7137 21 11.9788 21 11C21 10.0212 20.2959 9.28719 19.6744 8.63937ZM18.5916 12.3228C18.1425 12.7916 17.6775 13.2763 17.4309 13.8716C17.1947 14.4434 17.1844 15.0969 17.175 15.7297C17.1656 16.3859 17.1553 17.0731 16.8638 17.3638C16.5722 17.6544 15.8897 17.6656 15.2297 17.675C14.5969 17.6844 13.9434 17.6947 13.3716 17.9309C12.7763 18.1775 12.2916 18.6425 11.8228 19.0916C11.3541 19.5406 10.875 20 10.5 20C10.125 20 9.64219 19.5387 9.17719 19.0916C8.71219 18.6444 8.22375 18.1775 7.62844 17.9309C7.05656 17.6947 6.40313 17.6844 5.77031 17.675C5.11406 17.6656 4.42688 17.6553 4.13625 17.3638C3.84562 17.0722 3.83437 16.3897 3.825 15.7297C3.81562 15.0969 3.80531 14.4434 3.56906 13.8716C3.3225 13.2763 2.8575 12.7916 2.40844 12.3228C1.95937 11.8541 1.5 11.375 1.5 11C1.5 10.625 1.96125 10.1422 2.40844 9.67719C2.85562 9.21219 3.3225 8.72375 3.56906 8.12844C3.80531 7.55656 3.81562 6.90313 3.825 6.27031C3.83437 5.61406 3.84469 4.92688 4.13625 4.63625C4.42781 4.34562 5.11031 4.33437 5.77031 4.325C6.40313 4.31562 7.05656 4.30531 7.62844 4.06906C8.22375 3.8225 8.70844 3.3575 9.17719 2.90844C9.64594 2.45937 10.125 2 10.5 2C10.875 2 11.3578 2.46125 11.8228 2.90844C12.2878 3.35562 12.7763 3.8225 13.3716 4.06906C13.9434 4.30531 14.5969 4.31562 15.2297 4.325C15.8859 4.33437 16.5731 4.34469 16.8638 4.63625C17.1544 4.92781 17.1656 5.61031 17.175 6.27031C17.1844 6.90313 17.1947 7.55656 17.4309 8.12844C17.6775 8.72375 18.1425 9.20844 18.5916 9.67719C19.0406 10.1459 19.5 10.625 19.5 11C19.5 11.375 19.0387 11.8578 18.5916 12.3228ZM14.7806 8.21937C14.8504 8.28903 14.9057 8.37175 14.9434 8.46279C14.9812 8.55384 15.0006 8.65144 15.0006 8.75C15.0006 8.84856 14.9812 8.94616 14.9434 9.0372C14.9057 9.12825 14.8504 9.21097 14.7806 9.28063L9.53063 14.5306C9.46097 14.6004 9.37825 14.6557 9.2872 14.6934C9.19616 14.7312 9.09856 14.7506 9 14.7506C8.90144 14.7506 8.80384 14.7312 8.7128 14.6934C8.62175 14.6557 8.53903 14.6004 8.46937 14.5306L6.21937 12.2806C6.07864 12.1399 5.99958 11.949 5.99958 11.75C5.99958 11.551 6.07864 11.3601 6.21937 11.2194C6.36011 11.0786 6.55098 10.9996 6.75 10.9996C6.94902 10.9996 7.13989 11.0786 7.28063 11.2194L9 12.9397L13.7194 8.21937C13.789 8.14964 13.8717 8.09432 13.9628 8.05658C14.0538 8.01884 14.1514 7.99941 14.25 7.99941C14.3486 7.99941 14.4462 8.01884 14.5372 8.05658C14.6283 8.09432 14.711 8.14964 14.7806 8.21937Z" fill="#2377E6"/>
</svg>
