<svg width="25" height="24" viewBox="0 0 25 24" fill="none" xmlns="http://www.w3.org/2000/svg">
<g id="GoogleLogo">
<path id="Vector" d="M21.5 11.9995C21.5001 14.1187 20.7524 16.1699 19.3887 17.7919C18.0249 19.414 16.1325 20.5027 14.0448 20.8665C11.9571 21.2302 9.80798 20.8456 7.97601 19.7803C6.14404 18.7151 4.74671 17.0376 4.03014 15.0433C3.31357 13.049 3.32371 10.8657 4.05879 8.87816C4.79387 6.89058 6.20672 5.22613 8.04851 4.17798C9.8903 3.12983 12.0429 2.7652 14.1271 3.14832C16.2114 3.53145 18.0935 4.63774 19.4422 6.27236C19.5091 6.3477 19.5602 6.43576 19.5924 6.53127C19.6245 6.62679 19.6371 6.72782 19.6294 6.8283C19.6216 6.92879 19.5937 7.02669 19.5472 7.11614C19.5008 7.20559 19.4368 7.28477 19.3591 7.34894C19.2814 7.41311 19.1915 7.46095 19.0949 7.48962C18.9983 7.51828 18.8968 7.52717 18.7967 7.51577C18.6966 7.50436 18.5998 7.47289 18.512 7.42323C18.4243 7.37357 18.3475 7.30674 18.2863 7.22674C17.1832 5.88922 15.6508 4.97518 13.9497 4.64009C12.2487 4.30501 10.4842 4.56959 8.95621 5.38881C7.42827 6.20804 6.23133 7.53132 5.56902 9.13353C4.90671 10.7357 4.81994 12.5179 5.32346 14.1769C5.82699 15.8359 6.8897 17.2692 8.33083 18.233C9.77196 19.1968 11.5025 19.6315 13.228 19.4633C14.9535 19.295 16.5675 18.5342 17.7953 17.3102C19.0231 16.0861 19.7889 14.4745 19.9625 12.7495H12.5C12.3011 12.7495 12.1103 12.6705 11.9697 12.5299C11.829 12.3892 11.75 12.1985 11.75 11.9995C11.75 11.8006 11.829 11.6099 11.9697 11.4692C12.1103 11.3286 12.3011 11.2495 12.5 11.2495H20.75C20.9489 11.2495 21.1397 11.3286 21.2803 11.4692C21.421 11.6099 21.5 11.8006 21.5 11.9995Z" fill="black" fill-opacity="0.64"/>
</g>
</svg>
