<svg width="24" height="24" viewBox="0 0 24 24" fill="none" xmlns="http://www.w3.org/2000/svg">
<g id="phone 1">
<path id="Vector" d="M9.91182 6.0479C9.62532 2.7524 6.18732 1.1354 6.04182 1.0694C5.9058 1.00546 5.75337 0.985034 5.60532 1.0109C1.63632 1.6694 1.03932 3.9794 1.01532 4.0754C0.982664 4.20918 0.987857 4.34941 1.03032 4.4804C5.76432 19.1684 15.6028 21.8909 18.8368 22.7864C19.0858 22.8554 19.2913 22.9109 19.4473 22.9619C19.6253 23.0201 19.8187 23.0088 19.9888 22.9304C20.0878 22.8854 22.4248 21.7844 22.9963 18.1934C23.0217 18.0366 22.9964 17.8759 22.9243 17.7344C22.8733 17.6354 21.6508 15.3089 18.2608 14.4869C18.1458 14.4575 18.0254 14.4565 17.9099 14.4839C17.7944 14.5113 17.6873 14.5664 17.5978 14.6444C16.5283 15.5579 15.0508 16.5314 14.4133 16.6319C10.1398 14.5424 7.75332 10.5329 7.66332 9.7724C7.61082 9.3449 8.59032 7.8434 9.71682 6.6224C9.78762 6.54556 9.84155 6.45474 9.87513 6.35579C9.90872 6.25685 9.92121 6.15197 9.91182 6.0479Z" fill="black" fill-opacity="0.64"/>
</g>
</svg>
