<svg width="151" height="100" viewBox="0 0 151 100" fill="none" xmlns="http://www.w3.org/2000/svg">
<g id="228 1" clip-path="url(#clip0_5713_1055)">
<path id="Vector" d="M121.491 51.2794C117.988 53.0172 113.338 50.7827 113.338 50.7827C113.338 50.7827 114.371 45.7315 117.877 43.9962C121.38 42.2584 126.028 44.4904 126.028 44.4904C126.028 44.4904 124.994 49.5415 121.491 51.2794Z" fill="url(#paint0_linear_5713_1055)"/>
<path id="Vector_2" d="M29.6546 66.2791C33.3896 68.5178 38.7484 66.4483 38.7484 66.4483C38.7484 66.4483 38.0478 60.7503 34.3103 58.5141C30.5753 56.2756 25.2188 58.3424 25.2188 58.3424C25.2188 58.3424 25.9194 64.0406 29.6546 66.2791Z" fill="url(#paint1_linear_5713_1055)"/>
<path id="Vector_3" d="M113.579 39.1665C112.523 39.1665 111.667 40.0229 111.667 41.0794C111.667 42.1358 112.523 42.9922 113.579 42.9922C114.636 42.9922 115.492 42.1358 115.492 41.0794C115.492 40.0229 114.636 39.1665 113.579 39.1665Z" fill="#FFAF1E"/>
<path id="Vector_4" d="M59.0035 41.4268C58.1338 41.4268 57.4288 42.1318 57.4288 43.0015C57.4288 43.8712 58.1338 44.5762 59.0035 44.5762C59.8731 44.5762 60.5781 43.8712 60.5781 43.0015C60.5781 42.1318 59.8731 41.4268 59.0035 41.4268Z" fill="#FFAF1E"/>
<path id="Vector_5" d="M54.75 77.834C54.0596 77.834 53.5 77.2743 53.5 76.584C53.5 75.8936 54.0596 75.334 54.75 75.334C55.4404 75.334 56 75.8936 56 76.584C56 77.2743 55.4404 77.834 54.75 77.834Z" fill="#FFAF1E"/>
<path id="Vector_6" d="M109.503 46.1737C109.041 46.1737 108.666 45.799 108.666 45.3368C108.666 44.8747 109.041 44.5 109.503 44.5C109.965 44.5 110.34 44.8747 110.34 45.3368C110.34 45.799 109.965 46.1737 109.503 46.1737Z" fill="#FFAF1E"/>
<path id="Vector_7" d="M113.178 79.7653C112.584 79.7653 112.102 79.2835 112.102 78.6893C112.102 78.095 112.584 77.6133 113.178 77.6133C113.772 77.6133 114.254 78.095 114.254 78.6893C114.254 79.2835 113.772 79.7653 113.178 79.7653Z" fill="#E1E4E5"/>
<path id="Vector_8" d="M42.3872 73.6083C41.5289 73.6083 40.8331 72.9125 40.8331 72.0542C40.8331 71.1958 41.5289 70.5 42.3872 70.5C43.2456 70.5 43.9414 71.1958 43.9414 72.0542C43.9414 72.9125 43.2456 73.6083 42.3872 73.6083Z" fill="#E1E4E5"/>
<path id="Vector_9" d="M119.016 70.6997C118.363 70.6997 117.834 70.1701 117.834 69.5168C117.834 68.8636 118.363 68.334 119.016 68.334C119.67 68.334 120.199 68.8636 120.199 69.5168C120.199 70.1701 119.67 70.6997 119.016 70.6997Z" fill="#E1E4E5"/>
<path id="Vector_10" d="M106.105 32.7983C105.378 32.7983 104.79 32.2095 104.79 31.4831C104.79 30.7568 105.378 30.168 106.105 30.168C106.831 30.168 107.42 30.7568 107.42 31.4831C107.42 32.2095 106.831 32.7983 106.105 32.7983Z" fill="#E1E4E5"/>
<path id="Vector_11" d="M32.2532 45.8068C32.422 46.4368 32.0481 47.0844 31.4181 47.2532C30.7881 47.422 30.1405 47.0481 29.9717 46.4181C29.8029 45.7881 30.1768 45.1405 30.8068 44.9717C31.4368 44.8029 32.0844 45.1767 32.2532 45.8068Z" fill="#E1E4E5"/>
<path id="Vector_12" d="M64.7806 24.8647C63.9129 24.8647 63.2096 24.1613 63.2096 23.2937C63.2096 22.426 63.9129 21.7227 64.7806 21.7227C65.6482 21.7227 66.3516 22.426 66.3516 23.2937C66.3516 24.1613 65.6482 24.8647 64.7806 24.8647Z" fill="#E1E4E5"/>
<path id="Vector_13" d="M115.541 61.0997C114.874 61.0997 114.333 60.6668 114.333 60.1328C114.333 59.5989 114.874 59.166 115.541 59.166C116.209 59.166 116.75 59.5989 116.75 60.1328C116.75 60.6668 116.209 61.0997 115.541 61.0997Z" fill="#E1E4E5"/>
<path id="Vector_14" d="M93.9312 20.6311C94.2825 21.9423 93.5044 23.29 92.1932 23.6413C90.8821 23.9927 89.5343 23.2146 89.183 21.9034C88.8317 20.5922 89.6098 19.2445 90.921 18.8932C92.2321 18.5418 93.5799 19.3199 93.9312 20.6311Z" fill="#E1E4E5"/>
<path id="Vector_15" d="M39.6425 38.2656H39.6596C39.7616 39.71 40.8358 39.7323 40.8358 39.7323C40.8358 39.7323 39.6513 39.7555 39.6513 41.4245C39.6513 39.7555 38.4668 39.7323 38.4668 39.7323C38.4668 39.7323 39.5405 39.71 39.6425 38.2656ZM46.1296 79.1658H46.1461C46.244 80.606 47.2753 80.6281 47.2753 80.6281C47.2753 80.6281 46.1381 80.6511 46.1381 82.3151C46.1381 80.6511 45.0008 80.6281 45.0008 80.6281C45.0008 80.6281 46.0318 80.606 46.1296 79.1658Z" fill="#E1E4E5"/>
<path id="Vector_16" d="M72.3848 15.166H107.775C111.757 15.166 115 19.6288 115 25.1085V31.6052C115 34.4297 113.317 36.7458 111.264 36.7458H81.0886C79.0358 36.7458 77.3524 34.4297 77.3524 31.6052V24.5437C77.3524 21.8885 76.6546 19.2335 75.3408 17.2562C74.5608 16.0698 73.5754 15.166 72.3848 15.166Z" fill="url(#paint2_linear_5713_1055)"/>
<path id="Vector_17" fill-rule="evenodd" clip-rule="evenodd" d="M58.4404 15.166H107.384C105.737 15.166 104.375 16.0698 103.296 17.2562C101.479 19.2333 100.514 21.8885 100.514 24.5437V31.6052C100.514 31.7605 100.507 31.9143 100.493 32.0663V70.6572H48.4473V25.1085C48.4473 19.6288 52.9328 15.166 58.4404 15.166Z" fill="#E1E4E5"/>
<path id="Vector_18" d="M59.627 49.6763H90.7521M59.7918 40.5363H90.7521M59.7918 32.9609H90.7521" stroke="white" stroke-width="2.81183" stroke-linecap="round" stroke-linejoin="round"/>
<path id="Vector_19" d="M72.2715 84.7908H107.661C111.644 84.7908 114.887 80.3279 114.887 74.8483V68.3516C114.887 65.5271 113.204 63.2109 111.151 63.2109H80.9753C78.9225 63.2109 77.2393 65.5271 77.2393 68.3516V75.4131C77.2393 78.0683 76.5413 80.7233 75.2275 82.7006C74.4475 83.8869 73.4622 84.7908 72.2715 84.7908Z" fill="url(#paint3_linear_5713_1055)"/>
<path id="Vector_20" fill-rule="evenodd" clip-rule="evenodd" d="M58.3272 84.7919H107.271C105.624 84.7919 104.261 83.8881 103.183 82.7018C101.366 80.7244 100.4 78.0694 100.4 75.4143V68.3528C100.4 68.1974 100.393 68.0436 100.38 67.8916V29.3008H48.334V74.8493C48.334 80.3291 52.8197 84.7919 58.3272 84.7919Z" fill="#E1E4E5"/>
<path id="Vector_21" d="M59.5117 56.6827H90.6367M59.5117 30.8652H90.6367M59.6764 65.8341H90.6367M59.6764 40.0166H90.6367M59.6764 73.3007H90.6367M59.6764 47.4832H90.6367" stroke="white" stroke-width="2.81183" stroke-linecap="round" stroke-linejoin="round"/>
<path id="Vector_22" fill-rule="evenodd" clip-rule="evenodd" d="M49.1893 28.0674L51.2942 27.038C52.2653 26.5634 53.4397 26.9437 53.9463 27.9004L55.0452 29.9704C55.1885 30.2399 55.3914 30.4731 55.6384 30.6525C55.8854 30.8318 56.1701 30.9525 56.4707 31.0054L58.7789 31.4104C59.8444 31.5977 60.5687 32.595 60.4177 33.6664L60.0897 35.986C60.0469 36.2883 60.0737 36.5963 60.168 36.8866C60.2623 37.1769 60.4217 37.4419 60.634 37.6612L62.2629 39.345C63.0147 40.1217 63.0147 41.3557 62.2629 42.1337L60.634 43.8175C60.4217 44.0369 60.2623 44.3019 60.168 44.5922C60.0737 44.8826 60.0469 45.1906 60.0897 45.4929L60.4177 47.8125C60.5687 48.8839 59.8444 49.8812 58.7789 50.0684L56.4707 50.4734C56.1701 50.5263 55.8855 50.647 55.6385 50.8263C55.3915 51.0056 55.1886 51.2389 55.0452 51.5084L53.9463 53.5784C53.4397 54.5337 52.2668 54.9154 51.2942 54.4407L49.1893 53.4115C48.9152 53.2775 48.6141 53.2079 48.3089 53.2079C48.0038 53.2079 47.7027 53.2775 47.4285 53.4115L45.3235 54.4407C44.3523 54.9154 43.178 54.535 42.6713 53.5784L41.5725 51.507C41.4291 51.2375 41.2263 51.0043 40.9793 50.8249C40.7323 50.6455 40.4476 50.5248 40.147 50.4719L37.8388 50.0669C36.7733 49.8797 36.049 48.8824 36.2 47.811L36.528 45.4914C36.5708 45.1891 36.5441 44.8811 36.4497 44.5908C36.3554 44.3005 36.196 44.0355 35.9837 43.8162L34.355 42.1322C33.603 41.3557 33.603 40.1217 34.355 39.3437L35.9837 37.6597C36.196 37.4404 36.3554 37.1754 36.4497 36.8851C36.5441 36.5948 36.5708 36.2868 36.528 35.9845L36.2015 33.6649C36.049 32.595 36.7748 31.5962 37.8403 31.4104L40.1485 31.0054C40.4489 30.9523 40.7332 30.8315 40.9799 30.6521C41.2266 30.4728 41.4293 30.2397 41.5725 29.9704L42.6713 27.9004C43.178 26.9452 44.351 26.5634 45.3235 27.038L47.4285 28.0674C47.7027 28.2013 48.0038 28.2709 48.3089 28.2709C48.6141 28.2709 48.9152 28.2013 49.1893 28.0674Z" fill="#2377E6" stroke="#2377E6" stroke-width="1.244" stroke-linecap="round" stroke-linejoin="round"/>
<path id="Vector_23" d="M48.3387 49.613C53.2018 49.613 57.1442 45.6706 57.1442 40.8075C57.1442 35.9443 53.2018 32.002 48.3387 32.002C43.4756 32.002 39.5332 35.9443 39.5332 40.8075C39.5332 45.6706 43.4756 49.613 48.3387 49.613Z" fill="white"/>
<path id="Vector_24" d="M48.1363 43.7715L48.2583 43.8357L50.5235 45.0255L50.5235 45.0255C50.9036 45.2254 51.3477 44.9029 51.275 44.4794L51.275 44.4793L50.8426 41.957L50.8352 41.9138L50.8666 41.8832L52.6994 40.0985L48.1363 43.7715ZM48.1363 43.7715V43.8616M48.1363 43.7715V43.8616M48.1363 43.8616L45.9182 45.0268L45.9181 45.0268C45.5381 45.2267 45.0941 44.9041 45.1667 44.4807L45.1667 44.4807L45.5992 41.9584L45.6066 41.9152L45.5752 41.8846L43.7424 40.0996C43.7424 40.0996 43.7424 40.0996 43.7424 40.0996C43.435 39.7999 43.6045 39.2776 44.0289 39.2157L44.0169 39.1333L44.0289 39.2157L46.5626 38.8464L46.6059 38.8401L46.6253 38.8008L47.7573 36.5053L47.6826 36.4684L47.7573 36.5053C47.9474 36.1198 48.4956 36.1198 48.6857 36.5053L48.7604 36.4684L48.6857 36.5053L49.8177 38.8008L49.8371 38.8401L49.8804 38.8464L52.4127 39.2144C52.8371 39.2763 53.0067 39.7985 52.6994 40.0984L48.1363 43.8616Z" fill="#2377E6" stroke="#2377E6" stroke-width="0.166667"/>
<path id="Vector_25" d="M111.333 60.0827C111.333 53.5013 105.998 48.166 99.4167 48.166C92.8353 48.166 87.5 53.5013 87.5 60.0827C87.5 66.6641 92.8353 71.9993 99.4167 71.9993C105.998 71.9993 111.333 66.6641 111.333 60.0827Z" fill="#FFAF1E"/>
<path id="Vector_26" d="M103.333 58L98.125 63.1667L95 60.0667" stroke="white" stroke-width="1.7145" stroke-linecap="round" stroke-linejoin="round"/>
</g>
<defs>
<linearGradient id="paint0_linear_5713_1055" x1="108.038" y1="56.7002" x2="136.933" y2="33.8439" gradientUnits="userSpaceOnUse">
<stop stop-color="white"/>
<stop offset="1" stop-color="#EEEEEE"/>
</linearGradient>
<linearGradient id="paint1_linear_5713_1055" x1="44.1084" y1="73.4851" x2="14.0542" y2="45.5609" gradientUnits="userSpaceOnUse">
<stop stop-color="white"/>
<stop offset="1" stop-color="#EEEEEE"/>
</linearGradient>
<linearGradient id="paint2_linear_5713_1055" x1="92.7839" y1="3.06718" x2="93.1209" y2="60.2268" gradientUnits="userSpaceOnUse">
<stop stop-color="white"/>
<stop offset="1" stop-color="#EEEEEE"/>
</linearGradient>
<linearGradient id="paint3_linear_5713_1055" x1="92.6708" y1="96.8896" x2="93.0078" y2="39.7299" gradientUnits="userSpaceOnUse">
<stop stop-color="white"/>
<stop offset="1" stop-color="#EEEEEE"/>
</linearGradient>
<clipPath id="clip0_5713_1055">
<rect width="150" height="100" fill="white" transform="translate(0.5)"/>
</clipPath>
</defs>
</svg>
