<svg width="25" height="24" viewBox="0 0 25 24" fill="none" xmlns="http://www.w3.org/2000/svg">
<g id="MapPin">
<path id="Vector" d="M12.5 6C11.7583 6 11.0333 6.21993 10.4166 6.63199C9.79993 7.04404 9.31928 7.62971 9.03545 8.31494C8.75162 9.00016 8.67736 9.75416 8.82205 10.4816C8.96675 11.209 9.3239 11.8772 9.84835 12.4017C10.3728 12.9261 11.041 13.2833 11.7684 13.4279C12.4958 13.5726 13.2498 13.4984 13.9351 13.2145C14.6203 12.9307 15.206 12.4501 15.618 11.8334C16.0301 11.2167 16.25 10.4917 16.25 9.75C16.25 8.75544 15.8549 7.80161 15.1517 7.09835C14.4484 6.39509 13.4946 6 12.5 6ZM12.5 12C12.055 12 11.62 11.868 11.25 11.6208C10.88 11.3736 10.5916 11.0222 10.4213 10.611C10.251 10.1999 10.2064 9.7475 10.2932 9.31105C10.38 8.87459 10.5943 8.47368 10.909 8.15901C11.2237 7.84434 11.6246 7.63005 12.061 7.54323C12.4975 7.45642 12.9499 7.50097 13.361 7.67127C13.7722 7.84157 14.1236 8.12996 14.3708 8.49997C14.618 8.86998 14.75 9.30499 14.75 9.75C14.75 10.3467 14.5129 10.919 14.091 11.341C13.669 11.7629 13.0967 12 12.5 12ZM12.5 1.5C10.3127 1.50248 8.21575 2.37247 6.66911 3.91911C5.12247 5.46575 4.25248 7.56273 4.25 9.75C4.25 12.6938 5.61031 15.8138 8.1875 18.7734C9.34552 20.1108 10.6489 21.3151 12.0734 22.3641C12.1995 22.4524 12.3498 22.4998 12.5037 22.4998C12.6577 22.4998 12.808 22.4524 12.9341 22.3641C14.356 21.3147 15.6568 20.1104 16.8125 18.7734C19.3859 15.8138 20.75 12.6938 20.75 9.75C20.7475 7.56273 19.8775 5.46575 18.3309 3.91911C16.7843 2.37247 14.6873 1.50248 12.5 1.5ZM12.5 20.8125C10.9503 19.5938 5.75 15.1172 5.75 9.75C5.75 7.95979 6.46116 6.2429 7.72703 4.97703C8.9929 3.71116 10.7098 3 12.5 3C14.2902 3 16.0071 3.71116 17.273 4.97703C18.5388 6.2429 19.25 7.95979 19.25 9.75C19.25 15.1153 14.0497 19.5938 12.5 20.8125Z" fill="#2377E6"/>
</g>
</svg>
