<svg width="200" height="200" viewBox="0 0 200 200" fill="none" xmlns="http://www.w3.org/2000/svg">
<path d="M143.588 125.768H172.492V103.472H143.588V125.768Z" fill="#EBEBEB"/>
<path d="M145.651 123.82H149.135V119.884H145.651V123.82Z" fill="white"/>
<path d="M163.677 103.527H160.393V108.283H163.677V103.527Z" fill="#FAFAFA"/>
<path d="M163.677 120.945H160.393V125.701H163.677V120.945Z" fill="#FAFAFA"/>
<path d="M150.799 125.92C150.747 125.92 150.707 121.016 150.707 114.968C150.707 108.92 150.747 104.016 150.799 104.016C150.851 104.016 150.891 108.92 150.891 114.968C150.891 121.016 150.851 125.92 150.799 125.92Z" fill="#E0E0E0"/>
<path d="M131.8 164.16H181.672V125.692H131.8V164.16Z" fill="#EBEBEB"/>
<path d="M135.365 160.805H141.373V154.013H135.365V160.805Z" fill="white"/>
<path d="M166.457 125.793H160.793V134.001H166.457V125.793Z" fill="#FAFAFA"/>
<path d="M166.457 155.836H160.793V164.044H166.457V155.836Z" fill="#FAFAFA"/>
<path d="M144.248 164.425C144.16 164.425 144.088 155.965 144.088 145.529C144.088 135.093 144.16 126.633 144.248 126.633C144.336 126.633 144.404 135.093 144.404 145.529C144.404 155.965 144.336 164.425 144.248 164.425Z" fill="#E0E0E0"/>
<path d="M180.089 45.6836L182.761 51.0956L188.733 51.9636L184.413 56.1796L185.433 62.1276L180.089 59.3196L174.745 62.1276L175.765 56.1796L171.445 51.9636L177.417 51.0956L180.089 45.6836Z" fill="#EBEBEB"/>
<path d="M21.0046 115.588L22.6886 119L26.4526 119.544L23.7286 122.2L24.3726 125.952L21.0046 124.18L17.6366 125.952L18.2806 122.2L15.5566 119.544L19.3206 119L21.0046 115.588Z" fill="#EBEBEB"/>
<path d="M23.0922 85.8633L26.8322 93.4393L35.1922 94.6553L29.1442 100.551L30.5722 108.879L23.0922 104.947L15.6162 108.879L17.0442 100.551L10.9922 94.6553L19.3522 93.4393L23.0922 85.8633Z" fill="#EBEBEB"/>
<path d="M177.708 70.1289L179.32 73.3969L182.924 73.9209L180.316 76.4609L180.932 80.0489L177.708 78.3569L174.484 80.0489L175.1 76.4609L172.492 73.9209L176.096 73.3969L177.708 70.1289Z" fill="#EBEBEB"/>
<path d="M124.82 17.2285L126.432 20.4925L130.036 21.0165L127.428 23.5605L128.044 27.1485L124.82 25.4525L121.596 27.1485L122.212 23.5605L119.604 21.0165L123.208 20.4925L124.82 17.2285Z" fill="#EBEBEB"/>
<path d="M161.689 52.1641L162.745 54.3001L165.105 54.6441L163.397 56.3081L163.801 58.6561L161.689 57.5481L159.581 58.6561L159.985 56.3081L158.277 54.6441L160.637 54.3001L161.689 52.1641Z" fill="#EBEBEB"/>
<path d="M64.3687 160.045L66.4247 164.205L71.0167 164.873L67.6927 168.113L68.4807 172.689L64.3687 170.529L60.2607 172.689L61.0447 168.113L57.7207 164.873L62.3167 164.205L64.3687 160.045Z" fill="#EBEBEB"/>
<path d="M69.7929 155.904L70.6409 157.624L72.5409 157.9L71.1649 159.24L71.4889 161.132L69.7929 160.236L68.0969 161.132L68.4209 159.24L67.0449 157.9L68.9449 157.624L69.7929 155.904Z" fill="#EBEBEB"/>
<path d="M145.651 139.967L147.459 143.627L151.499 144.215L148.575 147.063L149.267 151.087L145.651 149.187L142.039 151.087L142.731 147.063L139.807 144.215L143.847 143.627L145.651 139.967Z" fill="#FFAF1E"/>
<path d="M154.272 136.723L155.124 138.447L157.024 138.723L155.648 140.067L155.972 141.963L154.272 141.067L152.568 141.963L152.896 140.067L151.516 138.723L153.42 138.447L154.272 136.723Z" fill="#FFAF1E"/>
<path d="M142.976 41.4632L144.4 37.0392C143.042 34.3061 142.63 31.2001 143.228 28.2078C143.825 25.2154 145.398 22.5058 147.701 20.5033C150.003 18.5009 152.905 17.3188 155.951 17.1422C158.998 16.9657 162.016 17.8047 164.535 19.5277C167.053 21.2508 168.929 23.7605 169.868 26.6638C170.807 29.5672 170.756 32.7 169.724 35.5715C168.692 38.443 166.736 40.8909 164.164 42.5318C161.591 44.1727 158.547 44.9139 155.508 44.6392C152.542 44.4372 149.736 43.2227 147.56 41.1992L142.976 41.4632Z" fill="#FAFAFA"/>
<path d="M142.975 41.4628L143.279 41.4388L144.163 41.3748L147.559 41.1428C149.243 42.6997 151.316 43.7722 153.559 44.2468C154.252 44.4007 154.955 44.501 155.663 44.5468L156.783 44.5908C157.159 44.5908 157.547 44.5468 157.935 44.5268C161.444 44.2084 164.696 42.5511 167.015 39.8988C168.322 38.4255 169.293 36.6852 169.859 34.7988C170.439 32.7831 170.557 30.6624 170.203 28.5948C170.115 28.0633 169.992 27.5382 169.835 27.0228C169.764 26.7618 169.677 26.5053 169.575 26.2548C169.475 25.9988 169.387 25.7428 169.279 25.4908C168.834 24.4735 168.27 23.5122 167.599 22.6268C167.265 22.1855 166.903 21.766 166.515 21.3708C166.327 21.1694 166.127 20.9797 165.915 20.8028C165.711 20.6228 165.515 20.4268 165.299 20.2628L164.643 19.7748L164.315 19.5348L163.963 19.3268L163.271 18.9268C163.035 18.7948 162.787 18.6948 162.547 18.5748C160.709 17.7048 158.699 17.2582 156.665 17.2679C154.631 17.2776 152.625 17.7433 150.795 18.6308C147.624 20.1538 145.162 22.8397 143.919 26.1308C143.851 26.3148 143.787 26.4988 143.723 26.6788C143.651 26.8564 143.593 27.0397 143.551 27.2268C143.459 27.5948 143.371 27.9588 143.283 28.3148C143.162 29.0124 143.079 29.7161 143.035 30.4228C142.945 32.7089 143.427 34.9813 144.435 37.0348L143.363 40.3068L143.079 41.1548C143.015 41.3468 142.979 41.4468 142.979 41.4468C142.979 41.4468 143.003 41.3548 143.063 41.1668L143.319 40.3268L144.347 37.0108V37.0428C143.312 34.9855 142.811 32.7006 142.891 30.3988C142.929 29.6842 143.007 28.9724 143.127 28.2668C143.215 27.9068 143.307 27.5388 143.395 27.1668C143.438 26.9777 143.494 26.7919 143.563 26.6108C143.631 26.4268 143.695 26.2428 143.763 26.0548C144.431 24.2605 145.464 22.6243 146.798 21.25C148.131 19.8757 149.735 18.7931 151.508 18.0708C153.281 17.3485 155.185 17.0022 157.099 17.0539C159.013 17.1055 160.895 17.554 162.627 18.3708C162.871 18.4868 163.123 18.5908 163.363 18.7268L164.067 19.1468L164.419 19.3588L164.755 19.6028L165.419 20.0948C165.639 20.2668 165.839 20.4628 166.047 20.6428C166.26 20.8234 166.463 21.0157 166.655 21.2188C167.048 21.622 167.416 22.0495 167.755 22.4988C168.439 23.3893 169.015 24.3573 169.471 25.3828C169.579 25.6388 169.667 25.9028 169.767 26.1588C169.873 26.4196 169.963 26.6868 170.035 26.9588C170.193 27.4834 170.316 28.0179 170.403 28.5588C170.764 30.6571 170.644 32.81 170.051 34.8548C169.483 36.7771 168.501 38.5519 167.175 40.0548C164.82 42.7322 161.527 44.4021 157.975 44.7188C157.575 44.7188 157.175 44.7748 156.807 44.7748L155.675 44.7268C154.96 44.6768 154.25 44.5725 153.551 44.4148C151.299 43.9218 149.225 42.8237 147.551 41.2388H147.583L144.155 41.4188L143.283 41.4588C143.071 41.4628 142.975 41.4628 142.975 41.4628Z" fill="#263238"/>
<path d="M148.924 30.3987L151.192 28.4308L155.012 32.3547L163.58 25.2188L165.392 27.4787L154.416 36.4148L148.924 30.3987Z" fill="#FFAF1E"/>
<path d="M119.243 139.797L42.5388 156.893C42.0948 156.994 41.6352 157.007 41.1863 156.93C40.7374 156.853 40.3082 156.688 39.9234 156.445C39.5386 156.201 39.2057 155.884 38.9441 155.511C38.6824 155.138 38.4971 154.717 38.3988 154.273L13.5228 42.5728C13.4237 42.1302 13.4129 41.6724 13.491 41.2257C13.5691 40.7789 13.7345 40.3519 13.9779 39.9692C14.2213 39.5865 14.5378 39.2556 14.9093 38.9953C15.2808 38.7351 15.6999 38.5508 16.1428 38.4528L92.8468 21.3568C93.2896 21.2577 93.7477 21.2468 94.1947 21.3249C94.6417 21.4029 95.069 21.5684 95.452 21.8117C95.8351 22.0551 96.1664 22.3715 96.427 22.7431C96.6876 23.1146 96.8724 23.5338 96.9708 23.9768L121.863 135.677C121.962 136.119 121.973 136.577 121.895 137.024C121.816 137.471 121.651 137.898 121.408 138.28C121.164 138.663 120.848 138.994 120.476 139.254C120.105 139.514 119.686 139.699 119.243 139.797Z" fill="#E0E0E0"/>
<path d="M119.242 139.797L119.498 139.725C119.747 139.644 119.987 139.538 120.214 139.409C120.587 139.19 120.917 138.904 121.186 138.565C121.554 138.101 121.795 137.55 121.886 136.965C121.944 136.612 121.944 136.251 121.886 135.897C121.822 135.525 121.722 135.133 121.634 134.725C121.45 133.925 121.234 133.013 121.034 132.045C120.6 130.106 120.1 127.876 119.534 125.353C117.282 115.285 114.026 100.717 110.002 82.7132C108.002 73.7132 105.794 63.8532 103.43 53.2652C102.252 47.9745 101.032 42.5078 99.7705 36.8652C99.1438 34.0438 98.5065 31.1838 97.8585 28.2852C97.5305 26.8372 97.2065 25.3772 96.8745 23.9092C96.6942 23.1775 96.2731 22.5276 95.6789 22.0641C95.0848 21.6005 94.3521 21.3501 93.5985 21.3532C93.2227 21.3615 92.8493 21.4152 92.4865 21.5132L91.3665 21.7612L89.1145 22.2652L84.5705 23.2772L75.3225 25.3412L56.2665 29.6012L16.1705 38.5292C15.3229 38.717 14.5803 39.2241 14.0969 39.9452C13.6134 40.6662 13.4264 41.5458 13.5745 42.4012C13.9385 44.1012 14.3305 45.8052 14.7025 47.5012C15.4598 50.8878 16.2105 54.2545 16.9545 57.6012L21.3545 77.3652C24.2425 90.3212 27.0265 102.801 29.6785 114.721C32.3305 126.641 34.8465 137.921 37.2065 148.525C37.4998 149.859 37.7918 151.171 38.0825 152.461C38.2305 153.109 38.3625 153.765 38.5185 154.401C38.6865 155.028 39.0308 155.593 39.5105 156.029C39.9871 156.459 40.5746 156.748 41.2065 156.861C41.5198 156.912 41.8386 156.922 42.1545 156.889C42.4665 156.849 42.7825 156.773 43.0945 156.701L46.8185 155.873L60.9505 152.729L103.598 143.253L115.198 140.685L118.214 140.021L119.242 139.797L118.218 140.037L115.202 140.717L103.602 143.313L60.9625 152.845L46.8465 156.001L43.1225 156.833C42.8105 156.901 42.4985 156.981 42.1705 157.025C41.8425 157.059 41.5116 157.048 41.1865 156.993C40.5247 156.878 39.9095 156.577 39.4135 156.124C38.9174 155.671 38.5611 155.086 38.3865 154.437C38.2265 153.793 38.0945 153.145 37.9465 152.497C37.6558 151.199 37.3625 149.887 37.0665 148.561C34.7065 137.973 32.1825 126.661 29.5265 114.757C26.8705 102.853 24.0865 90.3572 21.1945 77.4012L16.7945 57.6412C16.0505 54.2972 15.2998 50.9278 14.5425 47.5332C14.1665 45.8372 13.7785 44.1412 13.4105 42.4252C13.2565 41.5291 13.4536 40.6081 13.9609 39.8536C14.4681 39.099 15.2465 38.5688 16.1345 38.3732L56.2345 29.4332L75.3025 25.2012L84.5465 23.1412L89.0905 22.1292L91.3465 21.6012L92.4665 21.3532C92.8363 21.2573 93.2164 21.2063 93.5985 21.2012C94.3792 21.203 95.1371 21.4646 95.7527 21.9448C96.3683 22.425 96.8066 23.0964 96.9985 23.8532C97.3265 25.3252 97.6545 26.7812 97.9785 28.2332C98.6318 31.1345 99.2745 33.9905 99.9065 36.8012C101.157 42.4412 102.374 47.9078 103.558 53.2012C105.914 63.7892 108.106 73.6492 110.11 82.6532C114.11 100.653 117.35 115.233 119.59 125.305C120.146 127.821 120.642 130.061 121.074 131.997C121.286 132.969 121.474 133.861 121.666 134.681C121.754 135.081 121.854 135.481 121.914 135.853C121.974 136.211 121.974 136.576 121.914 136.933C121.823 137.529 121.578 138.09 121.202 138.561C120.929 138.899 120.597 139.185 120.222 139.405C119.992 139.535 119.748 139.638 119.494 139.713L119.242 139.797Z" fill="#263238"/>
<g opacity="0.3">
<path d="M46.4271 152.936L116.315 136.96L114.107 123.264L110.143 115.588L43.2871 141.848L46.4271 152.936Z" fill="black"/>
</g>
<g opacity="0.3">
<path d="M75.6074 25.4531L78.2514 29.8171L78.7634 32.1331L76.9714 32.5331L75.6074 25.4531Z" fill="black"/>
</g>
<path d="M17.5039 43.2213L41.7519 152.021L117.756 135.085L113.42 115.629L93.5079 26.2812L17.5039 43.2213Z" fill="white"/>
<path d="M17.502 43.2208L93.502 26.2168H93.566V26.2848C100.31 56.5208 108.722 94.2528 117.826 135.085V135.169H117.746L41.746 152.101H41.674V152.025C27.398 87.7768 17.646 43.8728 17.498 43.2248C17.646 43.8888 27.462 87.7808 41.822 152.025L41.73 151.969L117.73 135.021L117.666 135.121C108.574 94.2968 100.17 56.5648 93.438 26.3208L93.5181 26.3728L17.502 43.2208Z" fill="#263238"/>
<path d="M38.905 30.2758L72.4232 22.8081C73.0787 22.6621 73.7653 22.7824 74.332 23.1427C74.8988 23.5029 75.2992 24.0735 75.4452 24.7289L77.3815 33.4198L38.9127 41.9905L36.9781 33.3073C36.9045 32.9817 36.896 32.6447 36.9531 32.3158C37.0102 31.9869 37.1318 31.6725 37.3109 31.3907C37.49 31.109 37.723 30.8654 37.9966 30.674C38.2702 30.4827 38.5789 30.3474 38.905 30.2758Z" fill="#263238"/>
<path d="M59.6259 21.2617L49.8379 23.4417L52.8499 31.5777L60.2219 29.9337L59.6259 21.2617Z" fill="#263238"/>
<path d="M72.4223 22.8012C72.4223 22.8452 64.9383 24.5532 55.6863 26.6172C46.4343 28.6812 38.9183 30.3252 38.9063 30.2812C38.8943 30.2372 46.3903 28.5292 55.6503 26.4652C64.9103 24.4012 72.3983 22.7692 72.4223 22.8012Z" fill="#455A64"/>
<path d="M39.3814 40.0012C39.3374 40.0012 38.9494 38.4412 38.5174 36.4972C38.0854 34.5532 37.7654 32.9652 37.8134 32.9532C37.8614 32.9412 38.2454 34.5132 38.6774 36.4612C39.1094 38.4092 39.4254 40.0012 39.3814 40.0012Z" fill="#455A64"/>
<path d="M75.5472 31.0563C75.2259 30.004 74.9588 28.9359 74.7472 27.8563C74.4825 26.801 74.2716 25.7329 74.1152 24.6562C74.4359 25.7019 74.703 26.7633 74.9152 27.8362C75.1806 28.8981 75.3916 29.9729 75.5472 31.0563Z" fill="#455A64"/>
<path d="M74.0211 32.9579C74.0211 33.0019 66.3371 34.7539 56.8411 36.8699C47.3451 38.9859 39.6411 40.6699 39.6211 40.6219C39.6011 40.5739 47.3011 38.8259 56.8211 36.7099C66.3411 34.5939 73.9971 32.9139 74.0211 32.9579Z" fill="#455A64"/>
<path d="M53.7789 64.6048C53.7789 64.6528 48.5989 65.8448 42.1789 67.2768C35.7589 68.7088 30.5789 69.8248 30.5509 69.7808C30.5229 69.7368 35.7509 68.5408 42.1509 67.1128C48.5509 65.6848 53.7669 64.5608 53.7789 64.6048Z" fill="#263238"/>
<path d="M92.4633 60.2485C92.4633 60.2965 78.9153 63.3565 62.1833 67.0845C45.4513 70.8125 31.8713 73.8005 31.8633 73.7565C31.8553 73.7125 45.4073 70.6485 62.1473 66.9205C78.8873 63.1925 92.4553 60.2045 92.4633 60.2485Z" fill="#263238"/>
<path d="M93.2993 64.0008C93.2993 64.0448 79.7473 67.1048 63.0153 70.8368C46.2833 74.5688 32.7073 77.5528 32.6953 77.5048C32.6833 77.4568 46.2433 74.4008 62.9793 70.6728C79.7153 66.9448 93.2873 63.9448 93.2993 64.0008Z" fill="#263238"/>
<path d="M94.1314 67.729C94.1314 67.773 80.5834 70.833 63.8514 74.561C47.1194 78.289 33.5394 81.281 33.5274 81.233C33.5154 81.185 47.0753 78.129 63.8153 74.397C80.5553 70.665 94.1194 67.685 94.1314 67.729Z" fill="#263238"/>
<path d="M94.9633 71.4693C94.9633 71.5133 81.4153 74.5733 64.6833 78.3013C47.9513 82.0293 34.3713 85.0173 34.3633 84.9733C34.3553 84.9293 47.9073 81.8693 64.6473 78.1373C81.3873 74.4053 94.9553 71.4213 94.9633 71.4693Z" fill="#263238"/>
<path d="M95.7992 75.2016C95.7992 75.2496 82.2472 78.3096 65.5152 82.0376C48.7832 85.7656 35.1992 88.7576 35.1992 88.7136C35.1992 88.6696 48.7472 85.6096 65.4832 81.8776C82.2192 78.1456 95.7872 75.1616 95.7992 75.2016Z" fill="#263238"/>
<path d="M46.9457 101.525C46.9294 101.485 46.9173 101.443 46.9097 101.401L46.8217 101.045C46.7457 100.721 46.6377 100.269 46.5057 99.7048C46.2377 98.5488 45.8617 96.9248 45.4137 94.9808L45.5017 95.0368L38.9417 96.5088C38.9417 96.5088 39.0617 96.3208 39.0057 96.4088V96.4368V96.4928L39.0297 96.6048L39.0817 96.8288L39.1777 97.2728C39.2457 97.5688 39.3097 97.8608 39.3737 98.1528C39.5017 98.7288 39.6297 99.2968 39.7497 99.8488C39.9937 100.949 40.2217 101.989 40.4337 102.945L40.3457 102.889L45.0857 101.869L46.4337 101.589L46.7937 101.521L46.9217 101.497C46.9217 101.497 46.8897 101.497 46.8097 101.533L46.4697 101.617L45.1497 101.929L40.3977 103.061H40.3257V102.989L39.6297 99.8968C39.5057 99.3448 39.3777 98.7768 39.2297 98.2008C39.1657 97.9088 39.0977 97.6168 39.0337 97.3208C38.9977 97.1768 38.9657 97.0248 38.9337 96.8768L38.8817 96.6528L38.8577 96.5408V96.4848V96.4568V96.4368C38.8017 96.5288 38.9337 96.3168 38.9217 96.3368L45.4857 94.8848H45.5577V94.9568L46.5897 99.7568C46.7057 100.317 46.7977 100.765 46.8657 101.085C46.8937 101.229 46.9137 101.341 46.9337 101.433C46.9417 101.463 46.9457 101.494 46.9457 101.525Z" fill="#263238"/>
<path d="M95.7054 85.3525L49.9395 95.5488L50.7902 99.3672L96.5561 89.1709L95.7054 85.3525Z" fill="#E0E0E0"/>
<path d="M49.483 112.909C49.4679 112.868 49.4559 112.825 49.447 112.781C49.423 112.689 49.395 112.569 49.359 112.425C49.283 112.101 49.175 111.653 49.043 111.089C48.775 109.929 48.399 108.289 47.951 106.361L48.039 106.417L41.479 107.889C41.479 107.913 41.599 107.701 41.543 107.793V107.813V107.841V107.897L41.567 108.009L41.619 108.233C41.651 108.385 41.683 108.533 41.719 108.681L41.911 109.557C42.039 110.137 42.167 110.701 42.287 111.253C42.531 112.353 42.759 113.393 42.971 114.349L42.883 114.293L47.627 113.277L48.971 112.997L49.331 112.925C49.3727 112.914 49.4157 112.907 49.459 112.905L49.351 112.937L49.007 113.021L47.687 113.337L42.915 114.437H42.843V114.365L42.147 111.273C42.023 110.721 41.895 110.153 41.747 109.577C41.683 109.289 41.615 108.993 41.551 108.701C41.519 108.553 41.483 108.405 41.451 108.253L41.399 108.029L41.375 107.917V107.861V107.813L41.439 107.709L47.999 106.277H48.071V106.345C48.495 108.317 48.871 109.945 49.103 111.145C49.219 111.705 49.311 112.153 49.379 112.473C49.407 112.617 49.427 112.729 49.447 112.821C49.4628 112.849 49.4749 112.879 49.483 112.909Z" fill="#263238"/>
<path d="M98.2405 96.7353L52.4746 106.932L53.3253 110.75L99.0912 100.554L98.2405 96.7353Z" fill="#E0E0E0"/>
<path d="M52.0188 124.288C52.0188 124.288 52.0188 124.24 51.9828 124.16C51.9468 124.08 51.9308 123.948 51.8948 123.804C51.8188 123.48 51.7108 123.032 51.5788 122.468C51.3108 121.312 50.9348 119.668 50.4868 117.74L50.5748 117.796L43.9988 119.268C43.9988 119.292 44.1188 119.08 44.0628 119.172V119.2V119.228V119.284L44.0868 119.396L44.1388 119.62C44.1708 119.772 44.2028 119.92 44.2388 120.068L44.4308 120.944C44.5588 121.524 44.6868 122.088 44.8068 122.64L45.4908 125.736L45.4028 125.684L50.1468 124.664L51.4908 124.384L51.8508 124.312C51.8933 124.308 51.9362 124.308 51.9788 124.312L51.8708 124.344L51.5268 124.428L50.2068 124.744L45.4348 125.844H45.3628V125.772C45.1508 124.82 44.9148 123.772 44.6668 122.68C44.5428 122.128 44.4148 121.564 44.2668 120.984C44.2028 120.696 44.1348 120.404 44.0708 120.108C44.0388 119.96 44.0028 119.812 43.9708 119.664L43.9228 119.44L43.8948 119.328V119.268V119.2C43.8388 119.288 43.9708 119.076 43.9588 119.1L50.5228 117.648H50.5948V117.72L51.6268 122.52C51.7428 123.08 51.8348 123.528 51.9028 123.852C51.9308 123.992 51.9548 124.104 51.9708 124.196C51.9909 124.225 52.0071 124.256 52.0188 124.288Z" fill="#263238"/>
<path d="M100.782 108.122L55.0156 118.318L55.8663 122.137L101.632 111.94L100.782 108.122Z" fill="#E0E0E0"/>
<path d="M40.6426 99.1777L41.3306 98.0937L43.3746 99.2297L46.0066 95.2617L47.0226 95.9657L43.6306 100.966L40.6426 99.1777Z" fill="#FFAF1E"/>
<path d="M43.0938 110.178L43.7818 109.094L45.8258 110.23L48.4538 106.262L49.4738 106.966L46.0777 111.962L43.0938 110.178Z" fill="#FFAF1E"/>
<path d="M45.6094 121.453L46.2974 120.373L48.3374 121.509L50.9694 117.541L51.9854 118.241L48.5934 123.241L45.6094 121.453Z" fill="#FFAF1E"/>
<path d="M66.5597 135.601C66.5597 135.649 62.7037 136.549 57.9277 137.601C53.1517 138.653 49.2717 139.489 49.2637 139.445C49.2557 139.401 53.1157 138.501 57.8917 137.445C62.6677 136.389 66.5477 135.561 66.5597 135.601Z" fill="#263238"/>
<path d="M75.1748 133.546C74.1308 133.867 73.0707 134.134 71.9988 134.346C70.9433 134.608 69.8753 134.818 68.7988 134.974C69.8418 134.653 70.9005 134.386 71.9708 134.174C73.7268 133.786 75.1668 133.502 75.1748 133.546Z" fill="#263238"/>
<path d="M103.709 124.566C103.709 124.61 100.241 125.426 95.9445 126.382C91.6485 127.338 88.1525 128.078 88.1445 128.034C88.1365 127.99 91.6085 127.178 95.9085 126.218C100.209 125.258 103.701 124.522 103.709 124.566Z" fill="#263238"/>
<path d="M99.9982 135.094C99.9982 135.094 100.034 134.986 100.074 134.778C100.127 134.47 100.111 134.154 100.026 133.854C99.8839 133.378 99.6992 132.916 99.4742 132.474C99.1552 131.886 98.9682 131.237 98.9262 130.57C98.9356 130.159 99.0309 129.755 99.2059 129.384C99.3809 129.013 99.6317 128.682 99.9422 128.414C100.306 128.112 100.741 127.908 101.206 127.822C101.671 127.736 102.15 127.77 102.598 127.922C103.09 128.071 103.529 128.359 103.862 128.75C104.04 128.96 104.145 129.223 104.162 129.498C104.167 129.646 104.124 129.791 104.039 129.913C103.955 130.034 103.834 130.126 103.694 130.174C103.433 130.258 103.165 130.324 102.894 130.37L102.094 130.534C101.558 130.642 101.014 130.738 100.454 130.81C99.3696 130.966 98.2686 130.973 97.1822 130.83C96.6913 130.724 96.1787 130.807 95.7462 131.062C95.4025 131.408 95.1114 131.803 94.8822 132.234C94.7429 132.446 94.5496 132.617 94.3222 132.73C94.0908 132.832 93.8295 132.843 93.5902 132.762C93.1787 132.579 92.7873 132.353 92.4222 132.09C92.2528 131.977 92.0598 131.904 91.8582 131.878C91.6695 131.857 91.4795 131.903 91.3222 132.01C91.0455 132.263 90.8165 132.564 90.6462 132.898C90.4642 133.184 90.2157 133.423 89.9218 133.593C89.6279 133.762 89.2973 133.859 88.9582 133.874C88.4451 133.894 87.9439 133.717 87.5582 133.378C87.3158 133.168 87.1255 132.905 87.0022 132.61C86.959 132.508 86.9281 132.402 86.9102 132.294C86.9102 132.294 86.9462 132.402 87.0342 132.598C87.1638 132.88 87.3568 133.129 87.5982 133.326C87.9743 133.644 88.4579 133.807 88.9502 133.782C89.2737 133.765 89.5883 133.67 89.867 133.505C90.1458 133.34 90.3802 133.109 90.5502 132.834C90.7261 132.484 90.9647 132.169 91.2542 131.906C91.4363 131.779 91.6573 131.721 91.8782 131.742C92.097 131.774 92.3068 131.852 92.4942 131.97C92.8533 132.224 93.2365 132.442 93.6382 132.622C93.8437 132.691 94.0676 132.681 94.2662 132.594C94.4696 132.493 94.6402 132.336 94.7582 132.142C94.9959 131.7 95.2978 131.295 95.6542 130.942C95.8757 130.784 96.1352 130.687 96.4062 130.662C96.6721 130.633 96.9402 130.633 97.2062 130.662C98.2808 130.801 99.3693 130.794 100.442 130.642C100.994 130.57 101.534 130.47 102.07 130.366L102.87 130.206C103.127 130.158 103.381 130.095 103.63 130.018C103.74 129.983 103.835 129.913 103.901 129.819C103.968 129.726 104.002 129.613 103.998 129.498C103.98 129.258 103.888 129.03 103.734 128.846C103.418 128.47 103.002 128.193 102.534 128.046C102.11 127.902 101.656 127.868 101.215 127.948C100.774 128.027 100.361 128.218 100.014 128.502C99.7161 128.755 99.4746 129.069 99.3051 129.421C99.1356 129.774 99.0419 130.158 99.0302 130.55C99.0662 131.202 99.2407 131.838 99.5422 132.418C99.7635 132.866 99.9416 133.335 100.074 133.818C100.152 134.127 100.159 134.45 100.094 134.762C100.075 134.876 100.043 134.987 99.9982 135.094Z" fill="#263238"/>
<path d="M108.267 129.975C108.199 130.002 108.13 130.023 108.059 130.039L107.451 130.183L105.219 130.699C103.339 131.139 100.739 131.755 97.8787 132.479C95.0187 133.203 92.4387 133.903 90.5787 134.415L88.3707 135.023L87.7667 135.183C87.6974 135.204 87.6265 135.221 87.5547 135.231C87.6191 135.196 87.6876 135.169 87.7587 135.151L88.3507 134.963C88.8667 134.799 89.6147 134.563 90.5427 134.303C92.4027 133.759 94.9747 133.043 97.8387 132.303C100.703 131.563 103.303 130.979 105.195 130.575C106.139 130.371 106.907 130.211 107.439 130.107L108.051 129.991C108.122 129.979 108.194 129.974 108.267 129.975Z" fill="#263238"/>
<path d="M75.4569 42.2036L44.3906 49.125L45.691 54.9619L76.7574 48.0405L75.4569 42.2036Z" fill="#E0E0E0"/>
<path d="M104.85 136.924L114.886 189.948L124.058 173L141.442 183.204L122.99 131.572L104.85 136.924Z" fill="#FFAF1E"/>
<g opacity="0.3">
<path d="M108.224 154.756C109.18 154.936 110.164 154.881 111.094 154.596C112.024 154.311 112.87 153.804 113.56 153.12C114.476 152.176 115.084 150.888 116.236 150.256C117.272 149.688 118.548 149.768 119.688 150.084C120.828 150.4 121.9 150.924 123.04 151.22C124.165 151.506 125.336 151.566 126.484 151.396C127.632 151.226 128.735 150.829 129.728 150.228L126.832 142.188L113.392 140.508L106.992 148.208L108.224 154.756Z" fill="black"/>
</g>
<path d="M123.406 170.896C123.35 170.896 121.854 165.4 120.066 158.596C118.278 151.792 116.866 146.256 116.93 146.244C116.994 146.232 118.478 151.732 120.266 158.544C122.054 165.356 123.462 170.88 123.406 170.896Z" fill="#263238"/>
<path d="M106.317 139.678L96.2806 192.702L87.1086 175.758L69.7246 185.958L88.1766 134.326L106.317 139.678Z" fill="#FFAF1E"/>
<g opacity="0.3">
<path d="M82.6582 149.771C82.6582 149.771 85.5142 152.119 88.9182 151.039C92.3222 149.959 94.4382 149.727 96.2822 151.039C98.1262 152.351 103.114 156.619 103.114 156.619L104.27 150.503L97.5702 141.303L90.5782 142.715L85.6022 143.199L83.7502 146.707L82.6582 149.771Z" fill="black"/>
</g>
<path d="M165.161 91.8161C165.161 95.6201 160.301 98.8961 159.589 102.492C158.857 106.196 162.081 111.08 160.669 114.492C159.257 117.904 153.469 119.128 151.417 122.212C149.365 125.296 150.445 131.072 147.817 133.704C145.189 136.336 139.417 135.228 136.325 137.304C133.233 139.38 132.073 145.116 128.605 146.556C125.197 147.968 120.313 144.744 116.605 145.476C113.005 146.188 109.733 151.048 105.929 151.048C102.125 151.048 98.8454 146.188 95.2494 145.476C91.5454 144.744 86.6614 147.968 83.2494 146.556C79.8374 145.144 78.6174 139.356 75.5334 137.304C72.4494 135.252 66.6734 136.332 64.0374 133.704C61.4014 131.076 62.5134 125.304 60.4374 122.212C58.3614 119.12 52.6254 117.96 51.1894 114.492C49.7534 111.024 53.0014 106.2 52.2694 102.492C51.5574 98.8921 46.6934 95.6201 46.6934 91.8161C46.6934 88.0121 51.5574 84.7321 52.2694 81.1361C53.0014 77.4321 49.7734 72.5481 51.1894 69.1361C52.6054 65.7241 58.3894 64.5001 60.4374 61.4201C62.4854 58.3401 61.4094 52.5601 64.0374 49.9241C66.6654 47.2881 72.4374 48.4001 75.5334 46.3241C78.6294 44.2481 79.7814 38.5121 83.2494 37.0761C86.7174 35.6401 91.5414 38.8881 95.2494 38.1561C98.8494 37.4441 102.125 32.5801 105.929 32.5801C109.733 32.5801 113.009 37.4441 116.605 38.1561C120.309 38.8881 125.193 35.6601 128.605 37.0761C132.073 38.5121 133.241 44.2761 136.325 46.3241C139.409 48.3721 145.185 47.2961 147.817 49.9241C150.449 52.5521 149.341 58.3241 151.417 61.4201C153.493 64.5161 159.229 65.6681 160.669 69.1361C162.109 72.6041 158.857 77.4281 159.589 81.1361C160.301 84.7321 165.161 88.0001 165.161 91.8161Z" fill="#FFAF1E"/>
<path d="M92.0691 58.6108C92.0691 58.6108 92.0251 58.5588 91.9611 58.4468C91.8971 58.3348 91.7971 58.1548 91.6891 57.9588C91.4531 57.5348 91.1291 56.9108 90.7451 56.1348C89.9731 54.5828 88.9731 52.3988 88.0091 49.9348C87.0451 47.4708 86.3051 45.1828 85.8211 43.5348C85.5811 42.6988 85.3971 42.0228 85.2811 41.5348C85.2291 41.3188 85.1851 41.1348 85.1531 40.9908C85.1324 40.9289 85.1216 40.8641 85.1211 40.7988C85.1521 40.8572 85.1763 40.9189 85.1931 40.9828L85.3571 41.5148C85.5131 42.0068 85.7171 42.6708 85.9611 43.4748C86.4811 45.1268 87.2451 47.3948 88.2011 49.8748C89.1571 52.3548 90.1411 54.5188 90.8771 56.0868L91.7611 57.9388L91.9971 58.4428C92.0261 58.4965 92.0502 58.5528 92.0691 58.6108Z" fill="#263238"/>
<path d="M97.3409 56.6065C97.2709 56.4669 97.2185 56.3191 97.1849 56.1665C97.1009 55.8785 96.9889 55.4585 96.8569 54.9385C96.5929 53.9025 96.2649 52.4545 95.9689 50.8465C95.6729 49.2385 95.4649 47.7705 95.3449 46.7065C95.2809 46.1745 95.2409 45.7425 95.2169 45.4425C95.1985 45.2884 95.1985 45.1326 95.2169 44.9785C95.2629 45.127 95.2937 45.2798 95.3089 45.4345L95.5009 46.6865C95.6609 47.7465 95.9009 49.2065 96.1849 50.8105C96.4689 52.4145 96.7849 53.8625 97.0089 54.9065C97.1169 55.3945 97.2049 55.8105 97.2769 56.1465C97.3135 56.2973 97.3349 56.4514 97.3409 56.6065Z" fill="#263238"/>
<path d="M106.642 55.6828C106.582 55.6828 106.434 51.1948 106.31 45.6628C106.186 40.1308 106.13 35.6388 106.186 35.6348C106.242 35.6308 106.394 40.1188 106.518 45.6588C106.642 51.1988 106.698 55.6828 106.642 55.6828Z" fill="#263238"/>
<path d="M116 46.463C116.056 46.463 115.408 48.723 114.556 51.475C113.704 54.227 112.956 56.439 112.916 56.423C112.876 56.407 113.508 54.163 114.36 51.411C115.212 48.659 115.94 46.447 116 46.463Z" fill="#263238"/>
<path d="M119.818 58.0591C119.826 57.9929 119.844 57.9282 119.87 57.8671L120.05 57.3391C120.21 56.8831 120.45 56.2271 120.77 55.4191C121.398 53.8191 122.294 51.5831 123.318 49.1431C124.342 46.7031 125.294 44.5071 125.994 42.9231C126.338 42.1551 126.622 41.5231 126.838 41.0511L127.074 40.5471C127.134 40.4351 127.166 40.3751 127.174 40.3791C127.16 40.4421 127.14 40.5036 127.114 40.5631L126.91 41.0831L126.13 42.9831C125.446 44.6071 124.53 46.7991 123.51 49.2271C122.49 51.6551 121.586 53.8471 120.906 55.4751L120.126 57.3711L119.906 57.8831C119.884 57.9452 119.855 58.0043 119.818 58.0591Z" fill="#263238"/>
<path d="M124.801 60.6671C124.862 60.5256 124.938 60.3915 125.029 60.2671C125.189 60.0111 125.429 59.6471 125.725 59.2031C126.325 58.3191 127.189 57.1111 128.193 55.8231C129.197 54.5351 130.161 53.4231 130.873 52.6231C131.229 52.2231 131.525 51.9071 131.733 51.6911C131.833 51.5713 131.947 51.4638 132.073 51.3711C131.995 51.5076 131.901 51.6339 131.793 51.7471C131.577 52.0111 131.305 52.3351 130.993 52.7191C130.309 53.5431 129.369 54.6831 128.365 55.9711C127.361 57.2591 126.485 58.4471 125.853 59.3111L125.105 60.3311C125.015 60.4534 124.914 60.566 124.801 60.6671Z" fill="#263238"/>
<path d="M132.09 66.6262C132.05 66.5862 135.218 63.5782 139.158 59.9102C143.098 56.2422 146.33 53.3022 146.358 53.3422C146.386 53.3822 143.234 56.3942 139.29 60.0622C135.346 63.7302 132.13 66.6702 132.09 66.6262Z" fill="#263238"/>
<path d="M144.802 67.8711C144.416 68.115 144.016 68.3341 143.602 68.5271C142.85 68.9271 141.83 69.4831 140.702 70.1271C139.574 70.7711 138.534 71.3071 137.762 71.6671C137.362 71.8471 137.066 71.9871 136.842 72.0671C136.733 72.1241 136.615 72.1645 136.494 72.1871C136.88 71.9432 137.281 71.7241 137.694 71.5311C138.446 71.1311 139.466 70.5751 140.594 69.9311C141.722 69.2871 142.762 68.7311 143.534 68.3911C143.934 68.2111 144.23 68.0711 144.454 67.9911C144.563 67.9324 144.68 67.8919 144.802 67.8711Z" fill="#263238"/>
<path d="M156.558 72.7476C156.578 72.8036 152.81 74.1796 148.158 75.8236C143.506 77.4676 139.694 78.7516 139.678 78.6996C139.662 78.6476 143.422 77.2676 148.078 75.6236C152.734 73.9796 156.538 72.6956 156.558 72.7476Z" fill="#263238"/>
<path d="M160.301 94.1354C160.301 94.1914 156.201 93.8514 151.157 93.3714C146.113 92.8914 142.025 92.4554 142.033 92.3954C142.041 92.3354 146.129 92.6834 151.177 93.1634C156.225 93.6434 160.305 94.0794 160.301 94.1354Z" fill="#263238"/>
<path d="M157.289 113.318C157.265 113.37 153.437 111.61 148.741 109.394C144.045 107.178 140.257 105.334 140.281 105.282C140.305 105.23 144.133 106.986 148.829 109.206C153.525 111.426 157.313 113.266 157.289 113.318Z" fill="#263238"/>
<path d="M144.696 131.571C144.652 131.607 141.896 128.403 138.532 124.419C135.168 120.435 132.48 117.167 132.532 117.131C132.584 117.095 135.332 120.295 138.696 124.283C142.06 128.271 144.74 131.531 144.696 131.571Z" fill="#263238"/>
<path d="M134.186 133.999C134.061 133.86 133.95 133.71 133.854 133.551C133.65 133.255 133.362 132.819 133.018 132.279C132.322 131.195 131.39 129.679 130.406 127.979C129.422 126.279 128.582 124.711 128.006 123.579C127.714 123.007 127.478 122.543 127.326 122.219C127.235 122.054 127.16 121.882 127.102 121.703C127.215 121.852 127.314 122.012 127.398 122.179C127.59 122.531 127.838 122.979 128.138 123.511C128.758 124.635 129.622 126.187 130.602 127.887C131.582 129.587 132.494 131.111 133.158 132.211C133.47 132.739 133.734 133.175 133.938 133.519C134.038 133.669 134.121 133.83 134.186 133.999Z" fill="#263238"/>
<path d="M127.66 143.16C127.66 143.16 127.62 143.108 127.556 142.996L127.296 142.508C127.068 142.08 126.76 141.456 126.392 140.68C125.656 139.124 124.708 136.94 123.808 134.468C122.908 131.996 122.228 129.716 121.808 128.068C121.588 127.236 121.408 126.556 121.32 126.088C121.276 125.872 121.24 125.688 121.208 125.544C121.192 125.481 121.182 125.416 121.18 125.352C121.212 125.409 121.235 125.471 121.248 125.536L121.4 126.068C121.54 126.564 121.724 127.224 121.948 128.028C122.42 129.68 123.12 131.952 124.02 134.428C124.92 136.904 125.84 139.076 126.544 140.648L127.384 142.5C127.472 142.7 127.548 142.868 127.612 143.004C127.634 143.053 127.65 143.106 127.66 143.16Z" fill="#263238"/>
<path d="M114.433 136.723C114.347 136.263 114.289 135.798 114.261 135.331C114.169 134.471 114.021 133.283 113.805 131.983C113.589 130.683 113.337 129.515 113.145 128.671C113.02 128.219 112.924 127.759 112.857 127.295C112.917 127.406 112.963 127.524 112.993 127.647C113.073 127.879 113.173 128.215 113.289 128.635C113.517 129.471 113.789 130.635 114.009 131.951C114.201 133.066 114.334 134.19 114.409 135.319C114.437 135.751 114.453 136.119 114.453 136.347C114.464 136.473 114.457 136.599 114.433 136.723Z" fill="#263238"/>
<path d="M105.782 148.24C105.773 148.172 105.773 148.103 105.782 148.036C105.782 147.876 105.782 147.68 105.782 147.448C105.782 146.936 105.782 146.196 105.782 145.284C105.814 143.456 105.898 140.936 106.042 138.156C106.186 135.376 106.366 132.856 106.514 131.036C106.586 130.124 106.654 129.388 106.706 128.88C106.734 128.648 106.754 128.452 106.77 128.296C106.775 128.226 106.788 128.158 106.81 128.092C106.82 128.161 106.82 128.231 106.81 128.3C106.81 128.456 106.81 128.652 106.782 128.888C106.75 129.428 106.71 130.156 106.658 131.044C106.55 132.896 106.406 135.4 106.258 138.164C106.11 140.928 106.006 143.464 105.938 145.288C105.906 146.176 105.878 146.888 105.858 147.448C105.858 147.684 105.834 147.876 105.826 148.036C105.822 148.106 105.807 148.174 105.782 148.24Z" fill="#263238"/>
<path d="M98.7503 128.092C98.7475 128.436 98.7073 128.78 98.6303 129.116C98.5263 129.74 98.3583 130.6 98.1383 131.54C97.9183 132.48 97.6863 133.328 97.5023 133.94C97.4225 134.274 97.3058 134.599 97.1543 134.908C97.1899 134.566 97.2582 134.228 97.3583 133.9L97.9343 131.5C98.1423 130.6 98.3343 129.784 98.4863 129.1C98.5418 128.756 98.6302 128.419 98.7503 128.092Z" fill="#263238"/>
<path d="M86.0331 121.998C85.5091 122.865 84.925 123.693 84.2851 124.478C83.6982 125.304 83.0581 126.091 82.3691 126.834C82.8921 125.967 83.4762 125.138 84.1171 124.354C84.7014 123.526 85.3416 122.739 86.0331 121.998Z" fill="#263238"/>
<path d="M79.3658 117.504C79.4058 117.54 76.9258 120.456 73.8218 124.012C70.7178 127.568 68.1618 130.412 68.1178 130.384C68.0738 130.356 70.5578 127.432 73.6618 123.876C76.7658 120.32 79.3218 117.464 79.3658 117.504Z" fill="#263238"/>
<path d="M76.0242 112.539C75.0433 113.485 74.0139 114.38 72.9402 115.219C71.2002 116.651 69.7602 117.779 69.7402 117.735C70.7219 116.791 71.7512 115.898 72.8242 115.059C73.848 114.166 74.916 113.325 76.0242 112.539Z" fill="#263238"/>
<path d="M72.1221 105.056C72.1461 105.108 68.6901 106.828 64.3981 108.892C60.1061 110.956 56.6141 112.592 56.5861 112.54C56.5581 112.488 60.0181 110.772 64.3101 108.704C68.6021 106.636 72.0981 105.004 72.1221 105.056Z" fill="#263238"/>
<path d="M70.5528 101.324C70.438 101.375 70.3169 101.41 70.1928 101.428C69.9568 101.484 69.6168 101.556 69.1968 101.632C68.3528 101.792 67.1768 101.968 65.8728 102.1C64.5688 102.232 63.3808 102.288 62.5208 102.3C62.0928 102.3 61.7448 102.3 61.5048 102.3C61.3797 102.308 61.2541 102.296 61.1328 102.264C61.5916 102.201 62.0538 102.165 62.5168 102.156C63.3728 102.104 64.5528 102.024 65.8528 101.892C67.1528 101.76 68.3248 101.608 69.1728 101.492C69.6283 101.404 70.0894 101.348 70.5528 101.324Z" fill="#263238"/>
<path d="M69.2854 92.7015C69.0525 92.7209 68.8183 92.7209 68.5854 92.7015L66.6814 92.6056C65.0814 92.5256 62.8574 92.4536 60.4054 92.4656C57.9534 92.4776 55.7294 92.5776 54.1254 92.6736L52.2254 92.7895C51.9931 92.8161 51.759 92.8242 51.5254 92.8135C51.7526 92.759 51.9842 92.7242 52.2174 92.7096C52.6654 92.6576 53.3134 92.5936 54.1134 92.5256C55.7134 92.3936 57.9454 92.2735 60.4014 92.2575C62.8574 92.2415 65.0854 92.3415 66.6934 92.4575C67.4934 92.5175 68.1454 92.5736 68.5934 92.6216C68.8256 92.632 69.0569 92.6587 69.2854 92.7015Z" fill="#263238"/>
<path d="M70.0707 85.1352C70.0707 85.1912 67.4667 84.5152 64.2867 83.6272C61.1067 82.7392 58.5427 81.9792 58.5587 81.9232C58.5747 81.8672 61.1627 82.5392 64.3427 83.4272C67.5227 84.3152 70.0867 85.0792 70.0707 85.1352Z" fill="#263238"/>
<path d="M71.7452 78.7992C71.6809 78.7954 71.6175 78.7819 71.5572 78.7592L71.0252 78.5992C70.5692 78.4552 69.9092 78.2312 69.1052 77.9392C67.0044 77.1678 64.9455 76.2866 62.9372 75.2992C60.9296 74.3107 58.9761 73.2158 57.0852 72.0192C56.3612 71.5592 55.7812 71.1752 55.3892 70.8992L54.9412 70.5752C54.8412 70.4992 54.7892 70.4592 54.7932 70.4512C54.8537 70.4755 54.9113 70.5064 54.9652 70.5432L55.4372 70.8312C55.8372 71.0872 56.4292 71.4512 57.1612 71.8952C58.6292 72.7832 60.6852 73.9552 63.0292 75.0952C65.3732 76.2352 67.5572 77.1632 69.1572 77.7872C69.9572 78.0952 70.6012 78.3392 71.0532 78.5072L71.5692 78.7032C71.6304 78.7302 71.6893 78.7623 71.7452 78.7992Z" fill="#263238"/>
<path d="M75.5084 72.3986C75.4764 72.4426 73.4524 71.0746 70.9884 69.3386C68.5244 67.6026 66.5524 66.1586 66.5884 66.1106C66.6244 66.0626 68.6444 67.4346 71.1124 69.1706C73.5804 70.9066 75.5404 72.3626 75.5084 72.3986Z" fill="#263238"/>
<path d="M67.5535 52.9688C67.5535 52.9688 67.6095 53.0008 67.7055 53.0768L68.1055 53.4288L69.5815 54.7328L74.4255 59.0568L79.2895 63.3568L80.7615 64.6648L81.1615 65.0288C81.2098 65.0684 81.2528 65.1141 81.2895 65.1648C81.2895 65.1648 81.2335 65.1367 81.1335 65.0607L80.7335 64.7288C80.3695 64.4368 79.8535 64.0048 79.2175 63.4688C77.9455 62.3968 76.2095 60.8968 74.3095 59.2128C72.4095 57.5288 70.7095 55.9768 69.5095 54.8408C68.9015 54.2728 68.4135 53.8128 68.0775 53.4848L67.6975 53.1088C67.6015 53.0208 67.5455 52.9728 67.5535 52.9688Z" fill="#263238"/>
<path d="M80.0293 53.332C80.0293 53.332 80.1373 53.42 80.3013 53.608C80.4653 53.796 80.7013 54.072 80.9773 54.408C81.5333 55.104 82.2733 56.088 83.0413 57.208C83.8093 58.328 84.4533 59.376 84.8973 60.148C85.1213 60.548 85.2973 60.848 85.4093 61.068C85.4785 61.1775 85.5324 61.2959 85.5693 61.42C85.2761 61.0384 85.0088 60.6375 84.7693 60.22C84.2933 59.468 83.6293 58.44 82.8653 57.32C82.1013 56.2 81.3813 55.212 80.8653 54.496C80.5637 54.125 80.2846 53.7363 80.0293 53.332Z" fill="#263238"/>
<g opacity="0.2">
<path d="M64.041 49.9265L81.445 65.1625L85.769 61.7025L75.673 46.2305C75.673 46.2305 74.897 46.7985 72.873 47.3745C70.941 47.9305 65.201 48.0785 64.041 49.9265Z" fill="black"/>
</g>
<g opacity="0.2">
<path d="M83.416 37.0396L91.912 58.3076L97.344 56.6076L95.532 38.1596C95.532 38.1596 94.6 38.3796 92.524 38.1156C90.512 37.8596 85.636 35.9516 83.416 37.0396Z" fill="black"/>
</g>
<g opacity="0.3">
<path d="M106.068 32.5875L106.64 55.6835L111.728 55.9275L116.88 38.1995C115.81 37.987 114.792 37.5656 113.884 36.9595C112.124 35.8315 108.532 32.3995 106.068 32.5875Z" fill="black"/>
</g>
<g opacity="0.2">
<path d="M128.262 36.9512L119.818 58.2432L124.402 60.4392L136.022 46.0952C135.149 45.3579 134.404 44.4806 133.818 43.4992C132.722 41.7272 130.834 37.6592 128.262 36.9512Z" fill="black"/>
</g>
<g opacity="0.2">
<path d="M148.095 50.2344L132.367 66.6344L135.871 71.3584L151.239 61.1024C150.733 60.1703 150.391 59.1583 150.227 58.1104C149.859 56.1104 149.807 52.4784 148.095 50.2344Z" fill="black"/>
</g>
<g opacity="0.2">
<path d="M160.512 68.7402L139.332 77.4562L141.088 82.8682L159.516 80.8682C159.516 80.8682 159.4 80.3002 159.644 78.2242C159.876 76.2122 162.004 71.7162 160.512 68.7402Z" fill="black"/>
</g>
<g opacity="0.2">
<path d="M165.202 91.8164L142.11 92.6164L141.918 97.7084L159.518 102.86C159.635 102.127 159.87 101.418 160.214 100.76C161.526 98.3124 165.202 94.8564 165.202 91.8164Z" fill="black"/>
</g>
<g opacity="0.2">
<path d="M160.943 113.647L139.683 105.363L137.535 109.999L152.003 121.451C152.764 120.723 153.605 120.084 154.511 119.547C156.271 118.423 160.455 116.603 160.943 113.647Z" fill="black"/>
</g>
<g opacity="0.2">
<path d="M129.672 113.32L124.408 117.72C124.808 118.12 131.82 130.056 136.144 137.424C136.2 137.376 136.259 137.33 136.32 137.288C139.164 135.384 144.228 136.148 147.084 134.264L129.672 113.32Z" fill="black"/>
<path d="M120.002 121.672L112.146 124.352L115.866 145.68C116.108 145.595 116.355 145.527 116.606 145.476C120.31 144.744 125.194 147.968 128.606 146.556C129.074 146.356 129.508 146.086 129.894 145.756L120.002 121.672Z" fill="black"/>
<path d="M105.657 151.039L106.909 123.175L100.109 121.451L95.0566 145.451L95.2406 145.483C98.7606 146.167 101.965 150.799 105.657 151.039Z" fill="black"/>
<path d="M88.5783 118.443C88.5783 118.443 79.6022 130.467 74.9062 136.939C75.1236 137.049 75.3346 137.17 75.5383 137.303C78.6223 139.367 79.7863 145.115 83.2543 146.555C83.4143 146.619 83.5783 146.671 83.7423 146.719L96.2822 122.983L88.5783 118.443Z" fill="black"/>
<path d="M79.3647 108.766L60.2207 121.922C60.2927 122.018 60.3727 122.11 60.4367 122.21C62.5167 125.314 61.4087 131.07 64.0367 133.702C64.2793 133.94 64.5476 134.151 64.8367 134.33C71.6007 126.706 83.7447 113.018 84.1847 112.542L79.3647 108.766Z" fill="black"/>
<path d="M74.9775 99.3691L52.3415 103.025C52.7055 106.657 49.8415 111.241 51.1895 114.489C51.2707 114.688 51.3684 114.879 51.4815 115.061C59.4015 111.117 75.9495 102.913 76.6375 102.869L74.9775 99.3691Z" fill="black"/>
<path d="M73.7414 86.7599L52.3454 80.5879C52.3254 80.7719 52.3014 80.9559 52.2694 81.1359C51.5574 84.7359 46.6934 88.0119 46.6934 91.8159C46.6945 92.0692 46.7159 92.322 46.7574 92.5719H72.8734L73.7414 86.7599Z" fill="black"/>
<path d="M51.2773 68.9716C59.2773 73.2556 74.9053 81.9236 74.9053 81.9236L78.7533 74.6156L60.6813 61.0156C60.6013 61.1556 60.5253 61.2996 60.4373 61.4156C58.4013 64.4516 52.8293 65.6356 51.2773 68.9716Z" fill="black"/>
</g>
<path d="M165.162 91.8152L165.138 91.5592C165.128 91.3084 165.093 91.0591 165.034 90.8152C164.801 89.8561 164.394 88.9477 163.834 88.1353C163.146 87.0312 162.106 85.7952 161.034 84.2313C160.428 83.3993 159.964 82.4737 159.658 81.4912C159.397 80.3445 159.397 79.154 159.658 78.0073C159.882 76.7873 160.246 75.5312 160.562 74.1992C160.878 72.8672 161.174 71.4272 160.878 69.9552C160.71 69.2102 160.369 68.5153 159.882 67.9273C159.359 67.3285 158.762 66.7989 158.106 66.3513C156.778 65.4073 155.25 64.6552 153.79 63.6712C153.034 63.1842 152.348 62.5976 151.75 61.9273C151.162 61.1996 150.736 60.3558 150.498 59.4513C149.986 57.6313 149.87 55.6873 149.482 53.7432C149.312 52.7534 148.978 51.7989 148.494 50.9193C147.968 50.0337 147.169 49.3419 146.218 48.9473C145.236 48.5526 144.207 48.2838 143.158 48.1473C142.098 47.9713 141.01 47.8472 139.922 47.6552C138.807 47.4945 137.726 47.1527 136.722 46.6432C135.726 46.0446 134.882 45.2231 134.258 44.2433C133.594 43.2913 133.022 42.2673 132.414 41.2552C131.831 40.2198 131.134 39.2536 130.334 38.3753C129.509 37.4867 128.385 36.9352 127.178 36.8272C125.944 36.7816 124.711 36.926 123.522 37.2552C122.322 37.5472 121.09 37.9032 119.83 38.1392C118.556 38.4394 117.227 38.4147 115.966 38.0672C114.736 37.5848 113.586 36.92 112.554 36.0952C111.486 35.2952 110.446 34.4952 109.306 33.7832C108.166 33.0712 106.874 32.5552 105.53 32.7072H105.278C105.194 32.7072 105.114 32.7433 105.034 32.7593C104.87 32.7993 104.702 32.8273 104.542 32.8753C104.22 32.9777 103.904 33.1006 103.598 33.2433C102.979 33.5375 102.385 33.8813 101.822 34.2713C100.686 35.0712 99.6098 35.9432 98.4418 36.7352C97.8603 37.1423 97.2446 37.4983 96.6018 37.7992C95.9429 38.094 95.2377 38.2713 94.5178 38.3232C93.0745 38.3325 91.6377 38.129 90.2538 37.7193C88.8603 37.3214 87.439 37.0286 86.0018 36.8432C85.2841 36.7726 84.5596 36.8213 83.8578 36.9873C83.1587 37.1816 82.5139 37.5348 81.9738 38.0193C80.8698 38.9833 80.1018 40.2792 79.3338 41.5512C78.6087 42.8832 77.761 44.1447 76.8018 45.3193C76.2939 45.9011 75.6839 46.3851 75.0018 46.7473C74.3054 47.0765 73.5741 47.326 72.8218 47.4913C71.3178 47.8233 69.7818 47.9632 68.2658 48.2352C66.7498 48.5072 65.2018 48.9352 64.1058 49.9993C63.5768 50.5627 63.1684 51.2283 62.9058 51.9552C62.6409 52.6884 62.4467 53.4452 62.3258 54.2152C62.0458 55.7592 61.9258 57.3433 61.5258 58.8993C61.3539 59.6889 61.0668 60.4491 60.6738 61.1552C60.2597 61.8549 59.7168 62.4697 59.0738 62.9672C57.8098 63.9832 56.3738 64.7353 54.9978 65.5753C54.3084 65.9901 53.647 66.4498 53.0178 66.9513C52.3918 67.4515 51.8654 68.0647 51.4658 68.7592C51.0848 69.4666 50.8919 70.26 50.9058 71.0633C50.9199 71.8707 51.0151 72.6748 51.1898 73.4633C51.5258 75.0633 52.0338 76.6353 52.3058 78.2633C52.467 79.0987 52.4994 79.954 52.4018 80.7993C52.2882 81.6424 52.0168 82.4566 51.6018 83.1992C50.7658 84.6592 49.6778 85.9432 48.7138 87.3032C48.2187 87.9735 47.7875 88.6886 47.4258 89.4393C47.0295 90.1714 46.8219 90.9907 46.8219 91.8232C46.8219 92.6558 47.0295 93.4751 47.4258 94.2073C47.7869 94.9582 48.2181 95.6734 48.7138 96.3433C49.6778 97.7032 50.7658 98.9873 51.6018 100.447C52.0092 101.176 52.2803 101.973 52.4018 102.799C52.5034 103.633 52.4764 104.478 52.3218 105.303C52.0538 106.947 51.5458 108.523 51.2058 110.123C51.0325 110.912 50.9374 111.716 50.9218 112.523C50.906 113.328 51.0975 114.122 51.4778 114.831C51.8743 115.528 52.3996 116.143 53.0258 116.643C53.655 117.145 54.3164 117.604 55.0058 118.019C56.3818 118.859 57.8058 119.619 59.0858 120.627C59.7277 121.126 60.2704 121.741 60.6858 122.439C61.0818 123.143 61.369 123.902 61.5378 124.691C61.9138 126.251 62.0418 127.835 62.3378 129.379C62.462 130.149 62.6575 130.906 62.9218 131.639C63.1782 132.366 63.5797 133.033 64.1018 133.599C65.2098 134.675 66.7698 135.103 68.2658 135.375C69.7618 135.647 71.3178 135.775 72.8218 136.119C73.5752 136.285 74.3078 136.535 75.0058 136.863C75.687 137.227 76.2968 137.711 76.8058 138.291C77.7555 139.468 78.595 140.729 79.3138 142.059C80.0818 143.331 80.8498 144.627 81.9538 145.591C82.493 146.075 83.1363 146.428 83.8338 146.623C84.5416 146.802 85.2743 146.861 86.0018 146.799C87.4364 146.606 88.8549 146.308 90.2458 145.907C91.6305 145.494 93.0688 145.289 94.5138 145.299C95.2337 145.354 95.9388 145.532 96.5978 145.827C97.2402 146.129 97.8557 146.485 98.4378 146.891C99.6058 147.691 100.678 148.575 101.818 149.351C102.379 149.744 102.971 150.089 103.59 150.383C103.897 150.525 104.212 150.648 104.534 150.751C104.698 150.795 104.862 150.827 105.026 150.867L105.274 150.919H105.522C106.87 151.071 108.166 150.519 109.302 149.843C110.438 149.167 111.482 148.315 112.546 147.531C113.579 146.707 114.731 146.042 115.962 145.559C117.224 145.214 118.552 145.189 119.826 145.487C121.086 145.727 122.302 146.083 123.518 146.375C124.709 146.701 125.943 146.845 127.178 146.803C128.384 146.691 129.506 146.139 130.33 145.251C131.127 144.369 131.825 143.402 132.41 142.367C133.014 141.359 133.586 140.335 134.25 139.379C134.878 138.401 135.722 137.58 136.718 136.979C137.722 136.469 138.803 136.129 139.918 135.971C141.01 135.775 142.094 135.651 143.154 135.479C144.204 135.336 145.232 135.061 146.214 134.659C147.164 134.263 147.962 133.572 148.49 132.687C148.971 131.807 149.304 130.852 149.474 129.863C149.874 127.919 149.978 125.971 150.494 124.151C150.729 123.247 151.156 122.404 151.746 121.679C152.342 121.007 153.029 120.42 153.786 119.935C155.246 118.951 156.774 118.199 158.098 117.255C158.757 116.808 159.356 116.277 159.878 115.675C160.364 115.089 160.704 114.395 160.87 113.651C161.009 112.933 161.03 112.196 160.93 111.471C160.847 110.776 160.722 110.087 160.554 109.407C160.234 108.075 159.874 106.819 159.65 105.599C159.389 104.453 159.389 103.262 159.65 102.115C159.957 101.134 160.422 100.208 161.026 99.3753C162.11 97.8112 163.154 96.5752 163.826 95.4712C164.387 94.6592 164.794 93.7507 165.026 92.7912C165.086 92.5474 165.12 92.2981 165.13 92.0472L165.154 91.7953C165.154 91.7953 165.154 91.8792 165.154 92.0472C165.146 92.2991 165.114 92.5496 165.058 92.7953C164.83 93.7623 164.423 94.6782 163.858 95.4953C163.174 96.6073 162.138 97.8473 161.058 99.4112C160.458 100.238 159.999 101.158 159.702 102.135C159.442 103.27 159.442 104.449 159.702 105.583C159.926 106.783 160.29 108.051 160.614 109.383C160.788 110.068 160.922 110.763 161.014 111.463C161.113 112.198 161.093 112.943 160.954 113.671C160.787 114.432 160.441 115.142 159.946 115.743C159.419 116.352 158.815 116.89 158.15 117.343C156.814 118.295 155.29 119.051 153.838 120.031C153.096 120.513 152.424 121.093 151.838 121.755C151.26 122.469 150.843 123.298 150.614 124.187C150.106 125.987 149.994 127.931 149.602 129.887C149.433 130.892 149.096 131.862 148.606 132.755C148.065 133.666 147.246 134.378 146.27 134.787C145.278 135.194 144.24 135.474 143.178 135.619C142.114 135.795 141.026 135.919 139.942 136.115C138.841 136.272 137.774 136.609 136.782 137.111C135.814 137.698 134.993 138.499 134.382 139.451C133.726 140.399 133.154 141.419 132.546 142.435C131.957 143.481 131.254 144.457 130.45 145.347C129.599 146.264 128.439 146.834 127.194 146.947C125.942 146.996 124.69 146.852 123.482 146.519C122.262 146.227 121.046 145.875 119.798 145.639C118.552 145.348 117.253 145.371 116.018 145.707C114.806 146.185 113.672 146.842 112.654 147.655C111.594 148.435 110.55 149.275 109.398 149.979C109.098 150.139 108.814 150.327 108.502 150.459C108.346 150.531 108.194 150.607 108.038 150.671L107.554 150.843C106.897 151.069 106.2 151.15 105.51 151.083L105.25 151.063C105.166 151.063 105.082 151.027 104.994 151.011C104.826 150.971 104.654 150.939 104.49 150.891C104.157 150.789 103.833 150.663 103.518 150.515C102.89 150.217 102.288 149.868 101.718 149.471C100.57 148.671 99.4938 147.799 98.3378 147.011C97.7635 146.613 97.1574 146.262 96.5258 145.963C95.8867 145.679 95.2033 145.507 94.5058 145.455C93.0797 145.449 91.6605 145.652 90.2938 146.059C88.8883 146.473 87.4535 146.779 86.0018 146.975C85.26 147.048 84.5113 146.998 83.7858 146.827C83.059 146.625 82.3884 146.258 81.8258 145.755C80.6898 144.759 79.9138 143.451 79.1458 142.175C78.4341 140.855 77.6012 139.605 76.6578 138.439C76.1663 137.876 75.5751 137.408 74.9138 137.059C74.2321 136.735 73.5154 136.491 72.7778 136.331C71.2898 136.003 69.7578 135.863 68.2298 135.587C67.46 135.459 66.7035 135.261 65.9698 134.995C65.2256 134.722 64.545 134.3 63.9698 133.755C63.4238 133.172 63.0055 132.481 62.7418 131.727C62.4717 130.982 62.2722 130.214 62.1458 129.431C61.8658 127.875 61.7458 126.291 61.3458 124.755C61.1797 123.986 60.8992 123.246 60.5138 122.559C60.1089 121.881 59.5796 121.285 58.9538 120.803C57.7138 119.807 56.2818 119.055 54.9018 118.211C54.2056 117.791 53.5375 117.326 52.9018 116.819C52.2547 116.301 51.7118 115.664 51.3018 114.943C50.9068 114.206 50.7084 113.379 50.7258 112.543C50.7353 111.715 50.8318 110.891 51.0138 110.083C51.3538 108.483 51.8618 106.883 52.1258 105.283C52.2768 104.477 52.3024 103.653 52.2018 102.839C52.0806 102.031 51.8093 101.252 51.4018 100.543C50.6018 99.1032 49.4978 97.8272 48.5258 96.4552C48.0192 95.7717 47.5761 95.0433 47.2018 94.2792C46.7949 93.5188 46.582 92.6697 46.582 91.8073C46.582 90.9448 46.7949 90.0957 47.2018 89.3352C47.5709 88.5735 48.0102 87.8477 48.5138 87.1672C49.4858 85.7952 50.5698 84.5193 51.3858 83.0833C51.7929 82.3729 52.0642 81.5929 52.1858 80.7833C52.2791 79.9691 52.2521 79.1456 52.1058 78.3393C51.8378 76.7393 51.3298 75.1393 50.9898 73.5393C50.8111 72.7325 50.7159 71.9095 50.7058 71.0833C50.6898 70.2467 50.8896 69.4202 51.2858 68.6833C51.6985 67.9655 52.241 67.3307 52.8858 66.8112C53.5205 66.303 54.1887 65.8379 54.8858 65.4193C56.2658 64.5753 57.6858 63.8193 58.9378 62.8273C59.5625 62.3452 60.0904 61.7494 60.4938 61.0712C60.8773 60.383 61.1564 59.6416 61.3218 58.8712C61.6938 57.3352 61.8218 55.7552 62.1218 54.1992C62.2468 53.4171 62.445 52.6484 62.7138 51.9032C62.955 51.1405 63.3748 50.4465 63.9384 49.8787C64.5019 49.311 65.1929 48.8861 65.9538 48.6392C66.6875 48.3734 67.444 48.1753 68.2138 48.0473C69.7418 47.7713 71.2738 47.6472 72.7618 47.3072C73.498 47.1426 74.2142 46.8985 74.8978 46.5792C75.5571 46.2276 76.1468 45.7586 76.6378 45.1952C77.5812 44.0298 78.4141 42.7791 79.1258 41.4593C79.8938 40.1833 80.6698 38.8752 81.8098 37.8832C82.3752 37.3732 83.0518 37.002 83.7858 36.7992C84.5116 36.6305 85.26 36.5805 86.0018 36.6512C87.4446 36.8442 88.8712 37.1436 90.2698 37.5473C91.6359 37.9574 93.0554 38.1623 94.4818 38.1552C95.1728 38.1002 95.8493 37.927 96.4818 37.6432C97.1155 37.3481 97.7219 36.9974 98.2938 36.5952C99.4538 35.7952 100.53 34.9192 101.678 34.1392C102.247 33.7408 102.849 33.3916 103.478 33.0952C103.792 32.9487 104.116 32.8217 104.446 32.7153C104.614 32.6673 104.786 32.6392 104.954 32.5992L105.206 32.5433H105.466C106.156 32.478 106.853 32.5598 107.51 32.7832L107.994 32.9552C108.15 33.0192 108.302 33.0952 108.458 33.1672C108.774 33.3032 109.058 33.4873 109.354 33.6473C110.51 34.3513 111.55 35.1912 112.614 35.9712C113.631 36.784 114.763 37.4406 115.974 37.9193C117.208 38.2576 118.508 38.2809 119.754 37.9873C121.002 37.7553 122.218 37.4032 123.438 37.1112C124.646 36.779 125.898 36.6333 127.15 36.6792C128.395 36.7936 129.554 37.3633 130.406 38.2792C131.211 39.1707 131.916 40.1487 132.506 41.1952C133.114 42.2072 133.682 43.2313 134.338 44.1753C134.948 45.1297 135.769 45.9316 136.738 46.5193C137.729 47.0234 138.797 47.36 139.898 47.5153C140.982 47.7113 142.07 47.8352 143.134 48.0112C144.195 48.1584 145.234 48.4379 146.226 48.8433C147.202 49.252 148.022 49.9627 148.566 50.8713C149.054 51.7655 149.391 52.7347 149.562 53.7393C149.962 55.6953 150.066 57.6393 150.57 59.4393C150.801 60.3273 151.218 61.1562 151.794 61.8712C152.378 62.5358 153.051 63.1172 153.794 63.5992C155.246 64.5793 156.774 65.3353 158.106 66.2873C158.771 66.7407 159.375 67.2785 159.902 67.8872C160.398 68.487 160.744 69.1957 160.914 69.9552C161.053 70.6845 161.073 71.4315 160.974 72.1672C160.882 72.8666 160.748 73.5599 160.574 74.2433C160.254 75.5793 159.886 76.8312 159.662 78.0472C159.402 79.1819 159.402 80.3606 159.662 81.4953C159.959 82.4722 160.418 83.3928 161.018 84.2192C162.094 85.7873 163.13 87.0192 163.818 88.1353C164.382 88.9529 164.789 89.8685 165.018 90.8352C165.074 91.0809 165.106 91.3314 165.114 91.5833C165.162 91.7273 165.162 91.8152 165.162 91.8152Z" fill="#263238"/>
<path d="M94.8014 146.799C94.8575 146.799 93.3814 152.799 91.5054 160.167C89.6294 167.535 88.0614 173.499 88.0054 173.487C87.9494 173.475 89.4255 167.487 91.3015 160.115C93.1775 152.743 94.7614 146.767 94.8014 146.799Z" fill="#263238"/>
<path d="M105.931 128.128C125.986 128.128 142.243 111.87 142.243 91.8159C142.243 71.7613 125.986 55.5039 105.931 55.5039C85.8766 55.5039 69.6191 71.7613 69.6191 91.8159C69.6191 111.87 85.8766 128.128 105.931 128.128Z" fill="white"/>
<path d="M83.57 79.2326C83.07 79.7326 80.318 84.7405 80.066 88.8725C79.814 93.0045 80.41 116.197 80.41 116.197L80.518 117.737C87.054 125.381 110.814 136.757 132.214 117.697L133.414 103.429L129.882 73.2245L117.602 70.2206L114.726 65.5605L95.558 70.0485L93.846 74.0885L83.57 79.2326Z" fill="#455A64"/>
<path d="M113.41 53.4154C114.254 50.2754 115.082 47.1154 115.374 43.8794C115.666 40.6434 115.398 37.2994 114.11 34.3154C113.914 33.8634 112.294 30.8434 111.806 30.9194C111.458 30.9714 112.506 33.8114 112.346 34.1194C110.806 37.1074 110.526 40.6154 110.97 43.9474C111.428 47.1831 112.247 50.3575 113.41 53.4114" fill="#263238"/>
<path d="M113.089 41.0147C112.937 32.8667 108.065 26.1667 99.9252 26.5467L99.1732 26.6267C95.5323 27.0105 92.1694 28.7507 89.7532 31.5011C87.337 34.2516 86.0447 37.8107 86.1332 41.4707C86.3092 48.5307 86.5892 56.3307 87.0332 60.0827C87.9492 67.8467 95.8332 68.2387 95.8332 68.2387L96.1972 73.3467L99.5372 76.9747L115.021 67.3747L113.089 41.0147Z" fill="#FFBF9D"/>
<path d="M95.8535 68.3002C95.8535 68.3002 100.786 68.0722 105.662 64.2402C105.662 64.2402 104.03 71.2842 96.1975 71.4002L95.8535 68.3002Z" fill="#FFAF1E"/>
<path d="M90.6089 47.8029C90.6364 48.0949 90.7776 48.3644 91.0022 48.553C91.2268 48.7417 91.5166 48.8343 91.8089 48.8109C91.9513 48.8074 92.0915 48.7754 92.2213 48.7168C92.3511 48.6583 92.4679 48.5744 92.5648 48.47C92.6617 48.3656 92.7368 48.243 92.7856 48.1092C92.8343 47.9754 92.8559 47.8332 92.8489 47.6909C92.8205 47.3994 92.6789 47.1305 92.4546 46.9421C92.2303 46.7537 91.941 46.6606 91.6489 46.6829C91.5064 46.686 91.3659 46.7176 91.2358 46.776C91.1058 46.8343 90.9887 46.9182 90.8917 47.0227C90.7947 47.1272 90.7197 47.2501 90.6711 47.3841C90.6225 47.5181 90.6014 47.6606 90.6089 47.8029Z" fill="#263238"/>
<path d="M88.1377 44.5227C88.2897 44.6507 89.0657 43.9427 90.2617 43.8187C91.4577 43.6947 92.3937 44.2187 92.5097 44.0387C92.5657 43.9707 92.3977 43.7227 91.9857 43.4827C91.4313 43.1804 90.7973 43.0561 90.1697 43.1267C89.5483 43.1907 88.963 43.4497 88.4977 43.8667C88.1577 44.1907 88.0617 44.4627 88.1377 44.5227Z" fill="#263238"/>
<path d="M101.165 46.9085C101.193 47.2005 101.334 47.4699 101.559 47.6585C101.783 47.8472 102.073 47.9398 102.365 47.9165C102.508 47.9129 102.648 47.8809 102.778 47.8224C102.908 47.7638 103.024 47.6799 103.121 47.5755C103.218 47.4712 103.293 47.3485 103.342 47.2147C103.391 47.0809 103.412 46.9387 103.405 46.7965C103.378 46.5042 103.237 46.2343 103.012 46.0451C102.788 45.8558 102.498 45.7622 102.205 45.7845C102.063 45.7886 101.922 45.8211 101.793 45.88C101.663 45.939 101.546 46.0233 101.449 46.128C101.352 46.2327 101.277 46.3556 101.229 46.4896C101.18 46.6236 101.158 46.766 101.165 46.9085Z" fill="#263238"/>
<path d="M99.8936 43.7714C100.046 43.9034 100.826 43.1914 102.018 43.0674C103.21 42.9434 104.154 43.4674 104.266 43.2914C104.322 43.2194 104.158 42.9714 103.746 42.7354C103.19 42.4315 102.554 42.3072 101.926 42.3794C101.303 42.4407 100.717 42.7001 100.254 43.1194C99.9176 43.4394 99.8216 43.7154 99.8936 43.7714Z" fill="#263238"/>
<path d="M96.5752 53.4065C96.5752 53.3385 95.8192 53.2865 94.5992 53.2585C94.2912 53.2585 93.9952 53.2305 93.9232 53.0265C93.8628 52.7147 93.9005 52.3919 94.0312 52.1025L94.6872 49.7025C95.5912 46.2625 96.2112 43.4465 96.0752 43.4105C95.9392 43.3745 95.0872 46.1345 94.1832 49.5785L93.5672 51.9985C93.4165 52.3825 93.4052 52.8071 93.5352 53.1985C93.5898 53.3027 93.6676 53.3929 93.7626 53.4623C93.8576 53.5317 93.9673 53.5783 94.0832 53.5985C94.2572 53.6198 94.4331 53.6198 94.6072 53.5985C95.8272 53.5465 96.5792 53.4745 96.5752 53.4065Z" fill="#263238"/>
<path d="M100.177 53.8639C99.9811 53.8639 100.117 55.1679 99.1051 56.2079C98.0931 57.2479 96.7051 57.2479 96.7051 57.4319C96.7051 57.5119 97.0371 57.6519 97.6251 57.6039C98.3824 57.5328 99.0906 57.1971 99.6251 56.6559C100.135 56.1322 100.422 55.4309 100.425 54.6999C100.445 54.1519 100.265 53.8479 100.177 53.8639Z" fill="#263238"/>
<path d="M99.4495 38.9146C99.6015 39.2266 100.778 38.9466 102.198 38.9706C103.618 38.9946 104.794 39.2546 104.946 38.9426C105.014 38.7946 104.786 38.5106 104.294 38.2426C103.641 37.9261 102.925 37.7617 102.2 37.7617C101.474 37.7617 100.758 37.9261 100.106 38.2426C99.6015 38.4826 99.3815 38.7666 99.4495 38.9146Z" fill="#263238"/>
<path d="M88.2128 40.5001C88.4488 40.7481 89.2448 40.3801 90.2328 40.2601C91.2208 40.1401 92.0808 40.2601 92.2328 39.9481C92.3048 39.8001 92.1448 39.5481 91.7528 39.3241C91.2276 39.068 90.6383 38.9735 90.0594 39.0525C89.4805 39.1316 88.938 39.3806 88.5008 39.7681C88.1888 40.0841 88.1048 40.3761 88.2128 40.5001Z" fill="#263238"/>
<path d="M113.062 46.8432C113.19 46.7712 118.239 44.6992 118.631 50.0432C119.023 55.3872 113.603 54.6592 113.567 54.5072C113.531 54.3552 113.062 46.8432 113.062 46.8432Z" fill="#FFBF9D"/>
<path d="M115.046 52.3675C115.07 52.3675 115.142 52.4235 115.306 52.4835C115.534 52.5624 115.784 52.5495 116.002 52.4475C116.55 52.1995 116.958 51.2715 116.914 50.3075C116.896 49.849 116.774 49.4005 116.558 48.9955C116.496 48.8328 116.395 48.6878 116.264 48.5728C116.133 48.4578 115.976 48.3764 115.806 48.3355C115.698 48.3141 115.586 48.3317 115.489 48.3851C115.392 48.4385 115.318 48.5244 115.278 48.6275C115.214 48.7835 115.258 48.8875 115.23 48.8995C115.202 48.9115 115.11 48.8155 115.134 48.5955C115.155 48.4603 115.222 48.3362 115.322 48.2435C115.461 48.1224 115.642 48.0607 115.826 48.0715C116.049 48.0978 116.26 48.1813 116.44 48.3138C116.62 48.4463 116.763 48.6233 116.854 48.8275C117.117 49.2724 117.266 49.7754 117.286 50.2915C117.33 51.3675 116.854 52.4155 116.086 52.6915C115.947 52.7442 115.797 52.7647 115.648 52.7516C115.499 52.7384 115.355 52.6919 115.226 52.6155C115.066 52.4955 115.03 52.3755 115.046 52.3675Z" fill="#FFAF1E"/>
<path d="M89.0189 32.3994C88.1269 31.9754 90.5389 29.0114 92.6189 27.9114C95.7349 26.2514 100.575 25.0394 103.587 25.6874C107.215 26.4874 110.287 28.0474 112.283 31.1754C114.279 34.3034 115.195 38.0354 115.331 41.7434C115.371 42.8754 115.331 44.0594 114.787 45.0514C114.119 46.2794 112.735 47.1154 112.903 48.7394C112.943 49.0326 112.924 49.3309 112.847 49.6166C112.77 49.9024 112.637 50.1699 112.455 50.4034C111.543 51.5074 110.287 50.6074 109.675 49.6634C108.367 47.6634 108.075 45.1634 107.819 42.7714C107.635 41.0754 107.455 39.3394 107.819 37.6754C108.019 36.7674 108.387 35.8994 108.539 34.9834C108.691 34.0674 108.599 33.0474 107.991 32.3434C107.849 32.1957 107.694 32.0618 107.527 31.9434C106.74 31.3394 105.806 30.9564 104.821 30.8341C103.837 30.7117 102.838 30.8544 101.927 31.2474C98.9869 32.5034 93.9589 34.4234 92.5509 33.4874C90.5309 32.1434 90.0029 31.1994 90.0029 31.1994L89.0189 32.3994Z" fill="#263238"/>
<path d="M83.569 79.2324C83.261 79.6604 78.8891 81.1124 77.2291 83.8764C75.5691 86.6404 73.9291 99.0484 73.9291 99.0484L72.873 107.2C74.953 110.488 77.745 114.844 80.705 117.916L83.569 79.2324Z" fill="#455A64"/>
<g opacity="0.3">
<path d="M116.422 91.1992C116.54 92.8722 116.857 94.5252 117.366 96.1232C117.938 97.6952 118.942 99.1752 120.41 99.9872C121.022 100.323 121.714 100.547 122.23 101.027C122.746 101.507 123.058 102.283 123.558 102.847C124.183 103.468 124.955 103.92 125.802 104.163C128.185 105.037 130.713 105.444 133.25 105.363C133.33 104.507 133.334 101.363 133.414 100.503L116.422 91.1992Z" fill="black"/>
</g>
<path d="M129.881 73.2246C129.881 73.2246 135.393 74.8566 137.009 77.2046C138.625 79.5526 141.485 88.6566 142.073 90.3446C142.661 92.0326 142.145 95.9446 141.045 98.7446C139.945 101.545 138.033 103.981 134.733 104.345C131.433 104.709 126.217 102.805 125.041 101.545C123.865 100.285 123.381 97.4966 123.381 97.4966C124.846 97.2397 126.291 96.8775 127.705 96.4126" fill="#455A64"/>
<path d="M127.706 96.439L127.638 96.467L127.43 96.543C127.246 96.607 126.97 96.699 126.606 96.807C125.554 97.1215 124.486 97.3779 123.406 97.575L123.45 97.515C123.584 98.2023 123.773 98.8777 124.014 99.535C124.146 99.9076 124.305 100.27 124.49 100.619C124.68 100.992 124.93 101.331 125.23 101.623C125.569 101.914 125.942 102.161 126.342 102.359C126.764 102.581 127.198 102.78 127.642 102.955C128.594 103.336 129.573 103.646 130.57 103.883C131.647 104.147 132.75 104.288 133.858 104.303C134.147 104.306 134.435 104.292 134.722 104.263C135.011 104.23 135.299 104.179 135.582 104.111C136.163 103.98 136.721 103.763 137.238 103.467C138.314 102.845 139.217 101.963 139.866 100.903C140.552 99.8019 141.077 98.6085 141.426 97.359C141.711 96.3989 141.923 95.4188 142.062 94.427C142.211 93.4667 142.259 92.4934 142.206 91.523C142.174 91.0562 142.079 90.5959 141.922 90.155C141.77 89.707 141.622 89.263 141.478 88.823L140.618 86.251C140.05 84.579 139.49 82.999 138.93 81.531C138.438 80.165 137.846 78.8374 137.158 77.559C136.84 77.0157 136.416 76.5422 135.91 76.167C135.469 75.8165 135.001 75.5021 134.51 75.227C133.721 74.7769 132.905 74.3761 132.066 74.027C131.378 73.743 130.834 73.543 130.466 73.411L130.046 73.263C129.996 73.2497 129.948 73.2309 129.902 73.207C129.952 73.2136 130.002 73.2257 130.05 73.243L130.478 73.371C130.854 73.491 131.406 73.679 132.102 73.951C132.948 74.2849 133.772 74.671 134.57 75.107C135.07 75.3821 135.548 75.6965 135.998 76.047C136.518 76.4289 136.957 76.9119 137.286 77.467C137.99 78.7523 138.594 80.0896 139.094 81.467C139.666 82.931 140.23 84.515 140.802 86.187C141.086 87.023 141.374 87.883 141.67 88.759C141.818 89.195 141.966 89.639 142.114 90.087C142.278 90.543 142.379 91.0195 142.414 91.503C142.471 92.4879 142.424 93.476 142.274 94.451C142.133 95.4535 141.917 96.4442 141.63 97.415C141.273 98.6858 140.734 99.8983 140.03 101.015C139.363 102.104 138.433 103.007 137.326 103.643C136.793 103.946 136.217 104.169 135.618 104.303C135.327 104.372 135.031 104.424 134.734 104.459C134.438 104.459 134.142 104.511 133.854 104.499C132.73 104.479 131.612 104.331 130.522 104.059C129.516 103.818 128.529 103.501 127.57 103.111C127.123 102.93 126.687 102.726 126.262 102.499C125.85 102.293 125.466 102.036 125.118 101.735C124.808 101.429 124.552 101.073 124.358 100.683C124.172 100.329 124.013 99.961 123.882 99.583C123.647 98.9139 123.464 98.228 123.334 97.531V97.479H123.386C124.794 97.235 125.874 96.959 126.606 96.759L127.438 96.523L127.65 96.463C127.682 96.439 127.706 96.435 127.706 96.439Z" fill="#263238"/>
<path d="M137.823 93.4915C137.783 93.4915 137.655 92.8115 137.195 91.7955C136.591 90.4747 135.747 89.2772 134.707 88.2635C134.13 87.7149 133.479 87.2515 132.771 86.8875L132.287 86.6715C132.127 86.5995 131.959 86.5675 131.807 86.5155C131.519 86.4249 131.223 86.3633 130.923 86.3315L130.723 86.3035H130.179C129.991 86.3007 129.803 86.3168 129.619 86.3515C129.458 86.3838 129.295 86.4012 129.131 86.4035C129.282 86.3408 129.441 86.2964 129.603 86.2715C129.789 86.2187 129.981 86.1904 130.175 86.1875H130.535H130.731L130.939 86.2115C131.249 86.2331 131.556 86.2867 131.855 86.3715C132.023 86.4135 132.188 86.4643 132.351 86.5235L132.855 86.7395C133.589 87.1019 134.263 87.574 134.855 88.1395C135.918 89.1668 136.76 90.3998 137.331 91.7635C137.433 91.9954 137.521 92.2332 137.595 92.4755C137.657 92.6576 137.707 92.8433 137.747 93.0315C137.787 93.1821 137.812 93.3361 137.823 93.4915Z" fill="#263238"/>
<path d="M140.829 88.5439C140.602 87.9617 140.323 87.4008 139.997 86.8679C139.168 85.6026 137.927 84.6629 136.485 84.2079C134.793 83.6919 133.149 83.8519 132.001 83.9599L130.629 84.1239C130.463 84.1539 130.294 84.1686 130.125 84.1679C130.283 84.1061 130.448 84.0644 130.617 84.0439C130.937 83.9799 131.417 83.8959 131.985 83.8159C133.501 83.5509 135.057 83.6164 136.545 84.0079C137.36 84.2528 138.117 84.6611 138.769 85.2079C139.303 85.6617 139.76 86.1994 140.121 86.7999C140.368 87.194 140.566 87.6172 140.709 88.0599C140.768 88.216 140.808 88.3784 140.829 88.5439Z" fill="#263238"/>
<path d="M136.672 82.628C134.516 82.1196 132.262 82.2081 130.152 82.884C130.429 82.7035 130.733 82.5685 131.052 82.484C131.809 82.2513 132.593 82.1168 133.384 82.084C134.176 82.0559 134.967 82.1285 135.74 82.3C136.066 82.3622 136.38 82.4727 136.672 82.628Z" fill="#263238"/>
<path d="M127.754 74.5996C127.786 74.5996 127.706 75.1636 127.642 76.0676C127.474 78.3831 127.674 80.7106 128.234 82.9636L128.09 83.0116C127.926 82.5516 127.798 82.1756 127.714 81.9116C127.662 81.7829 127.624 81.6487 127.602 81.5116C127.683 81.6358 127.748 81.7703 127.794 81.9116C127.902 82.1636 128.05 82.5316 128.234 82.9876L128.09 83.0316C127.773 81.9248 127.563 80.7904 127.462 79.6436C127.357 78.4574 127.368 77.2638 127.494 76.0796C127.546 75.6276 127.606 75.2796 127.654 75.0116C127.667 74.8702 127.701 74.7314 127.754 74.5996Z" fill="#263238"/>
<path d="M119.957 64.3398C119.957 64.3398 117.097 64.3398 116.737 67.7758C116.461 70.4158 116.737 72.9758 116.737 74.1358C116.737 75.2958 116.229 79.4038 116.229 79.4038C116.229 79.4038 114.277 81.1358 114.309 83.2158C114.341 85.2958 115.829 85.9438 115.829 85.9438C115.579 86.5884 115.525 87.292 115.671 87.9674C115.817 88.6429 116.159 89.2605 116.653 89.7438C116.653 89.7438 115.825 91.6598 116.505 92.9438C116.897 93.5825 117.509 94.0562 118.225 94.2758C118.108 94.5286 118.046 94.8036 118.044 95.0823C118.042 95.361 118.1 95.6368 118.213 95.8912C118.327 96.1456 118.494 96.3727 118.703 96.557C118.912 96.7414 119.158 96.8787 119.425 96.9598C120.386 97.2575 121.393 97.3808 122.397 97.3238L124.533 97.2838L126.413 98.3238C126.413 98.3238 129.637 96.9198 129.717 95.0198L129.801 93.1198C129.801 93.1198 128.877 89.9998 128.801 88.9998C128.725 87.9998 129.545 85.6118 129.049 84.5398C128.553 83.4678 126.821 82.8358 126.985 81.3398C127.149 79.8438 126.821 79.0118 126.077 78.1838C125.333 77.3558 122.049 75.7078 122.049 75.7078C122.049 75.7078 121.205 73.3078 121.205 71.6638C121.205 70.0198 122.849 64.9678 119.957 64.3398Z" fill="#FFBF9D"/>
<path d="M121.887 76.3301C121.641 76.5313 121.372 76.7031 121.087 76.8421C120.583 77.1381 119.887 77.5301 119.087 77.9541C118.287 78.3781 117.591 78.7541 117.087 79.0141C116.814 79.1787 116.524 79.3129 116.223 79.4141C116.468 79.2106 116.736 79.0374 117.023 78.8981C117.527 78.6021 118.223 78.2101 119.023 77.7861C119.823 77.3621 120.519 76.9861 121.023 76.7261C121.295 76.5614 121.584 76.4285 121.887 76.3301Z" fill="#FFAF1E"/>
<path d="M123.767 82.8008C123.767 82.8008 123.687 82.8928 123.515 83.0248C123.276 83.2122 123.028 83.3871 122.771 83.5488C121.927 84.0901 121.028 84.5431 120.091 84.9008C119.154 85.2644 118.182 85.5324 117.191 85.7008C116.791 85.7608 116.499 85.7968 116.287 85.8088C116.176 85.8296 116.062 85.8296 115.951 85.8088C115.951 85.7768 116.415 85.7128 117.151 85.5568C118.122 85.3528 119.075 85.0747 120.003 84.7248C120.929 84.3666 121.825 83.9359 122.683 83.4368C123.033 83.2065 123.395 82.9942 123.767 82.8008Z" fill="#FFAF1E"/>
<path d="M126.222 80.7397C126.274 80.7597 126.166 81.1397 125.822 81.4317C125.478 81.7237 125.11 81.8117 125.098 81.7597C125.086 81.7077 125.382 81.5557 125.682 81.2757C125.982 80.9957 126.166 80.7157 126.222 80.7397Z" fill="#FFAF1E"/>
<path d="M125.042 88.459C124.658 88.6456 124.256 88.793 123.842 88.899C122.858 89.1918 121.856 89.4203 120.842 89.583C119.828 89.7482 118.805 89.8444 117.778 89.871C117.352 89.9038 116.925 89.8904 116.502 89.831C116.922 89.7712 117.346 89.7365 117.77 89.727C118.57 89.671 119.63 89.567 120.81 89.379C121.99 89.191 123.042 88.947 123.802 88.755C124.209 88.6323 124.623 88.5334 125.042 88.459Z" fill="#FFAF1E"/>
<path d="M127.658 87.9985C127.719 87.7901 127.792 87.5858 127.878 87.3865C128.037 86.8978 128.09 86.3811 128.034 85.8705C127.97 85.3601 127.796 84.87 127.522 84.4345C127.392 84.2605 127.273 84.0789 127.166 83.8905C127.166 83.8705 127.394 84.0185 127.646 84.3505C127.969 84.7893 128.173 85.3045 128.238 85.8458C128.302 86.3872 128.225 86.9359 128.014 87.4385C127.85 87.8025 127.678 87.9985 127.658 87.9985Z" fill="#FFAF1E"/>
<path d="M125.203 94.2524C124.875 94.3732 124.534 94.4538 124.187 94.4924C123.356 94.6235 122.516 94.689 121.675 94.6884C120.832 94.6869 119.99 94.616 119.159 94.4764C118.811 94.4372 118.47 94.3553 118.143 94.2324C118.49 94.2385 118.836 94.272 119.179 94.3324C120.007 94.4261 120.841 94.4755 121.675 94.4804C122.507 94.4787 123.339 94.4333 124.167 94.3444C124.509 94.2862 124.855 94.2554 125.203 94.2524Z" fill="#FFAF1E"/>
<path d="M120.114 71.7033C120.114 71.7273 119.982 71.8353 119.714 71.9313C119.361 72.0492 118.986 72.0874 118.617 72.0431C118.248 71.9988 117.893 71.8732 117.578 71.6753C117.338 71.5193 117.226 71.3833 117.242 71.3633C117.684 71.5854 118.155 71.7443 118.642 71.8353C119.136 71.8616 119.632 71.8171 120.114 71.7033Z" fill="#FFAF1E"/>
<path d="M128.249 88.2285C128.285 88.327 128.301 88.4317 128.297 88.5365C128.297 88.8208 128.263 89.1041 128.197 89.3805C128.121 89.7285 127.989 90.1325 127.861 90.5805C127.706 91.0492 127.655 91.5462 127.713 92.0365C127.781 92.5445 128.161 92.9525 128.221 93.4685C128.262 93.9047 128.15 94.3415 127.905 94.7045C127.756 94.9452 127.583 95.1703 127.389 95.3765C127.253 95.5245 127.169 95.5965 127.157 95.5885C127.145 95.5805 127.433 95.2365 127.777 94.6325C127.983 94.292 128.072 93.8926 128.029 93.4965C127.981 93.0605 127.597 92.6525 127.505 92.0725C127.444 91.5515 127.503 91.0234 127.677 90.5285C127.817 90.0765 127.961 89.6805 128.053 89.3285C128.145 88.9672 128.21 88.5995 128.249 88.2285Z" fill="#FFAF1E"/>
<path d="M129.326 90.7402C129.391 90.8575 129.437 90.9844 129.462 91.1162C129.534 91.3602 129.63 91.7202 129.718 92.1682C129.827 92.6953 129.891 93.2305 129.91 93.7682C129.945 94.4407 129.821 95.1119 129.55 95.7282C129.235 96.3184 128.818 96.848 128.318 97.2922C127.92 97.6547 127.497 97.9876 127.05 98.2882C126.67 98.5482 126.35 98.7402 126.126 98.8642C126.016 98.9388 125.896 98.998 125.77 99.0402C125.75 99.0122 126.23 98.7082 126.97 98.1682C127.399 97.8559 127.808 97.5166 128.194 97.1522C128.67 96.7175 129.067 96.2048 129.37 95.6362C129.626 95.0479 129.748 94.4096 129.726 93.7682C129.717 93.2388 129.669 92.7107 129.582 92.1882C129.426 91.2962 129.294 90.7482 129.326 90.7402Z" fill="#263238"/>
<path d="M99.1459 77.4231C98.9795 77.3252 98.824 77.2099 98.6819 77.0791L97.4819 76.0751L96.6499 75.3751C96.5078 75.2421 96.3491 75.1278 96.1779 75.0351C96.095 74.9927 96.0031 74.9705 95.9099 74.9705C95.8167 74.9705 95.7249 74.9927 95.6419 75.0351C95.2979 75.2151 95.0659 75.6551 94.7739 76.0231C94.4819 76.3911 94.1939 76.8231 93.8899 77.2231C93.4099 77.8711 92.9419 78.4911 92.5139 79.0671L92.2539 79.4111L92.3379 78.9871C92.5672 77.7976 92.9005 76.6304 93.3339 75.4991C93.4939 75.0991 93.6379 74.7551 93.7339 74.5351C93.7789 74.417 93.8394 74.3053 93.9139 74.2031C93.8865 74.3252 93.8476 74.4443 93.7979 74.5591C93.7139 74.7871 93.5899 75.1191 93.4459 75.5431C93.0548 76.6802 92.7486 77.8447 92.5299 79.0271L92.3499 78.9471L93.7219 77.0991L94.6059 75.8991L95.0299 75.3351C95.1645 75.1348 95.3457 74.9701 95.5579 74.8551C95.6691 74.8064 95.7899 74.7836 95.9111 74.7884C96.0324 74.7933 96.151 74.8257 96.2579 74.8831C96.4396 74.9855 96.6077 75.1105 96.7579 75.2551L97.5579 75.9751L98.7259 77.0271C98.8761 77.1479 99.0166 77.2803 99.1459 77.4231Z" fill="#263238"/>
<path d="M116.034 74.0441C115.988 74.0966 115.935 74.1436 115.878 74.1841L115.406 74.5521L113.642 75.8761L107.758 80.2081L107.67 80.2721L107.61 80.1801C107.562 80.1081 107.514 80.0281 107.462 79.9521L104.51 75.2881L104.618 75.3241C103.481 75.7759 102.383 76.3232 101.338 76.9601C100.962 77.1881 100.67 77.3601 100.47 77.5081C100.373 77.5813 100.268 77.6443 100.158 77.6961C100.243 77.6078 100.337 77.5287 100.438 77.4601C100.63 77.3201 100.914 77.1161 101.286 76.8721C102.318 76.2004 103.411 75.6272 104.55 75.1601L104.618 75.1321L104.658 75.1921C105.526 76.5401 106.546 78.1361 107.638 79.8401C107.69 79.9161 107.738 79.9961 107.786 80.0681L107.634 80.0401L113.558 75.7601L115.358 74.4841L115.854 74.1481C115.97 74.0721 116.03 74.0361 116.034 74.0441Z" fill="#263238"/>
<path d="M80.1332 89.9512C80.1515 90.0433 80.1595 90.1372 80.1572 90.2312C80.1572 90.4392 80.1572 90.7072 80.1772 91.0312C80.1772 91.7552 80.2132 92.7672 80.2332 94.0072C80.2812 96.5192 80.3812 100.007 80.5132 103.827C80.6452 107.647 80.7212 111.135 80.7292 113.651C80.7292 114.911 80.7292 115.927 80.7292 116.631C80.7292 116.963 80.7292 117.235 80.7092 117.431C80.7136 117.526 80.7069 117.622 80.6892 117.715C80.6834 117.621 80.6834 117.526 80.6892 117.431C80.6892 117.227 80.6892 116.955 80.6652 116.631C80.6652 115.903 80.6332 114.891 80.6092 113.655C80.5652 111.139 80.4612 107.655 80.3332 103.831C80.2052 100.007 80.1252 96.5232 80.1172 94.0072C80.1172 92.7512 80.1172 91.7312 80.1172 91.0312C80.1172 90.6952 80.1172 90.4272 80.1172 90.2312C80.1166 90.1376 80.1219 90.0441 80.1332 89.9512Z" fill="#263238"/>
<path d="M99.2773 126.08C99.264 126.044 99.2559 126.007 99.2533 125.968C99.2533 125.88 99.2533 125.768 99.2173 125.628C99.1853 125.312 99.1413 124.876 99.0893 124.32C98.9773 123.184 98.8493 121.52 98.7213 119.5C98.5933 117.48 98.4853 115.032 98.4173 112.336C98.3493 109.64 98.3413 106.668 98.4173 103.536C98.4933 100.404 98.6333 97.4564 98.8173 94.7644C99.0013 92.0724 99.2173 89.6484 99.4333 87.6204C99.6493 85.5924 99.8333 83.9484 100.009 82.8204C100.089 82.2644 100.149 81.8324 100.193 81.5204C100.217 81.3804 100.233 81.2684 100.249 81.1804C100.251 81.142 100.259 81.1042 100.273 81.0684C100.28 81.1068 100.28 81.1459 100.273 81.1844C100.273 81.2724 100.253 81.3844 100.241 81.5244C100.205 81.8364 100.157 82.2724 100.093 82.8284C99.9573 83.9644 99.7813 85.6044 99.5853 87.6284C99.3893 89.6524 99.1853 92.0804 99.0133 94.7724C98.8413 97.4644 98.7093 100.428 98.6373 103.54C98.5653 106.652 98.5853 109.616 98.6373 112.312C98.6893 115.008 98.7893 117.432 98.9013 119.468C99.0133 121.504 99.1133 123.156 99.2013 124.292C99.2373 124.848 99.2693 125.288 99.2893 125.604C99.2893 125.744 99.2893 125.856 99.3093 125.944C99.3024 125.99 99.2917 126.036 99.2773 126.08Z" fill="#263238"/>
<path d="M87.3585 60.6065L86.9345 60.8865L85.6865 61.6865C85.1345 62.0425 84.4865 62.5505 83.7265 63.1105C83.3265 63.3985 82.9585 63.7465 82.5265 64.0985L81.8745 64.6465C81.6505 64.8385 81.4385 65.0465 81.2105 65.2665C78.9982 67.3303 77.0549 69.6647 75.4265 72.2145L74.7145 73.3585C74.4625 73.7385 74.2705 74.1585 74.0385 74.5585C73.8065 74.9585 73.5785 75.3905 73.3705 75.8305C73.1625 76.2705 72.9705 76.7225 72.7545 77.1785C72.6545 77.4065 72.5425 77.6305 72.4465 77.8665C72.3505 78.1025 72.2665 78.3425 72.1745 78.5865C71.9945 79.0665 71.8025 79.5505 71.6265 80.0505C71.3305 81.0625 70.9545 82.0865 70.7305 83.1785C69.5902 87.9033 69.3998 92.8076 70.1705 97.6065C71.1733 103.786 73.761 109.601 77.6811 114.482C81.6012 119.363 86.7197 123.145 92.5373 125.458C98.3549 127.772 104.673 128.537 110.874 127.681C117.076 126.824 122.95 124.374 127.922 120.571C129.178 119.606 130.372 118.564 131.498 117.451L132.298 116.603C132.57 116.323 132.834 116.039 133.098 115.739L133.858 114.863C134.098 114.559 134.334 114.255 134.574 113.955C138.193 109.294 140.607 103.814 141.602 97.9985C141.837 96.6484 141.996 95.2863 142.078 93.9185C142.118 93.2425 142.118 92.5745 142.142 91.9185C142.166 91.2625 142.094 90.5945 142.07 89.9425C142.07 89.6185 142.042 89.2905 142.03 88.9665C142.018 88.6425 141.958 88.3265 141.926 88.0065C141.846 87.3705 141.77 86.7385 141.694 86.1145C141.618 85.4905 141.454 84.8825 141.334 84.2745C141.234 83.6716 141.101 83.0747 140.934 82.4865L140.438 80.7545C140.361 80.4704 140.266 80.1912 140.154 79.9185C140.05 79.6425 139.946 79.3665 139.846 79.0945C139.634 78.5545 139.446 78.0025 139.218 77.4945C138.99 76.9865 138.742 76.4705 138.506 75.9705C136.767 72.3541 134.433 69.0551 131.602 66.2105C129.458 64.0795 127.065 62.2141 124.474 60.6545L122.946 59.7785C122.716 59.6433 122.478 59.5205 122.234 59.4105L121.562 59.0905L120.362 58.5225C120.002 58.3385 119.646 58.2345 119.346 58.1225L117.954 57.5865L117.482 57.3945L117.962 57.5665L119.358 58.0865C119.662 58.2065 120.018 58.3105 120.382 58.4865L121.582 59.0465L122.258 59.3665C122.503 59.4737 122.742 59.5939 122.974 59.7265L124.506 60.5985C127.114 62.1482 129.522 64.01 131.678 66.1425C134.526 68.985 136.876 72.2856 138.63 75.9065C138.866 76.4145 139.106 76.9225 139.35 77.4425C139.594 77.9625 139.75 78.5105 139.982 79.0425L140.294 79.8665C140.406 80.1406 140.501 80.4211 140.578 80.7065C140.746 81.2825 140.914 81.8585 141.082 82.4465C141.256 83.0369 141.396 83.6365 141.502 84.2425C141.622 84.8505 141.766 85.4425 141.87 86.0865C141.974 86.7305 142.022 87.3505 142.102 87.9905C142.138 88.3105 142.19 88.6305 142.21 88.9545C142.23 89.2785 142.238 89.6065 142.25 89.9345C142.274 90.5905 142.31 91.2505 142.326 91.9345C142.342 92.6185 142.306 93.2745 142.262 93.9345C141.854 101.257 139.227 108.281 134.73 114.075L134.002 114.987L133.234 115.871C132.986 116.171 132.718 116.459 132.434 116.739L131.634 117.595C130.501 118.714 129.299 119.761 128.034 120.731C123.038 124.55 117.137 127.01 110.906 127.87C104.676 128.73 98.3294 127.961 92.4847 125.638C86.6401 123.315 81.497 119.518 77.5569 114.616C73.6168 109.713 71.0141 103.874 70.0025 97.6665C69.5966 95.1643 69.4625 92.6256 69.6025 90.0945C69.7033 87.7599 70.0397 85.4415 70.6065 83.1745C70.8305 82.0785 71.2105 81.0545 71.5065 80.0345C71.6865 79.5385 71.8825 79.0505 72.0665 78.5665C72.1585 78.3265 72.2505 78.0865 72.3385 77.8465C72.4265 77.6065 72.5505 77.3865 72.6505 77.1545C72.8625 76.6985 73.0505 76.2505 73.2705 75.8065C73.4905 75.3625 73.7265 74.9505 73.9465 74.5305C74.1665 74.1105 74.3745 73.6945 74.6265 73.3105L75.3465 72.1665C76.9834 69.6128 78.9422 67.2803 81.1745 65.2265C81.4025 65.0145 81.6145 64.7985 81.8385 64.6065L82.4945 64.0585C82.9265 63.7105 83.2945 63.3665 83.6945 63.0785C84.4745 62.5185 85.1145 62.0185 85.6705 61.6665L86.9305 60.8665C87.2025 60.6905 87.3585 60.6065 87.3585 60.6065Z" fill="#263238"/>
</svg>
