<svg width="200" height="200" viewBox="0 0 200 200" fill="none" xmlns="http://www.w3.org/2000/svg">
<path d="M87.7407 35.0918H30.9727V113.384H87.7407V35.0918Z" fill="#E0E0E0"/>
<path d="M84.6125 37.0479H33.3965V111.02H84.6125V37.0479Z" fill="#FAFAFA" stroke="#FAFAFA" stroke-width="0.4" stroke-miterlimit="10"/>
<path d="M85.5563 58.252H33.1562V59.42H85.5563V58.252Z" fill="#E0E0E0"/>
<path d="M58.4199 58.2517V111.348H59.5879V58.2517H58.4199Z" fill="#E0E0E0"/>
<path d="M96.7724 27.7236H22.2324V29.1756H96.7724V27.7236Z" fill="#E0E0E0"/>
<path d="M22.2324 32.7119C22.2324 32.7119 22.9124 111.004 22.2524 111.004H36.9724V32.7119H22.2324Z" fill="#EBEBEB"/>
<path d="M25.9172 34.3999C25.8143 33.3165 25.7795 32.2277 25.8132 31.1399C25.7795 30.0521 25.8143 28.9633 25.9172 27.8799C26.0226 28.9631 26.0573 30.0521 26.0212 31.1399C26.0573 32.2277 26.0226 33.3166 25.9172 34.3999Z" fill="#E0E0E0"/>
<path d="M23.9322 34.3999C23.8269 33.3166 23.7922 32.2277 23.8282 31.1399C23.7922 30.0521 23.8269 28.9631 23.9322 27.8799C24.0352 28.9633 24.0699 30.0521 24.0362 31.1399C24.0699 32.2277 24.0352 33.3165 23.9322 34.3999Z" fill="#E0E0E0"/>
<path d="M28.1998 34.3999C28.0945 33.3166 28.0597 32.2277 28.0958 31.1399C28.0597 30.0521 28.0945 28.9631 28.1998 27.8799C28.3028 28.9633 28.3375 30.0521 28.3038 31.1399C28.3375 32.2277 28.3028 33.3165 28.1998 34.3999Z" fill="#E0E0E0"/>
<path d="M30.4797 34.3999C30.3768 33.3165 30.342 32.2277 30.3757 31.1399C30.342 30.0521 30.3768 28.9633 30.4797 27.8799C30.5851 28.9631 30.6198 30.0521 30.5837 31.1399C30.6198 32.2277 30.5851 33.3166 30.4797 34.3999Z" fill="#E0E0E0"/>
<path d="M32.7649 34.3999C32.6619 33.3165 32.6272 32.2277 32.6609 31.1399C32.6272 30.0521 32.6619 28.9633 32.7649 27.8799C32.8678 28.9633 32.9026 30.0521 32.8689 31.1399C32.9026 32.2277 32.8678 33.3165 32.7649 34.3999Z" fill="#E0E0E0"/>
<path d="M34.9596 34.3999C34.8542 33.3166 34.8195 32.2277 34.8556 31.1399C34.8195 30.0521 34.8542 28.9631 34.9596 27.8799C35.0625 28.9633 35.0973 30.0521 35.0636 31.1399C35.0973 32.2277 35.0625 33.3165 34.9596 34.3999Z" fill="#E0E0E0"/>
<path d="M81.541 32.7119C81.541 32.7119 82.221 111.004 81.565 111.004H96.285V32.7119H81.541Z" fill="#EBEBEB"/>
<path d="M85.2278 34.3999C85.1248 33.3165 85.0901 32.2277 85.1238 31.1399C85.0901 30.0521 85.1248 28.9633 85.2278 27.8799C85.3307 28.9633 85.3654 30.0521 85.3318 31.1399C85.3654 32.2277 85.3307 33.3165 85.2278 34.3999Z" fill="#E0E0E0"/>
<path d="M83.2395 34.3999C83.1365 33.3165 83.1018 32.2277 83.1355 31.1399C83.1018 30.0521 83.1365 28.9633 83.2395 27.8799C83.3448 28.9631 83.3796 30.0521 83.3435 31.1399C83.3796 32.2277 83.3448 33.3166 83.2395 34.3999Z" fill="#E0E0E0"/>
<path d="M87.5123 34.3999C87.407 33.3166 87.3722 32.2277 87.4083 31.1399C87.3722 30.0521 87.407 28.9631 87.5123 27.8799C87.6153 28.9633 87.65 30.0521 87.6163 31.1399C87.65 32.2277 87.6153 33.3165 87.5123 34.3999Z" fill="#E0E0E0"/>
<path d="M89.7922 34.3999C89.6893 33.3165 89.6545 32.2277 89.6882 31.1399C89.6545 30.0521 89.6893 28.9633 89.7922 27.8799C89.8952 28.9633 89.9299 30.0521 89.8962 31.1399C89.9299 32.2277 89.8952 33.3165 89.7922 34.3999Z" fill="#E0E0E0"/>
<path d="M92.0768 34.3999C91.9714 33.3166 91.9367 32.2277 91.9728 31.1399C91.9367 30.0521 91.9714 28.9631 92.0768 27.8799C92.1797 28.9633 92.2145 30.0521 92.1808 31.1399C92.2145 32.2277 92.1797 33.3165 92.0768 34.3999Z" fill="#E0E0E0"/>
<path d="M94.2688 34.3999C94.1658 33.3165 94.1311 32.2277 94.1648 31.1399C94.1311 30.0521 94.1658 28.9633 94.2688 27.8799C94.3741 28.9631 94.4089 30.0521 94.3728 31.1399C94.4089 32.2277 94.3741 33.3166 94.2688 34.3999Z" fill="#E0E0E0"/>
<path d="M138.561 174.323V186.079H155.753H174.713V174.323H138.561Z" fill="#EBEBEB"/>
<path d="M137.043 171.04V174.324H175.975V171.04H155.751H137.043Z" fill="#F5F5F5"/>
<path d="M156.512 186.08H174.712V174.324H175.976V171.04H155.752V174.02L156.512 186.08Z" fill="#E0E0E0"/>
<path d="M150.949 176.22H143.617V177.988H150.949V176.22Z" fill="#E0E0E0"/>
<path d="M152.088 180.204H142.672V183.94H152.088V180.204Z" fill="#FAFAFA"/>
<path d="M147.749 158.148L147.697 153.728L163.181 155.052L163.665 159.424L147.749 158.148Z" fill="#EBEBEB"/>
<path d="M151.091 155.738L151.023 156.531L160.708 157.36L160.776 156.567L151.091 155.738Z" fill="#E0E0E0"/>
<path d="M145.9 153.951L145.896 149.531L161.368 151.019L161.76 154.971L145.9 153.951Z" fill="#E0E0E0"/>
<path d="M145.897 150.132L145.889 153.116L160.965 154.224L160.713 151.476L145.897 150.132Z" fill="white"/>
<path d="M159.82 152.619C159.637 152.638 159.454 152.638 159.272 152.619L157.792 152.503C156.54 152.395 154.812 152.235 152.908 152.043C151.004 151.851 149.28 151.663 148.032 151.519L146.556 151.335C146.373 151.322 146.192 151.29 146.016 151.239C146.198 151.222 146.381 151.222 146.564 151.239L148.044 151.355C149.296 151.463 151.02 151.627 152.928 151.819C154.836 152.011 156.56 152.195 157.804 152.343L159.28 152.523C159.462 152.536 159.643 152.568 159.82 152.619Z" fill="#E0E0E0"/>
<path d="M159.788 152.991C159.604 153.011 159.419 153.011 159.236 152.991L157.74 152.919C156.48 152.851 154.736 152.743 152.812 152.607C150.888 152.471 149.144 152.343 147.884 152.235L146.392 152.099C146.208 152.093 146.025 152.066 145.848 152.019C146.031 152.001 146.216 152.001 146.4 152.019L147.896 152.087C149.16 152.155 150.904 152.267 152.828 152.399C154.752 152.531 156.492 152.667 157.752 152.775L159.244 152.911C159.427 152.922 159.609 152.949 159.788 152.991Z" fill="#E0E0E0"/>
<path d="M147.923 162.22L147.867 157.8L163.355 159.112L163.795 163.06L147.923 162.22Z" fill="#E0E0E0"/>
<path d="M149.633 162.312C149.501 161.594 149.438 160.866 149.445 160.136C149.38 159.409 149.386 158.678 149.465 157.952C149.595 158.67 149.658 159.399 149.653 160.128C149.715 160.855 149.709 161.586 149.633 162.312Z" fill="#F5F5F5"/>
<path d="M150.216 158C150.334 158.718 150.385 159.445 150.368 160.172C150.419 160.898 150.398 161.626 150.308 162.348C150.19 161.63 150.14 160.903 150.156 160.176C150.106 159.45 150.126 158.722 150.216 158Z" fill="#F5F5F5"/>
<path d="M151.625 159.943C154.325 160.243 157.497 160.415 160.241 160.659L151.625 159.943Z" fill="white"/>
<path d="M160.241 160.659C159.818 160.679 159.394 160.669 158.973 160.627C158.193 160.583 157.117 160.515 155.925 160.427C154.733 160.339 153.657 160.239 152.877 160.147C152.454 160.119 152.035 160.05 151.625 159.943C152.048 159.931 152.472 159.949 152.893 159.999L155.941 160.219C157.141 160.307 158.209 160.399 158.985 160.479C159.408 160.502 159.829 160.562 160.241 160.659Z" fill="#F5F5F5"/>
<path d="M161.374 162.932C161.239 162.282 161.172 161.619 161.174 160.956C161.104 160.297 161.104 159.634 161.174 158.976C161.309 159.624 161.376 160.285 161.374 160.948C161.444 161.607 161.444 162.272 161.374 162.932Z" fill="#F5F5F5"/>
<path d="M162.328 162.98C162.158 162.335 162.057 161.674 162.028 161.008C161.928 160.346 161.897 159.676 161.936 159.008C162.104 159.652 162.204 160.311 162.236 160.976C162.336 161.639 162.367 162.31 162.328 162.98Z" fill="#F5F5F5"/>
<path d="M153.926 160.936C155.63 161.052 156.93 161.136 158.29 161.168L153.926 160.936Z" fill="white"/>
<path d="M158.29 161.168C157.562 161.236 156.83 161.236 156.102 161.168C155.371 161.163 154.643 161.089 153.926 160.948C154.653 160.877 155.386 160.877 156.114 160.948C156.844 160.953 157.573 161.027 158.29 161.168Z" fill="#F5F5F5"/>
<path d="M148.964 170.851L148.672 166.439L164.208 166.931L164.856 170.847L148.964 170.851Z" fill="#E0E0E0"/>
<path d="M149.581 170.296L164.697 170.08L164.277 167.336L149.297 167.06L149.581 170.296Z" fill="#FAFAFA"/>
<path d="M149.388 166.527L149.244 162.111L164.752 163.123L165.268 167.055L149.388 166.527Z" fill="#EBEBEB"/>
<path d="M152.677 164.043L152.625 164.837L162.325 165.468L162.376 164.673L152.677 164.043Z" fill="#E0E0E0"/>
<path d="M164.431 168.464C164.235 168.499 164.035 168.514 163.835 168.508L162.235 168.548C160.867 168.572 158.983 168.592 156.899 168.6C154.815 168.608 152.931 168.6 151.563 168.6L149.963 168.576C149.764 168.582 149.564 168.569 149.367 168.536C149.563 168.503 149.761 168.488 149.959 168.492L151.579 168.452C152.943 168.428 154.831 168.412 156.915 168.404C158.999 168.396 160.887 168.404 162.251 168.404L163.851 168.432C164.045 168.426 164.239 168.437 164.431 168.464Z" fill="#E0E0E0"/>
<path d="M164.608 169.32C164.41 169.352 164.209 169.364 164.008 169.356H162.38C161.004 169.356 159.104 169.356 157.008 169.312C154.912 169.268 153.008 169.248 151.636 169.208L150 169.16C149.801 169.164 149.601 169.148 149.404 169.112C149.602 169.082 149.801 169.072 150 169.08H151.628C153.004 169.08 154.904 169.08 157.004 169.124C159.104 169.168 161.004 169.192 162.376 169.228L164.004 169.284C164.206 169.28 164.408 169.292 164.608 169.32Z" fill="#E0E0E0"/>
<path d="M33.805 141.371C31.861 141.683 31.005 144.071 31.165 146.035C31.325 147.999 32.141 149.911 31.925 151.867C31.649 154.355 29.773 156.455 29.553 158.943C29.297 161.879 31.373 164.487 31.993 167.367C32.293 168.771 32.253 170.255 32.793 171.591C33.2397 172.726 34.0657 173.672 35.1306 174.267C36.1955 174.862 37.4335 175.07 38.6344 174.855C39.8353 174.641 40.9248 174.017 41.7179 173.091C42.5111 172.164 42.9588 170.991 42.985 169.771C43.029 167.515 41.637 165.391 41.785 163.139C41.913 161.479 42.885 159.903 42.677 158.251C42.429 156.283 40.605 154.883 39.961 153.007C39.317 151.131 39.937 149.063 39.713 147.091C39.313 143.555 37.353 141.091 33.805 141.371Z" fill="#F5F5F5"/>
<path d="M23.8797 158.5C23.5477 161.776 24.9997 165.632 26.6797 168.464C28.3876 171.311 30.9567 173.541 34.0157 174.832C34.3597 174.976 34.7877 175.096 35.0757 174.86C35.1778 174.747 35.2546 174.614 35.3008 174.469C35.347 174.324 35.3617 174.171 35.3437 174.02C35.3667 170.541 34.2617 167.148 32.1942 164.35C30.1267 161.552 27.208 159.5 23.8757 158.5" fill="#EBEBEB"/>
<path d="M38.1565 181.684C38.1196 181.626 38.0887 181.565 38.0645 181.5C38.0045 181.36 37.9245 181.184 37.8325 180.964C37.6325 180.496 37.3405 179.824 36.9645 178.996C35.9882 176.842 34.9015 174.739 33.7085 172.696C32.5128 170.655 31.2137 168.677 29.8165 166.768C29.2805 166.036 28.8405 165.448 28.5285 165.048L28.1765 164.58C28.1318 164.527 28.0929 164.47 28.0605 164.408C28.1141 164.452 28.1625 164.501 28.2045 164.556L28.5845 165C28.9125 165.4 29.3845 165.964 29.9245 166.688C31.3566 168.58 32.6749 170.556 33.8725 172.604C35.0641 174.652 36.1326 176.769 37.0725 178.944C37.4325 179.776 37.7085 180.46 37.8725 180.944C37.9565 181.168 38.0205 181.344 38.0765 181.496C38.1128 181.554 38.1397 181.618 38.1565 181.684Z" fill="#E0E0E0"/>
<path d="M36.0495 150.439C36.0495 150.439 36.0495 150.547 36.0855 150.755C36.1215 150.963 36.1215 151.275 36.1495 151.655C36.2015 152.455 36.2735 153.587 36.3615 154.975C36.5415 157.775 36.7895 161.655 37.0895 165.931C37.3895 170.207 37.6895 174.079 37.8895 176.883C37.9935 178.271 38.0815 179.399 38.1415 180.199C38.1695 180.579 38.1895 180.879 38.2055 181.103C38.2152 181.209 38.2152 181.314 38.2055 181.419C38.1797 181.317 38.1636 181.213 38.1575 181.107L38.0615 180.207C37.9855 179.407 37.8815 178.279 37.7495 176.891C37.4975 174.091 37.1815 170.223 36.8815 165.943C36.5815 161.663 36.3495 157.791 36.2095 154.983C36.1415 153.595 36.0895 152.463 36.0535 151.659C36.0535 151.279 36.0295 150.979 36.0215 150.755C36.0211 150.649 36.0305 150.544 36.0495 150.439Z" fill="#E0E0E0"/>
<path d="M33.0332 177.012H41.2412V183.036C41.2412 184.081 40.8261 185.083 40.0872 185.822C39.3483 186.561 38.3462 186.976 37.3012 186.976C36.2927 186.976 35.3223 186.59 34.5901 185.896C33.8579 185.203 33.4195 184.255 33.3652 183.248L33.0332 177.012Z" fill="#E0E0E0"/>
<path d="M152.348 34.2363L150.18 54.3483H177.952L180.256 34.2363H152.348Z" fill="#EBEBEB"/>
<path d="M153.493 35.6797L151.385 53.2797H176.449L178.477 35.6797H153.493Z" fill="#FAFAFA"/>
<path d="M157.708 38.6396L156.412 50.3196H172.228L173.04 38.6396H157.708Z" fill="#E0E0E0"/>
<path d="M179.265 42.8956L185.001 54.4316L177.953 54.3476L179.353 42.1436" fill="#F5F5F5"/>
<path d="M185.098 56.7441H182.598V63.0001H185.098V56.7441Z" fill="#E0E0E0"/>
<path d="M148.508 56.7441H146.008V63.0001H148.508V56.7441Z" fill="#E0E0E0"/>
<path d="M189.673 54.4717H140.873V57.1117H189.673V54.4717Z" fill="#E0E0E0"/>
<path d="M182.026 186.205C182.026 186.261 145.298 186.309 100.026 186.309C54.754 186.309 17.998 186.261 17.998 186.205C17.998 186.149 54.718 186.101 100.026 186.101C145.334 186.101 182.026 186.145 182.026 186.205Z" fill="#263238"/>
<path d="M135.476 128.284C128.576 123.484 127.008 114.516 127.284 106.472C127.328 105.132 127.18 103.716 127.82 102.536C128.46 101.356 129.948 100.556 131.148 101.12C132.148 101.588 132.58 102.748 133.148 103.708C133.893 104.987 134.984 106.03 136.296 106.716C137.152 107.16 138.208 107.432 139.052 106.964C140.212 106.328 140.348 104.728 140.34 103.392L140.292 95.9241C140.292 94.5921 140.292 93.2281 140.692 91.9601C141.092 90.6921 142.024 89.5161 143.292 89.1601C144.56 88.8041 146.136 89.5361 146.404 90.8441C146.454 91.396 146.466 91.9506 146.44 92.5041C146.48 93.0601 146.736 93.6721 147.264 93.8281C147.792 93.9841 148.332 93.6041 148.728 93.2161C150.108 91.8681 151.044 90.1281 151.928 88.4161C152.812 86.7041 153.652 84.9201 154.9 83.4481C156.148 81.9761 157.88 80.8121 159.792 80.7041C161.704 80.5961 163.744 81.7761 164.228 83.6521C164.712 85.5281 163.6 87.4361 162.4 88.9561C160.626 91.2169 158.535 93.2095 156.192 94.8721C155.737 95.1294 155.375 95.5243 155.16 96.0001C154.868 96.8921 155.712 97.7761 156.592 98.0681C157.588 98.4001 158.668 98.2961 159.708 98.4201C160.748 98.5441 161.876 99.0001 162.272 99.9841C162.816 101.348 161.676 102.784 160.552 103.716C158.302 105.594 155.746 107.07 152.996 108.08C152.012 108.44 150.996 108.752 150.196 109.444C149.396 110.136 148.924 111.332 149.396 112.276C149.868 113.22 151.104 113.516 152.132 113.324C153.16 113.132 154.084 112.576 155.064 112.208C156.896 111.516 159.268 111.64 160.444 113.228C161.216 114.268 161.284 115.72 160.892 116.964C160.443 118.188 159.755 119.309 158.868 120.264C155.959 123.757 152.176 126.416 147.904 127.968C143.648 129.444 139.704 129.844 135.476 128.296" fill="#FFAF1E"/>
<path d="M162.28 81.8115C162.241 81.856 162.198 81.8974 162.152 81.9355L161.752 82.2915C161.404 82.5995 160.888 83.0555 160.24 83.6595C158.406 85.3649 156.701 87.2047 155.14 89.1635C154.144 90.4035 153.112 91.8035 152.032 93.3275C150.952 94.8515 149.812 96.4955 148.676 98.2635C147.473 100.102 146.372 102.007 145.38 103.968C144.864 104.988 144.408 106.056 143.936 107.148C143.464 108.24 143 109.34 142.52 110.456C140.697 114.648 139.109 118.938 137.764 123.308C136.68 126.882 135.934 130.55 135.536 134.264C135.278 136.769 135.237 139.291 135.412 141.804C135.484 142.692 135.552 143.384 135.612 143.848C135.64 144.072 135.66 144.248 135.676 144.38C135.681 144.441 135.681 144.502 135.676 144.564C135.659 144.505 135.645 144.444 135.636 144.384C135.616 144.252 135.588 144.08 135.552 143.856C135.472 143.392 135.388 142.704 135.304 141.812C135.092 139.294 135.108 136.762 135.352 134.248C135.727 130.517 136.458 126.831 137.536 123.24C138.871 118.859 140.456 114.558 142.284 110.36L143.704 107.048C144.172 105.96 144.636 104.884 145.152 103.848C146.153 101.88 147.262 99.9695 148.472 98.1235C149.616 96.3555 150.768 94.7195 151.852 93.1955C152.936 91.6715 153.988 90.2755 154.992 89.0435C156.575 87.0944 158.309 85.274 160.18 83.5995C160.836 83.0075 161.38 82.5595 161.724 82.2635L162.124 81.9275C162.172 81.884 162.224 81.8451 162.28 81.8115Z" fill="#263238"/>
<path d="M145.239 103.848C145.174 103.664 145.13 103.474 145.107 103.28C145.039 102.912 144.955 102.372 144.859 101.708C144.671 100.38 144.459 98.5361 144.263 96.5081C144.067 94.4801 143.827 92.6361 143.619 91.3081C143.519 90.6481 143.431 90.1081 143.363 89.7441C143.318 89.5539 143.292 89.3595 143.287 89.1641C143.366 89.3432 143.422 89.5312 143.455 89.7241C143.551 90.0881 143.667 90.6161 143.791 91.2761C144.043 92.6001 144.295 94.4401 144.507 96.4761C144.719 98.5121 144.907 100.304 145.031 101.676C145.099 102.3 145.155 102.828 145.203 103.252C145.237 103.449 145.249 103.649 145.239 103.848Z" fill="#263238"/>
<path d="M162.4 100.64C162.174 100.69 161.944 100.718 161.712 100.724C161.272 100.764 160.636 100.816 159.852 100.908C158.276 101.076 156.112 101.388 153.74 101.832C151.368 102.276 149.248 102.8 147.72 103.2C146.952 103.396 146.336 103.572 145.908 103.692C145.692 103.769 145.468 103.824 145.24 103.856C145.446 103.753 145.66 103.667 145.88 103.6C146.3 103.452 146.908 103.248 147.672 103.028C149.196 102.58 151.324 102.052 153.704 101.596C155.734 101.206 157.782 100.92 159.84 100.74C160.64 100.672 161.272 100.644 161.716 100.636C161.944 100.617 162.173 100.619 162.4 100.64Z" fill="#263238"/>
<path d="M137.759 122.924C137.71 122.861 137.671 122.791 137.643 122.716L137.351 122.096C137.095 121.556 136.751 120.764 136.339 119.78C135.511 117.812 134.451 115.06 133.323 112.008C132.195 108.956 131.167 106.196 130.379 104.212C129.979 103.252 129.675 102.46 129.443 101.868C129.339 101.612 129.259 101.404 129.191 101.232C129.156 101.159 129.132 101.08 129.119 101C129.168 101.064 129.207 101.136 129.235 101.212C129.315 101.376 129.411 101.584 129.527 101.832C129.783 102.372 130.127 103.164 130.539 104.148C131.367 106.112 132.427 108.864 133.555 111.92C134.683 114.976 135.711 117.732 136.499 119.712L137.435 122.056C137.539 122.312 137.619 122.524 137.687 122.696C137.722 122.768 137.746 122.845 137.759 122.924Z" fill="#263238"/>
<path d="M160.572 115.572C160.501 115.614 160.426 115.646 160.348 115.668L159.684 115.888L157.244 116.688C155.18 117.356 152.34 118.316 149.208 119.376C146.076 120.436 143.208 121.376 141.144 121.996C140.104 122.308 139.264 122.552 138.676 122.712L138 122.888C137.848 122.928 137.764 122.944 137.76 122.932C137.832 122.892 137.908 122.861 137.988 122.84L138.652 122.62L141.092 121.82C143.156 121.152 145.992 120.192 149.128 119.132C152.264 118.072 155.128 117.132 157.192 116.512C158.228 116.2 159.072 115.952 159.656 115.796L160.332 115.62C160.409 115.594 160.49 115.577 160.572 115.572Z" fill="#263238"/>
<path d="M140.971 126.628C141.67 126.627 142.356 126.442 142.96 126.091C143.564 125.74 144.065 125.235 144.411 124.628C144.747 124.016 144.957 123.343 145.029 122.648C145.101 121.954 145.034 121.252 144.831 120.584C144.655 119.964 144.335 119.32 143.743 119.064C143.459 118.961 143.153 118.936 142.856 118.992C142.559 119.047 142.283 119.181 142.055 119.38C141.605 119.783 141.268 120.298 141.079 120.872C140.347 122.808 139.999 124.808 140.971 126.632" fill="#455A64"/>
<path d="M140.227 130.345C141.7 130.293 143.165 130.592 144.499 131.218C145.834 131.844 147.001 132.779 147.903 133.945C148.355 134.541 148.739 135.361 148.359 136.005C147.979 136.649 147.067 136.713 146.331 136.585C144.793 136.297 143.375 135.56 142.257 134.466C141.138 133.372 140.369 131.971 140.047 130.441" fill="#455A64"/>
<path d="M158.135 125.168C157.76 124.668 157.288 124.249 156.747 123.936C156.206 123.623 155.607 123.423 154.987 123.348C153.743 123.205 152.483 123.348 151.303 123.768C149.007 124.508 146.903 126.324 145.303 128.144C147.431 129.772 150.535 129.616 152.103 129.44C154.583 129.16 158.903 127.148 158.103 125.168" fill="#455A64"/>
<path d="M134.799 130.556C135.192 130.462 135.58 130.345 135.959 130.204C137.361 129.604 138.676 128.817 139.867 127.864C141.066 126.892 141.98 125.614 142.511 124.164C142.662 123.723 142.758 123.265 142.799 122.8C142.825 122.63 142.825 122.458 142.799 122.288C142.692 122.9 142.538 123.503 142.339 124.092C141.771 125.481 140.863 126.705 139.699 127.652C138.521 128.585 137.241 129.381 135.883 130.024" fill="#263238"/>
<path d="M134.749 130.565L136.969 130.073C138.845 129.653 141.437 129.081 144.305 128.473C147.173 127.865 149.781 127.377 151.669 127.017L153.905 126.585C154.177 126.545 154.445 126.481 154.705 126.393C154.426 126.401 154.148 126.431 153.873 126.481C153.341 126.553 152.573 126.673 151.625 126.829C149.725 127.141 147.113 127.629 144.241 128.209C141.369 128.789 138.777 129.409 136.913 129.873C135.981 130.105 135.229 130.301 134.709 130.445" fill="#263238"/>
<path d="M145.599 134.088C145.53 133.942 145.44 133.807 145.331 133.688C145.223 133.533 145.102 133.385 144.971 133.248C144.806 133.057 144.629 132.875 144.443 132.704C143.965 132.252 143.442 131.85 142.883 131.504C142.196 131.085 141.465 130.742 140.703 130.48C139.935 130.231 139.142 130.065 138.339 129.984C137.684 129.924 137.025 129.93 136.371 130.004C136.119 130.027 135.87 130.065 135.623 130.12C135.436 130.15 135.251 130.194 135.071 130.252C134.771 130.34 134.711 130.452 134.715 130.468C135.267 130.347 135.825 130.255 136.387 130.192C137.03 130.149 137.675 130.163 138.315 130.232C139.884 130.404 141.398 130.91 142.755 131.716C143.308 132.046 143.83 132.425 144.315 132.848C145.147 133.564 145.563 134.12 145.599 134.088Z" fill="#263238"/>
<path d="M127.302 152.555L82.6897 152.347C81.4137 152.342 80.1515 152.084 78.9749 151.591C77.7983 151.097 76.7304 150.377 75.8323 149.47C74.9342 148.564 74.2233 147.49 73.7404 146.309C73.2575 145.128 73.0119 143.863 73.0177 142.587L73.4897 30.7513C73.4954 29.4748 73.7526 28.212 74.2464 27.0349C74.7402 25.8579 75.461 24.7896 76.3677 23.8911C77.2744 22.9926 78.3491 22.2815 79.5306 21.7983C80.7121 21.3152 81.9772 21.0695 83.2537 21.0753L127.862 21.2833C130.438 21.2949 132.904 22.3292 134.718 24.1587C136.531 25.9882 137.544 28.4631 137.534 31.0393L137.062 142.875C137.057 144.152 136.801 145.415 136.308 146.593C135.814 147.77 135.094 148.839 134.188 149.738C133.281 150.637 132.207 151.348 131.025 151.832C129.843 152.315 128.578 152.561 127.302 152.555Z" fill="#263238"/>
<path d="M127.796 25.1431L119.148 25.1031C118.866 25.1078 118.588 25.168 118.329 25.2804C118.071 25.3927 117.837 25.555 117.641 25.7578C117.445 25.9607 117.291 26.2002 117.188 26.4626C117.085 26.725 117.035 27.0052 117.04 27.2871V28.8551C117.045 29.1372 116.995 29.4175 116.892 29.6802C116.789 29.9428 116.635 30.1826 116.439 30.3858C116.244 30.589 116.01 30.7516 115.751 30.8644C115.493 30.9771 115.214 31.0379 114.932 31.0431L98.0722 30.9631C97.5028 30.9474 96.9628 30.7066 96.5707 30.2934C96.1785 29.8803 95.9662 29.3285 95.9802 28.7591L95.9962 27.1991C96.0102 26.6296 95.7978 26.0779 95.4057 25.6647C95.0135 25.2516 94.4736 25.0108 93.9042 24.9951H90.8642L83.2922 24.9591C82.3962 24.9543 81.508 25.1267 80.6789 25.4663C79.8497 25.8059 79.0958 26.3061 78.4606 26.938C77.8253 27.5699 77.3212 28.3211 76.9772 29.1485C76.6332 29.9759 76.4562 30.8631 76.4562 31.7591L75.9962 140.875C75.992 141.768 76.1638 142.654 76.5019 143.481C76.84 144.308 77.3377 145.06 77.9666 145.694C78.5955 146.329 79.3432 146.833 80.1671 147.178C80.991 147.524 81.8748 147.703 82.7682 147.707L127.288 147.915C128.184 147.92 129.072 147.747 129.901 147.408C130.731 147.068 131.485 146.568 132.12 145.936C132.755 145.304 133.259 144.553 133.603 143.726C133.947 142.898 134.124 142.011 134.124 141.115L134.588 31.9551C134.59 31.0618 134.415 30.1769 134.075 29.351C133.734 28.5251 133.234 27.7744 132.604 27.1418C131.973 26.5092 131.224 26.0071 130.399 25.6641C129.574 25.3212 128.689 25.1441 127.796 25.1431Z" fill="#FAFAFA"/>
<path d="M111.91 38.0947H100.426V40.2027H111.91V38.0947Z" fill="#455A64"/>
<path d="M86.8691 55.8516C86.9608 55.8538 87.052 55.8659 87.1411 55.8876C87.2235 55.8658 87.308 55.8537 87.3931 55.8516H86.8691Z" fill="#455A64"/>
<path d="M90.0183 50.0674C89.8075 49.7759 89.5508 49.5206 89.2583 49.3114C88.6454 48.8592 87.9039 48.6152 87.1423 48.6152C86.3807 48.6152 85.6391 48.8592 85.0263 49.3114C84.7325 49.5205 84.4745 49.7758 84.2623 50.0674C84.0529 50.341 83.8881 50.6461 83.7743 50.9714C83.5656 51.5356 83.5017 52.1432 83.5883 52.7385C83.675 53.3339 83.9094 53.898 84.2703 54.3794C84.3143 54.4394 84.3623 54.4914 84.4063 54.5434C84.5547 54.0657 84.8385 53.6414 85.2233 53.3219C85.6082 53.0023 86.0775 52.8014 86.5743 52.7434C86.2637 52.6077 85.9999 52.3836 85.8157 52.0991C85.6315 51.8147 85.535 51.4823 85.5383 51.1434C85.5226 50.9205 85.553 50.6968 85.6275 50.4862C85.7021 50.2756 85.8191 50.0826 85.9715 49.9192C86.1238 49.7558 86.3081 49.6255 86.513 49.5364C86.7179 49.4473 86.9389 49.4013 87.1623 49.4013C87.3857 49.4013 87.6067 49.4473 87.8115 49.5364C88.0164 49.6255 88.2007 49.7558 88.3531 49.9192C88.5054 50.0826 88.6225 50.2756 88.697 50.4862C88.7715 50.6968 88.8019 50.9205 88.7863 51.1434C88.7893 51.4817 88.6932 51.8136 88.5098 52.0979C88.3264 52.3822 88.0638 52.6066 87.7543 52.7434C88.2455 52.8025 88.7087 53.0041 89.0868 53.3232C89.4649 53.6423 89.7414 54.0651 89.8823 54.5394L90.0143 54.3794C90.3751 53.898 90.6096 53.3339 90.6962 52.7385C90.7829 52.1432 90.7189 51.5356 90.5103 50.9714C90.3934 50.6467 90.2275 50.3418 90.0183 50.0674Z" fill="#FAFAFA"/>
<path d="M90.7099 50.8997C90.5914 50.5532 90.4186 50.2278 90.1979 49.9357C89.975 49.6285 89.705 49.3585 89.3979 49.1357C88.7465 48.6525 87.9569 48.3916 87.1459 48.3916C86.3348 48.3916 85.5453 48.6525 84.8939 49.1357C84.5856 49.3572 84.3154 49.6274 84.0939 49.9357C83.8734 50.2286 83.6994 50.5538 83.5779 50.8997C83.3502 51.5409 83.2977 52.2314 83.4259 52.8997C83.5361 53.4824 83.7828 54.0307 84.1459 54.4997C84.6668 55.1753 85.4063 55.649 86.2379 55.8397C86.4593 55.8927 86.6862 55.9196 86.9139 55.9197C86.9922 55.9301 87.0716 55.9301 87.1499 55.9197C87.0608 55.898 86.9696 55.8859 86.8779 55.8837H87.4019C87.3168 55.8858 87.2322 55.8979 87.1499 55.9197C87.2282 55.9301 87.3076 55.9301 87.3859 55.9197C87.6136 55.9196 87.8405 55.8927 88.0619 55.8397C88.8923 55.6488 89.6304 55.1751 90.1499 54.4997C90.5159 54.032 90.7642 53.4833 90.8739 52.8997C91 52.2304 90.9434 51.5395 90.7099 50.8997ZM90.6739 52.8597C90.5733 53.4192 90.3416 53.9469 89.9979 54.3997L89.8659 54.5597C89.7251 54.0853 89.4485 53.6626 89.0704 53.3435C88.6923 53.0244 88.2291 52.8228 87.7379 52.7637C88.0474 52.6269 88.3101 52.4025 88.4935 52.1182C88.6769 51.8338 88.773 51.502 88.7699 51.1637C88.7855 50.9408 88.7552 50.7171 88.6806 50.5065C88.6061 50.2959 88.489 50.1029 88.3367 49.9395C88.1844 49.7761 88 49.6458 87.7952 49.5567C87.5903 49.4676 87.3693 49.4216 87.1459 49.4216C86.9225 49.4216 86.7015 49.4676 86.4966 49.5567C86.2917 49.6458 86.1074 49.7761 85.9551 49.9395C85.8027 50.1029 85.6857 50.2959 85.6111 50.5065C85.5366 50.7171 85.5062 50.9408 85.5219 51.1637C85.5186 51.5026 85.6151 51.8349 85.7993 52.1194C85.9835 52.4039 86.2473 52.628 86.5579 52.7637C86.0611 52.8217 85.5918 53.0226 85.2069 53.3421C84.8221 53.6617 84.5383 54.086 84.3899 54.5637C84.3459 54.5117 84.2979 54.4597 84.2539 54.3997C83.893 53.9183 83.6586 53.3542 83.5719 52.7588C83.4853 52.1635 83.5492 51.5559 83.7579 50.9917C83.8717 50.6664 84.0365 50.3613 84.2459 50.0877C84.4581 49.7961 84.7161 49.5408 85.0099 49.3317C85.6227 48.8795 86.3643 48.6355 87.1259 48.6355C87.8875 48.6355 88.629 48.8795 89.2419 49.3317C89.5345 49.5409 89.7911 49.7962 90.0019 50.0877C90.2111 50.3621 90.377 50.667 90.4939 50.9917C90.718 51.5875 90.7801 52.232 90.6739 52.8597Z" fill="#455A64"/>
<path d="M130.358 59.2191C130.358 59.2191 130.474 59.2191 130.69 59.1751C131.011 59.1088 131.306 58.9536 131.542 58.7271C131.732 58.5436 131.878 58.3204 131.971 58.0734C132.064 57.8264 132.1 57.5619 132.078 57.2991C132.078 56.6631 132.078 55.9311 132.078 55.1111C132.078 53.4631 132.078 51.4511 132.058 49.1111C132.058 48.5271 132.058 47.9111 132.058 47.2951C132.075 46.9846 132.005 46.6756 131.858 46.4019C131.71 46.1282 131.491 45.9003 131.222 45.7431C130.67 45.3951 129.95 45.5471 129.258 45.5151H127.106L81.1064 45.5471C80.8442 45.5481 80.586 45.6114 80.353 45.7317C80.1201 45.852 79.919 46.0259 79.7664 46.2391C79.6142 46.4522 79.5167 46.6994 79.4824 46.9591C79.4619 47.2252 79.4553 47.4922 79.4624 47.7591V57.5151C79.474 57.7621 79.5411 58.0033 79.6589 58.2208C79.7766 58.4382 79.9419 58.6263 80.1424 58.7711C80.3403 58.9157 80.5689 59.0128 80.8104 59.0551C81.0625 59.0848 81.3167 59.0942 81.5704 59.0831H90.6344L111.31 59.1071L125.246 59.1431L129.038 59.1631H130.022C130.246 59.1631 130.358 59.1631 130.358 59.1631H130.022H129.038L125.246 59.1871L111.31 59.2231L90.6344 59.2471H81.5704C81.3033 59.2561 81.0359 59.2454 80.7704 59.2151C80.3537 59.1403 79.9748 58.9262 79.6957 58.6079C79.4167 58.2896 79.254 57.8859 79.2344 57.4631C79.2344 55.3431 79.2344 53.1884 79.2344 50.9991V47.6951C79.2344 47.4151 79.2344 47.1471 79.2344 46.8471C79.2779 46.5586 79.3889 46.2845 79.5584 46.0471C79.7311 45.8009 79.9604 45.5998 80.227 45.4606C80.4936 45.3214 80.7896 45.2482 81.0904 45.2471L127.09 45.2791H130.29C130.641 45.2659 130.989 45.3548 131.29 45.5351C131.579 45.7062 131.816 45.9533 131.975 46.2495C132.133 46.5456 132.208 46.8796 132.19 47.2151C132.19 47.8391 132.19 48.4471 132.19 49.0311C132.19 51.3671 132.19 53.3791 132.17 55.0311C132.17 55.8511 132.17 56.5831 132.17 57.2191C132.189 57.4905 132.146 57.7626 132.047 58.0157C131.947 58.2689 131.793 58.4968 131.594 58.6831C131.349 58.9097 131.043 59.061 130.714 59.1191C130.601 59.1698 130.481 59.2035 130.358 59.2191Z" fill="#455A64"/>
<path d="M107.262 49.0234H94.2695V49.9994H107.262V49.0234Z" fill="#455A64"/>
<path d="M117.03 54.5273H94.2695V55.5033H117.03V54.5273Z" fill="#455A64"/>
<path d="M127.254 51.707H94.2695V52.683H127.254V51.707Z" fill="#455A64"/>
<path d="M86.8691 90.3154C87.0451 90.3394 87.1411 90.3394 87.1411 90.3554C87.2235 90.3336 87.308 90.3216 87.3931 90.3194L86.8691 90.3154Z" fill="#455A64"/>
<path d="M90.0183 84.5351C89.8086 84.2428 89.5517 83.9873 89.2583 83.7791C88.6454 83.327 87.9039 83.083 87.1423 83.083C86.3807 83.083 85.6391 83.327 85.0263 83.7791C84.4534 84.1959 84.0176 84.7738 83.7743 85.4391C83.5656 86.0034 83.5017 86.611 83.5883 87.2063C83.675 87.8016 83.9094 88.3658 84.2703 88.8471L84.4063 89.0111C84.5533 88.5327 84.8367 88.1076 85.2218 87.7878C85.6069 87.4681 86.077 87.2677 86.5743 87.2111C86.2637 87.0754 85.9999 86.8514 85.8157 86.5669C85.6315 86.2824 85.535 85.95 85.5383 85.6111C85.5226 85.3883 85.553 85.1646 85.6275 84.954C85.7021 84.7434 85.8191 84.5504 85.9715 84.387C86.1238 84.2236 86.3081 84.0933 86.513 84.0042C86.7179 83.9151 86.9389 83.8691 87.1623 83.8691C87.3857 83.8691 87.6067 83.9151 87.8115 84.0042C88.0164 84.0933 88.2007 84.2236 88.3531 84.387C88.5054 84.5504 88.6225 84.7434 88.697 84.954C88.7715 85.1646 88.8019 85.3883 88.7863 85.6111C88.7888 85.9494 88.6925 86.281 88.5092 86.5652C88.3258 86.8495 88.0635 87.074 87.7543 87.2111C88.2452 87.2695 88.7083 87.4703 89.0864 87.7887C89.4646 88.1071 89.7412 88.5293 89.8823 89.0031L90.0143 88.8471C90.3751 88.3658 90.6096 87.8016 90.6962 87.2063C90.7829 86.611 90.7189 86.0034 90.5103 85.4391C90.3934 85.1145 90.2275 84.8096 90.0183 84.5351Z" fill="#FAFAFA"/>
<path d="M90.7104 85.3675C90.5932 85.0193 90.4203 84.6924 90.1984 84.3995C89.9755 84.0924 89.7055 83.8224 89.3984 83.5995C88.747 83.1163 87.9574 82.8555 87.1464 82.8555C86.3353 82.8555 85.5458 83.1163 84.8944 83.5995C84.2904 84.0483 83.8315 84.6644 83.5744 85.3715C83.3461 86.0127 83.2936 86.7033 83.4224 87.3715C83.5324 87.9543 83.7792 88.5027 84.1424 88.9715C84.6646 89.645 85.4038 90.117 86.2344 90.3075C86.4554 90.3635 86.6824 90.3917 86.9104 90.3915C86.9887 90.402 87.0681 90.402 87.1464 90.3915C87.1464 90.3915 87.0504 90.3915 86.8744 90.3515H87.3984C87.3133 90.3537 87.2287 90.3658 87.1464 90.3875C87.2247 90.398 87.3041 90.398 87.3824 90.3875C87.6103 90.3877 87.8374 90.3595 88.0584 90.3035C88.8878 90.1128 89.6256 89.6407 90.1464 88.9675C90.5117 88.4995 90.7599 87.9509 90.8704 87.3675C90.9986 86.6986 90.9433 86.0075 90.7104 85.3675ZM90.6744 87.3275C90.5756 87.8786 90.3496 88.3991 90.0144 88.8475L89.8824 89.0035C89.7414 88.5297 89.4647 88.1075 89.0865 87.7891C88.7084 87.4707 88.2453 87.2699 87.7544 87.2115C88.0636 87.0744 88.326 86.8499 88.5093 86.5656C88.6926 86.2814 88.7889 85.9498 88.7864 85.6115C88.802 85.3887 88.7716 85.165 88.6971 84.9544C88.6226 84.7438 88.5055 84.5508 88.3532 84.3874C88.2009 84.224 88.0165 84.0937 87.8117 84.0046C87.6068 83.9155 87.3858 83.8695 87.1624 83.8695C86.939 83.8695 86.718 83.9155 86.5131 84.0046C86.3082 84.0937 86.1239 84.224 85.9716 84.3874C85.8192 84.5508 85.7022 84.7438 85.6276 84.9544C85.5531 85.165 85.5227 85.3887 85.5384 85.6115C85.5351 85.9504 85.6316 86.2828 85.8158 86.5673C86 86.8518 86.2638 87.0758 86.5744 87.2115C86.0771 87.2681 85.607 87.4685 85.2219 87.7882C84.8369 88.1079 84.5534 88.5331 84.4064 89.0115L84.2704 88.8475C83.9095 88.3662 83.6751 87.802 83.5884 87.2067C83.5018 86.6114 83.5657 86.0038 83.7744 85.4395C84.0177 84.7742 84.4535 84.1963 85.0264 83.7795C85.6392 83.3274 86.3808 83.0834 87.1424 83.0834C87.904 83.0834 88.6455 83.3274 89.2584 83.7795C89.5518 83.9877 89.8087 84.2432 90.0184 84.5355C90.2276 84.81 90.3935 85.1149 90.5104 85.4395C90.7327 86.0429 90.7893 86.6949 90.6744 87.3275Z" fill="#455A64"/>
<path d="M130.358 93.6877C130.358 93.6877 130.474 93.6877 130.69 93.6437C131.011 93.5774 131.306 93.4222 131.542 93.1957C131.732 93.0118 131.879 92.7879 131.972 92.5402C132.065 92.2924 132.101 92.0272 132.078 91.7637C132.078 91.1317 132.078 90.3997 132.078 89.5757C132.078 87.9317 132.078 85.9157 132.058 83.5757C132.058 82.9917 132.058 82.3757 132.058 81.7637C132.074 81.4527 132.005 81.1432 131.858 80.8689C131.71 80.5946 131.491 80.3659 131.222 80.2077C130.67 79.8597 129.95 80.0117 129.258 79.9797H127.106L81.1063 80.0157C80.8439 80.0157 80.5854 80.0786 80.3522 80.199C80.1191 80.3193 79.9182 80.4938 79.7663 80.7077C79.6137 80.9191 79.5161 81.1651 79.4823 81.4237C79.4619 81.6898 79.4553 81.9568 79.4623 82.2237V91.9997C79.4744 92.2466 79.5418 92.4876 79.6595 92.705C79.7772 92.9223 79.9422 93.1105 80.1423 93.2557C80.3402 93.4003 80.5688 93.4974 80.8103 93.5397C81.0626 93.5674 81.3166 93.5768 81.5703 93.5677H90.6343L111.31 93.5917L125.246 93.6317H129.038L125.246 93.6517L111.31 93.6917L90.6343 93.7157H81.5703C81.3033 93.7261 81.0359 93.7168 80.7703 93.6877C80.3644 93.6148 79.9941 93.4098 79.7169 93.1044C79.4398 92.7991 79.2715 92.4107 79.2383 91.9997C79.2383 89.8797 79.2383 87.725 79.2383 85.5357V82.2317C79.2383 81.9517 79.2383 81.6877 79.2383 81.3837C79.2787 81.0882 79.3898 80.8069 79.5623 80.5637C79.7355 80.318 79.9649 80.1172 80.2314 79.9781C80.4978 79.8389 80.7937 79.7654 81.0943 79.7637L127.094 79.7957H130.294C130.55 79.7858 130.804 79.8293 131.041 79.9236C131.279 80.0179 131.494 80.1608 131.673 80.3431C131.852 80.5254 131.991 80.7431 132.08 80.9822C132.17 81.2214 132.209 81.4767 132.194 81.7317C132.194 82.3557 132.194 82.9597 132.194 83.5437C132.194 85.8797 132.194 87.8957 132.174 89.5437C132.174 90.3677 132.174 91.0997 132.174 91.7317C132.193 92.0031 132.151 92.2753 132.051 92.5285C131.951 92.7817 131.797 93.0096 131.598 93.1957C131.353 93.4232 131.048 93.5759 130.718 93.6357C130.601 93.6704 130.48 93.6879 130.358 93.6877Z" fill="#455A64"/>
<path d="M107.262 83.4873H94.2695V84.4633H107.262V83.4873Z" fill="#455A64"/>
<path d="M117.03 88.9951H94.2695V89.9711H117.03V88.9951Z" fill="#455A64"/>
<path d="M127.254 86.1748H94.2695V87.1508H127.254V86.1748Z" fill="#455A64"/>
<path d="M79.4716 63.8028L79.4419 74.4387C79.4395 75.3069 80.1413 76.0127 81.0095 76.0151L130.633 76.1537C131.501 76.1561 132.207 75.4543 132.21 74.5861L132.239 63.9501C132.242 63.082 131.54 62.3762 130.672 62.3738L81.048 62.2352C80.1798 62.2328 79.474 62.9346 79.4716 63.8028Z" fill="#FFAF1E"/>
<path d="M107.394 65.8908L94.4023 65.8545L94.3996 66.8305L107.392 66.8668L107.394 65.8908Z" fill="#FAFAFA"/>
<path d="M117.145 71.422L94.3848 71.3584L94.382 72.3344L117.142 72.398L117.145 71.422Z" fill="#FAFAFA"/>
<path d="M127.376 68.6351L94.3926 68.543L94.3899 69.519L127.374 69.6111L127.376 68.6351Z" fill="#FAFAFA"/>
<path d="M87.883 69.5519C88.1897 69.4079 88.4476 69.1776 88.6253 68.8891C88.8029 68.6006 88.8925 68.2665 88.883 67.9279C88.8946 67.705 88.8603 67.4822 88.7823 67.2731C88.7042 67.0641 88.5839 66.8733 88.429 66.7127C88.2741 66.5521 88.0879 66.425 87.8818 66.3394C87.6757 66.2538 87.4542 66.2115 87.2311 66.2151C87.008 66.2186 86.788 66.268 86.5848 66.3602C86.3816 66.4524 86.1995 66.5853 86.0498 66.7508C85.9001 66.9163 85.786 67.1108 85.7147 67.3222C85.6433 67.5337 85.6162 67.7575 85.635 67.9799C85.6344 68.3224 85.7356 68.6574 85.9257 68.9422C86.1159 69.2271 86.3864 69.4491 86.703 69.5799C86.1915 69.652 85.7131 69.8745 85.3284 70.2193C84.9438 70.564 84.6704 71.0153 84.543 71.5159C85.1401 72.1637 85.9483 72.5778 86.823 72.6839H87.823C88.7074 72.5498 89.5124 72.0975 90.087 71.4119C89.949 70.9163 89.6649 70.4738 89.2718 70.142C88.8787 69.8102 88.3947 69.6046 87.883 69.5519Z" fill="#FAFAFA"/>
<path d="M87.3387 72.7078C87.3387 72.6798 87.6667 72.7078 88.2267 72.5318C88.7129 72.3948 89.1652 72.1577 89.5545 71.8358C89.9439 71.5139 90.2617 71.1142 90.4876 70.6623C90.7136 70.2105 90.8426 69.7164 90.8666 69.2117C90.8905 68.7071 90.8088 68.203 90.6267 67.7318C90.5048 67.4086 90.3334 67.1064 90.1187 66.8358C89.8993 66.5485 89.6361 66.2974 89.3387 66.0918C88.7124 65.6545 87.9633 65.4277 87.1996 65.4443C86.436 65.4608 85.6974 65.7198 85.0907 66.1838C84.8021 66.4016 84.5497 66.6635 84.3427 66.9598C84.1394 67.2392 83.9803 67.5482 83.8707 67.8758C83.7087 68.3546 83.6481 68.8619 83.6925 69.3654C83.737 69.8689 83.8856 70.3577 84.1289 70.8007C84.3723 71.2437 84.705 71.6314 85.1061 71.939C85.5071 72.2466 85.9677 72.4676 86.4587 72.5878C87.0267 72.7238 87.3587 72.6958 87.3547 72.7238C87.0496 72.7547 86.7416 72.7358 86.4427 72.6678C85.6108 72.4934 84.8648 72.037 84.3307 71.3758C83.9605 70.9193 83.7029 70.3822 83.5787 69.8078C83.4359 69.1432 83.4745 68.4524 83.6907 67.8078C83.9308 67.0971 84.3745 66.4725 84.9667 66.0118C85.6058 65.5171 86.3868 65.2408 87.1948 65.2235C88.0028 65.2062 88.795 65.4489 89.4547 65.9158C89.7692 66.1367 90.0461 66.4068 90.2747 66.7158C90.5006 67.0034 90.6801 67.3247 90.8067 67.6678C91.052 68.3044 91.1198 68.9957 91.0027 69.6678C90.8813 70.375 90.5587 71.0322 90.0735 71.5607C89.5882 72.0892 88.9609 72.4667 88.2667 72.6478C87.963 72.7202 87.6492 72.7405 87.3387 72.7078Z" fill="#FAFAFA"/>
<path d="M102.602 137.463C102.569 137.683 102.458 137.884 102.29 138.03C102.121 138.175 101.906 138.255 101.684 138.255C101.461 138.255 101.246 138.175 101.077 138.03C100.909 137.884 100.798 137.683 100.766 137.463C100.798 137.243 100.909 137.042 101.077 136.896C101.246 136.751 101.461 136.671 101.684 136.671C101.906 136.671 102.121 136.751 102.29 136.896C102.458 137.042 102.569 137.243 102.602 137.463Z" fill="#455A64"/>
<path d="M105.451 137.475C105.477 137.662 105.445 137.853 105.36 138.022C105.274 138.191 105.139 138.329 104.973 138.419C104.806 138.509 104.617 138.546 104.429 138.525C104.241 138.504 104.064 138.426 103.921 138.302C103.779 138.177 103.678 138.012 103.631 137.829C103.585 137.645 103.596 137.452 103.663 137.275C103.73 137.098 103.849 136.946 104.005 136.839C104.161 136.731 104.346 136.674 104.535 136.675C104.762 136.659 104.987 136.735 105.158 136.885C105.33 137.035 105.435 137.247 105.451 137.475Z" fill="#455A64"/>
<path d="M108.292 137.487C108.319 137.675 108.287 137.866 108.201 138.035C108.116 138.204 107.98 138.342 107.814 138.432C107.647 138.522 107.457 138.559 107.269 138.537C107.081 138.516 106.904 138.438 106.761 138.313C106.619 138.188 106.518 138.023 106.473 137.839C106.427 137.655 106.439 137.462 106.506 137.285C106.573 137.108 106.693 136.956 106.85 136.849C107.006 136.742 107.191 136.686 107.38 136.687C107.607 136.673 107.831 136.749 108.002 136.899C108.172 137.049 108.277 137.26 108.292 137.487Z" fill="#455A64"/>
<path d="M86.8691 108.191C87.0451 108.215 87.1411 108.215 87.1411 108.231C87.1411 108.247 87.2291 108.231 87.3931 108.195L86.8691 108.191Z" fill="#455A64"/>
<path d="M90.0183 102.399C89.8074 102.109 89.5507 101.855 89.2583 101.647C88.6454 101.195 87.9039 100.951 87.1423 100.951C86.3807 100.951 85.6391 101.195 85.0263 101.647C84.7326 101.855 84.4746 102.109 84.2623 102.399C84.0528 102.674 83.8881 102.981 83.7743 103.307C83.5656 103.872 83.5017 104.479 83.5883 105.074C83.675 105.67 83.9094 106.234 84.2703 106.715C84.3143 106.771 84.3623 106.823 84.4063 106.875C84.5544 106.398 84.8383 105.974 85.2232 105.655C85.6082 105.336 86.0776 105.136 86.5743 105.079C86.2605 104.942 85.9946 104.715 85.8101 104.427C85.6257 104.138 85.5311 103.802 85.5383 103.459C85.5226 103.236 85.553 103.013 85.6275 102.802C85.7021 102.592 85.8191 102.399 85.9715 102.235C86.1238 102.072 86.3081 101.941 86.513 101.852C86.7179 101.763 86.9389 101.717 87.1623 101.717C87.3857 101.717 87.6067 101.763 87.8115 101.852C88.0164 101.941 88.2007 102.072 88.3531 102.235C88.5054 102.399 88.6225 102.592 88.697 102.802C88.7715 103.013 88.8019 103.236 88.7863 103.459C88.7888 103.798 88.6925 104.129 88.5092 104.413C88.3258 104.698 88.0635 104.922 87.7543 105.059C88.2452 105.118 88.7083 105.318 89.0864 105.637C89.4646 105.955 89.7412 106.377 89.8823 106.851L90.0143 106.695C90.3735 106.213 90.6069 105.649 90.6935 105.054C90.7801 104.459 90.7171 103.852 90.5103 103.287C90.3916 102.968 90.2257 102.669 90.0183 102.399Z" fill="#FAFAFA"/>
<path d="M90.7104 103.243C90.592 102.895 90.4192 102.568 90.1984 102.275C89.9749 101.968 89.705 101.698 89.3984 101.475C88.747 100.991 87.9574 100.73 87.1464 100.73C86.3353 100.73 85.5458 100.991 84.8944 101.475C84.2882 101.921 83.8287 102.538 83.5744 103.247C83.3461 103.888 83.2936 104.578 83.4224 105.247C83.5333 105.829 83.78 106.377 84.1424 106.847C84.6646 107.52 85.4038 107.992 86.2344 108.183C86.4561 108.235 86.6827 108.263 86.9104 108.267C86.9887 108.277 87.0681 108.277 87.1464 108.267C87.1464 108.267 87.0504 108.267 86.8744 108.227H87.3984C87.2344 108.247 87.1464 108.247 87.1464 108.263C87.2247 108.273 87.3041 108.273 87.3824 108.263C87.6101 108.259 87.8367 108.231 88.0584 108.179C88.8878 107.988 89.6256 107.516 90.1464 106.843C90.5117 106.374 90.7599 105.826 90.8704 105.243C90.9986 104.574 90.9433 103.883 90.7104 103.243ZM90.6744 105.199C90.577 105.751 90.3509 106.273 90.0144 106.723L89.8824 106.879C89.7414 106.405 89.4647 105.983 89.0865 105.664C88.7084 105.346 88.2453 105.145 87.7544 105.087C88.0636 104.949 88.326 104.725 88.5093 104.441C88.6926 104.156 88.7889 103.825 88.7864 103.487C88.802 103.264 88.7716 103.04 88.6971 102.829C88.6226 102.619 88.5055 102.426 88.3532 102.262C88.2009 102.099 88.0165 101.969 87.8117 101.88C87.6068 101.79 87.3858 101.744 87.1624 101.744C86.939 101.744 86.718 101.79 86.5131 101.88C86.3082 101.969 86.1239 102.099 85.9716 102.262C85.8192 102.426 85.7022 102.619 85.6276 102.829C85.5531 103.04 85.5227 103.264 85.5384 103.487C85.5312 103.829 85.6258 104.166 85.8102 104.454C85.9947 104.742 86.2606 104.97 86.5744 105.107C86.0777 105.163 85.6083 105.363 85.2233 105.682C84.8384 106.001 84.5545 106.425 84.4064 106.903C84.3624 106.851 84.3144 106.799 84.2704 106.743C83.9095 106.261 83.6751 105.697 83.5884 105.102C83.5018 104.506 83.5657 103.899 83.7744 103.335C83.8882 103.008 84.0529 102.702 84.2624 102.427C84.4747 102.136 84.7328 101.882 85.0264 101.675C85.6392 101.222 86.3808 100.978 87.1424 100.978C87.904 100.978 88.6455 101.222 89.2584 101.675C89.5508 101.882 89.8075 102.136 90.0184 102.427C90.2276 102.702 90.3935 103.009 90.5104 103.335C90.7284 103.931 90.785 104.574 90.6744 105.199Z" fill="#455A64"/>
<path d="M130.358 111.563C130.358 111.563 130.474 111.563 130.69 111.519C131.011 111.453 131.306 111.298 131.542 111.071C131.732 110.887 131.879 110.663 131.972 110.416C132.065 110.168 132.101 109.903 132.078 109.639C132.078 109.003 132.078 108.275 132.078 107.451C132.078 105.803 132.078 103.791 132.058 101.451C132.058 100.867 132.058 100.251 132.058 99.6391C132.075 99.3281 132.005 99.0186 131.858 98.7443C131.71 98.47 131.491 98.2413 131.222 98.0831C130.67 97.7351 129.95 97.8871 129.258 97.8551H127.106L81.1064 97.8911C80.8438 97.8902 80.5849 97.9526 80.3516 98.073C80.1184 98.1935 79.9176 98.3685 79.7664 98.5831C79.6132 98.7942 79.5155 99.0404 79.4824 99.2991C79.462 99.5653 79.4554 99.8323 79.4624 100.099V109.879C79.4739 110.127 79.5411 110.368 79.6588 110.587C79.7765 110.805 79.9418 110.994 80.1424 111.139C80.3403 111.284 80.5689 111.381 80.8104 111.423C81.0628 111.449 81.3167 111.458 81.5704 111.451H90.6344L111.31 111.475L125.246 111.515L129.038 111.535H130.022C130.246 111.535 130.358 111.535 130.358 111.535H130.022H129.038H125.246L111.31 111.571L90.6344 111.599H81.5704C81.3033 111.61 81.0357 111.599 80.7704 111.567C80.494 111.522 80.2322 111.413 80.0064 111.247C79.7774 111.083 79.5889 110.868 79.4551 110.62C79.3214 110.372 79.2459 110.097 79.2344 109.815C79.2344 107.682 79.2344 105.527 79.2344 103.351V100.047C79.2344 99.7671 79.2344 99.5031 79.2344 99.1991C79.2748 98.9037 79.3859 98.6224 79.5584 98.3791C79.7325 98.1344 79.9621 97.9343 80.2284 97.7953C80.4946 97.6562 80.79 97.5822 81.0904 97.5791L127.09 97.6151H130.29C130.641 97.6057 130.987 97.6943 131.29 97.8711C131.579 98.0433 131.816 98.2911 131.975 98.5879C132.133 98.8846 132.208 99.2191 132.19 99.5551C132.19 100.179 132.19 100.783 132.19 101.367C132.19 103.703 132.19 105.715 132.17 107.367C132.17 108.191 132.17 108.919 132.17 109.555C132.189 109.827 132.147 110.099 132.047 110.352C131.948 110.605 131.793 110.833 131.594 111.019C131.349 111.247 131.044 111.399 130.714 111.459C130.602 111.511 130.482 111.546 130.358 111.563Z" fill="#455A64"/>
<path d="M107.262 101.363H94.2695V102.339H107.262V101.363Z" fill="#455A64"/>
<path d="M117.03 106.871H94.2695V107.847H117.03V106.871Z" fill="#455A64"/>
<path d="M127.254 104.051H94.2695V105.027H127.254V104.051Z" fill="#455A64"/>
<path d="M86.8691 125.711C87.0451 125.731 87.1411 125.735 87.1411 125.751C87.1411 125.767 87.2291 125.731 87.3931 125.715L86.8691 125.711Z" fill="#455A64"/>
<path d="M90.0183 119.927C89.8064 119.636 89.5499 119.381 89.2583 119.171C88.6432 118.724 87.9025 118.483 87.1423 118.483C86.382 118.483 85.6413 118.724 85.0263 119.171C84.7334 119.381 84.4756 119.636 84.2623 119.927C84.0528 120.202 83.8881 120.508 83.7743 120.835C83.5656 121.399 83.5017 122.007 83.5883 122.602C83.675 123.197 83.9094 123.762 84.2703 124.243C84.3143 124.299 84.3623 124.351 84.4063 124.403C84.5544 123.925 84.8383 123.501 85.2232 123.183C85.6082 122.864 86.0776 122.664 86.5743 122.607C86.264 122.471 86.0005 122.247 85.8164 121.962C85.6322 121.678 85.5355 121.346 85.5383 121.007C85.5226 120.784 85.553 120.56 85.6275 120.35C85.7021 120.139 85.8191 119.946 85.9715 119.783C86.1238 119.619 86.3081 119.489 86.513 119.4C86.7179 119.311 86.9389 119.265 87.1623 119.265C87.3857 119.265 87.6067 119.311 87.8115 119.4C88.0164 119.489 88.2007 119.619 88.3531 119.783C88.5054 119.946 88.6225 120.139 88.697 120.35C88.7715 120.56 88.8019 120.784 88.7863 121.007C88.7888 121.345 88.6925 121.677 88.5092 121.961C88.3258 122.245 88.0635 122.47 87.7543 122.607C88.2454 122.665 88.7087 122.865 89.0869 123.184C89.4652 123.502 89.7417 123.925 89.8823 124.399C89.9263 124.347 89.9703 124.299 90.0143 124.239C90.3516 123.792 90.5778 123.271 90.6743 122.719C90.7885 122.088 90.7319 121.437 90.5103 120.835C90.3934 120.509 90.2275 120.203 90.0183 119.927Z" fill="#FAFAFA"/>
<path d="M90.7099 120.759C90.5914 120.413 90.4186 120.087 90.1979 119.795C89.975 119.488 89.705 119.218 89.3979 118.995C88.7455 118.514 87.9563 118.255 87.1459 118.255C86.3354 118.255 85.5463 118.514 84.8939 118.995C84.5856 119.217 84.3154 119.487 84.0939 119.795C83.8734 120.088 83.6994 120.413 83.5779 120.759C83.3502 121.4 83.2977 122.091 83.4259 122.759C83.5353 123.342 83.7821 123.891 84.1459 124.359C84.6668 125.035 85.4063 125.508 86.2379 125.699C86.4596 125.751 86.6862 125.779 86.9139 125.783C86.9922 125.793 87.0716 125.793 87.1499 125.783C87.1499 125.783 87.0539 125.763 86.8779 125.743H87.4019C87.2379 125.743 87.1499 125.743 87.1499 125.779C87.2282 125.79 87.3076 125.79 87.3859 125.779C87.6136 125.775 87.8402 125.747 88.0619 125.695C88.7596 125.527 89.3943 125.162 89.8906 124.644C90.387 124.125 90.7241 123.475 90.8619 122.771C90.9941 122.099 90.9415 121.404 90.7099 120.759ZM90.6739 122.719C90.5774 123.271 90.3512 123.792 90.0139 124.239C89.9699 124.299 89.9259 124.347 89.8819 124.399C89.7413 123.925 89.4648 123.503 89.0866 123.184C88.7083 122.865 88.245 122.665 87.7539 122.607C88.0631 122.47 88.3255 122.245 88.5088 121.961C88.6921 121.677 88.7884 121.345 88.7859 121.007C88.8015 120.784 88.7712 120.561 88.6966 120.35C88.6221 120.139 88.505 119.946 88.3527 119.783C88.2004 119.619 88.016 119.489 87.8112 119.4C87.6063 119.311 87.3853 119.265 87.1619 119.265C86.9385 119.265 86.7175 119.311 86.5126 119.4C86.3077 119.489 86.1234 119.619 85.9711 119.783C85.8187 119.946 85.7017 120.139 85.6271 120.35C85.5526 120.561 85.5222 120.784 85.5379 121.007C85.5352 121.346 85.6318 121.678 85.816 121.962C86.0001 122.247 86.2636 122.471 86.5739 122.607C86.0763 122.662 85.6055 122.861 85.219 123.179C84.8326 123.497 84.5472 123.921 84.3979 124.399C84.3539 124.347 84.3059 124.295 84.2619 124.239C83.901 123.758 83.6666 123.194 83.5799 122.598C83.4933 122.003 83.5572 121.395 83.7659 120.831C83.8797 120.505 84.0444 120.198 84.2539 119.923C84.4672 119.632 84.725 119.377 85.0179 119.167C85.6329 118.72 86.3736 118.48 87.1339 118.48C87.8941 118.48 88.6348 118.72 89.2499 119.167C89.821 119.587 90.2563 120.166 90.5019 120.831C90.7269 121.434 90.7863 122.086 90.6739 122.719Z" fill="#455A64"/>
<path d="M130.358 129.083C130.358 129.083 130.474 129.083 130.69 129.039C131.111 128.949 131.485 128.708 131.74 128.362C131.996 128.016 132.116 127.588 132.078 127.159C132.078 126.523 132.078 125.795 132.078 124.971C132.078 123.323 132.078 121.311 132.058 118.971C132.058 118.387 132.058 117.771 132.058 117.159C132.073 116.845 132.001 116.533 131.849 116.258C131.697 115.982 131.472 115.754 131.198 115.599C130.646 115.251 129.926 115.403 129.234 115.371H127.082L81.0824 115.403C80.8197 115.404 80.5611 115.468 80.328 115.589C80.0949 115.71 79.8941 115.885 79.7424 116.099C79.5892 116.31 79.4915 116.557 79.4584 116.815C79.438 117.081 79.4313 117.348 79.4384 117.615V127.399C79.45 127.646 79.5171 127.887 79.6349 128.105C79.7526 128.322 79.9179 128.511 80.1184 128.655C80.316 128.801 80.5446 128.9 80.7864 128.943C81.0388 128.97 81.2928 128.978 81.5464 128.967H90.6104L111.286 128.991L125.222 129.027L129.014 129.051H129.998H130.334C130.334 129.051 130.222 129.051 129.998 129.051H129.014L125.222 129.075L111.286 129.111L90.6104 129.135H81.5704C81.3033 129.144 81.0359 129.134 80.7704 129.103C80.4937 129.057 80.232 128.946 80.0064 128.779C79.7775 128.616 79.589 128.402 79.4552 128.155C79.3214 127.907 79.2459 127.632 79.2344 127.351C79.2344 125.231 79.2344 123.077 79.2344 120.887V117.583C79.2344 117.303 79.2344 117.039 79.2344 116.735C79.2748 116.44 79.3859 116.158 79.5584 115.915C79.7318 115.67 79.9613 115.469 80.2277 115.33C80.4941 115.191 80.7898 115.117 81.0904 115.115L127.09 115.151H130.29C130.641 115.142 130.987 115.23 131.29 115.407C131.58 115.579 131.817 115.827 131.975 116.124C132.134 116.421 132.208 116.755 132.19 117.091C132.19 117.715 132.19 118.319 132.19 118.903C132.19 121.239 132.19 123.251 132.17 124.903C132.17 125.727 132.17 126.455 132.17 127.091C132.189 127.363 132.146 127.635 132.047 127.888C131.947 128.141 131.793 128.369 131.594 128.555C131.35 128.783 131.044 128.935 130.714 128.991C130.601 129.04 130.481 129.071 130.358 129.083Z" fill="#455A64"/>
<path d="M107.262 118.884H94.2695V119.86H107.262V118.884Z" fill="#455A64"/>
<path d="M117.03 124.388H94.2695V125.364H117.03V124.388Z" fill="#455A64"/>
<path d="M127.254 121.567H94.2695V122.543H127.254V121.567Z" fill="#455A64"/>
<path d="M130.514 66.0389C131.985 66.0389 133.178 64.8462 133.178 63.3749C133.178 61.9037 131.985 60.7109 130.514 60.7109C129.042 60.7109 127.85 61.9037 127.85 63.3749C127.85 64.8462 129.042 66.0389 130.514 66.0389Z" fill="#263238"/>
<path d="M129.207 63.1594L130.327 64.1434L131.819 62.6074" stroke="#FAFAFA" stroke-width="0.4" stroke-linecap="round" stroke-linejoin="round"/>
<path d="M56.6891 181.989L56.0371 185.777L61.8771 186.205L61.8971 182.481L56.6891 181.989Z" fill="#FFAF1E"/>
<path d="M59.3226 182.041C59.3068 183.198 59.1727 184.351 58.9226 185.481C58.9002 184.902 58.935 184.322 59.0266 183.749C59.0682 183.171 59.1674 182.599 59.3226 182.041Z" fill="#263238"/>
<path d="M61.8784 185.793C61.5957 185.798 61.3132 185.777 61.0344 185.729L59.0064 185.505C58.2064 185.413 57.4944 185.317 56.9784 185.229C56.6967 185.197 56.4192 185.135 56.1504 185.045C56.4331 185.036 56.716 185.056 56.9944 185.105L59.0264 185.333C59.8264 185.421 60.5344 185.521 61.0504 185.609C61.332 185.642 61.6095 185.703 61.8784 185.793Z" fill="#263238"/>
<path d="M77.7698 184.057V180.657L71.4098 180.597L71.3418 185.569L71.7418 185.597C73.4978 185.709 80.6738 186.053 81.8498 185.709C83.1658 185.325 77.7698 184.057 77.7698 184.057Z" fill="#FFAF1E"/>
<g opacity="0.38">
<path d="M73.657 185.541C73.5676 185.003 73.2827 184.517 72.857 184.177C72.4396 183.837 71.9103 183.666 71.373 183.697V185.477L73.657 185.541Z" fill="black"/>
</g>
<g opacity="0.38">
<path d="M80.4017 184.769C80.4017 184.769 82.2897 185.333 82.0497 185.645C81.8097 185.957 74.5457 185.881 71.3457 185.569V185.425L79.8177 185.581C79.8177 185.581 80.0337 184.801 80.4017 184.769Z" fill="black"/>
</g>
<path d="M71.2617 185.421H71.3697L71.6817 185.445L72.8377 185.505C73.8177 185.549 75.1657 185.593 76.6577 185.609C78.1497 185.625 79.4977 185.609 80.4777 185.589L81.6337 185.553H81.9497C81.9855 185.558 82.0219 185.558 82.0577 185.553H81.6337H80.4777C79.4977 185.553 78.1497 185.553 76.6577 185.553C75.1657 185.553 73.8177 185.501 72.8417 185.469L71.6857 185.433H71.3697L71.2617 185.421Z" fill="#263238"/>
<path d="M79.8302 185.681C79.8834 185.491 79.9585 185.307 80.0542 185.133C80.1719 184.973 80.306 184.826 80.4542 184.693C80.2562 184.766 80.0914 184.908 79.9902 185.093C79.8669 185.263 79.81 185.472 79.8302 185.681Z" fill="#263238"/>
<path d="M77.9634 184.709C77.9634 184.709 78.0714 184.613 78.1674 184.469C78.2358 184.386 78.2837 184.289 78.3074 184.185C78.3074 184.185 78.1954 184.281 78.1034 184.425C78.0114 184.569 77.9474 184.697 77.9634 184.709Z" fill="#263238"/>
<path d="M77.4505 184.433C77.4505 184.433 77.5665 184.381 77.6785 184.285C77.7905 184.189 77.8665 184.097 77.8505 184.081C77.8345 184.065 77.7385 184.129 77.6265 184.229C77.5145 184.329 77.4385 184.401 77.4505 184.433Z" fill="#263238"/>
<path d="M77.1309 183.828C77.3496 183.876 77.5761 183.876 77.7949 183.828C77.7949 183.804 77.6469 183.784 77.4669 183.78C77.3527 183.772 77.2381 183.789 77.1309 183.828Z" fill="#263238"/>
<path d="M77.0215 183.404C77.132 183.477 77.2612 183.516 77.3935 183.516C77.5285 183.543 77.6685 183.526 77.7935 183.468C77.6696 183.445 77.5435 183.436 77.4175 183.44C77.2871 183.415 77.1544 183.403 77.0215 183.404Z" fill="#263238"/>
<path d="M78.1855 184.156C78.318 184.178 78.4531 184.178 78.5855 184.156C78.7331 184.138 78.8789 184.107 79.0215 184.064C79.1078 184.041 79.191 184.007 79.2695 183.964C79.2946 183.951 79.3166 183.933 79.3345 183.911C79.3524 183.889 79.3656 183.864 79.3735 183.836C79.3795 183.806 79.3771 183.775 79.3665 183.746C79.3559 183.717 79.3376 183.692 79.3135 183.672C79.1586 183.593 78.9807 183.571 78.8109 183.609C78.6412 183.648 78.4906 183.746 78.3855 183.884C78.3198 183.962 78.2732 184.054 78.2495 184.152C78.2495 184.224 78.2495 184.264 78.2495 184.264C78.2902 184.138 78.3539 184.02 78.4375 183.916C78.5311 183.81 78.6532 183.732 78.7895 183.692C78.9512 183.641 79.1264 183.656 79.2775 183.732C79.3415 183.78 79.3135 183.856 79.2415 183.9C79.1681 183.938 79.0919 183.97 79.0135 183.996C78.8752 184.042 78.7335 184.077 78.5895 184.1C78.3415 184.144 78.1855 184.144 78.1855 184.156Z" fill="#263238"/>
<path d="M78.2906 184.177C78.2906 184.177 78.3586 184.081 78.3426 183.897C78.3291 183.789 78.2908 183.687 78.2306 183.597C78.198 183.535 78.1498 183.483 78.0908 183.446C78.0319 183.409 77.9643 183.388 77.8946 183.385C77.8738 183.389 77.854 183.397 77.8363 183.408C77.8186 183.42 77.8033 183.435 77.7914 183.452C77.7795 183.47 77.7712 183.489 77.7669 183.51C77.7627 183.531 77.7626 183.552 77.7666 183.573C77.7752 183.637 77.7985 183.699 77.8346 183.753C77.8875 183.844 77.9505 183.928 78.0226 184.005C78.0862 184.078 78.1655 184.135 78.2546 184.173C78.2546 184.173 78.1746 184.097 78.0626 183.969C78.0006 183.89 77.9445 183.807 77.8946 183.721C77.8386 183.633 77.8026 183.477 77.8946 183.461C77.9866 183.445 78.0986 183.553 78.1626 183.637C78.2193 183.717 78.2575 183.808 78.2746 183.905C78.2885 183.995 78.2939 184.086 78.2906 184.177Z" fill="#263238"/>
<path d="M71.4102 183.681C71.4102 183.681 71.5902 183.681 71.8782 183.701C72.2518 183.75 72.6048 183.901 72.8982 184.137C73.1897 184.376 73.4086 184.692 73.5302 185.049C73.5767 185.198 73.6154 185.349 73.6462 185.501C73.653 185.459 73.653 185.416 73.6462 185.373C73.635 185.256 73.6122 185.141 73.5782 185.029C73.4654 184.656 73.244 184.324 72.9422 184.077C72.639 183.83 72.268 183.681 71.8782 183.649C71.7625 183.636 71.6458 183.636 71.5302 183.649C71.4885 183.652 71.4479 183.663 71.4102 183.681Z" fill="#263238"/>
<path d="M72.0941 181.041C72.0465 181.474 72.0238 181.909 72.0261 182.345C72.0017 182.781 72.0017 183.217 72.0261 183.653C72.0737 183.22 72.0964 182.785 72.0941 182.349C72.1185 181.913 72.1185 181.477 72.0941 181.041Z" fill="#263238"/>
<path d="M74.4609 184.929C74.7646 185.003 75.0766 185.037 75.3889 185.029C75.7011 185.049 76.0144 185.028 76.3209 184.965C76.3209 184.941 75.9209 184.965 75.3929 184.965C74.8649 184.965 74.4649 184.905 74.4609 184.929Z" fill="#263238"/>
<path d="M73.2012 184.913C73.2012 184.913 73.2332 185.001 73.2732 185.097C73.3132 185.193 73.3372 185.277 73.3612 185.277C73.3852 185.277 73.3932 185.177 73.3612 185.065C73.3292 184.953 73.2292 184.897 73.2012 184.913Z" fill="#263238"/>
<path d="M72.7539 184.325C72.7539 184.325 72.7779 184.405 72.8419 184.473C72.9059 184.541 72.9739 184.581 72.9899 184.569C73.0059 184.557 72.9619 184.485 72.8979 184.417C72.8339 184.349 72.7659 184.309 72.7539 184.325Z" fill="#263238"/>
<path d="M72.0822 184.049C72.0822 184.069 72.1702 184.069 72.2662 184.105C72.3622 184.141 72.4262 184.189 72.4422 184.173C72.4582 184.157 72.4062 184.073 72.2902 184.033C72.1742 183.993 72.0782 184.029 72.0822 184.049Z" fill="#263238"/>
<path d="M71.6016 183.916C71.6016 183.916 71.6296 183.972 71.6816 183.992C71.7336 184.012 71.7816 183.992 71.7896 183.992C71.7976 183.992 71.7616 183.94 71.7096 183.92C71.6576 183.9 71.6016 183.896 71.6016 183.916Z" fill="#263238"/>
<path d="M68.1229 80.8242C68.1709 79.8282 68.2789 78.7002 68.2789 78.7002C68.2789 78.7002 70.7429 78.4322 70.8909 75.9002C71.0389 73.3682 70.8909 67.5002 70.8909 67.5002L66.4029 65.2002L61.4629 69.0962L62.2109 81.8282L66.7549 82.1162C66.9302 82.1237 67.1052 82.096 67.2695 82.0347C67.4339 81.9734 67.5843 81.8797 67.7119 81.7592C67.8394 81.6388 67.9415 81.494 68.0121 81.3334C68.0827 81.1727 68.1204 80.9996 68.1229 80.8242Z" fill="#FFBE9D"/>
<path d="M68.5652 73.8728C68.5652 73.8728 68.5652 73.9168 68.5252 73.9808C68.4915 74.0219 68.4486 74.0546 68.3999 74.0761C68.3513 74.0976 68.2983 74.1075 68.2452 74.1048C67.9572 74.1048 67.6812 73.7768 67.5812 73.3888C67.5354 73.2036 67.5354 73.01 67.5812 72.8248C67.5867 72.7404 67.6143 72.659 67.6614 72.5888C67.7085 72.5185 67.7732 72.462 67.8492 72.4248C67.8789 72.4119 67.9108 72.4053 67.9432 72.4053C67.9755 72.4053 68.0075 72.4119 68.0372 72.4248C68.0828 72.4451 68.1186 72.4825 68.1372 72.5288C68.1732 72.6008 68.1372 72.6488 68.1372 72.6448C68.1372 72.6408 68.1372 72.6008 68.0892 72.5568C68.0664 72.5236 68.0319 72.5002 67.9926 72.4913C67.9533 72.4824 67.9121 72.4886 67.8772 72.5088C67.8238 72.5439 67.7796 72.5913 67.7483 72.6469C67.717 72.7026 67.6995 72.765 67.6972 72.8288C67.6661 72.9962 67.673 73.1684 67.7172 73.3328C67.8052 73.6808 68.0452 73.9608 68.2572 73.9888C68.2997 73.9943 68.3429 73.9912 68.3842 73.9795C68.4254 73.9678 68.4639 73.9478 68.4972 73.9208C68.5412 73.9048 68.5572 73.8688 68.5652 73.8728Z" fill="#EB996E"/>
<path d="M68.5508 75.4447C68.5828 75.3527 68.6028 75.2527 68.6308 75.1567C68.6588 75.0607 68.6668 75.0207 68.6908 74.9487C68.7336 74.7393 68.7564 74.5264 68.7588 74.3127C68.5397 74.3977 68.3005 74.4164 68.0708 74.3667C67.8411 74.3169 67.6311 74.2008 67.4668 74.0327C67.3014 73.8575 67.1859 73.6412 67.1324 73.4062C67.079 73.1712 67.0895 72.9262 67.1628 72.6967C67.2679 72.4452 67.4248 72.2187 67.6233 72.032C67.8218 71.8452 68.0574 71.7023 68.3148 71.6127C68.8108 71.4047 69.3428 71.3007 69.8308 71.0687C70.8628 70.5807 71.5748 69.5607 72.0628 68.4927C72.4028 67.7447 72.6588 66.8927 72.4268 66.0927C72.0828 64.9207 70.8268 64.3407 69.7028 64.0167C67.9748 63.5287 66.1028 63.3127 64.4148 63.9327C62.7268 64.5527 60.6988 65.6487 60.6988 67.5127C59.7028 67.4287 59.1348 68.3127 58.7388 69.3847C58.544 70.0561 58.3969 70.7405 58.2988 71.4327" fill="#263238"/>
<path d="M62.0576 79.2006C60.8123 78.3416 59.811 77.1744 59.1513 75.8129C58.4916 74.4515 58.1961 72.9423 58.2936 71.4326C58.5496 66.0886 68.5496 75.4326 68.5496 75.4326C68.5496 75.4326 66.6336 81.7286 62.2616 79.1886" fill="#263238"/>
<path d="M60.5738 73.8731C60.5458 73.8491 60.7458 73.6611 60.9098 73.2731C61.0218 73.0266 61.0808 72.7593 61.0828 72.4886C61.0849 72.2178 61.03 71.9497 60.9218 71.7015C60.8135 71.4534 60.6543 71.2307 60.4545 71.048C60.2547 70.8653 60.0187 70.7267 59.7618 70.6411C59.3618 70.4971 59.0898 70.5171 59.0898 70.4811C59.3242 70.4089 59.5759 70.4159 59.8058 70.5011C60.0911 70.5814 60.3555 70.7229 60.5807 70.9156C60.8058 71.1083 60.9864 71.3476 61.1098 71.6171C61.2267 71.8902 61.2812 72.1859 61.2694 72.4828C61.2576 72.7796 61.1799 73.0701 61.0418 73.3331C60.8298 73.7371 60.5858 73.8891 60.5738 73.8731Z" fill="#FFAF1E"/>
<path d="M58.5145 70.6003C58.4239 70.6118 58.3322 70.5921 58.2545 70.5443C58.0298 70.4341 57.8452 70.2565 57.7265 70.0363C57.5605 69.7065 57.5004 69.3335 57.5545 68.9683C57.601 68.5268 57.7371 68.0994 57.9545 67.7123C58.1767 67.3157 58.5262 67.0056 58.9465 66.8323C59.2952 66.69 59.6858 66.69 60.0345 66.8323C60.2651 66.9286 60.4605 67.0933 60.5945 67.3043C60.6785 67.4563 60.6905 67.5563 60.6785 67.5563C60.5157 67.29 60.2696 67.0847 59.9785 66.9723C59.6646 66.8638 59.3211 66.8795 59.0185 67.0163C58.6448 67.18 58.3345 67.4608 58.1345 67.8163C57.7065 68.5803 57.5865 69.4563 57.8465 69.9643C57.9893 70.2468 58.2253 70.4715 58.5145 70.6003Z" fill="#263238"/>
<path d="M103.934 72.4009C103.754 72.2169 103.314 72.3049 103.314 72.3049C103.356 72.0479 103.356 71.7858 103.314 71.5289C103.234 71.2769 102.67 71.3249 102.67 71.3249C102.643 71.1137 102.643 70.9 102.67 70.6889C102.673 70.6426 102.662 70.5966 102.638 70.5566C102.615 70.5167 102.58 70.4847 102.538 70.4649C102.271 70.357 101.985 70.3053 101.698 70.3129C101.35 70.0649 102.746 68.1129 103.266 67.4889C103.786 66.8649 103.69 66.3809 103.23 66.3809C102.914 66.3809 101.286 68.2569 100.786 68.8849C100.286 69.5129 98.9579 71.2649 98.9139 69.8689C98.8699 68.4729 98.3059 67.4129 97.9539 67.2329C97.6019 67.0529 97.2259 67.4769 97.4219 67.8649C97.5888 68.3056 97.6938 68.7673 97.7339 69.2369C97.7788 69.6145 97.7612 69.9969 97.6819 70.3689C97.5361 71.0506 97.3354 71.7194 97.0819 72.3689L97.0459 72.3489C97.0459 72.3489 87.2979 81.6969 86.5939 82.3489C85.9619 82.9489 73.2939 81.6369 70.7579 81.3689C69.8928 81.2458 69.0197 81.187 68.1459 81.1929C67.0459 81.2409 66.8499 81.3969 65.7459 81.4089C63.1246 81.4178 60.5082 81.6372 57.9219 82.0649C55.3899 82.4929 53.9979 84.4649 53.2179 86.9169C50.6539 94.9169 43.7259 113.717 42.6899 124.357C41.9176 125.759 41.2193 127.201 40.5979 128.677C39.8819 130.633 40.0579 130.701 40.2979 130.745C40.9459 130.865 41.6899 127.357 41.9699 128.201C42.2499 129.045 40.5619 132.389 41.2459 132.485C42.1339 132.613 42.8459 128.925 42.9299 128.617C43.0139 128.309 43.4619 128.421 43.3699 128.693C43.2419 129.093 41.9859 133.253 42.8579 133.389C43.3419 133.461 43.3939 132.589 43.3939 132.589C43.3939 132.589 44.2819 128.589 44.6939 128.681C45.1059 128.773 44.6699 131.117 44.4619 131.901C44.2539 132.685 44.5459 133.101 44.9619 132.893C45.2499 132.761 45.9339 130.373 46.1219 129.593C46.3099 128.813 46.7739 126.665 47.4059 127.913C48.0379 129.161 49.0059 129.881 49.4059 129.913C49.498 129.909 49.5864 129.876 49.6585 129.818C49.7306 129.761 49.7825 129.682 49.807 129.593C49.8314 129.504 49.8271 129.41 49.7945 129.323C49.762 129.237 49.703 129.163 49.6259 129.113C49.2875 128.783 48.9967 128.407 48.7619 127.997C48.5609 127.674 48.4149 127.32 48.3299 126.949C48.1528 126.208 48.0496 125.451 48.0219 124.689L47.9459 124.229C48.9459 119.277 52.3459 102.397 56.4779 93.1089L57.6779 98.9649L58.4179 101.561L53.8699 112.801L73.2579 112.545L70.3659 101.409L73.8779 89.8089C77.6819 89.8929 87.4419 90.0369 89.0779 89.3009C91.1219 88.3889 101.71 75.0449 101.71 75.0449C102.407 74.5093 103.075 73.9365 103.71 73.3289C103.71 73.3289 104.322 72.8009 103.934 72.4009Z" fill="#FFBE9D"/>
<path d="M53.0267 104.537C53.5867 102.617 56.4747 93.1212 56.4747 93.1212C56.4747 93.1212 57.8947 100.861 57.5227 101.793C57.1789 102.593 56.7709 103.363 56.3027 104.097C53.0267 109.089 53.4547 111.585 53.4547 111.585L73.2587 110.981C73.3067 108.213 71.6587 101.781 71.3227 100.745C70.9867 99.7092 72.1227 96.3452 72.1227 96.3452C72.1227 96.3452 74.3627 94.0732 74.2747 92.9052C74.228 91.8559 74.0942 90.8123 73.8747 89.7852L88.5427 90.0652L86.9027 82.0932L72.7587 81.0572L68.0547 80.6172C65.6867 82.6172 62.1387 80.6172 62.1387 80.6172C57.6267 81.0572 56.9667 81.7812 55.1147 83.6332C52.9147 85.8252 46.9707 102.597 46.9707 102.597L53.0267 104.537Z" fill="#FFAF1E"/>
<path d="M64.7378 102.605C64.3933 102.665 64.0426 102.682 63.6938 102.657C63.0458 102.657 62.1578 102.613 61.1778 102.517C60.1978 102.421 59.3178 102.277 58.6858 102.153C58.3388 102.109 57.9987 102.022 57.6738 101.893C58.0216 101.891 58.3687 101.925 58.7098 101.993C59.3498 102.073 60.2258 102.185 61.2018 102.285C62.1778 102.385 63.0578 102.449 63.6978 102.493C64.0474 102.494 64.3959 102.532 64.7378 102.605Z" fill="#263238"/>
<path d="M66.0901 100.921C65.747 101.089 65.3841 101.212 65.0101 101.289C64.1207 101.524 63.2157 101.697 62.3021 101.805C61.3891 101.915 60.4694 101.959 59.5501 101.937C59.1686 101.948 58.7871 101.913 58.4141 101.833C58.7902 101.779 59.1704 101.759 59.5501 101.773C60.2501 101.749 61.2141 101.701 62.2781 101.573C63.3421 101.445 64.2781 101.273 64.9741 101.129C65.3392 101.027 65.7126 100.957 66.0901 100.921Z" fill="#263238"/>
<path d="M72.7536 93.4082C72.7492 93.7485 72.7035 94.0869 72.6176 94.4162C72.5016 95.0362 72.3216 95.8842 72.0936 96.8162C71.8656 97.7482 71.6336 98.5842 71.4496 99.1882C71.3728 99.5198 71.2559 99.8408 71.1016 100.144C71.1257 99.8048 71.1888 99.4692 71.2896 99.1442C71.4576 98.4482 71.6536 97.6482 71.8656 96.7642C72.0776 95.8802 72.2856 95.0802 72.4576 94.3642C72.5201 94.0355 72.6194 93.7148 72.7536 93.4082Z" fill="#263238"/>
<path d="M53.3214 111.721L73.1214 111.117L81.7374 144.765L80.1374 183.361H69.6574L70.9654 145.601L63.3054 122.161L64.4694 183.761L53.8854 183.917L52.8014 126.081C52.7574 124.445 52.2174 120.749 52.4014 119.125L53.3214 111.721Z" fill="#455A64"/>
<path d="M65.9449 122.637C65.6199 122.66 65.2932 122.641 64.9729 122.581C64.3769 122.509 63.5569 122.385 62.6609 122.205C61.7649 122.025 60.9569 121.805 60.3809 121.657C60.0617 121.588 59.7526 121.48 59.4609 121.333C59.4609 121.269 60.9169 121.617 62.7049 121.977C64.4929 122.337 65.9529 122.569 65.9449 122.637Z" fill="#263238"/>
<path d="M80.0542 181.245C80.0542 181.309 77.6822 181.361 74.7542 181.361C71.8262 181.361 69.7422 181.269 69.7422 181.205C69.7422 181.141 71.8262 181.129 74.7542 181.129C77.6822 181.129 80.0542 181.201 80.0542 181.245Z" fill="#263238"/>
<path d="M64.3231 181.361C64.3231 181.425 62.0191 181.477 59.1791 181.477C56.3391 181.477 54.0391 181.425 54.0391 181.361C54.0391 181.297 56.3391 181.245 59.1791 181.245C62.0191 181.245 64.3231 181.297 64.3231 181.361Z" fill="#263238"/>
<path d="M63.0293 181.361C62.9653 181.361 62.6853 168.045 62.4053 151.617C62.1253 135.189 61.9533 121.873 62.0053 121.869C62.0573 121.865 62.3613 135.201 62.6413 151.601C62.9213 168.001 63.0933 181.357 63.0293 181.361Z" fill="#263238"/>
<path d="M78.6456 181.245C78.6412 181.184 78.6412 181.122 78.6456 181.061C78.6456 180.929 78.6456 180.753 78.6456 180.525C78.6456 180.045 78.6776 179.353 78.7056 178.469C78.7656 176.673 78.8576 174.093 78.9656 170.909C79.2096 164.509 79.5496 155.709 79.9216 145.965C79.9216 145.873 79.9216 145.785 79.9216 145.701V145.733C77.5736 136.337 75.4536 127.841 73.9216 121.681L72.1416 114.401C71.9376 113.549 71.7776 112.885 71.6696 112.401C71.6189 112.185 71.5789 112.013 71.5496 111.885C71.5345 111.827 71.5239 111.768 71.5176 111.709C71.5429 111.764 71.5617 111.822 71.5736 111.881C71.6056 112.005 71.6536 112.173 71.7136 112.389C71.8336 112.853 72.0096 113.517 72.2296 114.365C72.6736 116.089 73.3096 118.569 74.0936 121.629C75.6496 127.785 77.7936 136.273 80.1696 145.665V145.701C80.1696 145.781 80.1696 145.873 80.1696 145.961C79.7696 155.697 79.4096 164.509 79.1456 170.901C79.0056 174.101 78.8896 176.665 78.8096 178.461C78.7656 179.345 78.7296 180.033 78.7056 180.517C78.7056 180.741 78.6816 180.917 78.6736 181.049C78.6709 181.115 78.6616 181.181 78.6456 181.245Z" fill="#263238"/>
<path d="M75.2287 144.917C74.4752 145.164 73.6995 145.336 72.9127 145.433C71.9527 145.597 71.1207 145.709 70.7567 145.733V145.641C70.8767 145.673 70.9407 145.701 70.9367 145.717C70.9327 145.733 70.8647 145.717 70.7407 145.717H70.4727L70.7407 145.637C71.0887 145.533 71.9127 145.365 72.8767 145.197C73.6496 145.027 74.4374 144.933 75.2287 144.917Z" fill="#263238"/>
<path d="M75.0291 146.201C74.333 146.229 73.6358 146.197 72.9451 146.105C72.248 146.087 71.5536 146.011 70.8691 145.877C71.5646 145.782 72.2697 145.782 72.9651 145.877C73.6647 145.89 74.3591 145.999 75.0291 146.201Z" fill="#263238"/>
<path d="M53.2344 112.429C53.7104 113.105 54.3944 113.341 55.1864 113.469C55.9846 113.564 56.7921 113.549 57.5864 113.425C62.6984 112.857 68.1144 112.333 73.1184 111.117C66.6384 111.477 59.7984 111.357 53.3184 111.721C53.3184 111.721 53.2624 112.165 53.2504 112.273" fill="#263238"/>
<path d="M59.9141 121.564L63.5621 135.736L63.3061 122.16L59.9141 121.564Z" fill="#263238"/>
<path d="M59.178 70.7647C57.77 70.3887 56.298 71.8887 56.25 73.3447C56.25 73.7447 56.294 74.2407 55.998 74.5447C55.702 74.8487 55.174 74.7647 54.73 74.8007C54.2765 74.8458 53.852 75.0446 53.5268 75.3639C53.2017 75.6832 52.9953 76.1041 52.942 76.5567C52.878 77.2047 53.138 77.9007 52.866 78.4927C52.594 79.0847 51.966 79.3247 51.53 79.7647C51.2655 80.0641 51.0665 80.4157 50.946 80.7966C50.8254 81.1776 50.7859 81.5795 50.83 81.9767C50.9246 82.7705 51.1334 83.5465 51.45 84.2807C51.706 84.9647 52.042 85.7247 52.73 85.9687H58.646L59.09 83.7367L59.814 85.9687H60.778L60.258 71.4767C60.258 71.4767 60.254 71.0487 59.178 70.7647Z" fill="#263238"/>
<path d="M51.0865 77.6848C51.0865 77.6848 51.0225 77.6848 50.9265 77.7168C50.8578 77.7543 50.8054 77.8159 50.7795 77.8898C50.7537 77.9637 50.7561 78.0446 50.7865 78.1168C50.8608 78.2801 50.9946 78.4089 51.1606 78.4769C51.3266 78.5449 51.5124 78.547 51.6799 78.4826C51.8473 78.4183 51.9839 78.2924 52.0617 78.1308C52.1396 77.9691 52.1527 77.7838 52.0985 77.6128C52.0141 77.4209 51.9052 77.2407 51.7745 77.0768C51.4714 76.6727 51.3406 76.1651 51.4105 75.6648C51.4463 75.3874 51.5459 75.1221 51.7013 74.8897C51.8567 74.6572 52.0639 74.4638 52.3065 74.3248C52.5662 74.1728 52.8581 74.0845 53.1585 74.0671C53.4589 74.0497 53.7591 74.1037 54.0345 74.2248C54.5785 74.4608 55.0505 74.8088 55.5745 74.7368C55.6926 74.7321 55.8077 74.6978 55.909 74.637C56.0104 74.5762 56.0948 74.4908 56.1545 74.3888C56.2388 74.1615 56.2662 73.9171 56.2345 73.6768C56.203 73.2177 56.2698 72.7573 56.4305 72.3261C56.5912 71.895 56.8422 71.5031 57.1665 71.1768C57.6232 70.749 58.2289 70.5165 58.8545 70.5288C59.0203 70.5335 59.1847 70.5618 59.3425 70.6128C59.3992 70.6265 59.4533 70.6495 59.5025 70.6808C59.2887 70.64 59.0721 70.616 58.8545 70.6088C58.2546 70.6225 57.6825 70.8642 57.2545 71.2848C56.9521 71.6024 56.7205 71.9805 56.575 72.3942C56.4295 72.8079 56.3734 73.2478 56.4105 73.6848C56.4462 73.9553 56.4132 74.2304 56.3145 74.4848C56.2409 74.6175 56.1347 74.7294 56.0059 74.8098C55.8772 74.8903 55.7301 74.9367 55.5785 74.9448C55.2821 74.9731 54.9835 74.9206 54.7145 74.7928C54.4425 74.6768 54.1945 74.5288 53.9385 74.4208C53.6925 74.313 53.4247 74.2644 53.1565 74.279C52.8883 74.2936 52.6273 74.3709 52.3945 74.5048C52.1777 74.6297 51.9928 74.803 51.854 75.0111C51.7152 75.2193 51.6264 75.4567 51.5945 75.7048C51.5257 76.1608 51.6408 76.6255 51.9145 76.9968C52.0511 77.1741 52.1628 77.3692 52.2465 77.5768C52.2842 77.6802 52.3008 77.7901 52.2953 77.9C52.2898 78.0099 52.2623 78.1176 52.2145 78.2168C52.1317 78.3925 51.9903 78.534 51.8145 78.6168C51.6538 78.6883 51.4744 78.7066 51.3025 78.6688C51.1657 78.6427 51.0386 78.5798 50.9349 78.4867C50.8313 78.3937 50.7551 78.274 50.7145 78.1408C50.6852 78.0552 50.6896 77.9617 50.7267 77.8792C50.7639 77.7968 50.831 77.7315 50.9145 77.6968C51.0305 77.6408 51.0905 77.6848 51.0865 77.6848Z" fill="#263238"/>
<path d="M74.0011 89.6568C73.8498 89.6778 73.6964 89.6778 73.5451 89.6568C73.1289 89.6065 72.7236 89.489 72.3451 89.3088C71.7805 89.0439 71.2767 88.6654 70.8651 88.1968C70.3426 87.6293 69.9905 86.9261 69.849 86.1678C69.7075 85.4094 69.7824 84.6266 70.0651 83.9088C70.2838 83.3243 70.6216 82.7917 71.0571 82.3448C71.3461 82.0417 71.6825 81.7877 72.0531 81.5928C72.1844 81.5141 72.3276 81.4573 72.4771 81.4248C71.9935 81.7007 71.5517 82.0441 71.1651 82.4448C70.7609 82.8887 70.4483 83.4079 70.2451 83.9728C69.9817 84.6584 69.9122 85.4033 70.0442 86.1258C70.1761 86.8483 70.5044 87.5205 70.9931 88.0688C71.3839 88.5251 71.8593 88.9013 72.3931 89.1768C72.905 89.4086 73.4459 89.5701 74.0011 89.6568Z" fill="#263238"/>
</svg>
