<svg width="200" height="200" viewBox="0 0 200 200" fill="none" xmlns="http://www.w3.org/2000/svg">
<path d="M186.757 126.481H121.201V88.5449H186.757V126.481ZM121.601 126.081H186.357V88.9449H121.601V126.081Z" fill="#E0E0E0"/>
<path d="M173.232 108.772H129.98V110.04H173.232V108.772Z" fill="#F0F0F0"/>
<path d="M176.212 113.5H129.98V114.884H176.212V113.5Z" fill="#F0F0F0"/>
<path d="M176.212 118.284H129.98V119.668H176.212V118.284Z" fill="#F0F0F0"/>
<path d="M145.096 101.904H129.98V105.196H145.096V101.904Z" fill="#F0F0F0"/>
<path d="M186.556 88.7422H121.412V94.7822H186.556V88.7422Z" fill="#E0E0E0"/>
<path d="M181.545 93.8802C181.461 93.8002 182.301 92.7882 183.417 91.6202C184.533 90.4522 185.513 89.5682 185.593 89.6442C185.673 89.7202 184.837 90.7362 183.721 91.9082C182.605 93.0802 181.625 93.9602 181.545 93.8802Z" fill="white"/>
<path d="M185.601 93.8797C185.521 93.9597 184.545 93.0797 183.425 91.9077C182.305 90.7357 181.469 89.7237 181.553 89.6437C181.637 89.5637 182.609 90.4437 183.729 91.6197C184.849 92.7957 185.677 93.7997 185.601 93.8797Z" fill="white"/>
<path d="M106.089 13.6201H40.9453V51.1601H106.089V13.6201Z" fill="#E6E6E6"/>
<path d="M92.7676 33.6523H49.5156V34.9203H92.7676V33.6523Z" fill="#F0F0F0"/>
<path d="M95.7476 38.3809H49.5156V39.7649H95.7476V38.3809Z" fill="#F0F0F0"/>
<path d="M95.7476 43.1641H49.5156V44.5481H95.7476V43.1641Z" fill="#F0F0F0"/>
<path d="M64.6316 26.7842H49.5156V30.0762H64.6316V26.7842Z" fill="#F0F0F0"/>
<path d="M106.089 13.6201H40.9453V19.6601H106.089V13.6201Z" fill="#E0E0E0"/>
<path d="M100.857 18.7282C100.773 18.6522 101.613 17.6362 102.729 16.4682C103.845 15.3002 104.825 14.4162 104.905 14.4962C104.985 14.5762 104.149 15.5882 103.033 16.7562C101.917 17.9242 100.937 18.8002 100.857 18.7282Z" fill="white"/>
<path d="M104.905 18.7283C104.825 18.8083 103.849 17.9283 102.729 16.7563C101.609 15.5843 100.773 14.5763 100.857 14.4963C100.941 14.4163 101.913 15.2963 103.033 16.4683C104.153 17.6403 104.989 18.6523 104.905 18.7283Z" fill="white"/>
<path d="M81.417 83.356H15.873V45.416H81.417V83.356ZM16.273 82.956H81.017V45.816H16.273V82.956Z" fill="#E0E0E0"/>
<path d="M67.8965 65.6484H24.6445V66.9164H67.8965V65.6484Z" fill="#F0F0F0"/>
<path d="M70.8765 70.375H24.6445V71.759H70.8765V70.375Z" fill="#F0F0F0"/>
<path d="M70.8765 75.1602H24.6445V76.5442H70.8765V75.1602Z" fill="#F0F0F0"/>
<path d="M39.7605 58.7803H24.6445V62.0723H39.7605V58.7803Z" fill="#F0F0F0"/>
<path d="M81.2182 45.6162H16.0742V51.6562H81.2182V45.6162Z" fill="#E0E0E0"/>
<path d="M157.061 92.0469H80.1406V160.911H157.061V92.0469Z" fill="#E6E6E6"/>
<path d="M84.0099 70.3555H23.7539V132.959H84.0099V70.3555Z" fill="#F0F0F0"/>
<path d="M84.0099 70.3555H23.7539V77.1755H84.0099V70.3555Z" fill="#E0E0E0"/>
<path d="M28.7279 73.695C28.717 73.9423 28.6336 74.181 28.4882 74.3813C28.3428 74.5817 28.1418 74.735 27.9101 74.8221C27.6784 74.9092 27.4262 74.9264 27.1848 74.8715C26.9434 74.8166 26.7235 74.692 26.5522 74.5132C26.381 74.3344 26.2661 74.1093 26.2217 73.8657C26.1773 73.6222 26.2054 73.371 26.3025 73.1432C26.3996 72.9155 26.5614 72.7213 26.7679 72.5847C26.9743 72.4482 27.2164 72.3752 27.4639 72.375C27.8063 72.3834 28.1314 72.5269 28.3682 72.7743C28.6051 73.0216 28.7344 73.3526 28.7279 73.695Z" fill="white"/>
<path d="M33.8611 73.695C33.8509 73.9435 33.7679 74.1835 33.6223 74.3851C33.4767 74.5868 33.2751 74.7412 33.0425 74.8291C32.8098 74.917 32.5565 74.9346 32.3139 74.8796C32.0714 74.8247 31.8503 74.6996 31.6783 74.52C31.5063 74.3404 31.391 74.1141 31.3465 73.8694C31.3021 73.6247 31.3307 73.3724 31.4286 73.1437C31.5265 72.9151 31.6895 72.7204 31.8973 72.5837C32.105 72.447 32.3484 72.3744 32.5971 72.375C32.9394 72.3834 33.2645 72.5269 33.5014 72.7743C33.7382 73.0216 33.8676 73.3526 33.8611 73.695Z" fill="white"/>
<path d="M38.9939 73.695C38.9837 73.9435 38.9007 74.1835 38.7551 74.3851C38.6096 74.5868 38.4079 74.7412 38.1753 74.8291C37.9426 74.917 37.6893 74.9346 37.4467 74.8796C37.2042 74.8247 36.9832 74.6996 36.8112 74.52C36.6392 74.3404 36.5238 74.1141 36.4794 73.8694C36.435 73.6247 36.4635 73.3724 36.5614 73.1437C36.6593 72.9151 36.8223 72.7204 37.0301 72.5837C37.2378 72.447 37.4812 72.3744 37.7299 72.375C38.0723 72.3834 38.3974 72.5269 38.6342 72.7743C38.871 73.0216 39.0004 73.3526 38.9939 73.695Z" fill="white"/>
<path d="M178.152 27.3125H101.232V103.977H178.152V27.3125Z" fill="#F0F0F0"/>
<path d="M178.152 27.3125H101.232V36.2925H178.152V27.3125Z" fill="#E0E0E0"/>
<path d="M107.784 31.7117C107.77 32.0381 107.66 32.3533 107.468 32.6179C107.277 32.8826 107.011 33.0852 106.706 33.2004C106.4 33.3157 106.067 33.3386 105.748 33.2664C105.43 33.1941 105.139 33.0298 104.913 32.794C104.687 32.5581 104.535 32.261 104.476 31.9395C104.418 31.6181 104.455 31.2865 104.583 30.9858C104.711 30.6852 104.924 30.4289 105.197 30.2486C105.469 30.0683 105.789 29.972 106.116 29.9717C106.567 29.9822 106.996 30.1712 107.309 30.4973C107.622 30.8234 107.792 31.26 107.784 31.7117Z" fill="white"/>
<path d="M114.051 30.5362C114.273 30.777 114.419 31.0778 114.471 31.401C114.523 31.7242 114.479 32.0555 114.344 32.3538C114.209 32.652 113.989 32.904 113.712 33.0782C113.435 33.2525 113.113 33.3413 112.785 33.3336C112.458 33.326 112.14 33.2222 111.872 33.0353C111.603 32.8483 111.395 32.5864 111.274 32.2822C111.153 31.9779 111.125 31.6449 111.192 31.3245C111.259 31.004 111.419 30.7104 111.651 30.4802C111.977 30.17 112.413 30.0017 112.863 30.0122C113.313 30.0227 113.74 30.2111 114.051 30.5362Z" fill="white"/>
<path d="M121.299 31.7117C121.285 32.0381 121.176 32.3533 120.984 32.6179C120.792 32.8826 120.527 33.0852 120.221 33.2004C119.916 33.3157 119.583 33.3386 119.264 33.2664C118.945 33.1941 118.655 33.0298 118.429 32.794C118.203 32.5581 118.051 32.261 117.992 31.9395C117.933 31.6181 117.97 31.2865 118.098 30.9858C118.226 30.6852 118.44 30.4289 118.713 30.2486C118.985 30.0683 119.305 29.972 119.631 29.9717C120.083 29.9822 120.512 30.1712 120.825 30.4973C121.137 30.8234 121.308 31.26 121.299 31.7117Z" fill="white"/>
<path d="M161.537 181.252C161.537 181.308 133.761 181.356 99.5088 181.356C65.2568 181.356 37.4688 181.308 37.4688 181.252C37.4688 181.196 65.2408 181.148 99.5088 181.148C133.777 181.148 161.537 181.2 161.537 181.252Z" fill="#263238"/>
<path d="M134.471 132.283C128.291 127.967 126.891 119.955 127.135 112.751C127.175 111.551 127.043 110.279 127.615 109.227C128.187 108.175 129.523 107.451 130.599 107.955C131.491 108.375 131.879 109.415 132.379 110.275C133.047 111.421 134.024 112.354 135.199 112.967C135.963 113.367 136.911 113.607 137.667 113.191C138.707 112.619 138.827 111.191 138.819 109.991C138.819 107.759 138.806 105.53 138.779 103.303C138.707 102.108 138.829 100.908 139.139 99.7514C139.511 98.6154 140.339 97.5634 141.471 97.2434C142.603 96.9234 144.015 97.5834 144.271 98.7514C144.315 99.2461 144.327 99.7432 144.307 100.239C144.339 100.739 144.571 101.287 145.039 101.439C145.507 101.591 145.995 101.243 146.355 100.891C147.587 99.6914 148.427 98.1274 149.207 96.5834C149.987 95.0394 150.751 93.4514 151.871 92.1354C152.991 90.8194 154.539 89.7754 156.271 89.6754C158.003 89.5754 159.807 90.6394 160.239 92.3194C160.671 93.9994 159.691 95.7154 158.639 97.0794C157.052 99.1041 155.181 100.889 153.083 102.379C152.674 102.603 152.347 102.952 152.151 103.375C151.891 104.175 152.647 104.975 153.435 105.227C154.327 105.523 155.295 105.431 156.235 105.543C157.175 105.655 158.175 106.063 158.531 106.943C159.019 108.167 157.995 109.447 156.991 110.287C154.975 111.967 152.686 113.289 150.223 114.195C149.343 114.515 148.419 114.799 147.707 115.415C146.995 116.031 146.571 117.107 146.999 117.951C147.427 118.795 148.527 119.063 149.451 118.891C150.375 118.719 151.195 118.223 152.075 117.891C153.719 117.271 155.839 117.383 156.875 118.803C157.196 119.293 157.399 119.849 157.469 120.43C157.538 121.011 157.472 121.6 157.275 122.151C156.875 123.248 156.259 124.253 155.463 125.107C152.844 128.238 149.44 130.616 145.599 131.999C141.787 133.319 138.255 133.679 134.467 132.291" fill="#FFAF1E"/>
<path d="M158.481 90.6641C158.481 90.6641 158.445 90.7041 158.365 90.7761L158.009 91.0921C157.697 91.3721 157.237 91.7801 156.657 92.3201C155.012 93.8469 153.485 95.4956 152.089 97.2521C151.197 98.3601 150.273 99.6161 149.289 100.98C148.305 102.344 147.289 103.816 146.281 105.38C145.206 107.029 144.222 108.736 143.333 110.492C142.869 111.408 142.461 112.364 142.041 113.34L140.801 116.32C139.166 120.074 137.743 123.916 136.537 127.828C135.565 131.029 134.896 134.314 134.537 137.64C134.304 139.885 134.267 142.145 134.425 144.396C134.489 145.196 134.549 145.808 134.605 146.224C134.629 146.424 134.645 146.584 134.661 146.7V146.864C134.644 146.812 134.631 146.758 134.625 146.704C134.605 146.588 134.581 146.432 134.549 146.232C134.477 145.832 134.401 145.2 134.329 144.4C134.136 142.145 134.149 139.877 134.369 137.624C134.705 134.284 135.36 130.984 136.325 127.768C137.521 123.845 138.94 119.993 140.577 116.232L141.849 113.264C142.269 112.292 142.681 111.328 143.149 110.408C144.044 108.647 145.036 106.936 146.121 105.284C147.145 103.684 148.177 102.236 149.149 100.884C150.121 99.5321 151.061 98.2681 151.949 97.1641C153.359 95.4122 154.907 93.7751 156.577 92.2681C157.169 91.7361 157.641 91.3361 157.961 91.0681L158.333 90.7681C158.378 90.7284 158.428 90.6935 158.481 90.6641Z" fill="#263238"/>
<path d="M143.199 110.399C143.143 110.234 143.104 110.064 143.083 109.891C143.019 109.559 142.947 109.091 142.863 108.483C142.691 107.283 142.515 105.639 142.327 103.819C142.139 101.999 141.927 100.351 141.751 99.1632C141.659 98.5712 141.579 98.0952 141.523 97.7632C141.479 97.5932 141.457 97.4186 141.455 97.2432C141.524 97.4034 141.574 97.5712 141.603 97.7432C141.691 98.0712 141.791 98.5432 141.903 99.1392C142.131 100.339 142.355 101.971 142.543 103.795C142.731 105.619 142.891 107.219 143.015 108.463C143.075 109.023 143.127 109.499 143.167 109.879C143.198 110.051 143.209 110.225 143.199 110.399Z" fill="#263238"/>
<path d="M158.592 107.527C158.397 107.569 158.199 107.594 158 107.599C157.6 107.635 157.032 107.683 156.328 107.763C154.92 107.915 152.984 108.195 150.86 108.595C148.736 108.995 146.828 109.447 145.456 109.795C144.772 109.971 144.22 110.131 143.856 110.239C143.662 110.308 143.46 110.356 143.256 110.383C143.441 110.29 143.633 110.214 143.832 110.155C144.208 110.023 144.752 109.839 145.432 109.643C146.796 109.243 148.704 108.767 150.836 108.359C152.642 108.014 154.464 107.76 156.296 107.599C157.004 107.539 157.576 107.515 157.976 107.507C158.181 107.493 158.388 107.5 158.592 107.527Z" fill="#263238"/>
<path d="M136.519 127.488C136.477 127.43 136.442 127.367 136.415 127.3L136.151 126.744C135.923 126.26 135.615 125.544 135.247 124.668C134.503 122.908 133.555 120.444 132.547 117.708C131.539 114.972 130.611 112.508 129.907 110.728C129.563 109.864 129.279 109.156 129.067 108.628L128.843 108.056C128.812 107.99 128.791 107.92 128.779 107.848C128.822 107.906 128.857 107.969 128.883 108.036L129.147 108.592C129.371 109.076 129.683 109.792 130.051 110.668C130.795 112.428 131.743 114.892 132.751 117.628C133.759 120.364 134.687 122.828 135.391 124.608C135.735 125.472 136.019 126.18 136.227 126.708C136.319 126.936 136.395 127.108 136.455 127.28C136.486 127.346 136.508 127.416 136.519 127.488Z" fill="#263238"/>
<path d="M156.952 120.899C156.888 120.936 156.819 120.964 156.748 120.983L156.156 121.183L153.968 121.891C152.12 122.491 149.568 123.347 146.768 124.291C143.968 125.235 141.404 126.075 139.544 126.635C138.616 126.919 137.86 127.135 137.336 127.279L136.732 127.435C136.661 127.458 136.589 127.472 136.516 127.479C136.58 127.443 136.648 127.414 136.72 127.395L137.312 127.195L139.5 126.487C141.348 125.887 143.9 125.031 146.7 124.087C149.5 123.143 152.06 122.303 153.92 121.743C154.852 121.459 155.604 121.243 156.132 121.099L156.736 120.943C156.806 120.921 156.878 120.906 156.952 120.899Z" fill="#263238"/>
<path d="M148.617 23.8715L146.557 24.6075L145.673 21.9155C144.049 16.9515 138.873 14.3155 134.117 15.9915C129.361 17.6675 126.829 23.1115 128.453 28.0755L129.337 30.7675L127.269 31.5075C126.48 31.8134 125.84 32.4114 125.481 33.1772C125.122 33.943 125.072 34.8177 125.341 35.6195L131.073 53.1355C131.192 53.5324 131.389 53.9014 131.654 54.2205C131.918 54.5396 132.244 54.8022 132.612 54.9929C132.98 55.1836 133.382 55.2983 133.795 55.3304C134.209 55.3625 134.624 55.3111 135.017 55.1795L156.365 47.5435C157.164 47.2382 157.813 46.6349 158.177 45.8606C158.54 45.0862 158.589 44.2011 158.313 43.3915L152.577 25.8755C152.455 25.4797 152.254 25.1125 151.987 24.7959C151.72 24.4793 151.392 24.2197 151.022 24.0327C150.653 23.8457 150.249 23.735 149.836 23.7073C149.423 23.6796 149.008 23.7355 148.617 23.8715ZM132.345 26.6715C131.907 25.3808 131.986 23.9707 132.564 22.7367C133.143 21.5026 134.177 20.5404 135.449 20.0515C136.077 19.8366 136.742 19.7504 137.405 19.7981C138.067 19.8458 138.713 20.0264 139.304 20.3291C139.895 20.6319 140.419 21.0506 140.844 21.5602C141.27 22.0699 141.588 22.6601 141.781 23.2955L142.661 25.9875L133.225 29.3635L132.345 26.6715ZM144.345 42.2155L145.809 46.6875C145.836 46.7772 145.827 46.8738 145.785 46.9572C145.742 47.0406 145.669 47.1045 145.581 47.1355L143.529 47.8675C143.447 47.8902 143.36 47.8803 143.285 47.84C143.211 47.7998 143.155 47.7322 143.129 47.6515L141.653 43.1995C140.839 43.1552 140.058 42.8633 139.415 42.3628C138.771 41.8624 138.296 41.1774 138.053 40.3995C137.705 39.3711 137.768 38.2479 138.23 37.2653C138.692 36.2826 139.515 35.5165 140.529 35.1275C141.029 34.9565 141.559 34.888 142.087 34.9261C142.614 34.9642 143.129 35.1081 143.599 35.3493C144.07 35.5904 144.487 35.9238 144.826 36.3297C145.165 36.7355 145.419 37.2055 145.573 37.7115C145.83 38.5017 145.852 39.3499 145.634 40.152C145.417 40.9541 144.97 41.6754 144.349 42.2275L144.345 42.2155Z" fill="#FFAF1E"/>
<path d="M146.466 24.559C146.466 24.615 142.646 26.051 137.894 27.759C133.142 29.467 129.266 30.839 129.246 30.799C129.226 30.759 133.066 29.311 137.822 27.599C142.578 25.887 146.446 24.507 146.466 24.559Z" fill="#263238"/>
<path d="M151.001 25.2959C151.018 25.3306 151.033 25.3667 151.045 25.4039C151.077 25.4839 151.113 25.5879 151.161 25.7159C151.265 26.0079 151.409 26.4119 151.589 26.9159L153.125 31.3879C153.765 33.2839 154.529 35.5319 155.377 38.0279C155.777 39.2799 156.249 40.5839 156.689 41.9559C156.924 42.6629 157.026 43.4076 156.989 44.1519C156.955 44.539 156.845 44.9155 156.665 45.2599C156.472 45.6031 156.216 45.906 155.909 46.1519C155.291 46.603 154.605 46.9527 153.877 47.1879L151.817 47.9279L147.917 49.3239L141.313 51.6759L136.853 53.2439L135.653 53.6439L135.333 53.7479C135.298 53.7631 135.262 53.7726 135.225 53.7759C135.225 53.7759 135.257 53.7759 135.325 53.7279L135.637 53.6039L136.837 53.1519L141.273 51.5199L147.865 49.1199L151.757 47.7119L153.817 46.9679C154.524 46.7423 155.19 46.4032 155.789 45.9639C156.074 45.7357 156.313 45.4546 156.493 45.1359C156.662 44.8174 156.764 44.4675 156.793 44.1079C156.829 43.3908 156.732 42.6731 156.505 41.9919C156.073 40.6319 155.617 39.3159 155.205 38.0639C154.373 35.5639 153.605 33.3079 152.997 31.4119C152.389 29.5159 151.877 27.9919 151.525 26.9199C151.357 26.3959 151.229 25.9879 151.125 25.6919L151.029 25.3719C151.017 25.3477 151.007 25.3222 151.001 25.2959Z" fill="#263238"/>
<path d="M139.737 19.7801C139.737 19.7801 139.525 19.6761 139.133 19.5161C138.574 19.3014 137.983 19.1824 137.385 19.1641C136.498 19.1337 135.616 19.3004 134.801 19.6521C133.81 20.0901 132.963 20.7985 132.357 21.6961C131.747 22.5911 131.419 23.6488 131.417 24.7321C131.425 25.62 131.56 26.5022 131.817 27.3521C132.025 28.0801 132.241 28.6601 132.385 29.0641C132.47 29.2693 132.54 29.4806 132.593 29.6961C132.479 29.5042 132.384 29.302 132.309 29.0921C132.145 28.6921 131.909 28.1241 131.677 27.3921C131.392 26.5332 131.237 25.6367 131.217 24.7321C131.206 23.6079 131.542 22.5075 132.177 21.5801C132.804 20.6497 133.686 19.9194 134.717 19.4761C135.557 19.1224 136.467 18.9664 137.377 19.0201C137.988 19.0512 138.589 19.1936 139.149 19.4401C139.299 19.5092 139.443 19.5894 139.581 19.6801C139.638 19.7051 139.691 19.7388 139.737 19.7801Z" fill="#263238"/>
<path d="M139.921 35.4308C139.984 35.3921 140.051 35.3586 140.121 35.3308C140.321 35.2404 140.528 35.1668 140.741 35.1107C141.078 35.0112 141.425 34.9522 141.777 34.9347C142.254 34.9091 142.732 34.9812 143.181 35.1468C144.205 35.5068 145.145 36.5508 145.609 37.9468C145.831 38.6959 145.831 39.4936 145.609 40.2428C145.362 41.0559 144.92 41.7961 144.321 42.3988L144.345 42.2908C144.877 43.7508 145.457 45.3348 146.057 46.9868L146.093 47.0868L145.993 47.1227L145.077 47.4268L143.077 48.0948L142.977 48.1268L142.945 48.0268C142.397 46.3708 141.797 44.8267 141.345 43.3107L141.433 43.3787C140.651 43.3138 139.905 43.0203 139.289 42.5347C138.731 42.1052 138.274 41.5592 137.949 40.9347C137.655 40.381 137.509 39.7612 137.525 39.1347C137.543 38.4945 137.703 37.8663 137.993 37.2951C138.282 36.7239 138.695 36.2239 139.201 35.8308C139.409 35.6618 139.642 35.5268 139.893 35.4308C139.667 35.5648 139.448 35.7103 139.237 35.8667C138.681 36.3367 138.255 36.9413 138.001 37.6227C137.782 38.1366 137.679 38.6925 137.701 39.2506C137.722 39.8088 137.867 40.3552 138.125 40.8507C138.444 41.4515 138.89 41.9756 139.433 42.3868C140.021 42.8483 140.731 43.1265 141.477 43.1868H141.545L141.565 43.2468C142.005 44.7348 142.609 46.2908 143.165 47.9548L143.033 47.8908L145.033 47.2227L145.945 46.9148L145.881 47.0507C145.285 45.3987 144.709 43.8107 144.181 42.3507V42.2908L144.229 42.2428C144.81 41.6651 145.244 40.9557 145.493 40.1748C145.705 39.4581 145.705 38.6954 145.493 37.9787C145.057 36.6347 144.157 35.6147 143.181 35.2547C142.749 35.0882 142.287 35.0106 141.825 35.0267C141.479 35.0347 141.135 35.0816 140.801 35.1667C140.205 35.3147 139.925 35.4508 139.921 35.4308Z" fill="#263238"/>
<path d="M127.556 150.928L87.5995 150.744C85.2921 150.731 83.084 149.803 81.4603 148.164C79.8366 146.524 78.93 144.307 78.9395 142L79.3635 41.836C79.3682 40.6928 79.5982 39.5618 80.0403 38.5075C80.4824 37.4533 81.1279 36.4965 81.94 35.6918C82.752 34.8872 83.7147 34.2505 84.773 33.8181C85.8312 33.3858 86.9644 33.1662 88.1075 33.172L128.06 33.356C130.367 33.3676 132.575 34.2946 134.2 35.9333C135.824 37.5721 136.732 39.7885 136.724 42.096L136.3 142.256C136.295 143.4 136.065 144.531 135.623 145.586C135.181 146.64 134.536 147.598 133.724 148.403C132.912 149.208 131.949 149.846 130.891 150.279C129.832 150.712 128.699 150.933 127.556 150.928Z" fill="#455A64"/>
<path d="M127.998 36.8002H120.254C120.001 36.8049 119.752 36.8593 119.52 36.9603C119.288 37.0614 119.079 37.207 118.904 37.3891C118.728 37.5711 118.591 37.7858 118.498 38.0211C118.406 38.2564 118.361 38.5075 118.366 38.7602V40.1642C118.37 40.4167 118.325 40.6676 118.233 40.9026C118.141 41.1377 118.003 41.3522 117.828 41.5339C117.652 41.7155 117.443 41.8609 117.211 41.9615C116.979 42.0621 116.73 42.116 116.478 42.1202L101.382 42.0522C100.871 42.0386 100.387 41.8228 100.035 41.4523C99.6831 41.0818 99.4928 40.5869 99.5057 40.0762V38.6722C99.5186 38.1621 99.3289 37.6678 98.978 37.2974C98.6271 36.927 98.1437 36.7108 97.6337 36.6962H94.9097L88.1297 36.6642C86.5171 36.6546 84.9663 37.2844 83.817 38.4157C82.6678 39.547 82.0136 41.0876 81.9977 42.7002L81.5977 140.468C81.594 141.268 81.748 142.061 82.0507 142.802C82.3535 143.542 82.7991 144.216 83.3622 144.784C83.9253 145.352 84.5948 145.804 85.3325 146.114C86.0702 146.423 86.8617 146.584 87.6617 146.588L127.534 146.772C128.334 146.776 129.128 146.622 129.869 146.319C130.61 146.016 131.284 145.57 131.852 145.006C132.421 144.443 132.873 143.773 133.183 143.035C133.493 142.297 133.654 141.505 133.658 140.704L134.058 42.9362C134.067 41.319 133.434 39.7643 132.298 38.6136C131.162 37.463 129.615 36.8107 127.998 36.8002Z" fill="white"/>
<path d="M122.638 133.727L92.9895 133.599C92.6815 133.599 92.4335 133.263 92.4375 132.855L92.4695 125.099C92.4695 124.699 92.7216 124.355 93.0296 124.355L122.678 124.491C122.848 124.521 123.001 124.615 123.104 124.755C123.207 124.894 123.252 125.068 123.23 125.239L123.202 132.987C123.202 133.399 122.946 133.731 122.638 133.727Z" fill="#FFAF1E"/>
<path d="M101.784 128.675C101.657 128.675 101.535 128.654 101.418 128.614C101.303 128.572 101.213 128.518 101.15 128.453L101.221 128.314C101.281 128.372 101.361 128.422 101.462 128.463C101.565 128.502 101.672 128.521 101.784 128.521C101.891 128.521 101.978 128.508 102.045 128.482C102.113 128.454 102.163 128.418 102.194 128.372C102.226 128.327 102.243 128.276 102.243 128.221C102.243 128.154 102.223 128.101 102.184 128.06C102.147 128.019 102.097 127.988 102.035 127.965C101.974 127.941 101.905 127.919 101.83 127.902C101.756 127.884 101.681 127.865 101.606 127.845C101.531 127.824 101.462 127.797 101.399 127.762C101.337 127.728 101.286 127.684 101.247 127.628C101.21 127.571 101.191 127.497 101.191 127.406C101.191 127.322 101.213 127.244 101.257 127.175C101.303 127.103 101.372 127.046 101.464 127.004C101.557 126.96 101.676 126.938 101.821 126.938C101.917 126.938 102.012 126.952 102.106 126.979C102.2 127.005 102.282 127.042 102.35 127.089L102.289 127.233C102.216 127.184 102.138 127.149 102.055 127.126C101.974 127.103 101.895 127.092 101.818 127.092C101.716 127.092 101.631 127.105 101.565 127.133C101.498 127.161 101.448 127.198 101.416 127.245C101.385 127.291 101.369 127.343 101.369 127.401C101.369 127.468 101.388 127.522 101.425 127.562C101.464 127.603 101.515 127.635 101.577 127.658C101.64 127.68 101.709 127.701 101.784 127.719C101.859 127.736 101.933 127.756 102.006 127.777C102.081 127.798 102.149 127.826 102.211 127.86C102.274 127.893 102.325 127.936 102.362 127.992C102.401 128.047 102.421 128.119 102.421 128.209C102.421 128.292 102.398 128.369 102.352 128.441C102.307 128.511 102.237 128.567 102.143 128.611C102.05 128.654 101.93 128.675 101.784 128.675ZM102.814 128.66V126.953H102.995V128.66H102.814ZM103.55 128.66V126.953H103.699L104.877 128.436H104.799V126.953H104.977V128.66H104.828L103.653 127.177H103.731V128.66H103.55ZM106.283 128.675C106.153 128.675 106.033 128.654 105.922 128.611C105.813 128.567 105.718 128.506 105.637 128.428C105.557 128.35 105.495 128.258 105.449 128.153C105.405 128.047 105.383 127.932 105.383 127.806C105.383 127.681 105.405 127.566 105.449 127.46C105.495 127.354 105.558 127.262 105.639 127.184C105.721 127.106 105.816 127.046 105.925 127.004C106.035 126.96 106.156 126.938 106.286 126.938C106.416 126.938 106.535 126.958 106.642 126.999C106.751 127.04 106.844 127.101 106.92 127.184L106.808 127.299C106.736 127.227 106.657 127.176 106.571 127.145C106.485 127.114 106.392 127.099 106.293 127.099C106.187 127.099 106.09 127.117 106 127.153C105.913 127.187 105.835 127.236 105.769 127.301C105.704 127.365 105.652 127.44 105.615 127.526C105.579 127.61 105.561 127.704 105.561 127.806C105.561 127.907 105.579 128.001 105.615 128.087C105.652 128.173 105.704 128.249 105.769 128.314C105.835 128.377 105.913 128.427 106 128.463C106.09 128.497 106.187 128.514 106.291 128.514C106.388 128.514 106.48 128.499 106.566 128.47C106.654 128.441 106.735 128.391 106.808 128.321L106.91 128.458C106.829 128.529 106.734 128.584 106.625 128.621C106.516 128.657 106.402 128.675 106.283 128.675ZM106.737 128.436V127.806H106.91V128.458L106.737 128.436ZM108.748 128.675C108.53 128.675 108.358 128.612 108.233 128.487C108.108 128.362 108.045 128.176 108.045 127.931V126.953H108.226V127.923C108.226 128.125 108.271 128.274 108.362 128.37C108.453 128.466 108.582 128.514 108.748 128.514C108.915 128.514 109.044 128.466 109.135 128.37C109.227 128.274 109.272 128.125 109.272 127.923V126.953H109.448V127.931C109.448 128.176 109.385 128.362 109.26 128.487C109.136 128.612 108.965 128.675 108.748 128.675ZM109.992 128.66V126.953H110.631C110.776 126.953 110.9 126.976 111.004 127.023C111.108 127.069 111.188 127.136 111.243 127.223C111.3 127.31 111.328 127.414 111.328 127.538C111.328 127.658 111.3 127.762 111.243 127.85C111.188 127.936 111.108 128.003 111.004 128.05C110.9 128.097 110.776 128.121 110.631 128.121H110.092L110.172 128.036V128.66H109.992ZM110.172 128.05L110.092 127.962H110.626C110.797 127.962 110.926 127.926 111.014 127.853C111.103 127.778 111.148 127.673 111.148 127.538C111.148 127.401 111.103 127.296 111.014 127.221C110.926 127.146 110.797 127.109 110.626 127.109H110.092L110.172 127.023V128.05Z" fill="#E8E8E3"/>
<path d="M98.9012 65.5398L88.6133 65.4932L88.6047 67.3811L98.8926 67.4278L98.9012 65.5398Z" fill="#FFAF1E"/>
<path opacity="0.1" d="M98.9012 65.5398L88.6133 65.4932L88.6047 67.3811L98.8926 67.4278L98.9012 65.5398Z" fill="black"/>
<path d="M129.058 77.1311C129.139 77.1229 129.219 77.1041 129.294 77.0751C129.405 77.0318 129.501 76.9581 129.572 76.8626C129.643 76.7671 129.685 76.6536 129.694 76.5351C129.694 75.8991 129.694 74.9711 129.694 73.7791C129.694 73.1831 129.694 72.5151 129.694 71.7791C129.694 71.5991 129.694 71.4111 129.694 71.2231C129.72 71.0406 129.681 70.8549 129.582 70.6991C129.527 70.6243 129.456 70.5634 129.373 70.5211C129.29 70.4787 129.199 70.4561 129.106 70.4551H128.482H122.702L89.2464 70.3311C89.1607 70.3296 89.076 70.3488 88.9994 70.3871C88.9228 70.4255 88.8566 70.4817 88.8064 70.5511C88.7098 70.7075 88.6729 70.8936 88.7024 71.0751C88.7024 71.4751 88.7024 71.8751 88.7024 72.2751C88.7024 73.0751 88.7024 73.8751 88.7024 74.6751C88.7024 75.0751 88.7024 75.4751 88.7024 75.8751C88.6858 76.0614 88.6858 76.2488 88.7024 76.4351C88.7234 76.5149 88.7624 76.5889 88.8165 76.6513C88.8706 76.7137 88.9383 76.7629 89.0144 76.7951C89.0932 76.8264 89.1776 76.8414 89.2624 76.8391H91.2984L100.182 76.8871L115.222 76.9791L125.362 77.0591L128.118 77.0911H128.834C128.998 77.0911 129.078 77.0911 129.078 77.0911H128.834H128.118H125.362H115.222L100.182 77.0431L91.2984 77.0071H89.2624C89.1503 77.0116 89.0386 76.9925 88.9344 76.9511C88.8291 76.9061 88.7354 76.8377 88.6605 76.7511C88.5857 76.6644 88.5316 76.5618 88.5024 76.4511C88.4792 76.3461 88.4711 76.2383 88.4784 76.1311V75.8351C88.4784 75.4351 88.4784 75.0351 88.4784 74.6351C88.4784 73.8351 88.4784 73.0351 88.4784 72.2351C88.4784 71.8351 88.4784 71.4351 88.4784 71.0351C88.4707 70.9285 88.4707 70.8216 88.4784 70.7151C88.4934 70.5974 88.5389 70.4857 88.6104 70.3911C88.6794 70.2945 88.7707 70.2161 88.8766 70.1624C88.9824 70.1088 89.0997 70.0816 89.2184 70.0831L122.674 70.2671L128.454 70.3071H129.078C129.188 70.3071 129.297 70.3337 129.394 70.3846C129.492 70.4354 129.575 70.509 129.638 70.5991C129.751 70.773 129.797 70.982 129.766 71.1871C129.766 71.3751 129.766 71.5631 129.766 71.7431C129.766 72.4711 129.766 73.1391 129.766 73.7431C129.766 74.9431 129.738 75.8631 129.73 76.5031C129.721 76.6261 129.676 76.7438 129.601 76.8423C129.527 76.9408 129.426 77.016 129.31 77.0591C129.235 77.106 129.147 77.1309 129.058 77.1311Z" fill="#E0E0E0"/>
<path d="M110.519 72.3398H91.7031V74.1038H110.519V72.3398Z" fill="#FFAF1E"/>
<path opacity="0.2" d="M110.519 72.3398H91.7031V74.1038H110.519V72.3398Z" fill="white"/>
<path d="M98.8309 82.7625L88.543 82.7158L88.5344 84.6038L98.8223 84.6505L98.8309 82.7625Z" fill="#FFAF1E"/>
<path opacity="0.1" d="M98.8309 82.7625L88.543 82.7158L88.5344 84.6038L98.8223 84.6505L98.8309 82.7625Z" fill="black"/>
<path d="M128.797 94.3556C128.878 94.3456 128.958 94.3309 129.037 94.3116C129.149 94.276 129.252 94.2169 129.339 94.1382C129.426 94.0596 129.495 93.9632 129.541 93.8556C129.604 93.6941 129.629 93.5202 129.613 93.3476C129.613 93.1556 129.613 92.9476 129.613 92.7156C129.613 92.2516 129.613 91.7236 129.613 91.1156V88.5756C129.632 88.3917 129.592 88.2065 129.497 88.0476C129.399 87.8845 129.243 87.7635 129.061 87.7076C128.862 87.672 128.659 87.6613 128.457 87.6756H122.701L89.3612 87.5516C89.1819 87.552 89.0088 87.6175 88.8742 87.736C88.7395 87.8544 88.6525 88.0177 88.6292 88.1956C88.6292 88.5756 88.6292 88.9956 88.6292 89.3956C88.6292 90.1956 88.6292 90.9956 88.6292 91.7956C88.6292 92.1956 88.6292 92.5956 88.6292 92.9956C88.6143 93.1825 88.6224 93.3706 88.6532 93.5556C88.7032 93.7178 88.806 93.8586 88.9452 93.9556C89.093 94.0493 89.2665 94.0941 89.4412 94.0836H89.9972H91.1532L100.005 94.1276L114.993 94.2196L125.097 94.2996L127.845 94.3316H125.097H114.993L99.9972 94.3156L91.1452 94.2836H89.4052C89.1889 94.2964 88.9742 94.2389 88.7932 94.1196C88.6112 93.9935 88.4784 93.8084 88.4172 93.5956C88.3814 93.3923 88.3706 93.1854 88.3852 92.9796C88.3852 92.5796 88.3852 92.1796 88.3852 91.7796C88.3852 90.9796 88.3852 90.1796 88.3852 89.3796C88.3852 88.9796 88.3852 88.5796 88.3852 88.1796C88.4144 87.9508 88.526 87.7406 88.699 87.5882C88.872 87.4358 89.0946 87.3517 89.3252 87.3516L122.665 87.5356L128.421 87.5796C128.636 87.5664 128.851 87.5812 129.061 87.6236C129.269 87.6915 129.444 87.834 129.553 88.0236C129.657 88.1997 129.702 88.4042 129.681 88.6076C129.681 88.7956 129.681 88.9796 129.681 89.1636C129.681 89.8876 129.681 90.5516 129.681 91.1636C129.681 91.7756 129.681 92.2916 129.681 92.7636C129.681 92.9916 129.681 93.2036 129.681 93.3996C129.696 93.5784 129.667 93.7582 129.597 93.9236C129.545 94.0339 129.47 94.1318 129.377 94.2105C129.284 94.2892 129.175 94.3469 129.057 94.3796C128.97 94.3868 128.882 94.3787 128.797 94.3556Z" fill="#E0E0E0"/>
<path d="M98.7527 100.735L88.4648 100.688L88.4563 102.576L98.7442 102.623L98.7527 100.735Z" fill="#FFAF1E"/>
<path opacity="0.1" d="M98.7527 100.735L88.4648 100.688L88.4563 102.576L98.7442 102.623L98.7527 100.735Z" fill="black"/>
<path d="M128.72 112.321C128.801 112.311 128.881 112.296 128.96 112.277C129.071 112.241 129.174 112.183 129.261 112.105C129.348 112.027 129.417 111.931 129.464 111.825C129.527 111.663 129.552 111.489 129.536 111.317C129.536 111.121 129.536 110.917 129.536 110.681C129.536 110.221 129.536 109.689 129.536 109.081V106.541C129.555 106.357 129.515 106.172 129.42 106.013C129.319 105.853 129.165 105.734 128.984 105.677C128.785 105.64 128.582 105.628 128.38 105.641H122.624L89.2842 105.517C89.1049 105.517 88.9318 105.583 88.7972 105.701C88.6625 105.82 88.5755 105.983 88.5522 106.161C88.5522 106.561 88.5522 106.961 88.5522 107.361C88.5522 108.161 88.5522 108.961 88.5522 109.761C88.5522 110.161 88.5522 110.561 88.5522 110.961C88.5373 111.146 88.5454 111.333 88.5762 111.517C88.6241 111.68 88.7274 111.821 88.8682 111.917C89.015 112.013 89.1893 112.057 89.3642 112.045H91.1042L99.9562 112.093L114.944 112.185L125.048 112.265L127.796 112.297H125.048H114.944L99.9562 112.253L91.1042 112.217H89.3642C89.1477 112.231 88.9324 112.174 88.7522 112.053C88.5702 111.927 88.4374 111.741 88.3762 111.529C88.3404 111.325 88.3296 111.119 88.3442 110.913C88.3442 110.513 88.3442 110.113 88.3442 109.713C88.3442 108.913 88.3442 108.113 88.3442 107.313C88.3442 106.913 88.3442 106.513 88.3442 106.093C88.3725 105.864 88.4832 105.654 88.6556 105.502C88.8279 105.349 89.0501 105.265 89.2802 105.265L122.62 105.449L128.376 105.493C128.591 105.48 128.806 105.494 129.016 105.537C129.224 105.605 129.399 105.747 129.508 105.937C129.612 106.113 129.657 106.317 129.636 106.521C129.636 106.709 129.636 106.897 129.636 107.077C129.636 107.801 129.636 108.465 129.636 109.077C129.636 109.689 129.636 110.205 129.636 110.677C129.636 110.905 129.636 111.117 129.636 111.313C129.652 111.492 129.623 111.671 129.552 111.837C129.5 111.947 129.425 112.045 129.332 112.124C129.239 112.202 129.13 112.26 129.012 112.293C128.918 112.325 128.818 112.334 128.72 112.321Z" fill="#E0E0E0"/>
<path d="M110.117 90.0629L91.3008 89.9775L91.2928 91.7415L110.109 91.8269L110.117 90.0629Z" fill="#FFAF1E"/>
<path opacity="0.2" d="M110.117 90.0629L91.3008 89.9775L91.2928 91.7415L110.109 91.8269L110.117 90.0629Z" fill="white"/>
<path d="M93.0052 109.056C92.9934 109.217 92.9346 109.371 92.8361 109.499C92.7377 109.627 92.6039 109.723 92.4513 109.775C92.2987 109.828 92.1341 109.834 91.9779 109.794C91.8217 109.754 91.6807 109.668 91.5724 109.549C91.4642 109.429 91.3934 109.28 91.3689 109.121C91.3444 108.961 91.3673 108.798 91.4347 108.652C91.5021 108.505 91.611 108.382 91.7479 108.296C91.8849 108.211 92.0439 108.168 92.2052 108.172C92.428 108.185 92.637 108.284 92.7867 108.45C92.9365 108.615 93.015 108.833 93.0052 109.056Z" fill="#FFAF1E"/>
<path d="M95.5523 109.068C95.5601 109.181 95.5447 109.294 95.507 109.4C95.4692 109.507 95.4099 109.605 95.3328 109.687C95.2557 109.77 95.1625 109.836 95.0588 109.881C94.9551 109.926 94.8433 109.949 94.7302 109.949C94.6172 109.949 94.5054 109.926 94.4017 109.881C94.298 109.836 94.2047 109.77 94.1276 109.687C94.0505 109.605 93.9913 109.507 93.9535 109.4C93.9158 109.294 93.9004 109.181 93.9083 109.068C93.9004 108.955 93.9158 108.842 93.9535 108.735C93.9913 108.629 94.0505 108.531 94.1276 108.449C94.2047 108.366 94.298 108.3 94.4017 108.255C94.5054 108.21 94.6172 108.187 94.7302 108.187C94.8433 108.187 94.9551 108.21 95.0588 108.255C95.1625 108.3 95.2557 108.366 95.3328 108.449C95.4099 108.531 95.4692 108.629 95.507 108.735C95.5447 108.842 95.5601 108.955 95.5523 109.068Z" fill="#FFAF1E"/>
<path d="M98.1028 109.08C98.091 109.241 98.0322 109.394 97.9338 109.522C97.8353 109.65 97.7015 109.746 97.549 109.799C97.3964 109.851 97.2318 109.858 97.0755 109.817C96.9193 109.777 96.7783 109.692 96.6701 109.572C96.5618 109.453 96.4911 109.304 96.4666 109.144C96.4421 108.985 96.465 108.822 96.5323 108.675C96.5997 108.529 96.7086 108.405 96.8456 108.32C96.9826 108.235 97.1415 108.191 97.3028 108.196C97.5253 108.209 97.7337 108.309 97.8832 108.474C98.0328 108.64 98.1116 108.857 98.1028 109.08Z" fill="#FFAF1E"/>
<path d="M100.65 109.092C100.638 109.253 100.579 109.407 100.481 109.535C100.382 109.663 100.248 109.759 100.096 109.811C99.9433 109.864 99.7787 109.87 99.6224 109.83C99.4662 109.79 99.3252 109.705 99.2169 109.585C99.1087 109.465 99.0379 109.317 99.0135 109.157C98.989 108.998 99.0118 108.834 99.0792 108.688C99.1466 108.541 99.2555 108.418 99.3925 108.332C99.5294 108.247 99.6884 108.204 99.8497 108.208C100.072 108.222 100.281 108.322 100.43 108.487C100.58 108.652 100.658 108.87 100.65 109.092Z" fill="#FFAF1E"/>
<path d="M103.197 109.1C103.186 109.261 103.128 109.416 103.03 109.544C102.932 109.672 102.798 109.769 102.645 109.822C102.493 109.875 102.328 109.882 102.172 109.842C102.015 109.802 101.874 109.718 101.765 109.598C101.656 109.479 101.585 109.33 101.561 109.17C101.536 109.01 101.558 108.847 101.626 108.7C101.693 108.554 101.802 108.43 101.939 108.344C102.076 108.259 102.235 108.216 102.397 108.22C102.619 108.233 102.826 108.333 102.976 108.497C103.125 108.662 103.205 108.878 103.197 109.1Z" fill="#FFAF1E"/>
<path d="M105.75 109.111C105.739 109.272 105.681 109.425 105.584 109.553C105.487 109.681 105.355 109.778 105.203 109.832C105.052 109.886 104.888 109.894 104.732 109.856C104.576 109.818 104.434 109.735 104.325 109.617C104.215 109.5 104.142 109.353 104.115 109.194C104.088 109.036 104.108 108.873 104.172 108.726C104.237 108.579 104.343 108.453 104.477 108.365C104.612 108.278 104.769 108.231 104.93 108.231C105.155 108.24 105.368 108.337 105.521 108.502C105.675 108.667 105.757 108.886 105.75 109.111Z" fill="#FFAF1E"/>
<path d="M108.298 109.125C108.306 109.237 108.291 109.35 108.253 109.457C108.215 109.564 108.156 109.661 108.079 109.744C108.002 109.827 107.909 109.893 107.805 109.938C107.701 109.983 107.589 110.006 107.476 110.006C107.363 110.006 107.251 109.983 107.148 109.938C107.044 109.893 106.951 109.827 106.874 109.744C106.797 109.661 106.737 109.564 106.7 109.457C106.662 109.35 106.646 109.237 106.654 109.125C106.646 109.012 106.662 108.899 106.7 108.792C106.737 108.685 106.797 108.588 106.874 108.505C106.951 108.422 107.044 108.357 107.148 108.311C107.251 108.266 107.363 108.243 107.476 108.243C107.589 108.243 107.701 108.266 107.805 108.311C107.909 108.357 108.002 108.422 108.079 108.505C108.156 108.588 108.215 108.685 108.253 108.792C108.291 108.899 108.306 109.012 108.298 109.125Z" fill="#FFAF1E"/>
<path d="M110.849 109.135C110.838 109.295 110.781 109.449 110.684 109.577C110.587 109.705 110.454 109.802 110.303 109.855C110.151 109.909 109.987 109.917 109.831 109.879C109.675 109.841 109.534 109.758 109.424 109.641C109.315 109.523 109.242 109.376 109.215 109.218C109.188 109.059 109.208 108.896 109.272 108.749C109.336 108.602 109.442 108.477 109.577 108.389C109.711 108.301 109.869 108.254 110.029 108.255C110.255 108.263 110.467 108.361 110.621 108.525C110.775 108.69 110.857 108.91 110.849 109.135Z" fill="#FFAF1E"/>
<path d="M113.396 109.149C113.385 109.31 113.327 109.464 113.229 109.593C113.131 109.721 112.997 109.818 112.845 109.871C112.692 109.924 112.527 109.931 112.371 109.891C112.214 109.851 112.073 109.766 111.964 109.647C111.856 109.527 111.785 109.379 111.76 109.219C111.735 109.059 111.758 108.896 111.825 108.749C111.892 108.602 112.001 108.479 112.138 108.393C112.275 108.308 112.435 108.265 112.596 108.269C112.818 108.282 113.026 108.382 113.175 108.546C113.324 108.711 113.404 108.927 113.396 109.149Z" fill="#FFAF1E"/>
<g opacity="0.2">
<path d="M93.0052 109.056C92.9934 109.217 92.9346 109.371 92.8361 109.499C92.7377 109.627 92.6039 109.723 92.4513 109.775C92.2987 109.828 92.1341 109.834 91.9779 109.794C91.8217 109.754 91.6807 109.668 91.5724 109.549C91.4642 109.429 91.3934 109.28 91.3689 109.121C91.3444 108.961 91.3673 108.798 91.4347 108.652C91.5021 108.505 91.611 108.382 91.7479 108.296C91.8849 108.211 92.0439 108.168 92.2052 108.172C92.428 108.185 92.637 108.284 92.7867 108.45C92.9365 108.615 93.015 108.833 93.0052 109.056Z" fill="white"/>
<path d="M95.5523 109.068C95.5601 109.181 95.5447 109.294 95.507 109.4C95.4692 109.507 95.4099 109.605 95.3328 109.687C95.2557 109.77 95.1625 109.836 95.0588 109.881C94.9551 109.926 94.8433 109.949 94.7302 109.949C94.6172 109.949 94.5054 109.926 94.4017 109.881C94.298 109.836 94.2047 109.77 94.1276 109.687C94.0505 109.605 93.9913 109.507 93.9535 109.4C93.9158 109.294 93.9004 109.181 93.9083 109.068C93.9004 108.955 93.9158 108.842 93.9535 108.735C93.9913 108.629 94.0505 108.531 94.1276 108.449C94.2047 108.366 94.298 108.3 94.4017 108.255C94.5054 108.21 94.6172 108.187 94.7302 108.187C94.8433 108.187 94.9551 108.21 95.0588 108.255C95.1625 108.3 95.2557 108.366 95.3328 108.449C95.4099 108.531 95.4692 108.629 95.507 108.735C95.5447 108.842 95.5601 108.955 95.5523 109.068Z" fill="white"/>
<path d="M98.1048 109.08C98.093 109.241 98.0342 109.394 97.9357 109.522C97.8373 109.65 97.7035 109.746 97.5509 109.799C97.3983 109.851 97.2337 109.858 97.0775 109.817C96.9213 109.777 96.7803 109.692 96.672 109.572C96.5638 109.453 96.493 109.304 96.4685 109.144C96.444 108.985 96.4669 108.822 96.5343 108.675C96.6017 108.529 96.7106 108.405 96.8476 108.32C96.9845 108.235 97.1435 108.191 97.3048 108.196C97.5272 108.209 97.7356 108.309 97.8852 108.474C98.0347 108.64 98.1135 108.857 98.1048 109.08Z" fill="white"/>
<path d="M100.654 109.091C100.642 109.252 100.583 109.406 100.485 109.534C100.386 109.662 100.252 109.758 100.1 109.81C99.9472 109.863 99.7826 109.869 99.6263 109.829C99.4701 109.789 99.3291 109.704 99.2209 109.584C99.1126 109.464 99.0418 109.316 99.0174 109.156C98.9929 108.997 99.0157 108.833 99.0831 108.687C99.1505 108.54 99.2594 108.417 99.3964 108.331C99.5334 108.246 99.6923 108.203 99.8536 108.207C100.076 108.221 100.284 108.321 100.434 108.486C100.584 108.651 100.662 108.869 100.654 109.091Z" fill="white"/>
<path d="M103.201 109.1C103.19 109.261 103.132 109.416 103.034 109.544C102.936 109.672 102.802 109.769 102.649 109.822C102.497 109.875 102.332 109.882 102.176 109.842C102.019 109.802 101.878 109.718 101.769 109.598C101.66 109.479 101.589 109.33 101.564 109.17C101.54 109.01 101.562 108.847 101.63 108.7C101.697 108.554 101.806 108.43 101.943 108.344C102.08 108.259 102.239 108.216 102.401 108.22C102.623 108.233 102.83 108.333 102.98 108.497C103.129 108.662 103.208 108.878 103.201 109.1Z" fill="white"/>
<path d="M105.75 109.111C105.739 109.272 105.681 109.425 105.584 109.553C105.487 109.681 105.355 109.778 105.203 109.832C105.052 109.886 104.888 109.894 104.732 109.856C104.576 109.818 104.434 109.735 104.325 109.617C104.215 109.5 104.142 109.353 104.115 109.194C104.088 109.036 104.108 108.873 104.172 108.726C104.237 108.579 104.343 108.453 104.477 108.365C104.612 108.278 104.769 108.231 104.93 108.231C105.155 108.24 105.368 108.337 105.521 108.502C105.675 108.667 105.757 108.886 105.75 109.111Z" fill="white"/>
<path d="M108.3 109.125C108.308 109.237 108.293 109.35 108.255 109.457C108.217 109.564 108.158 109.661 108.081 109.744C108.004 109.827 107.911 109.893 107.807 109.938C107.703 109.983 107.591 110.006 107.478 110.006C107.365 110.006 107.253 109.983 107.15 109.938C107.046 109.893 106.953 109.827 106.876 109.744C106.799 109.661 106.739 109.564 106.702 109.457C106.664 109.35 106.648 109.237 106.656 109.125C106.648 109.012 106.664 108.899 106.702 108.792C106.739 108.685 106.799 108.588 106.876 108.505C106.953 108.422 107.046 108.357 107.15 108.311C107.253 108.266 107.365 108.243 107.478 108.243C107.591 108.243 107.703 108.266 107.807 108.311C107.911 108.357 108.004 108.422 108.081 108.505C108.158 108.588 108.217 108.685 108.255 108.792C108.293 108.899 108.308 109.012 108.3 109.125Z" fill="white"/>
<path d="M110.849 109.135C110.838 109.295 110.781 109.449 110.684 109.577C110.587 109.705 110.454 109.802 110.303 109.855C110.151 109.909 109.987 109.917 109.831 109.879C109.675 109.841 109.534 109.758 109.424 109.641C109.315 109.523 109.242 109.376 109.215 109.218C109.188 109.059 109.208 108.896 109.272 108.749C109.336 108.602 109.442 108.477 109.577 108.389C109.711 108.301 109.869 108.254 110.029 108.255C110.255 108.263 110.467 108.361 110.621 108.525C110.775 108.69 110.857 108.91 110.849 109.135Z" fill="white"/>
<path d="M113.396 109.149C113.385 109.31 113.327 109.464 113.229 109.593C113.131 109.721 112.997 109.818 112.845 109.871C112.692 109.924 112.527 109.931 112.371 109.891C112.214 109.851 112.073 109.766 111.964 109.647C111.856 109.527 111.785 109.379 111.76 109.219C111.735 109.059 111.758 108.896 111.825 108.749C111.892 108.602 112.001 108.479 112.138 108.393C112.275 108.308 112.435 108.265 112.596 108.269C112.818 108.282 113.026 108.382 113.175 108.546C113.324 108.711 113.404 108.927 113.396 109.149Z" fill="white"/>
</g>
<path d="M109.775 51.4029C110.053 51.2805 110.288 51.0791 110.453 50.8238C110.617 50.5685 110.703 50.2705 110.699 49.9669C110.709 49.7695 110.679 49.5721 110.611 49.3867C110.542 49.2013 110.437 49.0317 110.301 48.8884C110.165 48.745 110.001 48.6308 109.82 48.5528C109.638 48.4748 109.442 48.4346 109.245 48.4346C109.047 48.4346 108.852 48.4748 108.67 48.5528C108.488 48.6308 108.325 48.745 108.189 48.8884C108.053 49.0317 107.947 49.2013 107.879 49.3867C107.81 49.5721 107.78 49.7695 107.791 49.9669C107.785 50.2735 107.87 50.5751 108.035 50.8335C108.2 51.0919 108.438 51.2956 108.719 51.4189C106.479 51.7549 106.579 54.1869 106.579 54.1869L111.875 54.2109C111.875 54.2109 111.999 51.7349 109.775 51.4029Z" fill="#FFAF1E"/>
<path opacity="0.1" d="M109.775 51.4029C110.053 51.2805 110.288 51.0791 110.453 50.8238C110.617 50.5685 110.703 50.2705 110.699 49.9669C110.709 49.7695 110.679 49.5721 110.611 49.3867C110.542 49.2013 110.437 49.0317 110.301 48.8884C110.165 48.745 110.001 48.6308 109.82 48.5528C109.638 48.4748 109.442 48.4346 109.245 48.4346C109.047 48.4346 108.852 48.4748 108.67 48.5528C108.488 48.6308 108.325 48.745 108.189 48.8884C108.053 49.0317 107.947 49.2013 107.879 49.3867C107.81 49.5721 107.78 49.7695 107.791 49.9669C107.785 50.2735 107.87 50.5751 108.035 50.8335C108.2 51.0919 108.438 51.2956 108.719 51.4189C106.479 51.7549 106.579 54.1869 106.579 54.1869L111.875 54.2109C111.875 54.2109 111.999 51.7349 109.775 51.4029Z" fill="black"/>
<path d="M118.38 55.78L99.5039 55.6943L99.4937 57.9503L118.369 58.036L118.38 55.78Z" fill="#FFAF1E"/>
<path opacity="0.2" d="M118.38 55.78L99.5039 55.6943L99.4937 57.9503L118.369 58.036L118.38 55.78Z" fill="white"/>
<path d="M48.9912 67.4727H48.8032L48.2592 67.5127C47.9648 67.5304 47.6721 67.5691 47.3832 67.6287C47.1961 67.655 47.0105 67.691 46.8272 67.7367L46.2072 67.9087C45.1519 68.2324 44.1563 68.7255 43.2592 69.3687C42.074 70.229 41.0843 71.3305 40.3552 72.6007C39.9267 73.3329 39.5857 74.1129 39.3392 74.9247C39.0802 75.807 38.9311 76.7179 38.8952 77.6367C38.8714 78.1194 38.8794 78.6031 38.9192 79.0847C38.9192 79.3287 38.9872 79.5727 39.0192 79.8207C39.0461 80.0707 39.0929 80.3181 39.1592 80.5607C39.5189 82.1658 40.2487 83.6646 41.2905 84.9376C42.3322 86.2106 43.657 87.2225 45.1592 87.8927C46.2465 88.3618 47.4118 88.6237 48.5952 88.6647C49.8175 88.7319 51.041 88.5565 52.1952 88.1487L52.5472 88.0167H52.5952L52.6352 88.0407L57.6792 90.6007L57.5312 90.7287C56.9912 89.0567 56.4712 87.4367 55.9672 85.8807V85.8207L56.0112 85.7767C57.2348 84.5443 58.1432 83.0349 58.6592 81.3767C59.1266 79.8607 59.263 78.262 59.0592 76.6887C58.8779 75.2905 58.4284 73.9404 57.7352 72.7127C57.1377 71.658 56.367 70.7115 55.4552 69.9127C54.703 69.2805 53.8704 68.7505 52.9792 68.3367C52.3049 68.0458 51.6025 67.8247 50.8832 67.6767L50.0832 67.5447L49.5032 67.5007L49.1512 67.4767H49.0312C49.0711 67.4723 49.1113 67.4723 49.1512 67.4767H49.5072L50.0872 67.5007L50.8872 67.6167C51.6155 67.7539 52.3274 67.967 53.0112 68.2527C53.9178 68.6616 54.7653 69.1903 55.5312 69.8247C56.4597 70.6199 57.2468 71.5666 57.8592 72.6247C58.572 73.8656 59.0354 75.234 59.2232 76.6527C59.444 78.2503 59.3171 79.8767 58.8512 81.4207C58.3318 83.1134 57.4094 84.6548 56.1632 85.9127L56.1872 85.8087C56.6912 87.3647 57.2152 88.9847 57.7592 90.6527L57.8352 90.8967L57.6072 90.7807L52.5632 88.2247H52.6512L52.2912 88.3567C51.1148 88.7706 49.8686 88.95 48.6232 88.8847C47.4143 88.8387 46.2246 88.5673 45.1152 88.0847C42.9991 87.1784 41.2385 85.6033 40.1032 83.6007C39.5808 82.6758 39.1992 81.6782 38.9712 80.6407C38.9088 80.3919 38.862 80.1394 38.8312 79.8847C38.7992 79.6327 38.7472 79.3847 38.7352 79.1367C38.627 77.7134 38.7774 76.2823 39.1792 74.9127C39.4318 74.0897 39.7824 73.3001 40.2232 72.5607C40.9697 71.2789 41.98 70.1705 43.1872 69.3087C44.0991 68.6639 45.1114 68.1746 46.1832 67.8607L46.8112 67.7007C46.9961 67.6578 47.183 67.6244 47.3712 67.6007C47.6631 67.5466 47.9586 67.5146 48.2552 67.5047L48.8032 67.4847C48.8655 67.4763 48.9283 67.4723 48.9912 67.4727Z" fill="#FFAF1E"/>
<path d="M51.2724 76.7995H50.5324L48.9324 74.5515V73.0755C48.9324 73.0755 47.7884 73.0035 47.9244 74.9355C48.0604 76.8675 47.9244 76.3755 47.9244 76.3755C47.9244 76.3755 45.4964 76.3755 45.2964 76.5955C45.0964 76.8155 45.0844 79.1595 45.0564 80.4675C45.041 80.7828 45.1315 81.0942 45.3134 81.3522C45.4953 81.6102 45.7582 81.8001 46.0604 81.8915C46.145 81.915 46.2325 81.9271 46.3204 81.9275C46.9284 81.9275 50.0204 81.4355 50.0204 81.4355H51.2964L51.2724 76.7995Z" fill="#FFAF1E"/>
<path d="M53.388 76.4033L52.932 81.4593H51.668V76.5073L53.388 76.4033Z" fill="#FFAF1E"/>
<path d="M68.4594 179.337V175.917L62.3274 175.873L62.2754 181.045L62.6554 181.073C64.3474 181.181 71.2634 181.341 72.3994 180.989C73.6634 180.597 68.4594 179.337 68.4594 179.337Z" fill="#FFAF1E"/>
<path d="M72.5449 180.668C72.5449 180.724 70.2489 180.772 67.4209 180.772C64.5929 180.772 62.2969 180.724 62.2969 180.668C62.2969 180.612 64.5929 180.564 67.4209 180.564C70.2489 180.564 72.5449 180.612 72.5449 180.668Z" fill="#263238"/>
<path d="M68.5669 180.037C68.5149 180.009 68.5669 179.829 68.6909 179.637C68.8149 179.445 68.9829 179.365 69.0229 179.405C69.0629 179.445 68.9789 179.597 68.8589 179.761C68.7389 179.925 68.6189 180.065 68.5669 180.037Z" fill="#263238"/>
<path d="M68.9594 180.261C68.9034 180.261 68.9314 180.037 69.0514 179.825C69.1714 179.613 69.3314 179.485 69.3754 179.517C69.4194 179.549 69.3474 179.729 69.2354 179.917C69.1234 180.105 69.0114 180.281 68.9594 180.261Z" fill="#263238"/>
<path d="M64.1438 180.652C64.1198 180.652 64.0278 180.58 63.8958 180.428C63.7347 180.233 63.5552 180.054 63.3598 179.892C63.1677 179.739 62.9388 179.638 62.6958 179.6C62.5078 179.576 62.3878 179.6 62.3758 179.576C62.3638 179.552 62.4798 179.468 62.6998 179.452C62.9902 179.446 63.2734 179.543 63.4998 179.724C63.712 179.897 63.8909 180.107 64.0278 180.344C64.1198 180.52 64.1678 180.636 64.1438 180.652Z" fill="#263238"/>
<path d="M68.5865 179.394C68.6145 179.442 68.5105 179.562 68.3345 179.626C68.1585 179.69 68.0025 179.666 67.9945 179.626C67.9865 179.586 68.1105 179.502 68.2625 179.446C68.4145 179.39 68.5545 179.346 68.5865 179.394Z" fill="#263238"/>
<path d="M68.4919 179.06C68.4919 179.12 68.3319 179.168 68.1239 179.172C67.9159 179.176 67.7519 179.128 67.7559 179.072C67.7599 179.016 67.9239 178.964 68.1239 178.96C68.3239 178.956 68.4839 179.004 68.4919 179.06Z" fill="#263238"/>
<path d="M83.5609 179.337V175.917L77.429 175.873L77.377 180.993L77.757 181.021C79.449 181.129 86.369 181.341 87.501 180.989C88.765 180.597 83.5609 179.337 83.5609 179.337Z" fill="#FFAF1E"/>
<path d="M87.6444 180.676C87.6444 180.732 85.3524 180.78 82.5204 180.78C79.6884 180.78 77.4004 180.732 77.4004 180.676C77.4004 180.62 79.6924 180.572 82.5204 180.572C85.3484 180.572 87.6444 180.62 87.6444 180.676Z" fill="#263238"/>
<path d="M83.6687 180.037C83.6207 180.009 83.6687 179.829 83.7927 179.637C83.9167 179.445 84.0847 179.365 84.1247 179.405C84.1647 179.445 84.0807 179.597 83.9607 179.761C83.8407 179.925 83.7207 180.065 83.6687 180.037Z" fill="#263238"/>
<path d="M84.0629 180.261C84.0109 180.261 84.0349 180.037 84.1589 179.825C84.2829 179.613 84.4389 179.485 84.4829 179.517C84.5269 179.549 84.4509 179.729 84.3389 179.917C84.2269 180.105 84.1189 180.281 84.0629 180.261Z" fill="#263238"/>
<path d="M79.2454 180.652C79.2214 180.652 79.1334 180.58 78.9974 180.428C78.8363 180.233 78.6568 180.054 78.4614 179.892C78.2693 179.739 78.0404 179.638 77.7974 179.6C77.6134 179.576 77.4894 179.6 77.4774 179.576C77.4654 179.552 77.5814 179.468 77.8014 179.452C78.0917 179.446 78.375 179.543 78.6014 179.724C78.8147 179.896 78.9938 180.107 79.1294 180.344C79.2214 180.52 79.2694 180.636 79.2454 180.652Z" fill="#263238"/>
<path d="M83.6881 179.394C83.7161 179.442 83.6121 179.562 83.4361 179.626C83.2601 179.69 83.1041 179.666 83.0961 179.626C83.0881 179.586 83.2121 179.502 83.3641 179.446C83.5161 179.39 83.6561 179.346 83.6881 179.394Z" fill="#263238"/>
<path d="M83.6012 179.06C83.6012 179.12 83.4412 179.168 83.2332 179.172C83.0252 179.176 82.8652 179.128 82.8692 179.072C82.8732 179.016 83.0332 178.964 83.2332 178.96C83.4332 178.956 83.6012 179.004 83.6012 179.06Z" fill="#263238"/>
<path d="M106.152 77.7768C105.992 77.6128 105.596 77.6928 105.596 77.6928C105.636 77.4625 105.636 77.2271 105.596 76.9968C105.524 76.7728 105.02 76.8168 105.02 76.8168C104.997 76.6281 104.997 76.4374 105.02 76.2488C105.024 76.207 105.015 76.1649 104.995 76.1284C104.974 76.0919 104.942 76.0627 104.904 76.0448C104.666 75.9475 104.41 75.9012 104.152 75.9088C103.844 75.6888 105.092 73.9408 105.556 73.3808C106.02 72.8208 105.936 72.3848 105.524 72.3848C105.24 72.3848 103.784 74.0648 103.336 74.6288C102.888 75.1928 101.7 76.7608 101.66 75.5088C101.62 74.2568 101.116 73.3128 100.8 73.1528C100.484 72.9928 100.148 73.3688 100.32 73.7168C100.471 74.1121 100.566 74.5269 100.6 74.9488C100.644 75.2848 100.629 75.6258 100.556 75.9568C100.424 76.5726 100.243 77.1771 100.016 77.7648H99.9844C99.9844 77.7648 91.2564 86.1368 90.6244 86.7328C90.0604 87.2688 78.7164 86.0968 76.4404 85.8568C75.667 85.7436 74.886 85.6901 74.1044 85.6968C73.1164 85.7408 72.9404 85.8808 71.9564 85.8928C69.4713 85.9204 66.9921 86.1383 64.5404 86.5448C63.4302 86.7335 62.3932 87.2235 61.5426 87.9613C60.6919 88.6992 60.0602 89.6565 59.7164 90.7288C57.4244 97.8888 52.2324 114.837 51.3164 124.357C50.6242 125.612 49.9993 126.903 49.4444 128.225C48.8004 129.977 48.9564 130.037 49.1724 130.077C49.7564 130.185 50.4204 127.041 50.6684 127.801C50.9164 128.561 49.4084 131.549 50.0204 131.637C50.8204 131.749 51.4564 128.437 51.5324 128.173C51.6084 127.909 52.0044 127.993 51.9324 128.241C51.8164 128.593 50.6924 132.325 51.4764 132.445C51.9084 132.509 51.9564 131.721 51.9564 131.721C51.9564 131.721 52.7564 128.149 53.1204 128.221C53.4844 128.293 53.0964 130.401 52.9124 131.105C52.7284 131.809 52.9844 132.165 53.3604 131.993C53.6164 131.873 54.2284 129.733 54.3964 129.037C54.5644 128.341 54.9844 126.413 55.5484 127.529C56.1124 128.645 56.9684 129.293 57.3204 129.309C57.3997 129.3 57.4745 129.267 57.535 129.215C57.5956 129.163 57.6393 129.094 57.6604 129.017C57.6814 128.94 57.679 128.858 57.6533 128.783C57.6277 128.707 57.58 128.641 57.5164 128.593C57.2136 128.297 56.9538 127.961 56.7444 127.593C56.5578 127.306 56.4224 126.99 56.3444 126.657C56.1832 125.993 56.0894 125.315 56.0644 124.633L56.0004 124.233C56.8964 119.797 59.4764 106.777 63.2004 98.4608L64.7284 101.605L65.3924 103.933L61.3204 113.985L78.6884 113.757L76.0964 103.781L79.2444 93.3808C82.6484 93.4568 91.3884 93.5848 92.8444 92.9248C94.6764 92.1248 104.152 80.1568 104.152 80.1568C104.77 79.6768 105.362 79.1641 105.924 78.6208C105.924 78.6208 106.5 78.1368 106.152 77.7768Z" fill="#FFBE9D"/>
<path d="M60.5564 106.557C61.0604 104.837 63.6484 96.3331 63.6484 96.3331C63.6484 96.3331 64.9204 103.265 64.5844 104.101C64.2754 104.817 63.9102 105.507 63.4924 106.165C60.5564 110.633 60.9404 112.869 60.9404 112.869L78.6804 112.329C78.7204 109.849 77.2524 104.081 76.9484 103.161C76.6444 102.241 77.6564 99.2291 77.6564 99.2291C77.6564 99.2291 79.6564 97.1931 79.5844 96.1451C79.5465 95.2037 79.43 94.2671 79.2364 93.3451L90.0364 93.7451L89.6964 86.425L74.1844 84.873C73.6444 86.397 68.7604 85.649 68.7604 85.649C63.4884 85.825 63.1604 86.7931 60.9684 88.4971C58.7764 90.2011 55.1484 104.825 55.1484 104.825L60.5564 106.557Z" fill="#FFAF1E"/>
<path d="M71.0447 104.823C70.7373 104.878 70.4242 104.895 70.1127 104.871C69.5327 104.871 68.7367 104.831 67.8607 104.743C66.9847 104.655 66.1927 104.531 65.6287 104.419C65.3177 104.379 65.0128 104.302 64.7207 104.188C65.0334 104.188 65.3455 104.217 65.6527 104.276C66.2207 104.348 67.0087 104.447 67.8807 104.535C68.7527 104.623 69.5447 104.683 70.1167 104.723C70.4285 104.727 70.7392 104.761 71.0447 104.823Z" fill="#263238"/>
<path d="M72.2608 103.316C71.9532 103.467 71.628 103.579 71.2928 103.648C69.6969 104.068 68.0504 104.263 66.4008 104.228C66.0594 104.24 65.718 104.207 65.3848 104.132C65.7217 104.09 66.0613 104.072 66.4008 104.08C67.0288 104.06 67.8928 104.016 68.8448 103.904C69.7968 103.792 70.6448 103.632 71.2448 103.504C71.578 103.415 71.9177 103.353 72.2608 103.316Z" fill="#263238"/>
<path d="M78.2281 96.5889C78.22 96.8938 78.1784 97.197 78.104 97.4929C78 98.0489 77.84 98.8089 77.636 99.6409C77.432 100.473 77.236 101.241 77.06 101.761C76.9893 102.059 76.8846 102.347 76.748 102.621C76.7703 102.317 76.8267 102.016 76.916 101.725C77.068 101.101 77.24 100.381 77.432 99.5929C77.624 98.8049 77.808 98.0849 77.96 97.4609C78.0142 97.1605 78.1042 96.8678 78.2281 96.5889Z" fill="#263238"/>
<path d="M60.746 105.537C59.8206 105.394 58.9073 105.181 58.014 104.901C57.1011 104.687 56.2054 104.406 55.334 104.061C56.2589 104.206 57.172 104.418 58.066 104.697C58.979 104.909 59.8749 105.19 60.746 105.537Z" fill="#263238"/>
<path d="M79.4294 93.2561C79.2785 93.2821 79.1242 93.2821 78.9734 93.2561C78.5556 93.2132 78.1453 93.115 77.7534 92.9641C77.099 92.7182 76.5033 92.3381 76.0046 91.8484C75.5058 91.3586 75.1151 90.7699 74.8574 90.1201C74.5725 89.4053 74.4509 88.6359 74.5014 87.8681C74.5192 87.2348 74.7086 86.6182 75.0494 86.0841C75.289 85.7243 75.6471 85.4596 76.0614 85.3361C76.1721 85.3055 76.2865 85.2907 76.4014 85.2921C76.4814 85.2921 76.5214 85.2921 76.5214 85.2921C76.5214 85.2921 76.3534 85.2921 76.0854 85.4001C75.7053 85.5405 75.3829 85.8037 75.1694 86.1481C74.6254 87.0041 74.4734 88.5681 75.0534 90.0281C75.3233 90.7165 75.7459 91.3347 76.2894 91.8361C76.7347 92.2464 77.2475 92.5766 77.8054 92.8121C78.3288 93.019 78.8734 93.1679 79.4294 93.2561Z" fill="#263238"/>
<path d="M88.7529 93.6005C88.6529 92.3739 88.6208 91.1427 88.6569 89.9125C88.6256 88.6834 88.663 87.4535 88.7689 86.2285C88.8691 87.4538 88.9011 88.6837 88.8649 89.9125C88.8986 91.143 88.8612 92.3744 88.7529 93.6005Z" fill="#263238"/>
<path d="M74.0812 85.3206C74.1252 84.4286 74.2172 83.4206 74.2172 83.4206C74.2172 83.4206 76.4252 83.1766 76.5572 80.8966C76.6892 78.6166 76.5572 73.3566 76.5572 73.3566L72.5572 71.3086L68.1172 74.8006L68.8012 86.2006L72.8732 86.4606C73.1844 86.4692 73.4864 86.354 73.7129 86.1403C73.9393 85.9266 74.0718 85.6318 74.0812 85.3206Z" fill="#FFBE9D"/>
<path d="M74.4758 79.0927C74.4758 79.0927 74.4758 79.1367 74.4398 79.1887C74.4101 79.2264 74.3716 79.2563 74.3277 79.2758C74.2838 79.2953 74.2358 79.3038 74.1878 79.3007C73.9318 79.3007 73.6838 79.0047 73.5958 78.6607C73.554 78.4939 73.554 78.3194 73.5958 78.1527C73.604 78.0799 73.6303 78.0103 73.6722 77.9502C73.7141 77.8901 73.7703 77.8415 73.8358 77.8087C73.8896 77.7864 73.95 77.7864 74.0038 77.8087C74.0437 77.8285 74.076 77.8608 74.0958 77.9007C74.1238 77.9687 74.0958 78.0127 74.0958 78.0087C74.0958 78.0047 74.0958 77.9687 74.0558 77.9287C74.0349 77.9 74.0042 77.8801 73.9695 77.8727C73.9348 77.8653 73.8986 77.871 73.8678 77.8887C73.8188 77.9183 73.778 77.9599 73.7493 78.0096C73.7206 78.0592 73.705 78.1153 73.7038 78.1727C73.6702 78.3214 73.6702 78.4759 73.7038 78.6247C73.7838 78.9367 73.9998 79.1887 74.1918 79.2127C74.2294 79.2178 74.2676 79.2151 74.3041 79.2047C74.3405 79.1944 74.3745 79.1767 74.4038 79.1527C74.4518 79.1207 74.4678 79.0887 74.4758 79.0927Z" fill="#EB996E"/>
<path d="M77.9291 72.1247C77.6211 71.0767 76.505 70.5567 75.489 70.2687C73.941 69.8287 72.269 69.6367 70.757 70.1927C69.245 70.7487 67.429 71.7247 67.429 73.3927C66.537 73.3207 66.025 74.1007 65.673 75.0687C65.448 75.6584 65.3131 76.2788 65.273 76.9087C65.161 79.0927 64.549 82.1087 63.133 83.7087C62.333 84.6007 61.225 85.2167 60.769 86.3287C60.369 87.2927 60.577 88.4367 60.205 89.4127C59.873 90.2727 59.141 90.8847 58.605 91.6327C58.059 92.4813 57.7376 93.4547 57.6711 94.4616C57.6047 95.4685 57.7953 96.4757 58.225 97.3887C58.6579 98.2783 59.2674 99.0704 60.0162 99.7168C60.7651 100.363 61.6378 100.85 62.581 101.149C64.4495 101.717 66.4419 101.737 68.321 101.205C69.7314 100.867 71.0469 100.215 72.169 99.2967C73.3172 98.3591 74.1058 97.0533 74.401 95.6007C74.685 93.9687 74.229 92.3087 73.889 90.6847C72.825 85.5527 73.129 85.2847 74.473 80.5207C74.505 80.4367 74.521 80.3487 74.545 80.2647C74.569 80.1807 74.5811 80.1407 74.5971 80.0767C74.6352 79.8884 74.6553 79.6968 74.657 79.5047C74.4607 79.5777 74.2477 79.5931 74.0429 79.5492C73.8381 79.5053 73.6501 79.4038 73.501 79.2567C73.3516 79.0999 73.2474 78.9055 73.1995 78.6942C73.1517 78.4829 73.1619 78.2626 73.2291 78.0567C73.3234 77.8315 73.464 77.6285 73.6418 77.4611C73.8196 77.2937 74.0306 77.1654 74.261 77.0847C74.705 76.9007 75.181 76.8047 75.617 76.6007C76.541 76.1607 77.181 75.2487 77.617 74.2927C77.9755 73.6301 78.0861 72.8615 77.9291 72.1247Z" fill="#263238"/>
<path d="M74.636 79.2012C74.7205 79.326 74.7903 79.4603 74.844 79.6012C74.964 79.8532 75.124 80.2092 75.3 80.6212L75.332 80.6972H75.248L74.848 80.7332C74.572 80.7332 74.34 80.7852 74.068 80.7812C74.0443 80.7758 74.0224 80.7646 74.0042 80.7485C73.986 80.7325 73.9722 80.712 73.964 80.6892C73.9521 80.6528 73.9521 80.6136 73.964 80.5772C73.9733 80.5233 73.9853 80.4699 74 80.4172L74.072 80.1332C74.1082 79.9437 74.1645 79.7587 74.24 79.5812C74.2326 79.7743 74.2044 79.9661 74.156 80.1532L74.1 80.4372C74.08 80.5332 74.044 80.6812 74.1 80.6692C74.3 80.6692 74.584 80.6252 74.848 80.6092L75.248 80.5732L75.196 80.6612C75.024 80.2612 74.88 79.8852 74.796 79.6252C74.7223 79.4924 74.6684 79.3495 74.636 79.2012Z" fill="#FFAF1E"/>
<path d="M60.9402 112.868L78.6802 112.328L86.4002 142.464L84.9802 177.032H75.6002L76.7482 143.2L69.8882 122.22L70.9442 178.372L61.4642 178.512L60.4682 125.732C60.4242 124.264 59.9442 120.956 60.1242 119.5L60.9402 112.868Z" fill="#263238"/>
<path d="M72.2469 122.65C71.9565 122.668 71.665 122.651 71.3789 122.598C70.8429 122.534 70.1109 122.422 69.3069 122.262C68.5029 122.102 67.7829 121.918 67.2629 121.77C66.9849 121.709 66.716 121.612 66.4629 121.482C66.4629 121.422 67.7669 121.734 69.3669 122.058C70.9669 122.382 72.2549 122.59 72.2469 122.65Z" fill="#455A64"/>
<path d="M84.8846 175.135C84.8846 175.191 82.7606 175.239 80.1406 175.239C77.5206 175.239 75.3926 175.191 75.3926 175.135C75.3926 175.079 77.5166 175.031 80.1406 175.031C82.7646 175.031 84.8846 175.075 84.8846 175.135Z" fill="#455A64"/>
<path d="M70.8604 176.913C70.8604 176.973 68.7964 177.017 66.2524 177.017C63.7084 177.017 61.6484 176.973 61.6484 176.913C61.6484 176.853 63.7124 176.809 66.2524 176.809C68.7924 176.809 70.8604 176.857 70.8604 176.913Z" fill="#455A64"/>
<path d="M69.639 176.769C69.583 176.769 69.335 164.501 69.083 149.369C68.831 134.237 68.683 121.961 68.735 121.961C68.787 121.961 69.043 134.225 69.291 149.365C69.539 164.505 69.699 176.769 69.639 176.769Z" fill="#455A64"/>
<path d="M83.6245 175.135C83.6201 175.081 83.6201 175.026 83.6245 174.971V174.491C83.6245 174.059 83.6565 173.439 83.6805 172.651C83.7365 171.051 83.8165 168.727 83.9165 165.879C84.1325 160.151 84.4365 152.255 84.7685 143.539C84.7685 143.455 84.7685 143.375 84.7685 143.303V143.331C82.6685 134.931 80.7685 127.307 79.3885 121.791L77.7885 115.267C77.6045 114.503 77.4645 113.907 77.3645 113.491C77.3165 113.295 77.2845 113.143 77.2565 113.027C77.2409 112.975 77.2315 112.921 77.2285 112.867C77.2493 112.918 77.2654 112.97 77.2765 113.023C77.3085 113.135 77.3485 113.287 77.4045 113.479C77.5125 113.879 77.6685 114.487 77.8685 115.247C78.2685 116.791 78.8325 119.015 79.5365 121.755C80.9285 127.267 82.8485 134.871 84.9765 143.283V143.311C84.9765 143.383 84.9765 143.467 84.9765 143.547C84.6205 152.263 84.2965 160.155 84.0605 165.883C83.9365 168.735 83.8325 171.043 83.7605 172.651C83.7205 173.451 83.6885 174.059 83.6685 174.491C83.6685 174.695 83.6445 174.855 83.6405 174.971C83.6411 175.026 83.6357 175.081 83.6245 175.135Z" fill="#455A64"/>
<path d="M80.5647 142.601C79.8909 142.822 79.1969 142.976 78.4927 143.061C77.6287 143.209 76.8927 143.313 76.5607 143.329V143.249C76.6687 143.281 76.7247 143.301 76.7247 143.317C76.7247 143.333 76.6567 143.317 76.5447 143.317H76.3047L76.5447 143.245C76.8567 143.153 77.5927 143.001 78.4567 142.845C79.1496 142.694 79.8557 142.613 80.5647 142.601Z" fill="#455A64"/>
<path d="M80.3999 143.748C79.776 143.777 79.1507 143.749 78.5319 143.664C77.9071 143.651 77.2846 143.583 76.6719 143.46C77.922 143.358 79.1803 143.455 80.3999 143.748Z" fill="#455A64"/>
<path opacity="0.2" d="M60.8652 113.504C61.0753 113.774 61.34 113.996 61.6418 114.157C61.9437 114.318 62.2761 114.413 62.6172 114.436C63.3317 114.521 64.0544 114.507 64.7652 114.396C69.3452 113.888 74.1972 113.42 78.6812 112.328C72.8772 112.652 66.7452 112.544 60.9412 112.868L60.8812 113.364" fill="black"/>
<g opacity="0.2">
<path d="M66.8438 121.686L70.1157 134.382L69.8878 122.222L66.8438 121.686Z" fill="black"/>
</g>
</svg>
