<svg width="200" height="200" viewBox="0 0 200 200" fill="none" xmlns="http://www.w3.org/2000/svg">
<path d="M32.1144 79.3225C38.9053 79.3225 44.4104 73.8174 44.4104 67.0265C44.4104 60.2356 38.9053 54.7305 32.1144 54.7305C25.3235 54.7305 19.8184 60.2356 19.8184 67.0265C19.8184 73.8174 25.3235 79.3225 32.1144 79.3225Z" fill="#EBEBEB"/>
<path d="M43.454 64.9238C43.662 64.9238 43.894 65.2358 44.066 65.8718C44.2703 66.7737 44.3029 67.7059 44.162 68.6198C43.9717 69.9976 43.521 71.3265 42.834 72.5358C41.9914 74.0567 40.8151 75.3669 39.3935 76.368C37.9719 77.3691 36.3419 78.0351 34.626 78.3158C33.2568 78.554 31.8548 78.531 30.494 78.2478C29.5853 78.0722 28.718 77.7261 27.938 77.2278C27.398 76.8558 27.174 76.5278 27.254 76.3358C27.434 75.9118 28.742 76.1478 30.694 76.0478C33.1587 75.9603 35.55 75.1858 37.598 73.8118C39.5814 72.3482 41.1153 70.3584 42.026 68.0678C42.798 66.2638 42.994 64.9518 43.454 64.9238Z" fill="#E0E0E0"/>
<path d="M32.6794 69.999C33.9561 69.9218 35.1608 69.3814 36.0674 68.479C36.6198 67.9257 36.9379 67.1808 36.9554 66.399C36.9351 66.0345 36.7927 65.6875 36.551 65.4139C36.3094 65.1403 35.9826 64.9561 35.6234 64.891C35.1033 64.8813 34.5949 65.0461 34.1794 65.359C33.7648 65.6785 33.2978 65.9235 32.7994 66.083C32.0794 66.247 31.3394 65.959 30.6594 65.683C29.9794 65.407 29.2474 65.095 28.5194 65.227C28.2704 65.2439 28.0305 65.3269 27.8245 65.4675C27.6184 65.6082 27.4537 65.8014 27.3474 66.027C27.3474 66.027 26.9794 66.827 27.7194 67.899C28.2961 68.6456 29.0555 69.231 29.9242 69.5988C30.793 69.9667 31.7419 70.1045 32.6794 69.999Z" fill="white"/>
<path d="M27.0904 63.0121C26.9846 62.813 26.8209 62.6506 26.621 62.5464C26.4211 62.4421 26.1943 62.4009 25.9704 62.4281C25.8272 62.4293 25.6877 62.4739 25.5704 62.5561C25.3975 62.6889 25.2641 62.8663 25.1845 63.0693C25.1048 63.2723 25.082 63.4931 25.1184 63.7081C25.1527 63.852 25.2164 63.9872 25.3053 64.1054C25.3942 64.2236 25.5066 64.3222 25.6353 64.395C25.7641 64.4678 25.9065 64.5133 26.0536 64.5286C26.2007 64.544 26.3494 64.5288 26.4904 64.4841C26.6275 64.4281 26.752 64.3454 26.8567 64.2406C26.9614 64.1359 27.0441 64.0114 27.1 63.8742C27.1559 63.7371 27.1838 63.5902 27.1822 63.4422C27.1805 63.2941 27.1493 63.1479 27.0904 63.0121Z" fill="white"/>
<path d="M38.7981 63.0507C38.6924 62.8512 38.5289 62.6884 38.329 62.5834C38.1292 62.4785 37.9023 62.4364 37.6781 62.4627C37.5352 62.4661 37.3963 62.5105 37.2781 62.5907C37.1045 62.7239 36.9707 62.902 36.891 63.1057C36.8113 63.3095 36.7889 63.5311 36.8261 63.7467C36.8604 63.8906 36.924 64.0258 37.0129 64.144C37.1019 64.2622 37.2142 64.3608 37.343 64.4336C37.4717 64.5065 37.6141 64.5519 37.7612 64.5673C37.9084 64.5826 38.0571 64.5674 38.1981 64.5227C38.3351 64.4667 38.4597 64.384 38.5643 64.2793C38.669 64.1745 38.7517 64.05 38.8076 63.9129C38.8635 63.7758 38.8914 63.6289 38.8898 63.4808C38.8882 63.3328 38.857 63.1865 38.7981 63.0507Z" fill="white"/>
<path d="M172.87 36.6148C174.574 29.1116 169.874 21.6471 162.37 19.9424C154.867 18.2377 147.403 22.9384 145.698 30.4416C143.993 37.9448 148.694 45.4093 156.197 47.114C163.7 48.8186 171.165 44.118 172.87 36.6148Z" fill="#EBEBEB"/>
<path d="M171.718 31.7148C171.926 31.7148 172.158 32.0668 172.326 32.7828C172.53 33.7979 172.546 34.8419 172.374 35.8628C172.143 37.4007 171.627 38.882 170.854 40.2308C169.903 41.9251 168.585 43.385 166.996 44.5035C165.408 45.6221 163.589 46.3708 161.674 46.6948C160.142 46.9722 158.572 46.9599 157.046 46.6588C156.027 46.4741 155.05 46.1069 154.162 45.5748C153.546 45.1748 153.282 44.8308 153.362 44.6388C153.542 44.2108 155.01 44.5348 157.246 44.4588C158.534 44.4226 159.812 44.2292 161.054 43.8828C164.05 43.0857 166.661 41.2408 168.414 38.6828C169.156 37.6312 169.768 36.4936 170.238 35.2948C171.062 33.2308 171.254 31.7388 171.718 31.7148Z" fill="#E0E0E0"/>
<path d="M163.475 31.8069C163.515 31.8069 163.303 32.3989 162.615 33.0829C161.709 33.9829 160.502 34.516 159.226 34.5795C157.951 34.643 156.697 34.2325 155.706 33.4269C154.954 32.8149 154.687 32.2629 154.727 32.2269C154.767 32.1909 155.126 32.6589 155.882 33.1749C156.85 33.8638 158.021 34.2062 159.207 34.1467C160.394 34.0872 161.525 33.6292 162.418 32.8469C163.114 32.2749 163.415 31.7669 163.475 31.8069Z" fill="white"/>
<path d="M153.599 28.9876C153.48 28.7617 153.296 28.5772 153.07 28.4585C152.844 28.3399 152.588 28.2929 152.335 28.3236C152.18 28.3288 152.03 28.3788 151.903 28.4676C151.707 28.6192 151.557 28.8209 151.468 29.0513C151.378 29.2817 151.353 29.532 151.395 29.7756C151.431 29.9399 151.501 30.0948 151.601 30.2301C151.701 30.3655 151.828 30.4783 151.975 30.5613C152.121 30.6443 152.283 30.6955 152.451 30.7118C152.618 30.728 152.787 30.7089 152.947 30.6556C153.1 30.59 153.239 30.4946 153.354 30.3748C153.47 30.2551 153.561 30.1135 153.622 29.9582C153.683 29.803 153.712 29.6372 153.708 29.4706C153.704 29.3039 153.667 29.1397 153.599 28.9876Z" fill="white"/>
<path d="M168.218 30.3322C168.171 29.9729 168.094 29.6182 167.986 29.2722C167.838 28.9294 167.605 28.6295 167.31 28.4002C166.943 28.1301 166.498 27.9881 166.043 27.9961C165.587 28.004 165.147 28.1615 164.79 28.4442C164.501 28.6866 164.279 28.9993 164.146 29.3522C164.05 29.7021 163.983 30.0593 163.946 30.4202C163.906 30.4442 163.682 29.9962 163.862 29.2642C163.988 28.7813 164.268 28.3527 164.66 28.0441C165.052 27.7354 165.534 27.5636 166.033 27.555C166.532 27.5464 167.02 27.7014 167.423 27.9963C167.825 28.2913 168.12 28.7099 168.262 29.1882C168.47 29.9002 168.258 30.3522 168.218 30.3322Z" fill="white"/>
<path d="M155.767 176.399C155.399 174.947 156.359 173.499 157.431 172.455C158.503 171.411 159.779 170.475 160.339 169.087C161.251 166.843 160.059 163.919 161.603 162.051C162.511 160.951 164.127 160.591 164.935 159.415C165.305 158.763 165.553 158.048 165.667 157.307C166.539 153.572 168.399 150.139 171.051 147.367C171.211 150.702 170.47 154.018 168.907 156.967C168.279 158.143 167.511 159.291 167.307 160.607C166.959 162.747 168.143 164.955 167.603 167.055C166.991 169.455 164.279 171.055 164.139 173.523C164.019 175.611 165.831 177.459 165.683 179.547C165.569 180.436 165.246 181.285 164.739 182.023C163.107 184.703 160.719 186.543 157.119 186.459L152.719 186.591L155.767 176.399Z" fill="#EBEBEB"/>
<path d="M151.807 186.691C151.408 186.749 151.002 186.738 150.607 186.659C150.118 186.584 149.639 186.461 149.175 186.291C148.536 186.065 147.94 185.734 147.411 185.311C147.093 185.051 146.846 184.716 146.691 184.335C146.558 183.909 146.49 183.466 146.491 183.019C146.485 182.545 146.454 182.071 146.399 181.599C146.315 181.095 146.135 180.611 145.867 180.175C145.351 179.259 144.495 178.391 144.223 177.147C143.951 175.903 144.151 174.607 144.363 173.283C144.575 171.959 144.783 170.519 144.283 169.139C143.783 167.759 142.859 166.507 142.383 164.947C141.907 163.387 142.147 161.687 142.055 160.019C142.027 159.173 141.835 158.341 141.491 157.567C141.139 156.787 140.651 156.047 140.267 155.223C139.495 153.555 139.367 151.671 139.163 149.827C139.064 148.897 138.964 147.957 138.863 147.007C138.803 146.052 138.643 145.106 138.387 144.183C138.097 143.251 137.75 142.337 137.347 141.447C137.141 140.986 136.974 140.508 136.847 140.019C136.774 139.516 136.729 139.008 136.711 138.499C136.668 137.48 136.714 136.459 136.847 135.447C136.971 134.431 137.163 133.423 137.275 132.403L137.299 132.227L137.323 132.023L137.503 132.115C138.432 132.593 139.239 133.277 139.863 134.115C140.471 134.942 140.957 135.851 141.307 136.815C142.035 138.711 142.287 140.699 142.647 142.595C143.007 144.491 143.467 146.359 144.431 147.943C144.911 148.743 145.491 149.451 145.999 150.219C146.539 150.97 146.908 151.83 147.079 152.739C147.327 154.607 146.279 156.239 146.495 157.891C146.595 158.705 146.868 159.488 147.295 160.187C147.695 160.895 148.159 161.551 148.603 162.211C149.054 162.855 149.446 163.538 149.775 164.251C150.079 164.952 150.258 165.701 150.303 166.463C150.403 167.951 150.183 169.363 150.283 170.695C150.399 171.964 150.761 173.198 151.351 174.327C151.879 175.415 152.467 176.399 152.951 177.355C153.195 177.813 153.416 178.283 153.611 178.763C153.785 179.214 153.913 179.682 153.991 180.159C154.117 180.994 154.124 181.843 154.011 182.679C153.885 183.843 153.442 184.95 152.731 185.879C152.622 186.023 152.502 186.157 152.371 186.279C152.282 186.372 152.185 186.455 152.079 186.527C151.915 186.647 151.827 186.699 151.827 186.699C152.143 186.453 152.43 186.171 152.683 185.859C153.365 184.928 153.78 183.829 153.883 182.679C153.988 181.855 153.975 181.02 153.843 180.199C153.757 179.732 153.623 179.275 153.443 178.835C153.259 178.379 153.043 177.915 152.779 177.443C152.283 176.495 151.691 175.515 151.151 174.423C150.543 173.276 150.167 172.02 150.043 170.727C149.935 169.363 150.151 167.951 150.043 166.495C149.996 165.758 149.82 165.036 149.523 164.359C149.197 163.659 148.809 162.99 148.363 162.359C147.919 161.707 147.447 161.047 147.039 160.323C146.594 159.592 146.311 158.774 146.211 157.923C146.011 156.159 147.039 154.515 146.783 152.779C146.616 151.912 146.259 151.093 145.739 150.379C145.239 149.623 144.655 148.903 144.163 148.095C143.171 146.467 142.695 144.567 142.339 142.659C141.983 140.751 141.723 138.783 141.007 136.923C140.666 135.987 140.193 135.103 139.603 134.299C139.005 133.49 138.231 132.828 137.339 132.363L137.543 132.255C137.543 132.311 137.543 132.371 137.543 132.431C137.427 133.463 137.235 134.471 137.111 135.479C136.981 136.475 136.937 137.48 136.979 138.483C136.995 138.976 137.036 139.467 137.103 139.955C137.228 140.428 137.391 140.889 137.591 141.335C137.995 142.235 138.345 143.158 138.639 144.099C138.898 145.038 139.058 146 139.119 146.971C139.219 147.919 139.319 148.863 139.415 149.791C139.615 151.647 139.743 153.499 140.487 155.107C140.855 155.907 141.347 156.651 141.711 157.459C142.064 158.263 142.259 159.126 142.287 160.003C142.371 161.703 142.143 163.367 142.595 164.879C143.047 166.391 143.999 167.639 144.475 169.063C144.951 170.487 144.763 171.995 144.547 173.311C144.331 174.627 144.103 175.927 144.383 177.103C144.663 178.279 145.463 179.151 145.983 180.095C146.259 180.547 146.442 181.049 146.523 181.571C146.579 182.051 146.607 182.533 146.607 183.015C146.604 183.45 146.666 183.883 146.791 184.299C146.937 184.66 147.169 184.98 147.467 185.231C147.983 185.652 148.566 185.985 149.191 186.215C149.646 186.394 150.117 186.528 150.599 186.615C150.896 186.669 151.197 186.7 151.499 186.707C151.699 186.687 151.807 186.691 151.807 186.691Z" fill="#E0E0E0"/>
<path d="M138.162 134.652C138.162 134.652 138.162 134.696 138.206 134.788C138.25 134.88 138.262 135.024 138.302 135.188C138.386 135.536 138.486 136.06 138.65 136.716C138.814 137.372 139.214 138.112 139.55 139.028C139.947 140.054 140.292 141.099 140.582 142.16C140.91 143.34 141.202 144.648 141.506 146.048C141.81 147.448 142.13 148.948 142.894 150.364C143.25 151.084 143.654 151.808 143.974 152.604C144.285 153.421 144.493 154.273 144.594 155.14C144.805 156.935 145.112 158.718 145.514 160.48C146.378 164.1 147.202 167.548 147.95 170.688L149.998 179.008C150.566 181.36 151.026 183.276 151.35 184.608C151.498 185.256 151.618 185.768 151.706 186.14C151.738 186.3 151.766 186.432 151.79 186.54C151.795 186.586 151.795 186.631 151.79 186.676C151.768 186.635 151.751 186.59 151.742 186.544C151.71 186.44 151.674 186.312 151.63 186.144L151.23 184.628C150.886 183.284 150.394 181.376 149.79 179.028C149.186 176.68 148.478 173.828 147.69 170.716L145.23 160.508C144.827 158.738 144.52 156.948 144.31 155.144C144.215 154.299 144.015 153.468 143.714 152.672C143.406 151.896 143.01 151.176 142.65 150.448C141.882 149.004 141.57 147.46 141.27 146.048C140.97 144.636 140.698 143.34 140.382 142.164C140.066 140.988 139.73 139.94 139.394 139.036C139.058 138.132 138.694 137.376 138.534 136.7C138.374 136.024 138.306 135.5 138.238 135.152C138.21 134.988 138.186 134.856 138.17 134.752C138.164 134.719 138.162 134.686 138.162 134.652Z" fill="#E0E0E0"/>
<path d="M151.025 186.703C148.153 184.971 147.357 179.771 148.577 176.647C149.797 173.523 151.917 170.679 152.257 167.347C152.521 164.783 151.697 162.147 152.309 159.643C153.133 156.267 156.453 153.667 156.433 150.187C156.433 148.239 155.325 146.395 155.425 144.447C155.545 142.047 157.389 140.171 158.537 138.071C160.297 134.871 160.433 131.051 161.049 127.439C161.665 123.827 163.049 119.967 166.277 118.207C166.733 121.279 167.525 123.383 167.249 127.539C167.149 129.031 165.401 131.879 165.145 135.139C164.993 137.091 164.885 139.051 164.745 141.007C164.605 142.963 164.485 144.847 163.793 146.627C163.261 147.987 162.413 149.223 162.017 150.627C161.273 153.275 162.213 156.151 161.617 158.835C161.105 161.107 159.517 163.059 159.185 165.363C158.713 168.603 160.785 171.987 159.701 175.075C159.157 176.607 157.889 177.831 157.521 179.415C157.237 180.643 157.521 181.943 157.273 183.179C156.873 185.179 153.053 186.691 151.025 186.555" fill="#E0E0E0"/>
<path d="M165.467 121.248C165.474 121.307 165.474 121.366 165.467 121.424C165.467 121.552 165.431 121.716 165.399 121.928C165.331 122.368 165.255 123.02 165.099 123.86C164.943 124.7 164.491 125.656 164.139 126.8C163.787 127.944 163.391 129.264 163.059 130.74C162.727 132.216 162.439 133.852 162.139 135.612C161.839 137.372 161.515 139.288 160.631 141.116C160.231 142.032 159.763 142.952 159.431 143.916C159.095 144.922 158.885 145.966 158.807 147.024C158.634 149.274 158.339 151.514 157.923 153.732C157.015 158.272 156.151 162.6 155.363 166.532C154.575 170.464 153.787 173.984 153.159 176.96C152.531 179.936 151.999 182.328 151.619 184C151.439 184.8 151.295 185.452 151.195 185.908C151.147 186.112 151.107 186.276 151.075 186.404C151.065 186.46 151.049 186.515 151.027 186.568C151.029 186.51 151.036 186.453 151.047 186.396C151.071 186.268 151.103 186.104 151.139 185.896C151.227 185.44 151.351 184.796 151.511 183.98L152.931 176.936C153.543 173.956 154.271 170.42 155.075 166.496C155.879 162.572 156.715 158.236 157.615 153.696C158.027 151.485 158.322 149.254 158.499 147.012C158.581 145.932 158.799 144.866 159.147 143.84C159.503 142.836 159.967 141.916 160.375 141.004C161.255 139.204 161.575 137.32 161.891 135.568C162.207 133.816 162.495 132.172 162.847 130.692C163.199 129.212 163.583 127.892 163.971 126.748C164.359 125.604 164.799 124.656 164.975 123.832C165.151 123.008 165.243 122.352 165.327 121.912L165.423 121.416C165.432 121.359 165.447 121.302 165.467 121.248Z" fill="#EBEBEB"/>
<path d="M192.705 186.256C192.705 186.312 151.197 186.36 100.005 186.36C48.8129 186.36 7.29688 186.312 7.29688 186.256C7.29688 186.2 48.8009 186.152 100.001 186.152C151.201 186.152 192.705 186.196 192.705 186.256Z" fill="#455A64"/>
<path d="M96.5936 81.6191C91.7416 86.1031 88.2656 95.7311 87.3176 102.147C86.3696 108.563 85.8816 115.347 82.3576 120.787C81.3816 122.295 80.1376 123.839 80.2536 125.627C80.4136 128.135 83.1856 129.671 85.6896 129.883C88.1936 130.095 90.7376 129.483 93.2056 129.935C97.7456 130.779 101.294 135.135 105.91 135.079C109.35 135.051 112.35 132.459 113.886 129.379C115.422 126.299 115.77 122.787 116.098 119.379C117.086 109.063 117.818 101.635 118.806 91.3191" fill="#FFAF1E"/>
<path d="M85.6646 119.6C85.27 119.37 84.9345 119.051 84.6845 118.668C84.4346 118.286 84.2771 117.85 84.2246 117.396C84.2846 117.396 84.4566 117.952 84.8566 118.556C85.2566 119.16 85.7046 119.548 85.6646 119.6Z" fill="#FAFAFA"/>
<path d="M105.37 130.732C105.281 130.742 105.191 130.742 105.102 130.732L104.338 130.688C103.674 130.64 102.738 130.564 101.538 130.44C99.1735 130.196 95.9175 129.756 92.3615 129.044C90.6781 128.749 89.0199 128.325 87.4015 127.776C86.0756 127.312 84.8528 126.595 83.8015 125.664C83.0926 125.033 82.5161 124.267 82.1055 123.412C81.9978 123.179 81.9056 122.94 81.8295 122.696C81.7988 122.612 81.7786 122.524 81.7695 122.436C81.7695 122.436 81.8815 122.788 82.1695 123.376C82.5975 124.205 83.1799 124.945 83.8855 125.556C84.936 126.456 86.1482 127.148 87.4575 127.596C89.0727 128.131 90.7252 128.547 92.4015 128.84C95.9495 129.548 99.2015 130.012 101.554 130.292L104.354 130.608L105.114 130.688C105.2 130.692 105.286 130.707 105.37 130.732Z" fill="#FAFAFA"/>
<path d="M103.445 125.456C103.01 125.318 102.609 125.089 102.269 124.784C101.98 124.566 101.713 124.321 101.469 124.052L101.441 124.016V123.988C101.505 123.836 101.557 123.748 101.577 123.756C101.597 123.764 101.577 123.86 101.557 124.024V123.96L102.405 124.62C102.778 124.865 103.126 125.145 103.445 125.456Z" fill="#FAFAFA"/>
<path d="M91.8374 90.8749C91.8374 90.9309 91.5134 90.9069 91.2574 90.6349C91.0014 90.3629 90.9814 90.0509 91.0374 90.0469C91.0934 90.0429 91.1934 90.2749 91.4054 90.4909C91.6174 90.7069 91.8494 90.8189 91.8374 90.8749Z" fill="#FAFAFA"/>
<path d="M90.2819 95.8275C90.2819 95.8835 89.8459 95.8915 89.4819 95.5475C89.1179 95.2035 89.0579 94.7715 89.1139 94.7715C89.1699 94.7715 89.2939 95.1075 89.6219 95.3955C89.9499 95.6835 90.2899 95.7675 90.2819 95.8275Z" fill="#FAFAFA"/>
<path d="M89.0064 101.392C89.0064 101.42 88.8944 101.448 88.7104 101.424C88.4734 101.385 88.2519 101.281 88.0704 101.124C87.8855 100.972 87.7469 100.771 87.6704 100.544C87.6144 100.368 87.6264 100.252 87.6704 100.248C87.7144 100.244 87.8384 100.648 88.2264 100.964C88.6144 101.28 89.0104 101.332 89.0064 101.392Z" fill="#FAFAFA"/>
<path d="M87.9214 106.871C87.8894 106.919 87.5934 106.795 87.2574 106.591C86.9214 106.387 86.6734 106.191 86.7014 106.131C86.7294 106.071 87.0294 106.207 87.3654 106.411C87.7014 106.615 87.9494 106.823 87.9214 106.871Z" fill="#FAFAFA"/>
<path d="M86.9122 113.144C86.8802 113.192 86.5322 113.012 86.2322 112.64C85.9322 112.268 85.8322 111.888 85.8842 111.872C85.9362 111.856 86.1162 112.168 86.3962 112.508C86.6762 112.848 86.9442 113.096 86.9122 113.144Z" fill="#FAFAFA"/>
<path d="M79.8724 169.6L77.6004 179.856L73.4644 187.456C73.3934 187.585 73.3498 187.728 73.3364 187.875C73.3231 188.022 73.3402 188.17 73.3868 188.31C73.4333 188.45 73.5083 188.579 73.607 188.689C73.7057 188.798 73.8261 188.887 73.9604 188.948C74.1157 189.021 74.2864 189.055 74.4579 189.047C74.6293 189.04 74.7963 188.99 74.9444 188.904C76.8724 187.792 83.9324 183.664 84.0564 182.904C84.2004 182.024 87.1724 172.236 87.1724 172.236L79.8724 169.6Z" fill="#FFAF1E"/>
<g opacity="0.6">
<path d="M73.9609 188.951L84.2249 182.219L84.1209 182.651C84.0296 183.025 83.8085 183.356 83.4969 183.583C82.6609 184.183 80.2969 185.799 74.9769 188.915C74.824 189.005 74.651 189.056 74.4735 189.062C74.2961 189.068 74.1198 189.03 73.9609 188.951Z" fill="white"/>
</g>
<g opacity="0.6">
<path d="M82.9374 178.398C82.7857 178.46 82.6628 178.577 82.5932 178.725C82.5235 178.873 82.5122 179.042 82.5614 179.198C82.6176 179.349 82.7293 179.472 82.8737 179.543C83.0181 179.614 83.184 179.626 83.3374 179.578C83.4954 179.514 83.6238 179.393 83.6977 179.239C83.7716 179.086 83.7858 178.91 83.7374 178.746C83.6631 178.596 83.5333 178.479 83.3753 178.422C83.2173 178.365 83.0432 178.37 82.8894 178.438" fill="white"/>
</g>
<path d="M77.3884 185.063C77.2494 184.669 77.0073 184.319 76.6872 184.05C76.3671 183.782 75.9807 183.604 75.5684 183.535C75.5684 183.507 75.7124 183.459 75.9684 183.487C76.2935 183.531 76.5983 183.67 76.8444 183.887C77.0954 184.096 77.2803 184.374 77.3764 184.687C77.4364 184.907 77.4164 185.063 77.3884 185.063Z" fill="#263238"/>
<path d="M76.3245 186.251C76.2685 186.283 76.0205 185.871 75.5245 185.591C75.2108 185.448 74.8889 185.324 74.5605 185.219C74.7413 185.16 74.9335 185.145 75.1213 185.175C75.3091 185.205 75.487 185.279 75.6406 185.391C76.2046 185.715 76.4005 186.239 76.3245 186.251Z" fill="#263238"/>
<path d="M79.172 183.644C78.8132 183.248 78.4254 182.879 78.012 182.54C77.5547 182.264 77.0773 182.022 76.584 181.816C77.1446 181.843 77.686 182.029 78.1444 182.353C78.6029 182.677 78.9594 183.125 79.172 183.644Z" fill="#263238"/>
<path d="M80.1243 180.579C80.0803 180.635 79.5763 180.259 78.8483 180.055C78.1203 179.851 77.4963 179.879 77.4883 179.811C77.9561 179.689 78.4482 179.696 78.9123 179.831C79.3764 179.967 79.7952 180.225 80.1243 180.579Z" fill="#263238"/>
<path d="M80.8692 177.599C80.4585 177.346 80.0159 177.15 79.5532 177.015C79.0768 176.948 78.5936 176.948 78.1172 177.015C78.1172 176.991 78.2492 176.887 78.5172 176.811C78.8711 176.717 79.242 176.707 79.6003 176.782C79.9586 176.857 80.2945 177.015 80.5812 177.243C80.8012 177.415 80.8892 177.563 80.8692 177.599Z" fill="#263238"/>
<path d="M79.7131 176.435C79.7063 176.298 79.7338 176.16 79.7931 176.035C79.9147 175.69 80.1037 175.372 80.3491 175.099C80.5091 174.883 80.7374 174.727 80.9971 174.655C81.085 174.641 81.1753 174.653 81.256 174.691C81.3368 174.729 81.4041 174.79 81.4491 174.867C81.526 175.023 81.5431 175.201 81.4971 175.367C81.3891 175.705 81.1673 175.994 80.8696 176.186C80.572 176.378 80.2169 176.46 79.8651 176.419C79.5184 176.371 79.1941 176.22 78.9334 175.986C78.6727 175.753 78.4874 175.447 78.4011 175.107C78.3799 175.022 78.3771 174.932 78.393 174.846C78.4088 174.759 78.4429 174.676 78.4931 174.603C78.5521 174.537 78.6304 174.49 78.7172 174.47C78.8039 174.45 78.8948 174.457 78.9771 174.491C79.2149 174.609 79.4177 174.787 79.5651 175.007C79.7891 175.296 79.9597 175.623 80.0691 175.971C80.1216 176.098 80.1449 176.235 80.1371 176.371C79.9694 175.919 79.7333 175.496 79.4371 175.115C79.3009 174.931 79.1227 174.781 78.9171 174.679C78.8725 174.659 78.8226 174.654 78.775 174.665C78.7273 174.676 78.6845 174.702 78.6531 174.739C78.6228 174.789 78.6033 174.845 78.5957 174.903C78.5881 174.961 78.5927 175.019 78.6091 175.075C78.6932 175.366 78.859 175.625 79.0867 175.824C79.3143 176.022 79.5942 176.151 79.8931 176.195C80.1902 176.23 80.4904 176.163 80.7442 176.005C80.998 175.846 81.1902 175.606 81.2891 175.323C81.33 175.211 81.33 175.088 81.2891 174.975C81.266 174.932 81.2294 174.896 81.1848 174.875C81.1402 174.853 81.0898 174.846 81.0411 174.855C80.8218 174.917 80.6265 175.044 80.4811 175.219C80.1537 175.575 79.8935 175.987 79.7131 176.435Z" fill="#263238"/>
<path d="M111.88 173.372L111.568 181.6C111.568 181.6 119.82 184.68 119.908 186.204L103.948 186.172L103.908 173.344L111.88 173.372Z" fill="#FFAF1E"/>
<g opacity="0.6">
<path d="M106.633 180.891C106.479 180.938 106.348 181.039 106.265 181.177C106.181 181.314 106.151 181.477 106.181 181.635C106.222 181.79 106.32 181.923 106.457 182.007C106.593 182.091 106.756 182.12 106.913 182.087C107.079 182.038 107.22 181.929 107.308 181.78C107.396 181.632 107.425 181.456 107.389 181.287C107.332 181.131 107.217 181.003 107.068 180.928C106.92 180.854 106.748 180.839 106.589 180.887" fill="white"/>
</g>
<g opacity="0.6">
<path d="M103.949 186.163L103.993 184.871L119.281 185.383C119.281 185.383 119.989 185.695 119.909 186.183L103.949 186.163Z" fill="white"/>
</g>
<path d="M111.825 181.512C111.825 181.592 111.425 181.624 111.049 181.876C110.673 182.128 110.461 182.452 110.389 182.42C110.317 182.388 110.433 181.94 110.905 181.644C111.377 181.348 111.845 181.44 111.825 181.512Z" fill="#263238"/>
<path d="M113.501 182.208C113.501 182.284 113.181 182.416 112.913 182.744C112.645 183.072 112.573 183.424 112.513 183.42C112.453 183.416 112.389 182.976 112.725 182.572C113.061 182.168 113.497 182.136 113.501 182.208Z" fill="#263238"/>
<path d="M114.444 184.216C114.376 184.216 114.268 183.84 114.468 183.416C114.668 182.992 115.032 182.82 115.068 182.884C115.104 182.948 114.872 183.176 114.712 183.528C114.552 183.88 114.524 184.208 114.444 184.216Z" fill="#263238"/>
<path d="M111.689 179.632C111.657 179.704 111.289 179.596 110.857 179.632C110.425 179.668 110.057 179.8 110.033 179.732C110.009 179.664 110.325 179.388 110.833 179.36C111.341 179.332 111.729 179.572 111.689 179.632Z" fill="#263238"/>
<g opacity="0.3">
<path d="M111.816 175L111.76 176.464L103.916 176.38L103.908 175.06L111.816 175Z" fill="black"/>
</g>
<path d="M111.721 177.971C111.46 178.044 111.183 178.044 110.921 177.971C110.633 177.922 110.352 177.836 110.085 177.715C109.928 177.644 109.776 177.562 109.629 177.471C109.54 177.422 109.459 177.358 109.389 177.283C109.342 177.229 109.313 177.161 109.306 177.089C109.3 177.017 109.316 176.945 109.353 176.883C109.391 176.828 109.442 176.783 109.501 176.752C109.56 176.721 109.627 176.706 109.693 176.707C109.795 176.706 109.896 176.72 109.993 176.747C110.164 176.789 110.33 176.847 110.489 176.919C110.759 177.041 111.007 177.204 111.225 177.403C111.597 177.747 111.721 178.039 111.697 178.055C111.673 178.071 111.481 177.835 111.105 177.551C110.886 177.389 110.647 177.254 110.393 177.151C110.244 177.093 110.09 177.046 109.933 177.011C109.765 176.967 109.621 176.963 109.577 177.039C109.533 177.115 109.557 177.079 109.577 177.127C109.63 177.182 109.691 177.229 109.757 177.267C109.892 177.356 110.032 177.436 110.177 177.507C110.425 177.631 110.683 177.732 110.949 177.807C111.211 177.842 111.469 177.897 111.721 177.971Z" fill="#263238"/>
<path d="M111.62 178.083C111.468 177.855 111.394 177.584 111.408 177.311C111.396 177.015 111.434 176.718 111.52 176.435C111.573 176.267 111.641 176.105 111.724 175.951C111.768 175.846 111.839 175.754 111.928 175.684C112.018 175.614 112.124 175.568 112.236 175.551C112.307 175.556 112.374 175.579 112.432 175.618C112.491 175.658 112.538 175.712 112.568 175.775C112.609 175.868 112.637 175.966 112.652 176.067C112.678 176.246 112.678 176.428 112.652 176.607C112.607 176.905 112.488 177.188 112.308 177.431C111.996 177.831 111.668 177.935 111.664 177.911C111.66 177.887 111.908 177.723 112.148 177.323C112.288 177.095 112.375 176.84 112.404 176.575C112.426 176.421 112.426 176.265 112.404 176.111C112.38 175.943 112.316 175.807 112.252 175.823C112.188 175.839 112.04 175.947 111.972 176.083C111.894 176.22 111.828 176.365 111.776 176.515C111.684 176.772 111.63 177.042 111.616 177.315C111.6 177.779 111.66 178.071 111.62 178.083Z" fill="#263238"/>
<path d="M96.3049 83.1113C96.3049 83.1113 91.2569 91.0833 90.5289 94.1353C89.8009 97.1873 76.1289 170.847 76.1289 170.847L90.8889 175.287L103.777 115.023L100.001 174.843C99.9965 174.898 100.004 174.954 100.022 175.006C100.04 175.059 100.069 175.106 100.106 175.147C100.144 175.188 100.189 175.22 100.24 175.242C100.291 175.264 100.346 175.276 100.401 175.275L115.237 174.819C115.34 174.819 115.438 174.78 115.513 174.709C115.587 174.639 115.632 174.542 115.637 174.439C116.001 168.627 120.513 96.0393 119.685 93.9313C118.821 91.7233 116.557 84.0593 116.557 84.0593L96.3049 83.1113Z" fill="#263238"/>
<path d="M85.4165 58.4247C84.6165 59.0127 84.5805 60.1727 84.7525 61.1447C84.9245 62.1167 85.2365 63.1447 84.8965 64.0527C84.6222 64.617 84.2767 65.144 83.8685 65.6207C83.5125 66.1367 83.2405 66.7927 83.4685 67.3847C83.8685 68.4847 85.5925 68.5847 86.0285 69.6687C86.2765 70.2887 85.9925 70.9887 85.6525 71.5607C85.3125 72.1327 84.8925 72.7047 84.8525 73.3727C84.8472 73.6245 84.8948 73.8747 84.9924 74.107C85.09 74.3393 85.2354 74.5484 85.4192 74.7208C85.6029 74.8932 85.8208 75.025 86.0588 75.1077C86.2968 75.1904 86.5495 75.222 86.8005 75.2007C87.5205 75.0927 88.0845 74.5527 88.6965 74.1607C89.3085 73.7687 90.1685 73.5287 90.7245 74.0007C91.3765 74.5567 91.1245 75.6007 91.1245 76.4447C91.1194 76.911 91.2386 77.3703 91.4699 77.7753C91.7012 78.1802 92.0362 78.5162 92.4405 78.7487C92.855 78.9628 93.3341 79.0159 93.7854 78.8977C94.2367 78.7795 94.6282 78.4984 94.8846 78.1087C95.1086 77.7087 95.2045 77.1527 95.6325 76.9807C96.1685 76.7607 96.6885 77.3247 97.2525 77.4647C97.5715 77.5163 97.8986 77.4622 98.1839 77.3105C98.4692 77.1588 98.697 76.9179 98.8325 76.6247C99.0907 76.0284 99.1482 75.3644 98.9965 74.7327C98.5405 72.2247 96.6805 70.2487 95.4445 68.0207C94.4467 66.2217 93.8504 64.228 93.6965 62.1767C93.6005 60.9127 93.6965 59.6407 93.5645 58.3807C93.5098 57.108 93.0935 55.8773 92.3645 54.8327C91.5925 53.8327 90.2885 53.1687 89.0525 53.4367" fill="#FFAF1E"/>
<path d="M101.773 28.8589C97.921 28.7509 94.225 31.7709 93.565 35.5669C93.221 37.5389 93.589 39.6789 92.681 41.4589C91.481 43.8149 88.329 44.9029 87.621 47.4589C87.029 49.5909 88.421 51.9029 87.833 54.0349C87.397 55.5749 86.017 56.6629 85.345 58.1149C85.0209 58.8203 84.8792 59.5958 84.933 60.3703C84.9868 61.1447 85.2344 61.8932 85.653 62.5469C86.0873 63.1899 86.6904 63.7007 87.3961 64.0232C88.1018 64.3457 88.8827 64.4674 89.653 64.3749C90.625 64.2349 91.505 63.7389 92.453 63.4349C94.453 62.7709 96.661 63.0149 98.765 63.3069C100.869 63.5989 103.029 63.9389 105.093 63.4549C107.157 62.9709 109.141 61.4549 109.449 59.3349C109.649 57.9709 109.137 56.6189 108.717 55.3069C105.949 46.6349 107.201 37.1989 105.265 28.2949" fill="#FFAF1E"/>
<path d="M112.03 33.0879C112.37 35.3759 112.99 37.6399 113.974 39.0559C114.774 40.1959 116.318 40.8519 116.554 42.2199C116.75 43.3759 116.062 44.5239 116.174 45.6879C116.35 47.5239 118.374 48.6439 118.946 50.3959C119.426 51.8559 118.766 53.5079 117.654 54.5639C116.542 55.6199 115.054 56.1839 113.57 56.5839C111.454 57.1519 108.89 57.3279 107.37 55.7439C106.33 54.6639 106.094 53.0559 105.966 51.5599C105.61 47.5599 105.626 43.5319 105.638 39.5159" fill="#FFAF1E"/>
<path d="M98.1976 36.9391C98.0832 36.0227 98.1542 35.0926 98.4064 34.2041C98.6585 33.3156 99.0867 32.4869 99.6654 31.7672C100.244 31.0474 100.962 30.4513 101.775 30.0143C102.589 29.5772 103.482 29.3082 104.402 29.2231C108.074 28.8751 111.338 31.6231 111.886 35.2551C112.37 38.4551 112.786 41.6791 112.77 42.8551C112.726 46.3911 110.658 47.7671 109.818 48.1791C109.516 48.2906 109.204 48.3684 108.886 48.4111C108.883 48.4152 108.881 48.4201 108.881 48.4251C108.881 48.4301 108.883 48.435 108.886 48.4391L109.686 52.4951C110.042 55.1551 108.558 57.5271 105.902 57.9151C103.246 58.3031 101.158 56.2591 100.75 53.5991L98.1976 36.9391Z" fill="#FFBE9D"/>
<path d="M111.165 36.7983C111.109 36.8823 110.641 36.6303 110.045 36.7223C109.449 36.8143 109.049 37.1743 108.977 37.1223C108.905 37.0703 108.977 36.9543 109.161 36.7863C109.392 36.5685 109.686 36.4286 110.001 36.3863C110.312 36.3383 110.63 36.3916 110.909 36.5383C111.113 36.6423 111.201 36.7623 111.165 36.7983Z" fill="#263238"/>
<path d="M105.774 37.8563C105.718 37.9403 105.25 37.6883 104.65 37.7763C104.05 37.8643 103.658 38.2283 103.582 38.1763C103.506 38.1243 103.582 38.0083 103.77 37.8403C104.002 37.6237 104.295 37.4841 104.61 37.4403C104.921 37.3932 105.24 37.4479 105.518 37.5963C105.722 37.6963 105.806 37.8203 105.774 37.8563Z" fill="#263238"/>
<path d="M108 41.3041C108.301 41.1599 108.618 41.0538 108.944 40.9881C109.096 40.9521 109.236 40.9001 109.248 40.7921C109.238 40.6319 109.179 40.4786 109.08 40.3521L108.456 39.2561C107.588 37.6921 106.936 36.3961 107 36.3601C107.064 36.3241 107.8 37.5601 108.688 39.1321L109.292 40.2401C109.413 40.4115 109.471 40.6191 109.456 40.8281C109.442 40.8846 109.415 40.9372 109.377 40.9821C109.34 41.027 109.293 41.0632 109.24 41.0881C109.158 41.1225 109.072 41.1467 108.984 41.1601C108.664 41.2509 108.333 41.2993 108 41.3041Z" fill="#263238"/>
<path d="M108.848 48.3996C108.848 48.3996 106.568 48.9276 103.424 47.5996C103.424 47.5996 104.78 50.5196 109.06 49.4796L108.848 48.3996Z" fill="#EB996E"/>
<path d="M107.968 42.8C107.834 42.6732 107.669 42.5829 107.49 42.5374C107.311 42.4919 107.123 42.4928 106.944 42.54C106.814 42.5713 106.691 42.6285 106.583 42.7082C106.475 42.7879 106.384 42.8885 106.316 43.004C106.25 43.1152 106.22 43.244 106.23 43.3729C106.24 43.5017 106.29 43.6243 106.372 43.724C106.483 43.8146 106.618 43.8708 106.76 43.8857C106.902 43.9007 107.045 43.8736 107.172 43.808C107.439 43.666 107.676 43.473 107.868 43.24C107.929 43.1834 107.978 43.1154 108.012 43.04C108.037 43.0043 108.05 42.9614 108.047 42.9179C108.045 42.8745 108.029 42.833 108 42.8" fill="#EB996E"/>
<path d="M106.313 41.9766C106.409 41.9766 106.505 42.6046 107.113 42.9846C107.721 43.3646 108.413 43.1926 108.433 43.2846C108.453 43.3766 108.297 43.4326 108.005 43.4846C107.626 43.5432 107.239 43.4683 106.909 43.2726C106.595 43.0741 106.369 42.7616 106.281 42.4006C106.217 42.1526 106.265 42.0006 106.313 41.9766Z" fill="#263238"/>
<path d="M105.465 36.1469C105.429 36.3189 104.821 36.3269 104.133 36.5149C103.445 36.7029 102.901 36.9749 102.789 36.8429C102.737 36.7789 102.813 36.6109 103.017 36.4429C103.294 36.2048 103.622 36.0331 103.976 35.941C104.329 35.8488 104.699 35.8385 105.057 35.9109C105.333 35.9549 105.481 36.0669 105.465 36.1469Z" fill="#FFAF1E"/>
<path d="M110.661 35.1521C110.577 35.3041 110.141 35.2241 109.645 35.2881C109.149 35.3521 108.745 35.5121 108.625 35.3841C108.573 35.3241 108.625 35.1761 108.785 35.0201C109.01 34.8264 109.289 34.7076 109.585 34.6801C109.877 34.6413 110.174 34.6959 110.433 34.8361C110.621 34.9481 110.697 35.0801 110.661 35.1521Z" fill="#FFAF1E"/>
<path d="M109.49 37.5441C109.466 37.6876 109.5 37.8346 109.584 37.9535C109.668 38.0724 109.795 38.1537 109.938 38.1801C110.006 38.1961 110.077 38.1985 110.147 38.187C110.216 38.1756 110.283 38.1506 110.342 38.1135C110.402 38.0763 110.454 38.0278 110.495 37.9706C110.536 37.9134 110.566 37.8486 110.582 37.7801C110.603 37.6362 110.568 37.4898 110.483 37.3713C110.399 37.2528 110.272 37.1714 110.13 37.1441C109.992 37.1129 109.847 37.1374 109.727 37.2123C109.607 37.2872 109.522 37.4065 109.49 37.5441Z" fill="#263238"/>
<path d="M104.128 38.5995C104.105 38.743 104.14 38.8895 104.225 39.0076C104.309 39.1257 104.437 39.2061 104.58 39.2315C104.648 39.2475 104.719 39.2498 104.788 39.2384C104.857 39.2269 104.923 39.2018 104.983 39.1647C105.042 39.1275 105.094 39.0789 105.134 39.0217C105.175 38.9646 105.204 38.8999 105.22 38.8315C105.243 38.688 105.209 38.541 105.125 38.4221C105.042 38.3032 104.915 38.2219 104.772 38.1955C104.703 38.1795 104.631 38.1773 104.562 38.189C104.492 38.2007 104.425 38.226 104.366 38.2636C104.306 38.3011 104.254 38.3501 104.213 38.4078C104.172 38.4654 104.143 38.5306 104.128 38.5995Z" fill="#263238"/>
<path d="M98.5859 53.724L109.45 51.496L111.814 51.416L111.646 58.616C111.646 58.616 105.67 60.472 105.45 60.588C105.23 60.704 101.318 60.588 101.318 60.588L98.5859 53.724Z" fill="#FFBE9D"/>
<path d="M102.87 30.9142C102.217 31.6987 101.785 32.6421 101.615 33.6482C101.446 34.6543 101.546 35.6874 101.906 36.6422C102.41 37.9182 103.39 39.0942 103.306 40.4622C103.202 42.1582 101.47 43.4862 101.566 45.1862C101.67 47.0982 104.118 48.3062 104.122 50.2182C104.126 52.1302 102.942 52.9062 100.666 53.3222C99.2056 53.5862 98.3976 51.7822 97.6736 50.4862C96.9496 49.1902 96.7136 47.6862 96.5656 46.2142C96.321 43.7658 96.2822 41.3011 96.4496 38.8462C96.5896 36.8462 96.8816 34.8462 97.9096 33.1302C98.4439 32.2606 99.1521 31.5108 99.9898 30.9278C100.827 30.3447 101.777 29.9411 102.778 29.7422" fill="#FFAF1E"/>
<path d="M112.569 34.4635C111.837 35.5795 109.517 34.8915 108.113 34.1235C107.383 34.5923 106.5 34.7579 105.65 34.5854C104.8 34.4129 104.05 33.9157 103.561 33.1995C102.761 34.2195 101.129 33.8835 100.537 32.7315C99.9452 31.5795 100.277 29.9955 101.093 28.9875C101.918 28.0444 103.053 27.4285 104.293 27.2515C105.711 26.9775 107.178 27.1247 108.513 27.6749C109.848 28.2251 110.992 29.1542 111.805 30.3475C112.573 31.5115 113.037 33.0835 112.581 34.4795" fill="#FFAF1E"/>
<path d="M68.4929 61.1033L66.1129 56.2673L64.9969 53.8273C64.7169 53.2153 65.1289 52.9313 65.4729 53.3153C65.6049 53.4633 67.1249 55.3633 67.1249 55.3633L65.5249 51.9553C65.0209 50.8793 65.7449 50.8633 66.0249 51.2313C66.3049 51.5993 68.2209 54.7713 68.2209 54.7713C66.1929 50.5473 66.4929 50.0873 66.8129 49.9713C67.1329 49.8553 68.9489 53.7033 68.9489 53.7033C69.1323 53.1895 69.4227 52.7205 69.8009 52.3273C70.7329 51.3873 72.6609 51.7873 72.8449 52.2753C73.0289 52.7633 72.4129 53.0273 72.4129 53.0273C72.1247 52.8846 71.801 52.8294 71.4817 52.8684C71.1625 52.9075 70.8616 53.0391 70.6163 53.247C70.3709 53.455 70.1917 53.7301 70.1009 54.0387C70.01 54.3472 70.0114 54.6756 70.1049 54.9833C70.5049 56.2393 72.0809 55.7553 72.1049 54.8033C72.1689 52.7153 72.9849 53.2353 72.9849 53.2353L73.1249 57.7873L74.2769 59.8753L83.3289 71.8153L86.0009 67.5353L92.8289 74.2393L88.1769 79.4393C87.4981 80.216 86.6415 80.8171 85.6803 81.1914C84.719 81.5657 83.6815 81.7021 82.6562 81.5889C81.6308 81.4758 80.648 81.1165 79.7915 80.5416C78.935 79.9667 78.2301 79.1933 77.7369 78.2873L68.4929 61.1033Z" fill="#FFBE9D"/>
<path d="M135.098 52.5161C126.482 52.0201 112.59 50.9161 111.498 51.2881C111.498 51.2881 112.466 57.6881 106.606 58.6121C100.746 59.5361 98.6058 53.7241 98.6058 53.7241C98.6058 53.7241 92.6058 55.4321 90.3818 59.1201C88.1578 62.8081 85.4258 66.9361 85.4258 66.9361L93.4818 74.8561L95.7338 72.3841L97.3618 77.7921L96.3258 83.1121L116.598 84.0601L117.998 60.7601L135.118 59.3521L135.098 52.5161Z" fill="#455A64"/>
<path d="M93.4641 64.7109C93.5241 64.7109 94.4321 67.5429 95.4881 71.0749C96.5441 74.6069 97.3521 77.4749 97.2921 77.5029C97.2321 77.5309 96.3241 74.6749 95.2681 71.1389C94.2121 67.6029 93.4041 64.7309 93.4641 64.7109Z" fill="#263238"/>
<path d="M121.877 55.668C121.921 55.728 120.568 56.528 119.436 58.068C118.304 59.608 117.884 61.096 117.812 61.068C117.845 60.7285 117.932 60.3964 118.069 60.084C118.355 59.3118 118.753 58.5855 119.248 57.928C119.746 57.2708 120.335 56.6876 120.996 56.196C121.258 55.9718 121.556 55.7933 121.877 55.668Z" fill="#263238"/>
<path d="M102.776 69.2516C102.765 69.2335 102.758 69.2129 102.756 69.1916C102.752 69.1828 102.75 69.1733 102.75 69.1636C102.75 69.1539 102.752 69.1444 102.756 69.1356C102.758 69.1137 102.768 69.0933 102.783 69.0774C102.798 69.0614 102.818 69.051 102.84 69.0476C102.865 69.045 102.89 69.048 102.913 69.0563C102.937 69.0646 102.958 69.078 102.976 69.0956C102.99 69.1088 103.004 69.1208 103.02 69.1316C103.085 69.1998 103.164 69.2525 103.252 69.2858C103.34 69.319 103.434 69.3319 103.528 69.3236C103.596 69.3107 103.661 69.2838 103.718 69.2445C103.775 69.2053 103.824 69.1545 103.86 69.0956C103.899 69.0374 103.925 68.9718 103.937 68.903C103.95 68.8343 103.948 68.7637 103.932 68.6956C103.91 68.5864 103.854 68.487 103.772 68.4116C103.681 68.3404 103.576 68.2886 103.464 68.2596C103.316 68.2076 103.228 68.1796 103.2 68.1636C103.139 68.1403 103.081 68.1094 103.028 68.0716C102.967 68.0298 102.915 67.976 102.875 67.9134C102.835 67.8508 102.808 67.7808 102.796 67.7076V67.6436C102.774 67.478 102.817 67.3103 102.916 67.1756C103.01 67.0376 103.153 66.9404 103.316 66.9036C103.389 66.8915 103.463 66.8915 103.536 66.9036C103.688 66.9146 103.831 66.9816 103.936 67.0916C103.952 67.112 103.964 67.135 103.972 67.1596C103.978 67.1805 103.978 67.2027 103.972 67.2236C103.965 67.2443 103.953 67.2628 103.937 67.2775C103.921 67.2922 103.901 67.3026 103.88 67.3076C103.866 67.315 103.85 67.3188 103.834 67.3188C103.818 67.3188 103.802 67.315 103.788 67.3076C103.735 67.2583 103.671 67.2213 103.602 67.1992C103.533 67.1771 103.46 67.1704 103.388 67.1796C103.287 67.2014 103.198 67.2616 103.14 67.3476C103.105 67.3951 103.08 67.4498 103.068 67.5079C103.056 67.5661 103.058 67.6261 103.072 67.6836C103.085 67.7557 103.124 67.8209 103.18 67.8676C103.266 67.9295 103.362 67.9768 103.464 68.0076C103.58 68.0418 103.692 68.086 103.8 68.1396C103.909 68.1849 104.006 68.2558 104.082 68.3464C104.157 68.4369 104.21 68.5443 104.236 68.6596C104.242 68.7101 104.242 68.7611 104.236 68.8116C104.239 68.9946 104.175 69.1722 104.056 69.3116C103.942 69.4575 103.781 69.5593 103.6 69.5996C103.478 69.6248 103.351 69.6179 103.232 69.5796C103.049 69.5207 102.89 69.406 102.776 69.2516Z" fill="white"/>
<path d="M106.528 68.7993C106.533 68.8164 106.533 68.8342 106.53 68.8515C106.527 68.8689 106.52 68.8854 106.51 68.9C106.501 68.9146 106.488 68.9271 106.473 68.9366C106.458 68.9461 106.442 68.9525 106.424 68.9553C106.401 68.9636 106.376 68.9636 106.352 68.9553C106.326 68.9447 106.304 68.9271 106.287 68.9046C106.27 68.882 106.259 68.8553 106.256 68.8273C106.256 68.8073 106.208 68.3393 106.124 67.4273C105.976 68.0393 105.86 68.5233 105.78 68.8753C105.76 68.9513 105.752 68.9953 105.748 69.0033C105.743 69.0325 105.73 69.0596 105.71 69.0816C105.691 69.1035 105.665 69.1194 105.636 69.1273H105.6C105.572 69.1244 105.546 69.1139 105.523 69.097C105.501 69.0801 105.483 69.0574 105.472 69.0313L104.88 67.6793C104.924 68.1993 104.956 68.6833 104.976 69.1193C104.976 69.2073 104.948 69.2593 104.868 69.2753C104.845 69.2833 104.82 69.2833 104.796 69.2753C104.77 69.2647 104.748 69.2471 104.731 69.2246C104.714 69.202 104.703 69.1753 104.7 69.1473C104.7 69.1473 104.648 68.5193 104.556 67.2953C104.532 66.9793 104.52 66.8113 104.52 66.7873C104.514 66.7678 104.514 66.7468 104.52 66.7273C104.527 66.7034 104.54 66.6818 104.558 66.6654C104.577 66.649 104.6 66.6385 104.624 66.6353H104.664C104.684 66.6341 104.704 66.6388 104.721 66.6488C104.738 66.6587 104.752 66.6735 104.76 66.6913L105.208 67.7353L105.552 68.5353L106.052 66.4313C106.049 66.4182 106.049 66.4045 106.052 66.3913C106.061 66.3692 106.075 66.3496 106.093 66.3343C106.112 66.3189 106.133 66.3083 106.156 66.3033C106.177 66.2973 106.2 66.2973 106.22 66.3033C106.244 66.3096 106.266 66.3222 106.284 66.3398C106.302 66.3574 106.314 66.3793 106.32 66.4033C106.32 66.4353 106.32 66.4753 106.32 66.5153C106.454 67.87 106.523 68.6313 106.528 68.7993Z" fill="white"/>
<path d="M107.461 68.6076C107.461 68.6996 107.425 68.7556 107.353 68.7716C107.328 68.7795 107.302 68.7795 107.277 68.7716C107.252 68.76 107.23 68.7421 107.214 68.7197C107.198 68.6973 107.188 68.6711 107.185 68.6436L107.009 66.2836C107.007 66.2663 107.007 66.2489 107.009 66.2316C107.013 66.2049 107.025 66.1802 107.044 66.1608C107.062 66.1414 107.087 66.1284 107.113 66.1236C107.135 66.1177 107.159 66.1177 107.181 66.1236C107.204 66.1285 107.224 66.1397 107.241 66.156C107.257 66.1724 107.268 66.193 107.273 66.2156C107.396 67.7569 107.459 68.5543 107.461 68.6076Z" fill="white"/>
<path d="M109.394 68.3396L108.27 68.5755C108.245 68.5832 108.219 68.5832 108.194 68.5755C108.171 68.562 108.151 68.5441 108.135 68.5228C108.12 68.5015 108.108 68.4773 108.102 68.4516C108.102 68.4089 108.043 67.6222 107.926 66.0915C107.926 66.0915 107.926 66.0595 107.926 66.0435C107.93 66.0169 107.942 65.9921 107.96 65.9727C107.979 65.9533 108.003 65.9403 108.03 65.9355H108.094C108.118 65.9424 108.139 65.9557 108.156 65.9741C108.173 65.9924 108.185 66.0151 108.19 66.0396C108.19 66.1436 108.222 66.3595 108.246 66.6875C108.326 67.6915 108.366 68.2235 108.374 68.2875L109.326 68.0875C109.351 68.0816 109.377 68.0816 109.402 68.0875C109.429 68.0919 109.455 68.1046 109.475 68.124C109.495 68.1433 109.508 68.1683 109.514 68.1956C109.52 68.2331 109.511 68.2715 109.489 68.3028C109.468 68.334 109.435 68.3558 109.398 68.3635L109.394 68.3396Z" fill="white"/>
<path d="M109.74 65.5628L110.808 65.3388C110.83 65.335 110.851 65.335 110.872 65.3388C110.902 65.3395 110.93 65.3508 110.952 65.3706C110.974 65.3904 110.989 65.4174 110.992 65.4468C110.996 65.4639 110.996 65.4817 110.992 65.4988C110.985 65.5268 110.971 65.5524 110.95 65.5728C110.93 65.5932 110.904 65.6077 110.876 65.6148L109.916 65.8188L109.988 66.7548L110.68 66.6068H110.756C110.784 66.6108 110.809 66.6235 110.828 66.6429C110.848 66.6624 110.86 66.6876 110.864 66.7148C110.868 66.7292 110.868 66.7444 110.864 66.7588C110.859 66.7879 110.845 66.8148 110.824 66.8361C110.804 66.8575 110.777 66.8723 110.748 66.8788L110.012 67.0348L110.08 67.9108L111.032 67.7108C111.056 67.7049 111.081 67.7049 111.104 67.7108C111.133 67.7132 111.16 67.7251 111.181 67.7447C111.202 67.7643 111.216 67.7904 111.22 67.8188V67.8628C111.215 67.8925 111.201 67.92 111.181 67.942C111.16 67.964 111.134 67.9795 111.104 67.9868L109.992 68.2188C109.966 68.2268 109.938 68.2268 109.912 68.2188C109.887 68.2072 109.866 68.1893 109.85 68.1669C109.833 68.1445 109.823 68.1183 109.82 68.0908C109.82 68.0908 109.752 67.2908 109.632 65.7308C109.63 65.7149 109.63 65.6987 109.632 65.6828C109.635 65.6537 109.646 65.6261 109.666 65.6044C109.685 65.5827 109.712 65.568 109.74 65.5628Z" fill="white"/>
<path d="M112.894 64.9086C112.915 64.9028 112.937 64.9028 112.958 64.9086C112.981 64.9159 113.002 64.9289 113.018 64.9463C113.035 64.9638 113.047 64.9852 113.054 65.0086C113.174 66.4966 113.238 67.2966 113.246 67.4086C113.259 67.6356 113.221 67.8627 113.134 68.0726C113.074 68.2081 112.982 68.3266 112.866 68.4174C112.749 68.5082 112.611 68.5684 112.466 68.5926C112.312 68.613 112.156 68.5984 112.009 68.55C111.863 68.5015 111.729 68.4203 111.618 68.3126C111.604 68.2933 111.595 68.2716 111.59 68.2486C111.584 68.225 111.584 68.2003 111.59 68.1766C111.597 68.1544 111.61 68.1346 111.628 68.1191C111.645 68.1036 111.667 68.0931 111.69 68.0886C111.71 68.0847 111.731 68.0856 111.751 68.0911C111.771 68.0967 111.79 68.1068 111.806 68.1206C111.888 68.2046 111.99 68.2673 112.102 68.3035C112.214 68.3397 112.333 68.3484 112.45 68.3286C112.536 68.3092 112.617 68.2703 112.687 68.2148C112.756 68.1594 112.812 68.0889 112.85 68.0086C112.96 67.7715 112.995 67.5062 112.95 67.2486C112.919 67.3258 112.875 67.3974 112.822 67.4606C112.722 67.5704 112.591 67.646 112.446 67.6766H112.37C112.277 67.6801 112.184 67.6625 112.099 67.6251C112.014 67.5877 111.938 67.5315 111.878 67.4606C111.699 67.2613 111.58 67.0161 111.534 66.7526C111.506 66.6166 111.482 66.4766 111.466 66.3286C111.438 66.0966 111.422 65.7646 111.414 65.3286C111.412 65.3154 111.412 65.3019 111.414 65.2886C111.415 65.2609 111.425 65.2344 111.444 65.2134C111.462 65.1923 111.486 65.178 111.514 65.1726C111.536 65.1667 111.559 65.1667 111.582 65.1726C111.604 65.1777 111.624 65.1891 111.639 65.2055C111.655 65.2218 111.665 65.2424 111.67 65.2646C111.696 65.4382 111.712 65.6132 111.718 65.7886C111.728 66.0565 111.753 66.3236 111.794 66.5886C111.83 66.7978 111.907 66.9977 112.022 67.1766C112.06 67.2468 112.119 67.3037 112.19 67.3401C112.262 67.3764 112.342 67.3906 112.422 67.3806H112.466C112.597 67.3058 112.695 67.1845 112.742 67.0406C112.836 66.8277 112.887 66.5977 112.89 66.3646L112.79 65.0526C112.788 65.0327 112.788 65.0126 112.79 64.9926C112.797 64.9704 112.811 64.9508 112.83 64.936C112.848 64.9212 112.87 64.9117 112.894 64.9086Z" fill="white"/>
<path d="M103.792 49.2585C104.556 50.2945 104.272 51.7585 103.768 52.9385C103.264 54.1185 102.568 55.2785 102.568 56.5625C102.568 57.7625 103.184 58.8825 103.66 59.9985C104.136 61.1145 104.46 62.4345 103.888 63.5025C103.264 64.6625 101.748 65.2025 101.316 66.4465C100.804 67.9265 102.116 69.6865 101.34 71.0545C100.82 71.9945 99.4599 72.2545 98.5119 71.7265C98.0545 71.4416 97.6699 71.0538 97.3887 70.5941C97.1075 70.1344 96.9374 69.6155 96.8919 69.0785C96.8121 68.0016 96.919 66.919 97.2079 65.8785C97.5439 64.3625 97.8839 62.6305 96.9759 61.3705C96.4399 60.6305 95.5199 60.1705 95.2239 59.2905C94.8719 58.2665 95.5559 57.1785 96.3239 56.4145C97.0919 55.6505 98.0199 54.9465 98.3239 53.9105C98.5085 53.1 98.4656 52.2542 98.1999 51.4665C97.939 50.6793 97.804 49.8558 97.7999 49.0265C97.8559 48.2025 98.3159 47.3385 99.1039 47.0905C100.216 46.7385 101.272 47.6945 102.048 48.5625" fill="#FFAF1E"/>
<path d="M93.4609 87.8793C93.4609 88.1713 106.429 87.8793 106.429 87.8793L106.933 84.7153L96.5929 81.6113C96.5929 81.6113 93.6009 85.2593 93.4609 87.8793Z" fill="#FFAF1E"/>
<path d="M106.934 84.7244L116.674 82.4844C116.674 82.4844 119.322 87.0124 118.806 91.2844L106.43 87.8684L106.934 84.7244Z" fill="#FFAF1E"/>
<path d="M108.173 87.2965C109.05 87.7768 109.776 88.4911 110.27 89.3598C110.765 90.2285 111.008 91.2175 110.973 92.2165C110.941 92.8485 110.793 93.4765 110.805 94.1085C110.791 94.4251 110.848 94.7409 110.974 95.032C111.099 95.3231 111.289 95.5818 111.529 95.7885C112.057 96.1885 112.933 96.3085 112.997 96.9565C112.998 97.24 112.891 97.5132 112.697 97.7205C112.133 98.4445 111.197 99.0045 110.297 98.7525C109.313 98.4765 108.841 97.3725 108.577 96.3805C107.777 93.3285 107.685 90.1365 107.605 86.9805" fill="#FFAF1E"/>
<g opacity="0.3">
<path d="M108.403 87.4316C109.247 87.8994 109.937 88.6016 110.391 89.4534C110.845 90.3052 111.042 91.2702 110.959 92.2316C110.927 92.8636 110.779 93.4916 110.791 94.1236C110.776 94.4403 110.833 94.7561 110.959 95.0471C111.084 95.3382 111.274 95.5969 111.515 95.8036C112.043 96.2036 112.919 96.3236 112.983 96.9716C112.983 97.2552 112.876 97.5283 112.683 97.7356C112.119 98.4596 111.183 99.0196 110.283 98.7676C109.299 98.4916 108.827 97.3876 108.563 96.3956C107.763 93.3436 108.055 91.1476 107.975 87.9956" fill="black"/>
</g>
<path d="M105.6 87.2277C103.674 91.4657 103.389 96.2676 104.8 100.704C104.918 101.236 105.206 101.717 105.62 102.072C106.336 102.58 107.32 102.288 108.14 101.984C109.192 101.584 110.36 101.088 110.756 100.036C110.949 99.4486 110.942 98.8144 110.736 98.2317C110.384 97.0637 109.596 96.0477 109.332 94.8597C109.096 93.7837 109.304 92.6677 109.248 91.5717C109.194 90.6072 108.935 89.6653 108.491 88.8076C108.046 87.95 107.425 87.1962 106.668 86.5957" fill="#FFAF1E"/>
<g opacity="0.3">
<path d="M105.334 87.5995C105.379 87.8296 105.474 88.0471 105.612 88.2365C105.75 88.4259 105.928 88.5825 106.134 88.6955C106.344 88.8041 106.578 88.8571 106.814 88.8493C107.05 88.8416 107.28 88.7735 107.482 88.6515C107.681 88.5268 107.838 88.3468 107.936 88.1335C108.033 87.9202 108.066 87.6831 108.03 87.4515C107.652 87.8038 107.155 87.9996 106.638 87.9995C106.12 87.9995 105.623 87.7987 105.25 87.4395" fill="black"/>
</g>
<path d="M108.544 85.9387C108.236 85.0707 107.124 84.2307 106.212 84.3587H106.232C105.962 84.3612 105.697 84.4332 105.463 84.5678C105.229 84.7023 105.034 84.8948 104.896 85.1267C104.724 85.5147 104.665 85.9434 104.727 86.3632C104.788 86.7831 104.967 87.1771 105.242 87.4998C105.518 87.8226 105.879 88.0609 106.284 88.1874C106.689 88.3138 107.121 88.3233 107.532 88.2147C107.953 88.0283 108.289 87.6922 108.476 87.2717C108.663 86.8511 108.687 86.376 108.544 85.9387Z" fill="#FFAF1E"/>
<path d="M105.09 87.4789C105.244 87.5463 105.39 87.6337 105.522 87.7389C105.888 88.0002 106.315 88.1652 106.762 88.2189C107.064 88.2515 107.37 88.2003 107.646 88.0709C107.951 87.9092 108.182 87.6374 108.294 87.3109C108.427 86.9341 108.46 86.5294 108.389 86.1361C108.319 85.7429 108.149 85.3745 107.894 85.0669C107.635 84.7638 107.292 84.5441 106.908 84.4352C106.525 84.3263 106.117 84.3332 105.738 84.4549C105.431 84.562 105.158 84.7488 104.947 84.9963C104.736 85.2437 104.595 85.5428 104.538 85.8629C104.473 86.3066 104.575 86.7587 104.826 87.1309C104.926 87.2636 105.035 87.3905 105.15 87.5109C105.15 87.5109 105.106 87.5109 105.034 87.4469C104.932 87.3694 104.841 87.2794 104.762 87.1789C104.467 86.7999 104.333 86.3198 104.39 85.8429C104.445 85.4899 104.595 85.1583 104.822 84.8826C105.049 84.6068 105.346 84.397 105.682 84.2749C106.098 84.1334 106.547 84.1203 106.971 84.2373C107.394 84.3542 107.773 84.5959 108.058 84.9309C108.339 85.2654 108.527 85.6685 108.602 86.0992C108.677 86.5299 108.637 86.9728 108.486 87.3829C108.355 87.7506 108.087 88.0532 107.738 88.2269C107.433 88.3612 107.096 88.4082 106.766 88.3629C106.298 88.2993 105.857 88.1053 105.494 87.8029C105.348 87.7098 105.212 87.6011 105.09 87.4789Z" fill="#263238"/>
<path d="M106.68 84.3189C106.7 84.3469 106.504 84.4869 106.28 84.7789C105.973 85.1579 105.774 85.6125 105.704 86.0949C105.646 86.5794 105.722 87.0706 105.924 87.5149C106.076 87.8589 106.232 88.0469 106.208 88.0669C106.184 88.0869 105.992 87.9309 105.808 87.5829C105.549 87.1239 105.445 86.5936 105.512 86.0709C105.585 85.5483 105.821 85.0623 106.188 84.6829C106.436 84.3989 106.668 84.2989 106.68 84.3189Z" fill="#263238"/>
<path d="M110.653 97.5142C110.653 97.5142 110.625 97.6142 110.541 97.7742C110.421 97.9995 110.28 98.2137 110.121 98.4142C109.603 99.0878 108.959 99.6543 108.225 100.082C107.486 100.513 106.672 100.798 105.825 100.922C105.571 100.958 105.314 100.974 105.057 100.97C104.877 100.97 104.777 100.97 104.777 100.942C104.777 100.914 105.177 100.898 105.797 100.774C107.435 100.453 108.916 99.5894 110.001 98.3222C110.401 97.8382 110.621 97.4982 110.653 97.5142Z" fill="#263238"/>
<path d="M107.401 102.255C107.381 102.307 106.957 102.119 106.701 101.639C106.607 101.506 106.546 101.354 106.523 101.193C106.499 101.033 106.514 100.869 106.565 100.715C106.625 100.715 106.649 101.115 106.881 101.539C107.113 101.963 107.433 102.203 107.401 102.255Z" fill="#263238"/>
<path d="M109.293 101.092C109.293 101.144 108.861 101.032 108.593 100.612C108.325 100.192 108.381 99.7636 108.437 99.7756C108.493 99.7876 108.529 100.14 108.765 100.496C109.001 100.852 109.317 101.036 109.293 101.092Z" fill="#263238"/>
<path d="M110.4 100.659C110.343 100.353 110.264 100.053 110.164 99.7588C109.96 99.2908 109.732 98.9188 109.788 98.8828C110.053 99.0867 110.251 99.3653 110.356 99.6828C110.454 99.9013 110.501 100.139 110.492 100.379C110.472 100.559 110.42 100.667 110.4 100.659Z" fill="#263238"/>
<path d="M107.945 97.5241C107.872 97.4272 107.811 97.3209 107.765 97.2081C107.615 96.9146 107.481 96.6128 107.365 96.3041C106.592 94.2648 106.299 92.0748 106.509 89.9041C106.553 89.5041 106.601 89.1561 106.649 88.9281C106.66 88.8076 106.691 88.6898 106.741 88.5801C106.773 88.5801 106.701 89.0921 106.657 89.9161C106.599 90.9842 106.639 92.0554 106.777 93.1161C106.922 94.1779 107.165 95.2238 107.505 96.2401C107.773 97.0361 107.977 97.5081 107.945 97.5241Z" fill="#263238"/>
<g opacity="0.3">
<path d="M106.66 88.916C105.868 91.1931 105.868 93.6709 106.66 95.948C106.7 96.064 106.752 96.196 106.868 96.236C106.904 96.2443 106.942 96.2454 106.978 96.2392C107.014 96.233 107.049 96.2196 107.08 96.1999C107.112 96.1802 107.139 96.1545 107.16 96.1244C107.181 96.0942 107.196 96.0601 107.204 96.024C107.235 95.8762 107.225 95.7228 107.176 95.58C106.684 93.52 106.316 91.056 106.688 88.968" fill="black"/>
</g>
<path d="M98.666 85.1995C98.94 85.1277 99.2229 85.0953 99.506 85.1035C100.184 85.083 100.862 85.1164 101.534 85.2035C102.212 85.2894 102.881 85.4326 103.534 85.6315C103.815 85.6937 104.084 85.7975 104.334 85.9395C104.334 85.9995 103.09 85.6115 101.534 85.4115C99.978 85.2115 98.67 85.2555 98.666 85.1995Z" fill="#263238"/>
<path d="M112.634 85.2761C112.634 85.3361 111.698 85.4281 110.566 85.6561C109.434 85.8841 108.53 86.1601 108.51 86.1041C109.136 85.7783 109.812 85.558 110.51 85.4521C111.204 85.2798 111.921 85.2204 112.634 85.2761Z" fill="#263238"/>
<path d="M116.628 88.1008C116.228 87.9923 115.836 87.8587 115.452 87.7008C114.514 87.3669 113.556 87.0891 112.584 86.8688C111.611 86.6536 110.625 86.4973 109.632 86.4008C109.218 86.3824 108.806 86.3397 108.396 86.2728C108.811 86.2268 109.23 86.2268 109.644 86.2728C110.649 86.3226 111.647 86.4564 112.628 86.6728C113.611 86.8905 114.573 87.1916 115.504 87.5728C115.897 87.7081 116.274 87.8851 116.628 88.1008Z" fill="#263238"/>
<g opacity="0.3">
<path d="M112.996 83.3753C113.212 86.7513 115.112 89.2993 117.976 91.1033L118.804 91.3033C118.868 91.1753 118.76 90.8273 118.712 90.6913C118.117 89 117.391 87.3576 116.54 85.7793C116.14 85.0713 115.976 83.3313 115.388 82.7793L112.988 83.3753" fill="black"/>
</g>
<path d="M105.601 102.752C105.657 102.752 105.233 105.724 104.653 109.376C104.073 113.028 103.561 115.976 103.505 115.968C103.449 115.96 103.869 112.992 104.449 109.34C105.029 105.688 105.557 102.74 105.601 102.752Z" fill="#455A64"/>
<path d="M99.6888 84.9429C99.6688 84.9429 99.5808 84.8509 99.5088 84.6469C99.4185 84.3788 99.4033 84.0911 99.4648 83.8149C99.5291 83.5355 99.6672 83.2786 99.8648 83.0709C100.017 82.9149 100.141 82.8589 100.153 82.8789C99.9247 83.1654 99.766 83.5008 99.6889 83.8589C99.6119 84.2169 99.6187 84.5879 99.7088 84.9429H99.6888Z" fill="#FAFAFA"/>
<path d="M100.668 87.9077C100.668 87.9077 100.516 87.8396 100.38 87.6236C100.206 87.3346 100.145 86.9913 100.208 86.6597C100.272 86.3282 100.455 86.0318 100.724 85.8277C100.928 85.6757 101.088 85.6476 101.096 85.6716C101.104 85.6956 100.98 85.7757 100.82 85.9397C100.613 86.1437 100.472 86.406 100.417 86.6917C100.362 86.9775 100.395 87.2732 100.512 87.5397C100.6 87.7677 100.692 87.8837 100.668 87.9077Z" fill="#FAFAFA"/>
<path d="M103.828 87.8624C103.828 87.8824 103.692 87.8384 103.552 87.6824C103.38 87.4723 103.284 87.21 103.28 86.9384C103.27 86.6661 103.354 86.3987 103.52 86.1824C103.652 86.0224 103.772 85.9704 103.788 85.9904C103.804 86.0104 103.728 86.1024 103.644 86.2624C103.537 86.469 103.483 86.6992 103.488 86.932C103.493 87.1648 103.556 87.3925 103.672 87.5944C103.764 87.7504 103.848 87.8344 103.828 87.8624Z" fill="#FAFAFA"/>
<path d="M95.9523 87.9704C95.8387 87.6743 95.7817 87.3595 95.7843 87.0424C95.7018 85.5042 96.1968 83.9906 97.1722 82.7984C97.3599 82.5449 97.59 82.3256 97.8523 82.1504C97.8763 82.1784 97.6242 82.4304 97.2882 82.8904C96.8532 83.4907 96.5132 84.1545 96.2802 84.8584C96.0511 85.5624 95.9337 86.298 95.9322 87.0384C95.9322 87.5984 96.0003 87.9624 95.9523 87.9704Z" fill="#FAFAFA"/>
<path d="M102.429 85.8716C102.429 85.8716 102.297 85.8036 102.197 85.6036C102.076 85.3332 102.046 85.0306 102.113 84.7418C102.179 84.453 102.338 84.1938 102.565 84.0036C102.745 83.8676 102.889 83.8436 102.897 83.8636C102.905 83.8836 102.801 83.9636 102.665 84.1116C102.494 84.3043 102.373 84.5366 102.313 84.7876C102.258 85.0388 102.265 85.2997 102.333 85.5476C102.401 85.7396 102.457 85.8516 102.429 85.8716Z" fill="#FAFAFA"/>
<path d="M111.425 85.1993C111.369 85.1993 111.425 84.8513 111.365 84.4513C111.305 84.0513 111.169 83.7473 111.221 83.7153C111.273 83.6833 111.513 83.9713 111.573 84.4233C111.633 84.8753 111.477 85.1993 111.425 85.1993Z" fill="#FAFAFA"/>
<path d="M112.168 86.5368C112.144 86.5888 111.864 86.4528 111.768 86.1168C111.672 85.7808 111.804 85.5048 111.856 85.5288C111.908 85.5528 111.856 85.7848 111.968 86.0528C112.08 86.3208 112.204 86.4888 112.168 86.5368Z" fill="#FAFAFA"/>
<path d="M113.549 89.8562C113.477 89.8562 113.729 89.2162 113.673 88.4442C113.617 87.6722 113.273 87.1082 113.321 87.0762C113.662 87.4465 113.86 87.9255 113.881 88.4282C113.941 88.9284 113.823 89.4337 113.549 89.8562Z" fill="#FAFAFA"/>
<path d="M106.673 93.2961C106.673 93.2961 106.569 93.4281 106.329 93.5401C106.016 93.6802 105.675 93.7433 105.333 93.7241C104.99 93.7084 104.656 93.6125 104.357 93.4441C104.133 93.3081 104.025 93.1841 104.041 93.1641C104.444 93.3734 104.888 93.4936 105.342 93.5163C105.796 93.5391 106.25 93.464 106.673 93.2961Z" fill="#FAFAFA"/>
<path d="M109.005 91.2467C108.602 91.1369 108.182 91.0963 107.765 91.1267C107.359 91.2161 106.97 91.37 106.613 91.5827C106.613 91.5827 106.669 91.4347 106.861 91.2827C107.118 91.0889 107.42 90.9636 107.738 90.9188C108.057 90.874 108.381 90.9112 108.681 91.0267C108.905 91.1187 109.017 91.2227 109.005 91.2467Z" fill="#FAFAFA"/>
<path d="M107.376 96.6036C107.396 96.6036 107.332 96.8076 107.14 97.0716C106.879 97.413 106.541 97.6872 106.152 97.8716C105.767 98.0612 105.342 98.1545 104.912 98.1436C104.734 98.1527 104.556 98.1155 104.396 98.0356C104.972 98.0549 105.544 97.9344 106.063 97.6843C106.582 97.4342 107.033 97.062 107.376 96.5996V96.6036Z" fill="#FAFAFA"/>
<path d="M109.464 95.3787C109.464 95.4427 108.924 95.3547 108.308 95.5267C107.941 95.6602 107.582 95.8151 107.232 95.9906C107.495 95.6699 107.851 95.4386 108.251 95.329C108.651 95.2194 109.075 95.2367 109.464 95.3787Z" fill="#FAFAFA"/>
<path d="M93.6651 87.956C93.3969 87.7167 93.2085 87.4008 93.1255 87.051C93.0426 86.7012 93.0689 86.3343 93.2011 86C93.2611 86 93.2011 86.472 93.3371 87.008C93.4731 87.544 93.7131 87.916 93.6651 87.956Z" fill="#FAFAFA"/>
<path d="M159.072 67.571C158.71 67.1838 158.496 66.6808 158.468 66.151C158.444 65.6253 158.351 65.105 158.192 64.603C158.127 64.4149 158.011 64.2487 157.856 64.123C157.779 64.0613 157.686 64.021 157.588 64.0063C157.489 63.9915 157.389 64.0028 157.296 64.039C157.201 64.0905 157.122 64.1668 157.067 64.2598C157.012 64.3528 156.984 64.459 156.984 64.567C157.016 65.3144 157.089 66.0594 157.2 66.799L159.072 67.571Z" fill="#FFBE9D"/>
<path d="M159.073 67.5704C159.073 67.5704 158.917 67.5144 158.589 67.4024C158.261 67.2904 157.761 67.1184 157.169 66.8824H157.125V66.8464C157.049 66.4402 156.995 66.0303 156.961 65.6184C156.961 65.3984 156.925 65.1744 156.905 64.9424C156.899 64.8212 156.899 64.6997 156.905 64.5784C156.908 64.4372 156.948 64.2992 157.021 64.1784C157.071 64.0956 157.14 64.0266 157.223 63.9777C157.307 63.9288 157.401 63.9015 157.497 63.8984C157.678 63.8976 157.853 63.963 157.989 64.0824C158.206 64.3018 158.353 64.58 158.413 64.8824C158.545 65.4384 158.533 65.9424 158.601 66.3504C158.651 66.7891 158.822 67.2049 159.097 67.5504L159.013 67.5024C158.943 67.4417 158.88 67.3733 158.825 67.2984C158.635 67.0172 158.508 66.6978 158.453 66.3624C158.365 65.9424 158.361 65.4384 158.225 64.9184C158.173 64.6524 158.043 64.4076 157.853 64.2144C157.812 64.1649 157.76 64.1259 157.702 64.1007C157.643 64.0755 157.579 64.0647 157.515 64.0694C157.451 64.0741 157.389 64.0941 157.334 64.1277C157.28 64.1613 157.234 64.2075 157.201 64.2624C157.106 64.4586 157.079 64.6812 157.125 64.8944L157.177 65.5664C157.217 65.9944 157.245 66.4224 157.305 66.7664L157.257 66.7144C157.793 66.9424 158.225 67.1584 158.553 67.3144L159.073 67.5704Z" fill="#EB996E"/>
<path d="M158.827 80.4687C161.951 68.0493 154.416 55.4487 141.996 52.3245C129.577 49.2004 116.976 56.7357 113.852 69.1552C110.728 81.5746 118.263 94.1752 130.683 97.2994C143.102 100.424 155.703 92.8882 158.827 80.4687Z" fill="#FFAF1E"/>
<g opacity="0.3">
<path d="M157.72 72.4883C157.996 72.4883 158.316 73.0843 158.52 74.2603C158.781 75.9335 158.758 77.6387 158.452 79.3043C158.384 79.8403 158.232 80.3803 158.104 80.9563C157.976 81.5323 157.768 82.1123 157.576 82.7203C157.116 84.0006 156.543 85.2375 155.864 86.4163C154.294 89.1651 152.139 91.5347 149.551 93.3569C146.962 95.1792 144.005 96.4094 140.888 96.9603C139.55 97.2053 138.192 97.3284 136.832 97.3283C135.654 97.3164 134.479 97.2067 133.32 97.0003C131.65 96.7271 130.039 96.1754 128.552 95.3683C127.516 94.7683 127.048 94.2603 127.156 94.0043C127.396 93.4203 129.808 94.0923 133.588 94.0683C134.61 94.0577 135.632 93.9936 136.648 93.8763C137.799 93.7314 138.939 93.5096 140.06 93.2123C145.192 91.9137 149.663 88.7657 152.616 84.3723C153.271 83.4158 153.863 82.4177 154.388 81.3843C154.616 80.8883 154.86 80.4123 155.056 79.9403C155.252 79.4683 155.456 79.0163 155.596 78.5683C156.908 75.0163 157.088 72.5163 157.72 72.4883Z" fill="black"/>
</g>
<g opacity="0.3">
<path d="M135.282 53.3881C135.282 53.4641 134.774 53.4921 133.878 53.5601C132.616 53.6544 131.365 53.8551 130.138 54.1601C129.296 54.3771 128.468 54.6442 127.658 54.9601C126.733 55.323 125.834 55.7507 124.97 56.2401C120.965 58.4744 117.923 62.1055 116.426 66.4401C116.09 67.3756 115.823 68.3341 115.626 69.3081C115.459 70.1603 115.346 71.0219 115.286 71.8881C115.199 73.1489 115.22 74.4149 115.35 75.6721C115.442 76.5681 115.502 77.0721 115.426 77.0881C115.35 77.1041 115.166 76.6361 114.95 75.7401C114.66 74.4677 114.526 73.1648 114.55 71.8601C114.562 70.956 114.637 70.0539 114.774 69.1601C114.939 68.1317 115.185 67.118 115.51 66.1281C116.991 61.516 120.216 57.6659 124.498 55.4001C125.416 54.9107 126.371 54.4921 127.354 54.1481C128.219 53.8514 129.104 53.6148 130.002 53.4401C131.281 53.1873 132.587 53.0919 133.89 53.1561C134.802 53.2001 135.29 53.3241 135.282 53.3881Z" fill="white"/>
</g>
<g opacity="0.3">
<path d="M117.268 82.7387C117.032 82.8987 116.352 82.2867 116 81.2627C115.648 80.2387 115.804 79.3427 116.088 79.3227C116.372 79.3027 116.676 80.0387 116.988 80.9227C117.3 81.8067 117.512 82.5787 117.268 82.7387Z" fill="white"/>
</g>
<path d="M143.289 71.9313C143.225 72.1524 143.12 72.3598 142.981 72.5433C142.643 73.0719 142.24 73.5557 141.781 73.9833C140.27 75.4324 138.288 76.2877 136.197 76.392C134.106 76.4964 132.048 75.8428 130.401 74.5513C129.907 74.1692 129.461 73.7287 129.073 73.2393C128.917 73.0701 128.793 72.8734 128.709 72.6593C128.769 72.6073 129.325 73.4193 130.577 74.3153C131.309 74.8275 132.11 75.2316 132.957 75.5153C135.043 76.245 137.331 76.1301 139.333 75.1953C140.148 74.8255 140.906 74.339 141.581 73.7513C142.753 72.7513 143.221 71.8873 143.289 71.9313Z" fill="white"/>
<path d="M150.597 68.6751C150.513 68.6751 150.501 67.9631 149.897 67.0751C149.546 66.5542 149.084 66.1171 148.545 65.7951C147.9 65.3846 147.141 65.1939 146.379 65.2516C145.618 65.3093 144.895 65.6123 144.321 66.1151C143.837 66.5156 143.447 67.0166 143.177 67.5831C142.713 68.5671 142.813 69.2871 142.729 69.2831C142.645 69.2791 142.661 69.1151 142.649 68.7951C142.646 68.3399 142.733 67.8886 142.905 67.4671C143.158 66.8345 143.559 66.2711 144.073 65.8231C144.698 65.247 145.499 64.8988 146.347 64.8349C147.195 64.771 148.04 64.9952 148.745 65.4711C149.32 65.8351 149.8 66.3316 150.145 66.9191C150.379 67.3088 150.534 67.7411 150.601 68.1911C150.641 68.4991 150.621 68.6751 150.597 68.6751Z" fill="white"/>
<path d="M128.401 69.4271C128.321 69.4271 128.309 68.7191 127.705 67.8271C127.352 67.3074 126.889 66.8717 126.349 66.5511C125.707 66.1378 124.947 65.9453 124.185 66.0031C123.424 66.0608 122.702 66.3656 122.129 66.8711C121.643 67.2698 121.251 67.7711 120.981 68.3391C120.521 69.3231 120.617 70.0391 120.537 70.0351C120.457 70.0311 120.465 69.8671 120.457 69.5471C120.454 69.0932 120.541 68.6432 120.713 68.2231C120.964 67.5886 121.364 67.0245 121.881 66.5791C122.507 66.0037 123.308 65.6556 124.155 65.591C125.003 65.5264 125.848 65.7491 126.553 66.2231C127.129 66.5871 127.609 67.0836 127.953 67.6711C128.188 68.0619 128.344 68.4957 128.409 68.9471C128.449 69.2511 128.429 69.4271 128.401 69.4271Z" fill="white"/>
<path d="M159.6 65.9029C158.8 66.8069 157.968 67.6549 157.252 68.6229C157.072 68.8669 156.884 69.1869 157.028 69.4549C157.084 69.5449 157.166 69.6163 157.263 69.6603C157.359 69.7044 157.467 69.7192 157.572 69.7029C157.781 69.6659 157.978 69.5765 158.144 69.4429C159.028 68.8149 159.612 67.8429 160.176 66.9269C160.274 66.8077 160.343 66.6672 160.378 66.5165C160.413 66.3659 160.412 66.2092 160.376 66.0589C160.341 65.9915 160.291 65.9329 160.23 65.8872C160.17 65.8416 160.099 65.8101 160.025 65.7951C159.951 65.7802 159.874 65.7821 159.8 65.8007C159.726 65.8194 159.658 65.8543 159.6 65.9029Z" fill="#FFBE9D"/>
<path d="M159.601 65.9042C159.601 65.9042 159.697 65.7282 160.001 65.7522C160.094 65.7601 160.182 65.7924 160.258 65.8458C160.334 65.8992 160.395 65.9719 160.433 66.0562C160.471 66.1703 160.483 66.2911 160.47 66.4105C160.457 66.5299 160.419 66.645 160.357 66.7482C160.083 67.2606 159.779 67.7562 159.445 68.2322C159.047 68.8378 158.516 69.3451 157.893 69.7162C157.704 69.8112 157.486 69.834 157.281 69.7802C157.175 69.7505 157.08 69.6897 157.009 69.6056C156.938 69.5214 156.893 69.4179 156.881 69.3082C156.875 69.1114 156.933 68.918 157.045 68.7562C157.138 68.6177 157.238 68.4842 157.345 68.3562C157.745 67.8442 158.145 67.4082 158.485 67.0482L159.285 66.2082C159.379 66.1002 159.483 66.0023 159.597 65.9162C159.53 66.0433 159.445 66.1604 159.345 66.2642C159.173 66.4762 158.913 66.7762 158.589 67.1482C158.265 67.5202 157.885 67.9482 157.493 68.4722C157.305 68.7282 157.061 69.0082 157.093 69.3002C157.103 69.3699 157.133 69.435 157.18 69.4872C157.227 69.5393 157.289 69.5759 157.357 69.5922C157.513 69.6348 157.68 69.6147 157.821 69.5362C158.412 69.1786 158.919 68.6985 159.309 68.1282C159.685 67.6122 159.997 67.1082 160.241 66.6962C160.298 66.6113 160.336 66.5154 160.353 66.4148C160.37 66.3142 160.366 66.2112 160.341 66.1122C160.313 66.0426 160.267 65.9814 160.208 65.9344C160.149 65.8875 160.08 65.8565 160.005 65.8442C159.868 65.816 159.725 65.8373 159.601 65.9042Z" fill="#EB996E"/>
<path d="M160.153 67.2865C159.425 68.2425 158.637 69.1425 157.989 70.1505C157.821 70.4065 157.657 70.7385 157.817 70.9985C157.88 71.084 157.967 71.1494 158.066 71.187C158.165 71.2246 158.273 71.2328 158.377 71.2105C158.583 71.1581 158.772 71.0565 158.929 70.9145C159.773 70.2265 160.293 69.2345 160.793 68.2705C160.885 68.1454 160.945 68.0005 160.97 67.8477C160.995 67.6948 160.984 67.5382 160.937 67.3905C160.898 67.3229 160.844 67.2653 160.779 67.222C160.714 67.1788 160.64 67.151 160.563 67.141C160.486 67.1309 160.407 67.1388 160.333 67.164C160.259 67.1893 160.192 67.2312 160.137 67.2865" fill="#FFBE9D"/>
<path d="M160.153 67.2875C160.153 67.2875 160.237 67.1035 160.553 67.1075C160.646 67.1096 160.737 67.1362 160.816 67.1847C160.896 67.2332 160.961 67.3018 161.005 67.3835C161.05 67.495 161.071 67.6149 161.065 67.735C161.06 67.8551 161.028 67.9726 160.973 68.0795C160.738 68.6084 160.47 69.1227 160.173 69.6195C159.813 70.2478 159.317 70.7877 158.721 71.1995C158.54 71.312 158.322 71.3493 158.113 71.3035C158.005 71.2809 157.905 71.2266 157.828 71.1476C157.75 71.0686 157.698 70.9683 157.677 70.8595C157.661 70.6641 157.706 70.4684 157.805 70.2995C157.893 70.1395 157.989 70.0035 158.081 69.8675C158.449 69.3275 158.821 68.8715 159.133 68.4915C159.445 68.1115 159.673 67.8435 159.881 67.5995C159.966 67.4848 160.064 67.3801 160.173 67.2875C160.114 67.4173 160.037 67.5384 159.945 67.6475C159.785 67.8755 159.545 68.1915 159.245 68.5835C158.945 68.9755 158.597 69.4395 158.241 69.9755C158.069 70.2395 157.841 70.5355 157.881 70.8275C157.893 70.8968 157.927 70.9606 157.977 71.0101C158.027 71.0595 158.092 71.0921 158.161 71.1035C158.32 71.1329 158.484 71.1015 158.621 71.0155C159.186 70.6191 159.66 70.108 160.013 69.5155C160.353 68.9755 160.633 68.4515 160.849 68.0235C160.9 67.9353 160.932 67.8375 160.943 67.7362C160.954 67.635 160.944 67.5326 160.913 67.4355C160.88 67.3682 160.83 67.3105 160.769 67.2678C160.707 67.2251 160.636 67.1988 160.561 67.1915C160.418 67.173 160.273 67.2071 160.153 67.2875Z" fill="#EB996E"/>
<path d="M160.638 69.1435C160.078 69.8755 159.474 70.5635 158.978 71.3395C158.85 71.5355 158.726 71.7875 158.846 71.9875C158.894 72.0522 158.96 72.1017 159.036 72.13C159.112 72.1584 159.194 72.1644 159.274 72.1475C159.431 72.1095 159.577 72.0325 159.698 71.9235C160.305 71.3507 160.791 70.6608 161.126 69.8955C161.195 69.7998 161.241 69.6891 161.26 69.5724C161.279 69.4556 161.27 69.3361 161.234 69.2235C161.202 69.1761 161.161 69.1359 161.113 69.1057C161.064 69.0756 161.01 69.0561 160.954 69.0485C160.897 69.0409 160.84 69.0455 160.785 69.0618C160.731 69.0782 160.68 69.106 160.638 69.1435Z" fill="#FFBE9D"/>
<path d="M160.637 69.144C160.637 69.144 160.693 69 160.937 69C161.01 68.9995 161.082 69.0189 161.145 69.0563C161.208 69.0937 161.259 69.1475 161.293 69.212C161.328 69.2997 161.345 69.3937 161.341 69.4881C161.338 69.5825 161.315 69.6751 161.273 69.76C161.091 70.1658 160.884 70.5599 160.653 70.94C160.379 71.4262 159.997 71.8434 159.537 72.16C159.393 72.25 159.219 72.2802 159.053 72.244C158.965 72.2262 158.885 72.1823 158.822 72.1181C158.759 72.0539 158.717 71.9724 158.701 71.884C158.709 71.5963 158.819 71.3209 159.013 71.108C159.297 70.708 159.581 70.344 159.813 70.056C160.056 69.7318 160.323 69.4269 160.613 69.144C160.413 69.5004 160.178 69.8366 159.913 70.148C159.689 70.448 159.421 70.804 159.149 71.216C159.017 71.42 158.849 71.648 158.877 71.852C158.905 72.056 159.197 72.116 159.409 71.98C159.839 71.6791 160.2 71.2906 160.469 70.84C160.729 70.44 160.945 70.04 161.113 69.7C161.152 69.6349 161.176 69.5626 161.185 69.4875C161.194 69.4124 161.187 69.3363 161.165 69.264C161.141 69.2138 161.104 69.1705 161.059 69.1383C161.014 69.1061 160.961 69.0861 160.905 69.08C160.811 69.074 160.718 69.0963 160.637 69.144Z" fill="#EB996E"/>
<path d="M36.6178 157.262C33.4178 158.386 29.2058 157.382 26.4538 155.37C23.7018 153.358 21.7218 150.482 19.9658 147.562C19.2178 146.318 18.4858 145.018 18.2498 143.562C18.0138 142.106 18.3618 140.514 19.4738 139.562C21.2018 138.106 23.8738 138.846 25.8178 139.962C28.8831 141.748 31.468 144.252 33.3495 147.26C35.231 150.268 36.3527 153.688 36.6178 157.226" fill="#FFAF1E"/>
<path d="M33.1661 164.963C31.2341 167.511 27.9141 168.647 24.7181 168.795C21.5221 168.943 18.3661 168.059 15.3821 166.911C14.2981 166.511 13.1141 165.927 12.7421 164.827C12.625 164.402 12.6153 163.955 12.7138 163.525C12.8122 163.096 13.0157 162.698 13.3061 162.367C13.8981 161.713 14.6371 161.21 15.4621 160.899C18.3981 159.647 21.7701 159.599 24.8621 160.399C27.9541 161.199 30.6581 162.995 33.1661 164.971" fill="#FFAF1E"/>
<path d="M36.6673 143.483C33.9993 143.535 31.9993 141.199 30.7993 138.827C29.1196 135.508 28.5583 131.735 29.1993 128.071C29.4393 126.711 29.9553 125.243 31.1753 124.587C32.3953 123.931 34.0193 124.359 35.0593 125.307C36.0993 126.255 36.6593 127.607 37.0593 128.947C38.4873 133.575 38.1793 138.891 36.6593 143.483" fill="#FFAF1E"/>
<path d="M45.4137 158.211C40.8737 150.483 40.1177 141.011 42.7977 132.475C43.2337 131.091 44.0537 129.503 45.5057 129.411C47.1057 129.307 48.1177 131.099 48.5617 132.647C50.1177 138.079 49.7897 143.847 49.4457 149.483C49.2337 152.959 48.0377 155.927 45.4137 158.211Z" fill="#FFAF1E"/>
<path d="M50.1348 161.387C50.9806 158.739 52.4099 156.316 54.3172 154.294C56.2244 152.273 58.561 150.705 61.1548 149.707C62.3548 149.251 63.8908 148.991 64.7908 149.915C65.6908 150.839 65.4028 152.315 64.8348 153.463C63.9228 155.287 62.4348 156.755 60.9588 158.159C59.6148 159.439 58.2188 160.727 56.5148 161.471C54.8108 162.215 51.6908 162.403 50.1348 161.387Z" fill="#FFAF1E"/>
<path d="M21.998 141.535C21.998 141.535 22.022 141.563 22.078 141.607L22.322 141.795L23.274 142.507L23.962 143.019C24.21 143.211 24.47 143.419 24.762 143.663C25.326 144.131 25.99 144.639 26.658 145.263L27.73 146.235C28.098 146.575 28.454 146.959 28.842 147.339C29.642 148.091 30.378 148.967 31.194 149.871C32.9064 151.889 34.4705 154.028 35.874 156.271C37.2426 158.529 38.4458 160.883 39.474 163.315C39.922 164.447 40.366 165.515 40.674 166.551C40.842 167.067 41.026 167.559 41.166 168.039C41.306 168.519 41.43 168.991 41.566 169.435C41.834 170.315 41.99 171.135 42.158 171.835C42.238 172.195 42.322 172.523 42.382 172.831C42.442 173.139 42.482 173.423 42.53 173.679C42.618 174.171 42.69 174.563 42.738 174.847L42.798 175.151C42.798 175.219 42.822 175.255 42.826 175.251C42.8322 175.217 42.8322 175.182 42.826 175.147C42.826 175.067 42.802 174.963 42.786 174.839C42.746 174.555 42.686 174.163 42.614 173.663C42.574 173.407 42.534 173.123 42.486 172.815C42.438 172.507 42.354 172.171 42.278 171.811C42.122 171.095 41.978 170.271 41.714 169.383C41.594 168.935 41.466 168.467 41.314 167.983C41.162 167.499 40.998 167.003 40.834 166.483C40.518 165.443 40.078 164.367 39.634 163.227C38.6104 160.782 37.4071 158.415 36.034 156.147C34.6232 153.9 33.0468 151.76 31.318 149.747C30.518 148.843 29.718 147.967 28.942 147.219C28.542 146.839 28.19 146.455 27.818 146.119L26.734 145.151C26.058 144.523 25.386 144.023 24.814 143.551C24.526 143.327 24.262 143.107 24.014 142.919L23.31 142.427L22.334 141.747L22.078 141.599L21.998 141.535Z" fill="#263238"/>
<path d="M15.9746 162.956C16.0802 162.95 16.1849 162.933 16.2866 162.904C16.4906 162.868 16.7826 162.792 17.1706 162.728C18.2565 162.522 19.355 162.388 20.4586 162.328C24.1071 162.107 27.7579 162.722 31.1325 164.126C34.5071 165.531 37.5163 167.688 39.9306 170.432C40.6671 171.256 41.346 172.131 41.9626 173.048C42.1906 173.368 42.3626 173.632 42.4586 173.8C42.5126 173.892 42.5742 173.979 42.6426 174.06C42.6039 173.962 42.5557 173.868 42.4986 173.78C42.3906 173.6 42.2506 173.328 42.0346 173.004C41.4354 172.065 40.7669 171.172 40.0346 170.332C37.6307 167.537 34.606 165.344 31.2025 163.928C27.7991 162.512 24.1115 161.912 20.4346 162.176C19.3271 162.251 18.2267 162.409 17.1426 162.648C16.7426 162.728 16.4626 162.816 16.2626 162.868C16.1649 162.891 16.0687 162.921 15.9746 162.956Z" fill="#263238"/>
<path d="M32.7411 127.67C32.7347 127.71 32.7347 127.75 32.7411 127.79L32.8131 128.138L33.1131 129.47C33.3731 130.622 33.7731 132.29 34.2731 134.346C35.2731 138.458 36.7291 144.122 38.2411 150.402C38.9931 153.542 39.6771 156.542 40.2651 159.278C40.8531 162.014 41.3291 164.478 41.6971 166.57C41.8931 167.61 42.0411 168.57 42.1811 169.37C42.3211 170.17 42.4331 170.914 42.5171 171.498C42.6011 172.082 42.6771 172.522 42.7251 172.846C42.7545 172.99 42.7745 173.106 42.7851 173.194C42.7903 173.235 42.7997 173.275 42.8131 173.314C42.8192 173.274 42.8192 173.234 42.8131 173.194C42.8131 173.102 42.7891 172.986 42.7731 172.842C42.7331 172.518 42.6771 172.062 42.6051 171.486C42.5331 170.91 42.4331 170.182 42.3011 169.35C42.1691 168.518 42.0371 167.574 41.8491 166.53C41.5011 164.442 41.0251 161.966 40.4611 159.222C39.8971 156.478 39.2091 153.482 38.4611 150.338C36.9491 144.058 35.4691 138.402 34.4331 134.298C33.9171 132.258 33.5011 130.602 33.2051 129.438L32.8691 128.118C32.8291 127.974 32.8011 127.862 32.7771 127.774C32.7681 127.738 32.756 127.704 32.7411 127.67Z" fill="#263238"/>
<path d="M43.1678 172.706C43.1833 172.676 43.1928 172.644 43.1958 172.61C43.2158 172.534 43.2358 172.442 43.2598 172.334C43.3158 172.07 43.3918 171.71 43.4838 171.258C43.6758 170.322 43.9318 168.966 44.2238 167.282C44.8038 163.922 45.4958 159.254 45.9198 154.082C46.1238 151.482 46.2398 149.002 46.2918 146.746C46.3438 144.49 46.2918 142.454 46.2358 140.746C46.2358 139.894 46.1598 139.122 46.1238 138.446C46.0878 137.77 46.0398 137.186 45.9958 136.714C45.9518 136.242 45.9198 135.886 45.8958 135.618C45.8958 135.502 45.8718 135.41 45.8638 135.334C45.868 135.302 45.868 135.27 45.8638 135.238C45.8638 135.238 45.8638 135.27 45.8638 135.334C45.8638 135.398 45.8638 135.506 45.8638 135.622C45.8638 135.89 45.8998 136.258 45.9278 136.718C45.9558 137.178 45.9918 137.774 46.0158 138.454C46.0398 139.134 46.0878 139.898 46.0998 140.75C46.1478 142.454 46.1518 144.486 46.0998 146.75C46.0478 149.014 45.9198 151.478 45.6998 154.07C45.2758 159.27 44.6078 163.922 44.0638 167.27C43.7958 168.954 43.5638 170.314 43.3958 171.27C43.3158 171.726 43.2558 172.07 43.2118 172.35C43.2118 172.466 43.1798 172.558 43.1678 172.634C43.1654 172.658 43.1654 172.682 43.1678 172.706Z" fill="#263238"/>
<path d="M42.8301 173.688C42.878 173.603 42.9181 173.513 42.9501 173.42L43.2501 172.644L43.4621 172.08L43.7541 171.428C43.8581 171.192 43.9701 170.944 44.0861 170.676C44.2021 170.408 44.3541 170.144 44.4861 169.856L44.9501 168.956L45.5021 168.004C45.8661 167.34 46.3381 166.676 46.7941 165.956C47.8541 164.44 49 162.986 50.2261 161.6C51.4661 160.225 52.7759 158.914 54.1501 157.672C54.8021 157.124 55.4021 156.572 56.0061 156.112L56.8621 155.424L57.6621 154.824C58.1781 154.424 58.6621 154.108 59.0901 153.82C59.5181 153.532 59.8901 153.284 60.1901 153.1L60.8941 152.652C60.9796 152.605 61.0601 152.548 61.1341 152.484C61.0437 152.521 60.9567 152.565 60.8741 152.616L60.1461 153.016C59.8301 153.192 59.4541 153.416 59.0221 153.708C58.5901 154 58.0981 154.304 57.5741 154.688L56.7501 155.28L55.8781 155.96C55.2661 156.416 54.6781 156.964 54.0021 157.512C52.6146 158.752 51.2953 160.066 50.0501 161.448C48.8215 162.845 47.6781 164.314 46.6261 165.848C46.1741 166.576 45.7061 167.244 45.3461 167.92L44.8021 168.88L44.3501 169.792C44.2101 170.084 44.0621 170.356 43.9501 170.624L43.6301 171.384C43.5341 171.624 43.4421 171.844 43.3541 172.048L43.1581 172.62C43.0501 172.948 42.9621 173.208 42.8981 173.42C42.868 173.508 42.8452 173.597 42.8301 173.688Z" fill="#263238"/>
<path d="M23.6699 150.5C23.6699 150.532 24.2219 150.536 25.1019 150.584C27.4069 150.703 29.6851 151.135 31.8739 151.868C32.3205 152.04 32.7758 152.19 33.2379 152.316C33.1324 152.241 33.0183 152.179 32.8979 152.132C32.6699 152.024 32.3379 151.884 31.9219 151.732C29.7456 150.915 27.4459 150.477 25.1219 150.436C24.6739 150.436 24.3219 150.436 24.0659 150.456C23.9324 150.449 23.7988 150.464 23.6699 150.5Z" fill="#263238"/>
<path d="M20.2461 167.226C20.7446 166.215 21.3725 165.274 22.1141 164.426C22.9119 163.614 23.8145 162.911 24.7981 162.338C24.4706 162.421 24.1585 162.556 23.8741 162.738C22.4504 163.558 21.3072 164.789 20.5941 166.27C20.4265 166.567 20.3089 166.89 20.2461 167.226Z" fill="#263238"/>
<path d="M31.9274 133.947C31.8834 133.991 32.7274 134.819 33.6314 135.947C34.5354 137.075 35.1914 138.051 35.2314 138.019C34.8565 137.218 34.3689 136.474 33.7834 135.811C33.2572 135.104 32.6322 134.476 31.9274 133.947Z" fill="#263238"/>
<path d="M34.6665 129.199C34.4676 129.78 34.3334 130.381 34.2665 130.991C34.129 131.591 34.0606 132.204 34.0625 132.819C34.407 131.641 34.6098 130.426 34.6665 129.199Z" fill="#263238"/>
<path d="M43.1621 144.074C43.5385 145.038 43.9823 145.973 44.4901 146.874C44.9363 147.807 45.4441 148.709 46.0101 149.574C45.6311 148.612 45.1874 147.677 44.6821 146.774C44.2377 145.841 43.7299 144.938 43.1621 144.074Z" fill="#263238"/>
<path d="M48.2183 139.027C47.7794 139.665 47.4017 140.343 47.0903 141.051C46.7148 141.728 46.4016 142.438 46.1543 143.171C46.5932 142.534 46.9709 141.856 47.2823 141.147C47.6578 140.47 47.971 139.761 48.2183 139.027Z" fill="#263238"/>
<path d="M55.6465 156.287C55.6465 156.351 56.5625 156.175 57.6865 156.099C58.8105 156.023 59.7265 156.063 59.7345 155.999C59.0589 155.838 58.3599 155.799 57.6705 155.883C56.9774 155.899 56.2924 156.035 55.6465 156.287Z" fill="#263238"/>
<path d="M50.573 171.547L48.045 184.843C47.9631 185.269 47.7354 185.653 47.401 185.928C47.0666 186.204 46.6465 186.355 46.213 186.355H38.745C38.304 186.356 37.877 186.2 37.5406 185.915C37.2042 185.63 36.9803 185.234 36.909 184.799L34.709 171.547H50.573Z" fill="#263238"/>
<path d="M49.749 175.867H35.469L34.709 171.547H50.573L49.749 175.867Z" fill="#455A64"/>
<path d="M49.7507 175.867L49.4507 177.443H35.6907L35.4707 175.867H49.7507Z" fill="#FAFAFA"/>
<path d="M71.1511 42.5794C80.0031 42.5794 87.179 35.4035 87.179 26.5514C87.179 17.6994 80.0031 10.5234 71.1511 10.5234C62.299 10.5234 55.123 17.6994 55.123 26.5514C55.123 35.4035 62.299 42.5794 71.1511 42.5794Z" fill="#FFAF1E"/>
<g opacity="0.3">
<path d="M85.9365 24.9473C86.0725 24.9473 86.2405 25.3473 86.3365 26.1673C86.4543 27.3092 86.3977 28.4624 86.1685 29.5873C86.0185 30.371 85.8058 31.1415 85.5325 31.8913C85.2046 32.7535 84.8032 33.5859 84.3325 34.3793C83.2567 36.2246 81.7959 37.8165 80.0496 39.0465C78.3033 40.2765 76.3124 41.1158 74.2125 41.5073C73.3075 41.6788 72.3895 41.7725 71.4685 41.7873C70.6651 41.7926 69.8626 41.7338 69.0685 41.6113C67.9324 41.4469 66.8278 41.1111 65.7925 40.6153C65.0725 40.2473 64.7285 39.9473 64.7805 39.8153C64.9005 39.5113 66.5405 40.0753 69.2045 40.1393C69.9242 40.1532 70.6441 40.1251 71.3605 40.0553C72.1694 39.9681 72.9713 39.8251 73.7605 39.6273C77.4211 38.7469 80.6075 36.502 82.6685 33.3513C83.1259 32.6701 83.5349 31.9577 83.8925 31.2193C84.1947 30.5674 84.4617 29.8997 84.6925 29.2193C85.6005 26.6913 85.6005 24.9553 85.9365 24.9473Z" fill="black"/>
</g>
<g opacity="0.3">
<path d="M70.4223 11.743C70.4223 11.919 69.0143 11.835 66.8903 12.387C65.6562 12.7099 64.471 13.1969 63.3663 13.835C60.6405 15.3724 58.5653 17.8469 57.5263 20.799C57.0959 21.9994 56.8269 23.2517 56.7263 24.523C56.5543 26.707 56.8823 28.0749 56.7263 28.1229C56.6623 28.1229 56.5063 27.819 56.3263 27.199C56.1019 26.318 55.9917 25.412 55.9983 24.5029C56.0004 23.1446 56.215 21.795 56.6343 20.503C57.656 17.272 59.9153 14.5769 62.9183 13.007C64.1182 12.3662 65.4113 11.918 66.7503 11.679C67.6442 11.5135 68.5557 11.4637 69.4623 11.531C70.0863 11.599 70.4303 11.675 70.4223 11.743Z" fill="white"/>
</g>
<g opacity="0.3">
<path d="M57.9706 32.0305C57.7346 32.1905 57.1946 31.7945 56.9466 31.0665C56.6986 30.3385 56.8746 29.6905 57.1546 29.6705C57.4346 29.6505 57.7226 30.1345 57.9306 30.7265C58.1386 31.3185 58.2146 31.8745 57.9706 32.0305Z" fill="white"/>
</g>
<path d="M75.9594 24.5625C75.9954 24.5625 75.7474 25.2345 74.9554 26.0145C73.9149 27.0438 72.5315 27.6535 71.0698 27.7273C69.608 27.8011 68.1703 27.3337 67.0314 26.4145C66.1714 25.7185 65.8554 25.0905 65.8914 25.0745C65.9274 25.0585 66.3434 25.5785 67.2074 26.1785C68.3219 26.9825 69.6768 27.3834 71.0494 27.315C72.4219 27.2467 73.7303 26.7133 74.7594 25.8025C75.5594 25.1105 75.8994 24.5225 75.9594 24.5625Z" fill="white"/>
<path d="M64.5984 21.3193C64.4624 21.0586 64.2502 20.8455 63.9901 20.7083C63.73 20.5711 63.4343 20.5163 63.1424 20.5513C62.9646 20.56 62.7928 20.6182 62.6464 20.7193C62.4212 20.8929 62.2478 21.1249 62.1448 21.3899C62.0419 21.655 62.0134 21.9432 62.0624 22.2233C62.1073 22.4103 62.1902 22.586 62.3058 22.7397C62.4215 22.8933 62.5675 23.0215 62.7348 23.1164C62.902 23.2113 63.087 23.2708 63.2782 23.2913C63.4694 23.3117 63.6628 23.2927 63.8464 23.2353C64.0226 23.1601 64.182 23.0506 64.3155 22.9131C64.4489 22.7757 64.5537 22.6131 64.6237 22.4348C64.6936 22.2565 64.7275 22.066 64.7231 21.8745C64.7188 21.683 64.6764 21.4943 64.5984 21.3193Z" fill="white"/>
<path d="M79.8504 21.3678C79.7141 21.1085 79.5023 20.8967 79.2431 20.7603C78.9838 20.6239 78.6893 20.5693 78.3984 20.6038C78.2206 20.6119 78.0486 20.6702 77.9024 20.7718C77.6779 20.9462 77.5047 21.178 77.4012 21.4428C77.2976 21.7076 77.2677 21.9954 77.3144 22.2758C77.3593 22.4633 77.4423 22.6394 77.5582 22.7934C77.6741 22.9474 77.8205 23.0758 77.9883 23.1708C78.156 23.2657 78.3415 23.3251 78.5332 23.3452C78.7249 23.3654 78.9186 23.3458 79.1024 23.2878C79.2788 23.2123 79.4383 23.1023 79.5716 22.9644C79.705 22.8265 79.8095 22.6635 79.8792 22.4847C79.9488 22.306 79.9821 22.1151 79.9772 21.9234C79.9723 21.7316 79.9292 21.5427 79.8504 21.3678Z" fill="white"/>
<path d="M70.7882 102.551C72.5295 95.056 67.8654 87.5687 60.3706 85.8273C52.8758 84.086 45.3884 88.7501 43.6471 96.2449C41.9058 103.74 46.5699 111.227 54.0647 112.968C61.5595 114.71 69.0468 110.046 70.7882 102.551Z" fill="#FFAF1E"/>
<g opacity="0.3">
<path d="M70.0664 98.001C70.2744 98.001 70.5104 98.357 70.6784 99.073C70.8785 100.088 70.8948 101.132 70.7264 102.153C70.4951 103.694 69.9768 105.179 69.1984 106.529C68.2478 108.223 66.9304 109.682 65.3427 110.801C63.7549 111.919 61.9371 112.668 60.0224 112.993C58.491 113.27 56.9212 113.258 55.3944 112.957C54.3759 112.771 53.3991 112.404 52.5104 111.873C51.8944 111.473 51.6264 111.129 51.7104 110.937C51.8864 110.509 53.3584 110.833 55.5944 110.757C56.8822 110.719 58.1607 110.525 59.4024 110.181C62.3987 109.384 65.01 107.539 66.7624 104.981C67.5036 103.929 68.1147 102.792 68.5824 101.593C69.4104 99.529 69.5984 98.033 70.0664 98.001Z" fill="black"/>
</g>
<g opacity="0.3">
<path d="M56.5864 86.5363C56.5864 86.7043 55.3624 86.6523 53.5264 87.1443C52.4617 87.4296 51.4395 87.8546 50.4864 88.4083C48.1408 89.7409 46.35 91.8694 45.4384 94.4083C45.0625 95.4394 44.8231 96.5152 44.7264 97.6083C44.5624 99.5003 44.8304 100.692 44.6624 100.728C44.5544 100.768 44.0144 99.6083 43.9904 97.5803C43.9841 96.3937 44.1663 95.2137 44.5304 94.0843C44.9691 92.6843 45.6801 91.3847 46.6226 90.2603C47.5651 89.1359 48.7205 88.2088 50.0224 87.5323C51.0709 86.9765 52.201 86.5904 53.3704 86.3883C55.3704 86.0923 56.6064 86.4243 56.5864 86.5363Z" fill="white"/>
</g>
<g opacity="0.3">
<path d="M45.7661 104.17C45.5301 104.33 45.0301 103.994 44.8101 103.37C44.5901 102.746 44.7741 102.17 45.0581 102.134C45.3421 102.098 45.6181 102.534 45.7941 103.03C45.9701 103.526 45.9981 104.002 45.7661 104.17Z" fill="white"/>
</g>
<path d="M61.3997 97.677C61.4397 97.677 61.2277 98.269 60.5397 98.953C59.6347 99.8546 58.4277 100.389 57.1518 100.452C55.8759 100.516 54.6218 100.104 53.6317 99.297C52.8797 98.685 52.6117 98.133 52.6477 98.097C52.6837 98.061 53.0477 98.529 53.8077 99.045C54.7752 99.7331 55.9461 100.075 57.1319 100.017C58.3176 99.9578 59.449 99.5014 60.3437 98.721C61.0397 98.145 61.3397 97.637 61.3997 97.677Z" fill="white"/>
<path d="M51.5267 94.8562C51.4081 94.6296 51.2231 94.4446 50.9965 94.3259C50.77 94.2073 50.5125 94.1606 50.2587 94.1922C50.1052 94.1981 49.9566 94.2481 49.8307 94.3362C49.6351 94.4875 49.4845 94.6892 49.395 94.9197C49.3055 95.1501 49.2805 95.4006 49.3227 95.6442C49.3589 95.8085 49.4292 95.9634 49.5292 96.0987C49.6291 96.2341 49.7564 96.3469 49.9027 96.4299C50.0491 96.5129 50.2112 96.5642 50.3787 96.5804C50.5461 96.5967 50.7151 96.5775 50.8747 96.5242C51.0279 96.4586 51.1666 96.3632 51.2826 96.2435C51.3985 96.1237 51.4895 95.9821 51.5502 95.8269C51.6109 95.6716 51.6401 95.5058 51.636 95.3392C51.632 95.1725 51.5948 95.0084 51.5267 94.8562Z" fill="white"/>
<path d="M66.1438 96.2005C66.0944 95.8412 66.0155 95.4867 65.9078 95.1405C65.7647 94.7912 65.5331 94.4852 65.2358 94.2525C64.8691 93.9823 64.4238 93.8403 63.9684 93.8483C63.513 93.8562 63.0729 94.0137 62.7158 94.2965C62.4267 94.5388 62.205 94.8515 62.0718 95.2045C61.9758 95.5543 61.9089 95.9115 61.8718 96.2725C61.8318 96.2965 61.6078 95.8525 61.7878 95.1165C61.9021 94.6887 62.1367 94.3027 62.4638 94.0045C62.8805 93.6447 63.4101 93.4425 63.9604 93.433C64.5108 93.4235 65.0471 93.6073 65.4758 93.9525C65.8124 94.2395 66.0595 94.6171 66.1878 95.0405C66.3998 95.7685 66.1838 96.2205 66.1438 96.2005Z" fill="white"/>
<path d="M148.027 132.988C155.421 132.988 161.415 126.994 161.415 119.6C161.415 112.206 155.421 106.212 148.027 106.212C140.633 106.212 134.639 112.206 134.639 119.6C134.639 126.994 140.633 132.988 148.027 132.988Z" fill="#FFAF1E"/>
<g opacity="0.3">
<path d="M160.377 118.261C160.585 118.261 160.817 118.601 160.989 119.289C161.19 120.266 161.211 121.272 161.053 122.257C160.839 123.742 160.347 125.174 159.601 126.477C158.688 128.114 157.418 129.525 155.886 130.604C154.354 131.684 152.598 132.404 150.749 132.713C149.271 132.977 147.757 132.96 146.285 132.665C145.302 132.485 144.361 132.125 143.509 131.605C142.917 131.205 142.665 130.877 142.745 130.685C142.925 130.257 144.345 130.549 146.485 130.465C147.716 130.423 148.939 130.234 150.125 129.901C152.985 129.135 155.48 127.379 157.165 124.945C157.878 123.939 158.468 122.851 158.921 121.705C159.717 119.717 159.917 118.285 160.377 118.261Z" fill="black"/>
</g>
<g opacity="0.3">
<path d="M147.419 107.229C147.419 107.401 146.243 107.353 144.483 107.829C143.461 108.106 142.479 108.516 141.563 109.049C139.311 110.334 137.594 112.383 136.723 114.825C136.359 115.818 136.127 116.855 136.035 117.909C135.875 119.725 136.127 120.869 135.959 120.909C135.851 120.945 135.327 119.833 135.299 117.881C135.29 116.738 135.464 115.601 135.815 114.513C136.237 113.165 136.92 111.915 137.827 110.833C138.734 109.751 139.846 108.859 141.099 108.209C142.109 107.672 143.199 107.3 144.327 107.109C146.251 106.801 147.439 107.117 147.419 107.229Z" fill="white"/>
</g>
<g opacity="0.3">
<path d="M137.018 124.18C136.782 124.336 136.294 124.016 136.082 123.4C135.87 122.784 136.054 122.228 136.338 122.2C136.622 122.172 136.894 122.572 137.066 123.056C137.238 123.54 137.262 124.02 137.018 124.18Z" fill="white"/>
</g>
<path d="M148.638 122.845C150.029 122.762 151.341 122.174 152.33 121.193C152.866 120.609 153.358 119.721 153.298 118.933C153.276 118.535 153.121 118.157 152.859 117.858C152.596 117.559 152.241 117.357 151.85 117.285C151.282 117.275 150.728 117.455 150.274 117.797C149.827 118.14 149.323 118.402 148.786 118.573C147.986 118.749 147.186 118.437 146.454 118.125C145.722 117.813 144.918 117.485 144.126 117.625C143.855 117.644 143.594 117.735 143.37 117.888C143.146 118.041 142.966 118.251 142.85 118.497C142.85 118.497 142.45 119.369 143.25 120.537C143.874 121.352 144.697 121.993 145.641 122.398C146.585 122.802 147.617 122.956 148.638 122.845Z" fill="white"/>
<path d="M142.555 115.229C142.444 115.013 142.269 114.837 142.055 114.722C141.841 114.608 141.597 114.561 141.355 114.589C141.212 114.599 141.074 114.647 140.955 114.729C140.767 114.875 140.622 115.069 140.536 115.291C140.449 115.513 140.424 115.754 140.463 115.989C140.504 116.143 140.576 116.287 140.674 116.414C140.771 116.54 140.893 116.645 141.032 116.724C141.171 116.803 141.324 116.853 141.483 116.871C141.641 116.89 141.802 116.877 141.955 116.833C142.101 116.768 142.232 116.675 142.342 116.559C142.451 116.443 142.536 116.306 142.592 116.157C142.648 116.007 142.673 115.848 142.667 115.689C142.661 115.53 142.623 115.373 142.555 115.229Z" fill="white"/>
<path d="M155.294 115.268C155.181 115.053 155.007 114.877 154.792 114.764C154.578 114.65 154.335 114.604 154.094 114.632C153.951 114.641 153.812 114.687 153.694 114.768C153.506 114.913 153.361 115.107 153.274 115.328C153.187 115.549 153.162 115.79 153.202 116.024C153.239 116.18 153.309 116.327 153.405 116.456C153.502 116.584 153.624 116.691 153.764 116.77C153.904 116.849 154.059 116.899 154.219 116.916C154.379 116.932 154.54 116.916 154.694 116.868C154.839 116.803 154.97 116.71 155.079 116.594C155.188 116.478 155.273 116.342 155.328 116.193C155.384 116.044 155.41 115.886 155.404 115.727C155.398 115.568 155.361 115.412 155.294 115.268Z" fill="white"/>
</svg>
