<svg width="100" height="100" viewBox="0 0 100 100" fill="none" xmlns="http://www.w3.org/2000/svg">
<g id="doctor 1">
<path id="Vector" d="M18.75 94.75H81.25C81.5152 94.75 81.7696 94.6446 81.9571 94.4571C82.1446 94.2696 82.25 94.0152 82.25 93.75V75C82.25 59.81 72.84 49.2 59.38 49.2C59.2264 49.1977 59.0744 49.2307 58.9356 49.2966C58.7969 49.3625 58.6752 49.4595 58.58 49.58C57 51.67 53.8 53 50.31 53.07C46.63 53.14 43.31 51.83 41.39 49.55C41.2961 49.4402 41.1796 49.3521 41.0484 49.2917C40.9172 49.2313 40.7744 49.2 40.63 49.2C27.16 49.2 17.75 59.81 17.75 75V93.75C17.75 94.0152 17.8554 94.2696 18.0429 94.4571C18.2304 94.6446 18.4848 94.75 18.75 94.75ZM50.35 55.07C52.7096 55.0545 55.0299 54.4641 57.11 53.35L50 72.17L42.86 53.27C45.151 54.5283 47.7374 55.1499 50.35 55.07ZM19.75 75C19.75 63.74 25.01 55.42 33.38 52.42V61.68C31.8429 61.9203 30.4418 62.7006 29.4282 63.8809C28.4147 65.0613 27.8551 66.5642 27.85 68.12V78.6C27.85 78.8652 27.9554 79.1196 28.1429 79.3071C28.3304 79.4946 28.5848 79.6 28.85 79.6H31.25V77.6H29.85V68.12C29.9777 67.0161 30.5067 65.9976 31.3364 65.2583C32.1662 64.519 33.2387 64.1105 34.35 64.1105C35.4613 64.1105 36.5338 64.519 37.3636 65.2583C38.1933 65.9976 38.7223 67.0161 38.85 68.12V77.6H37.5V79.6H39.9C40.1652 79.6 40.4196 79.4946 40.6071 79.3071C40.7946 79.1196 40.9 78.8652 40.9 78.6V68.12C40.8953 66.5657 40.3371 65.0639 39.3256 63.8838C38.314 62.7037 36.9153 61.9224 35.38 61.68V51.83C36.8729 51.4596 38.4022 51.255 39.94 51.22L49.06 75.35C49.1301 75.5431 49.2579 75.7098 49.4261 75.8277C49.5942 75.9456 49.7946 76.0088 50 76.0088C50.2054 76.0088 50.4058 75.9456 50.5739 75.8277C50.7421 75.7098 50.8699 75.5431 50.94 75.35L60.06 51.22C61.9026 51.2657 63.7313 51.5514 65.5 52.07V64.76C64.511 65.0043 63.6456 65.6022 63.0673 66.4408C62.4889 67.2794 62.2375 68.3007 62.3605 69.312C62.4836 70.3233 62.9726 71.2545 63.7352 71.93C64.4978 72.6054 65.4813 72.9783 66.5 72.9783C67.5187 72.9783 68.5022 72.6054 69.2648 71.93C70.0274 71.2545 70.5164 70.3233 70.6395 69.312C70.7625 68.3007 70.5111 67.2794 69.9327 66.4408C69.3544 65.6022 68.489 65.0043 67.5 64.76V52.76C75.36 56 80.25 64.14 80.25 75V92.75H19.75V75ZM66.5 66.63C66.9292 66.63 67.3487 66.7573 67.7056 66.9957C68.0624 67.2342 68.3406 67.5731 68.5048 67.9696C68.6691 68.3661 68.712 68.8024 68.6283 69.2233C68.5446 69.6443 68.3379 70.0309 68.0344 70.3344C67.7309 70.6379 67.3443 70.8446 66.9233 70.9283C66.5024 71.012 66.0661 70.9691 65.6696 70.8048C65.2731 70.6406 64.9342 70.3624 64.6957 70.0056C64.4573 69.6487 64.33 69.2292 64.33 68.8C64.33 68.2245 64.5586 67.6725 64.9656 67.2656C65.3725 66.8586 65.9245 66.63 66.5 66.63ZM33.27 30.83H33.62C34.2586 34.7135 36.2563 38.2438 39.2565 40.7909C42.2567 43.3381 46.0644 44.7364 50 44.7364C53.9356 44.7364 57.7433 43.3381 60.7435 40.7909C63.7437 38.2438 65.7414 34.7135 66.38 30.83H66.73C68.3594 30.83 69.9221 30.1834 71.0752 29.0322C72.2282 27.8811 72.8773 26.3193 72.88 24.69V23.69C72.8773 22.6786 72.4737 21.7095 71.7576 20.9953C71.0415 20.2811 70.0714 19.88 69.06 19.88H66.63V14.69C66.6273 12.1872 65.6319 9.78761 63.8622 8.01784C62.0924 6.24807 59.6928 5.25265 57.19 5.25H42.81C40.3081 5.25265 37.9096 6.24839 36.1414 8.01845C34.3732 9.7885 33.38 12.1881 33.38 14.69V19.88H30.94C29.9303 19.8826 28.9628 20.2849 28.2488 20.9988C27.5349 21.7128 27.1326 22.6803 27.13 23.69V24.69C27.13 26.3184 27.7769 27.8802 28.9284 29.0316C30.0798 30.1831 31.6416 30.83 33.27 30.83ZM66.63 28.13V21.88H69.06C69.541 21.88 70.0024 22.0704 70.3434 22.4095C70.6844 22.7487 70.8774 23.209 70.88 23.69V24.69C70.8773 25.7889 70.439 26.8419 69.661 27.618C68.883 28.3941 67.8289 28.83 66.73 28.83H66.63V28.13ZM50 42.75C46.9031 42.7478 43.8867 41.7629 41.3853 39.9371C38.8838 38.1113 37.0262 35.5388 36.08 32.59C36.3 30.9 41.83 29.13 50 29.13C53.3659 29.0834 56.7247 29.4529 60 30.23C62.36 30.88 63.8 31.75 63.91 32.59C62.9643 35.5372 61.1082 38.1085 58.6088 39.9342C56.1093 41.7598 53.0952 42.7457 50 42.75ZM35.38 20.88V14.69C35.38 12.7185 36.1625 10.8276 37.5556 9.43266C38.9487 8.03767 40.8385 7.25265 42.81 7.25H57.19C59.1624 7.25265 61.0533 8.03735 62.448 9.43205C63.8427 10.8267 64.6273 12.7176 64.63 14.69V22.83C63.7735 22.8633 62.9194 22.7178 62.1222 22.4027C61.3251 22.0876 60.6023 21.6099 60 21C58.24 19 58.77 15.81 58.78 15.79C58.8217 15.5681 58.7871 15.3386 58.6818 15.1389C58.5765 14.9392 58.4067 14.7809 58.2 14.69C57.9943 14.5992 57.7639 14.5804 57.5462 14.6367C57.3284 14.6929 57.136 14.8209 57 15C52.34 21.08 38.71 22.5 35.36 22.76L35.38 20.88ZM35.38 24.79C38.38 24.58 50.53 23.42 56.78 18.13C56.918 19.6651 57.5176 21.1224 58.5 22.31C59.2844 23.1411 60.2367 23.7956 61.2936 24.2301C62.3506 24.6646 63.4879 24.8691 64.63 24.83V28.13C64.6219 28.7991 64.5718 29.4671 64.48 30.13C61.71 27.98 55.48 27.13 50 27.13C44.52 27.13 38.29 27.94 35.52 30.13C35.4316 29.4669 35.3848 28.7989 35.38 28.13V24.79ZM29.13 23.69C29.13 23.21 29.3207 22.7496 29.6601 22.4101C29.9996 22.0707 30.46 21.88 30.94 21.88H33.38V28.88H33.27C32.172 28.88 31.119 28.4438 30.3426 27.6674C29.5662 26.891 29.13 25.838 29.13 24.74V23.69Z" fill="#FFAF1E"/>
<path id="Vector_2" d="M73 80.25H66.5V82.25H73V80.25Z" fill="#FFAF1E"/>
</g>
</svg>
