<svg width="100" height="100" viewBox="0 0 100 100" fill="none" xmlns="http://www.w3.org/2000/svg">
<g id="student 1">
<path id="Vector" d="M32.5 33.83H33.6C34.2124 37.7397 36.2015 41.3019 39.2085 43.8746C42.2155 46.4472 46.0427 47.861 50 47.861C53.9573 47.861 57.7845 46.4472 60.7915 43.8746C63.7985 41.3019 65.7876 37.7397 66.4 33.83H67.5C68.5379 33.83 69.5335 33.4184 70.2683 32.6854C71.0032 31.9524 71.4174 30.9579 71.42 29.92V26C71.42 25.4696 71.2093 24.9609 70.8342 24.5858C70.4591 24.2107 69.9504 24 69.42 24H66.63V16C66.6339 14.5905 66.3599 13.1942 65.8236 11.8907C65.2872 10.5873 64.4991 9.40245 63.5043 8.40395C62.5096 7.40546 61.3276 6.61294 60.0262 6.07174C58.7248 5.53055 57.3295 5.25131 55.92 5.25H44.08C42.671 5.25131 41.2761 5.53062 39.9753 6.07193C38.6744 6.61325 37.4932 7.40593 36.4992 8.40456C35.5052 9.40318 34.718 10.5881 34.1828 11.8915C33.6475 13.1949 33.3747 14.591 33.38 16V24H30.58C30.0496 24 29.5409 24.2107 29.1658 24.5858C28.7907 24.9609 28.58 25.4696 28.58 26V29.92C28.5826 30.9579 28.9968 31.9524 29.7317 32.6854C30.4665 33.4184 31.4621 33.83 32.5 33.83ZM50 45.88C46.1232 45.8721 42.4077 44.3278 39.6673 41.5856C36.927 38.8434 35.3853 35.1268 35.38 31.25V24.4C35.75 23.61 37.89 19.75 43.75 19.75C47.8286 19.7827 51.8367 18.6855 55.33 16.58C57.887 19.3173 61.0821 21.3787 64.63 22.58V31.23C64.6274 35.1111 63.0858 38.8329 60.3433 41.5791C57.6008 44.3254 53.8811 45.8721 50 45.88ZM69.42 26V29.92C69.4174 30.4275 69.2139 30.9133 68.8541 31.2712C68.4943 31.6291 68.0075 31.83 67.5 31.83H66.63V26H69.42ZM35.42 16C35.42 13.6917 36.3363 11.4778 37.9676 9.84463C39.5988 8.21148 41.8117 7.29265 44.12 7.29H55.92C58.2292 7.29265 60.4431 8.21115 62.076 9.84402C63.7088 11.4769 64.6273 13.6908 64.63 16V20.5C61.4063 19.2598 58.5382 17.2436 56.28 14.63C56.1167 14.4253 55.8796 14.2929 55.6197 14.2611C55.3598 14.2293 55.0978 14.3007 54.89 14.46C51.596 16.6605 47.711 17.8079 43.75 17.75C42.2062 17.6856 40.6658 17.9411 39.2254 18.5004C37.785 19.0597 36.4758 19.9107 35.38 21L35.42 16ZM30.62 26H33.42V31.83H32.5C31.9925 31.83 31.5057 31.6291 31.1459 31.2712C30.7861 30.9133 30.5826 30.4275 30.58 29.92L30.62 26ZM12.5 91.48H37.21C37.851 91.4826 38.465 91.7384 38.9183 92.1917C39.3716 92.645 39.6274 93.259 39.63 93.9C39.63 94.1652 39.7354 94.4196 39.9229 94.6071C40.1104 94.7946 40.3648 94.9 40.63 94.9H59.38C59.6452 94.9 59.8996 94.7946 60.0871 94.6071C60.2746 94.4196 60.38 94.1652 60.38 93.9C60.38 93.2599 60.6336 92.6459 61.0853 92.1923C61.5369 91.7388 62.1499 91.4827 62.79 91.48H87.5C87.7652 91.48 88.0196 91.3746 88.2071 91.1871C88.3946 90.9996 88.5 90.7452 88.5 90.48V86.48C88.5 86.2148 88.3946 85.9604 88.2071 85.7729C88.0196 85.5854 87.7652 85.48 87.5 85.48H85.33C85.3453 85.317 85.3453 85.153 85.33 84.99V81.73C85.3274 81.0721 85.0656 80.4418 84.6013 79.9757C84.1371 79.5096 83.5078 79.2453 82.85 79.24H82.2V70.63C82.1922 65.7432 80.2543 61.0573 76.8082 57.5924C73.362 54.1275 68.6867 52.1643 63.8 52.13H57.8C57.6531 52.1298 57.5079 52.1619 57.3748 52.2241C57.2418 52.2863 57.124 52.3771 57.03 52.49L50.03 60.94L43.03 52.49C42.936 52.3771 42.8182 52.2863 42.6852 52.2241C42.5521 52.1619 42.4069 52.1298 42.26 52.13H36.16C31.2845 52.1826 26.626 54.1536 23.1934 57.6162C19.7607 61.0788 17.8302 65.7543 17.82 70.63V79.24H17.18C16.5222 79.2453 15.8929 79.5096 15.4287 79.9757C14.9644 80.4418 14.7026 81.0721 14.7 81.73V85C14.6848 85.163 14.6848 85.327 14.7 85.49H12.5C12.2348 85.49 11.9804 85.5954 11.7929 85.7829C11.6054 85.9704 11.5 86.2248 11.5 86.49V90.49C11.5026 90.7535 11.6092 91.0053 11.7964 91.1907C11.9837 91.376 12.2365 91.48 12.5 91.48ZM58.28 54.13H62.61L59.74 67.18L51.52 62.24L58.28 54.13ZM48.48 62.24L40.26 67.18L37.39 54.13H41.72L48.48 62.24ZM19.75 70.63C19.7613 66.4129 21.384 62.3596 24.2859 59.2997C27.1878 56.2398 31.1494 54.4047 35.36 54.17L38.6 69C38.6331 69.156 38.7029 69.3019 38.8038 69.4254C38.9047 69.5489 39.0337 69.6465 39.18 69.71C39.3074 69.7605 39.4429 69.7876 39.58 69.79C39.7595 69.7899 39.9356 69.7416 40.09 69.65L50 63.67L59.91 69.61C60.0644 69.7016 60.2405 69.7499 60.42 69.75C60.5571 69.7476 60.6926 69.7205 60.82 69.67C60.9617 69.6104 61.0877 69.519 61.1883 69.4028C61.2889 69.2866 61.3613 69.1487 61.4 69L64.64 54.21C68.8437 54.4443 72.7996 56.2738 75.7004 59.3251C78.6013 62.3765 80.2285 66.4198 80.25 70.63V79.24L56.37 79.15C55.4056 79.1468 54.4502 79.3351 53.5593 79.7042C52.6683 80.0733 51.8596 80.6157 51.18 81.3C50.7226 81.7423 50.3258 82.2434 50 82.79C49.6804 82.2446 49.2904 81.7436 48.84 81.3C48.1604 80.6157 47.3517 80.0733 46.4607 79.7042C45.5698 79.3351 44.6144 79.1468 43.65 79.15L19.77 79.24L19.75 70.63ZM16.63 85V81.73C16.6326 81.6008 16.685 81.4777 16.7763 81.3863C16.8677 81.295 16.9908 81.2426 17.12 81.24L43.63 81.15C44.3346 81.146 45.0331 81.2816 45.6851 81.5488C46.3371 81.816 46.9297 82.2096 47.4289 82.7069C47.9281 83.2042 48.3239 83.7954 48.5935 84.4464C48.8632 85.0974 49.0013 85.7954 49 86.5C49 86.7652 49.1054 87.0196 49.2929 87.2071C49.4804 87.3946 49.7348 87.5 50 87.5C50.2652 87.5 50.5196 87.3946 50.7071 87.2071C50.8946 87.0196 51 86.7652 51 86.5C50.9987 85.7971 51.1362 85.1008 51.4046 84.4511C51.673 83.8014 52.067 83.2111 52.564 82.714C53.0611 82.217 53.6514 81.823 54.3011 81.5546C54.9508 81.2862 55.6471 81.1487 56.35 81.15L82.87 81.24C82.9992 81.2426 83.1223 81.295 83.2137 81.3863C83.305 81.4777 83.3574 81.6008 83.36 81.73V85C83.36 85.13 83.3084 85.2546 83.2165 85.3465C83.1246 85.4384 83 85.49 82.87 85.49H59.37C58.4512 85.491 57.559 85.7984 56.8345 86.3635C56.11 86.9286 55.5947 87.7191 55.37 88.61H44.63C44.4053 87.7191 43.89 86.9286 43.1655 86.3635C42.441 85.7984 41.5488 85.491 40.63 85.49H17.12C16.99 85.49 16.8654 85.4384 16.7735 85.3465C16.6816 85.2546 16.63 85.13 16.63 85ZM13.5 87.5H40.63C40.9084 87.5 41.1841 87.5548 41.4413 87.6614C41.6985 87.7679 41.9322 87.9241 42.1291 88.1209C42.3259 88.3178 42.4821 88.5515 42.5886 88.8087C42.6952 89.0659 42.75 89.3416 42.75 89.62C42.75 89.8852 42.8554 90.1396 43.0429 90.3271C43.2304 90.5146 43.4848 90.62 43.75 90.62H56.25C56.5152 90.62 56.7696 90.5146 56.9571 90.3271C57.1446 90.1396 57.25 89.8852 57.25 89.62C57.25 89.3416 57.3048 89.0659 57.4114 88.8087C57.5179 88.5515 57.6741 88.3178 57.8709 88.1209C58.0678 87.9241 58.3015 87.7679 58.5587 87.6614C58.8159 87.5548 59.0916 87.5 59.37 87.5H86.5V89.5H62.79C61.793 89.503 60.8261 89.8422 60.0458 90.4629C59.2655 91.0835 58.7173 91.9492 58.49 92.92H41.49C41.2607 91.9484 40.7106 91.0825 39.9286 90.4619C39.1466 89.8414 38.1783 89.5025 37.18 89.5H13.5V87.5Z" fill="#FFAF1E"/>
<path id="Vector_2" d="M72.9101 74H64.5801V76H72.9101V74Z" fill="#FFAF1E"/>
</g>
</svg>
