<svg width="600" height="547" viewBox="0 0 600 547" fill="none" xmlns="http://www.w3.org/2000/svg">
<g clip-path="url(#clip0_1029_33)">
<path d="M351.198 0.425781H211.565C203.959 0.425781 197.793 6.574 197.793 14.1582V243.968C197.793 251.553 203.959 257.701 211.565 257.701H351.198C358.804 257.701 364.97 251.553 364.97 243.968V14.1582C364.97 6.574 358.804 0.425781 351.198 0.425781Z" fill="#FFAE44"/>
<path d="M351.197 258.127H211.566C207.801 258.122 204.192 256.629 201.53 253.975C198.868 251.32 197.371 247.721 197.367 243.967V14.1554C197.371 10.4017 198.869 6.80286 201.53 4.14856C204.192 1.49427 207.802 0.00130455 211.566 -0.00274658H351.197C354.962 0.00130387 358.572 1.49422 361.234 4.14848C363.896 6.80273 365.393 10.4016 365.398 14.1554V243.967C365.393 247.721 363.896 251.32 361.234 253.974C358.572 256.629 354.962 258.122 351.197 258.127ZM211.566 0.851532C208.029 0.855581 204.637 2.25845 202.135 4.75245C199.634 7.24646 198.226 10.628 198.221 14.1554V243.967C198.225 247.495 199.632 250.877 202.134 253.372C204.636 255.867 208.028 257.271 211.566 257.275H351.197C354.736 257.271 358.128 255.868 360.63 253.373C363.132 250.878 364.539 247.495 364.543 243.967V14.1554C364.539 10.6274 363.132 7.24494 360.63 4.75025C358.128 2.25556 354.736 0.85243 351.197 0.848747L211.566 0.851532Z" fill="#FFAE44"/>
<path d="M250.121 131.154C244.215 175.178 218.196 202.529 182.93 210.23C178.139 211.273 173.276 211.952 168.382 212.259C157.527 212.947 146.021 211.97 134.123 209.235L135.924 163.257C180.121 181.161 203.097 156.213 219.101 113.912L250.121 131.154Z" fill="#6680FF"/>
<path d="M151.158 164.697L149.164 148.751C149.164 148.751 154.187 146.842 154.9 145.338C155.972 143.083 153.421 135.467 153.421 135.467C153.421 135.467 155.86 135.157 155.096 132.857C154.387 130.738 150.33 131.563 150.33 131.563C150.33 131.563 143.19 118.79 140.1 119.507C133.53 121.029 131.125 144.876 131.125 144.876L130.494 164.697H151.158Z" fill="white"/>
<path d="M151.157 165.104H130.493C130.438 165.103 130.385 165.092 130.334 165.071C130.284 165.05 130.239 165.019 130.201 164.98C130.163 164.941 130.133 164.895 130.113 164.845C130.093 164.794 130.083 164.74 130.084 164.686L130.718 144.868C130.818 143.854 133.229 120.683 140.009 119.113C143.147 118.388 149.33 128.968 150.548 131.116C151.56 130.96 154.787 130.64 155.485 132.733C155.989 134.24 155.333 135.331 153.95 135.765C154.508 137.518 156.271 143.417 155.274 145.516C154.593 146.952 150.792 148.552 149.613 149.02L151.567 164.649C151.573 164.706 151.566 164.764 151.549 164.819C151.531 164.873 151.502 164.924 151.464 164.967C151.426 165.01 151.379 165.045 151.326 165.069C151.274 165.093 151.217 165.107 151.159 165.108L151.157 165.104ZM130.916 164.287H150.698L148.766 148.801C148.755 148.711 148.774 148.619 148.821 148.541C148.868 148.463 148.94 148.402 149.026 148.37C150.91 147.654 154.07 146.144 154.539 145.163C155.359 143.435 153.735 137.671 153.04 135.596C153.023 135.539 153.017 135.479 153.025 135.419C153.033 135.36 153.054 135.303 153.086 135.252C153.117 135.201 153.16 135.157 153.21 135.124C153.26 135.092 153.317 135.07 153.377 135.061C153.494 134.945 155.33 134.856 154.712 132.986C154.137 131.264 150.456 131.957 150.42 131.964C150.334 131.98 150.246 131.969 150.167 131.933C150.088 131.897 150.022 131.837 149.979 131.762C147.276 126.928 142.25 119.423 140.199 119.903C133.985 121.343 131.562 144.682 131.539 144.917L130.916 164.287Z" fill="black"/>
<path d="M145.463 119.725C138.778 131.721 143.585 133.106 143.585 133.106C143.585 133.106 135.806 159.754 130.479 156.995C127.942 155.68 128.201 152.07 122.233 149.091C114.856 145.409 111.629 138.959 119.303 136.957C119.303 136.957 110.512 124.749 124.413 116.52C140.245 107.152 148.31 114.619 145.463 119.725Z" fill="black"/>
<path d="M146.028 136.9C146.027 137.802 145.757 138.683 145.254 139.432C144.75 140.181 144.035 140.765 143.199 141.109C142.363 141.454 141.444 141.543 140.557 141.367C139.67 141.191 138.855 140.756 138.216 140.118C137.576 139.481 137.14 138.668 136.963 137.784C136.786 136.899 136.876 135.983 137.222 135.149C137.567 134.315 138.152 133.603 138.904 133.101C139.655 132.599 140.539 132.33 141.443 132.328C142.659 132.328 143.825 132.81 144.685 133.667C145.545 134.525 146.028 135.687 146.028 136.9Z" fill="white"/>
<path d="M141.443 141.88C140.455 141.88 139.489 141.587 138.667 141.04C137.846 140.493 137.206 139.715 136.828 138.805C136.449 137.895 136.351 136.893 136.543 135.927C136.736 134.961 137.212 134.073 137.91 133.376C138.609 132.68 139.499 132.206 140.468 132.013C141.437 131.821 142.441 131.92 143.354 132.297C144.267 132.674 145.047 133.312 145.596 134.131C146.145 134.95 146.438 135.913 146.438 136.899C146.439 137.553 146.31 138.201 146.059 138.805C145.808 139.41 145.44 139.959 144.976 140.422C144.512 140.884 143.961 141.251 143.355 141.501C142.749 141.752 142.099 141.88 141.443 141.88ZM141.443 132.734C140.617 132.734 139.809 132.979 139.122 133.436C138.436 133.894 137.9 134.544 137.584 135.305C137.268 136.066 137.185 136.903 137.347 137.711C137.508 138.519 137.905 139.261 138.49 139.843C139.074 140.426 139.818 140.822 140.628 140.983C141.438 141.143 142.278 141.061 143.041 140.746C143.804 140.431 144.456 139.897 144.915 139.212C145.374 138.527 145.619 137.722 145.619 136.899C145.619 136.352 145.511 135.81 145.302 135.305C145.092 134.799 144.784 134.34 144.396 133.954C144.009 133.567 143.548 133.26 143.041 133.051C142.534 132.842 141.991 132.735 141.443 132.736V132.734Z" fill="black"/>
<path d="M149.163 148.751C149.163 148.751 147.863 149.494 143.789 147.748C144.258 149.068 145.043 150.253 146.076 151.202C147.109 152.15 148.359 152.832 149.717 153.188L149.163 148.751Z" fill="black"/>
<path d="M149.615 153.583C144.743 152.277 143.455 148.042 143.403 147.862C143.381 147.787 143.381 147.708 143.403 147.633C143.425 147.559 143.467 147.492 143.526 147.44C143.585 147.389 143.657 147.355 143.734 147.343C143.811 147.331 143.89 147.341 143.961 147.372C147.701 148.977 148.965 148.396 148.985 148.391C149.043 148.362 149.108 148.348 149.173 148.348C149.238 148.349 149.302 148.365 149.36 148.394C149.418 148.424 149.469 148.467 149.507 148.52C149.546 148.572 149.571 148.633 149.582 148.697L150.14 153.134C150.15 153.202 150.142 153.271 150.118 153.336C150.094 153.4 150.053 153.457 150.001 153.502C149.949 153.547 149.886 153.578 149.819 153.592C149.751 153.606 149.681 153.603 149.615 153.583ZM144.559 148.494C145.52 150.424 147.202 151.903 149.243 152.614L148.824 149.274C148.153 149.379 146.84 149.356 144.559 148.494Z" fill="black"/>
<path d="M149.947 140.499C149.929 140.449 149.921 140.395 149.924 140.342C149.927 140.288 149.941 140.235 149.964 140.187C149.988 140.139 150.02 140.096 150.06 140.06C150.101 140.024 150.147 139.997 150.198 139.979L154.285 138.557C154.388 138.521 154.5 138.528 154.598 138.575C154.696 138.622 154.771 138.706 154.806 138.808C154.842 138.91 154.836 139.023 154.788 139.12C154.741 139.217 154.657 139.292 154.554 139.328L150.467 140.751C150.365 140.786 150.253 140.779 150.155 140.732C150.058 140.685 149.983 140.601 149.947 140.499Z" fill="black"/>
<path d="M147.021 129.056C147.022 129.282 146.955 129.504 146.83 129.693C146.704 129.882 146.525 130.029 146.315 130.117C146.105 130.204 145.874 130.227 145.651 130.183C145.428 130.139 145.223 130.03 145.063 129.87C144.902 129.71 144.792 129.505 144.748 129.283C144.704 129.061 144.727 128.83 144.815 128.621C144.902 128.412 145.05 128.233 145.24 128.108C145.429 127.983 145.652 127.916 145.879 127.917C146.182 127.918 146.472 128.038 146.686 128.251C146.9 128.465 147.02 128.754 147.021 129.056Z" fill="black"/>
<path d="M142.833 129.939C142.165 126.536 144.753 125.826 144.779 125.819C144.884 125.792 144.996 125.807 145.09 125.862C145.183 125.916 145.251 126.006 145.279 126.11C145.307 126.215 145.291 126.326 145.237 126.419C145.182 126.513 145.092 126.581 144.987 126.608C144.911 126.631 143.12 127.152 143.637 129.782C143.658 129.888 143.635 129.998 143.575 130.088C143.545 130.133 143.506 130.171 143.461 130.201C143.417 130.23 143.366 130.251 143.314 130.261C143.207 130.282 143.096 130.26 143.006 130.199C142.916 130.139 142.854 130.045 142.833 129.939Z" fill="black"/>
<path d="M182.93 210.23C178.139 211.274 173.276 211.952 168.382 212.259L165.936 184.527C174.168 192.428 180.557 200.808 182.93 210.23Z" fill="black"/>
<path d="M343.909 0.425781H204.276C196.67 0.425781 190.504 6.574 190.504 14.1582V243.968C190.504 251.553 196.67 257.701 204.276 257.701H343.909C351.515 257.701 357.681 251.553 357.681 243.968V14.1582C357.681 6.574 351.515 0.425781 343.909 0.425781Z" fill="white"/>
<path d="M343.908 258.126H204.279C200.514 258.122 196.904 256.629 194.242 253.975C191.58 251.32 190.082 247.721 190.078 243.967V14.1554C190.083 10.402 191.581 6.80389 194.243 4.15024C196.905 1.49658 200.514 0.004049 204.279 0H343.908C347.673 0.004049 351.282 1.49658 353.944 4.15024C356.606 6.80389 358.104 10.402 358.109 14.1554V243.967C358.105 247.721 356.607 251.32 353.945 253.975C351.283 256.629 347.673 258.122 343.908 258.126ZM204.279 0.851493C200.741 0.854807 197.348 2.2574 194.846 4.75152C192.344 7.24565 190.937 10.6276 190.932 14.1554V243.967C190.936 247.495 192.343 250.878 194.845 253.373C197.347 255.867 200.739 257.271 204.277 257.275H343.908C347.447 257.271 350.839 255.867 353.341 253.373C355.843 250.878 357.25 247.495 357.253 243.967V14.1554C357.25 10.6274 355.843 7.2449 353.341 4.75021C350.839 2.25553 347.447 0.852391 343.908 0.848708L204.279 0.851493Z" fill="black"/>
<path d="M289.359 219.077C289.359 222.888 288.226 226.612 286.103 229.781C283.981 232.949 280.963 235.418 277.433 236.876C273.903 238.335 270.018 238.716 266.27 237.973C262.523 237.23 259.08 235.395 256.378 232.701C253.676 230.007 251.836 226.575 251.09 222.838C250.345 219.101 250.727 215.227 252.189 211.707C253.652 208.187 256.128 205.178 259.305 203.061C262.482 200.944 266.218 199.814 270.039 199.814C272.576 199.814 275.088 200.312 277.432 201.28C279.776 202.248 281.906 203.667 283.7 205.456C285.494 207.245 286.917 209.368 287.888 211.705C288.859 214.043 289.359 216.548 289.359 219.077Z" fill="#75C675"/>
<path d="M269.192 222.457C269.133 222.457 269.075 222.444 269.021 222.42C268.968 222.396 268.92 222.361 268.881 222.318L264.852 218.044C264.813 218.003 264.781 217.955 264.76 217.903C264.74 217.85 264.729 217.794 264.731 217.737C264.732 217.681 264.744 217.625 264.767 217.573C264.79 217.522 264.823 217.475 264.864 217.436C264.906 217.398 264.954 217.367 265.007 217.347C265.06 217.328 265.117 217.318 265.174 217.321C265.23 217.323 265.286 217.336 265.337 217.36C265.389 217.384 265.435 217.417 265.473 217.459L269.222 221.437L278.423 213.498C278.51 213.435 278.618 213.407 278.724 213.419C278.831 213.432 278.929 213.483 279 213.564C279.07 213.645 279.107 213.75 279.104 213.857C279.1 213.964 279.057 214.066 278.982 214.142L269.469 222.351C269.392 222.418 269.294 222.456 269.192 222.457Z" fill="black"/>
<path d="M47.4023 303.979C47.4023 303.979 92.4037 327.843 116.034 327.829C139.664 327.815 122.75 286.266 122.75 286.266C122.75 286.266 74.7819 280.918 47.4023 303.979Z" fill="black"/>
<path d="M16.1568 493.107L0.77171 513.941C0.125663 514.816 0.365663 515.832 1.32985 516.317L9.17171 520.252C9.71574 520.505 10.3256 520.582 10.9159 520.473L18.6071 519.192C19.5112 519.041 20.3108 519.443 20.4364 520.109L21.5038 525.786C21.5571 526.028 21.6663 526.253 21.8226 526.445C21.9788 526.637 22.1779 526.79 22.4038 526.891L58.7024 545.101C59.8843 545.694 61.6326 545.257 62.4071 544.184C66.8526 538.039 66.0029 530.827 60.0071 526.481L55.5782 523.265L59.7978 515.002L16.1568 493.107Z" fill="#FFAE44"/>
<path d="M58.5183 545.467L22.2225 527.256C21.9402 527.127 21.692 526.934 21.4981 526.693C21.3042 526.451 21.17 526.167 21.1062 525.864L20.0374 520.182C19.9551 519.745 19.3397 519.486 18.6783 519.594C11.7197 520.591 10.489 521.366 8.99181 520.615L1.14855 516.68C-0.0430742 516.083 -0.357029 514.778 0.441111 513.697L15.8262 492.863C15.8848 492.787 15.968 492.733 16.0618 492.711C16.1556 492.688 16.2543 492.699 16.3411 492.741L59.9806 514.636C60.0296 514.661 60.0733 514.694 60.1091 514.735C60.1448 514.777 60.1719 514.825 60.1888 514.876C60.2057 514.928 60.2121 514.983 60.2075 515.037C60.2029 515.092 60.1874 515.145 60.162 515.193L56.1016 523.144L60.2486 526.155C66.3155 530.553 67.3397 538.068 62.7406 544.427C61.842 545.663 59.8676 546.144 58.5183 545.467ZM20.8439 520.033L21.9113 525.711C21.9529 525.891 22.0362 526.058 22.1545 526.199C22.2728 526.341 22.4227 526.452 22.5923 526.525L58.8839 544.736C59.8885 545.241 61.4081 544.864 62.0723 543.945C66.4606 537.88 65.5327 530.994 59.763 526.81L55.3341 523.595C55.2556 523.538 55.2001 523.455 55.1776 523.36C55.1551 523.266 55.167 523.167 55.2113 523.08L59.2425 515.183L16.2811 493.627L1.10111 514.183C0.605763 514.852 0.775996 515.581 1.51972 515.953L9.36297 519.887C9.82963 520.099 10.3504 520.163 10.8546 520.069L18.5458 518.789C19.7402 518.589 20.6862 519.208 20.8425 520.033H20.8439Z" fill="#FFAE44"/>
<path d="M43.6645 506.909L9.94727 501.451L16.1203 493.09L43.6645 506.909Z" fill="black"/>
<path d="M43.5988 507.311L9.88159 501.853C9.81229 501.842 9.74705 501.813 9.69209 501.769C9.63714 501.726 9.59431 501.669 9.56771 501.604C9.5411 501.539 9.53162 501.469 9.54015 501.399C9.54869 501.33 9.57497 501.264 9.61647 501.207L15.7909 492.847C15.8483 492.769 15.9313 492.715 16.0253 492.692C16.1192 492.67 16.218 492.681 16.3044 492.724L43.8486 506.547C43.932 506.593 43.9968 506.667 44.0318 506.755C44.0667 506.844 44.0697 506.942 44.0401 507.032C44.0106 507.122 43.9503 507.2 43.8698 507.251C43.7892 507.302 43.6934 507.323 43.5988 507.311ZM10.6686 501.153L41.0955 506.08L16.2458 493.608L10.6686 501.153Z" fill="black"/>
<path d="M20.5234 520.556L21.5002 525.786C21.5535 526.028 21.6627 526.253 21.819 526.444C21.9752 526.636 22.1743 526.789 22.4002 526.89L58.7016 545.101C59.8834 545.694 61.6318 545.257 62.4076 544.184C62.8636 543.548 63.2735 542.881 63.6341 542.187L20.5234 520.556Z" fill="black"/>
<path d="M58.5177 545.467L22.2219 527.256C21.9395 527.127 21.6914 526.934 21.4975 526.693C21.3036 526.451 21.1694 526.167 21.1056 525.864L20.1219 520.636C20.1082 520.561 20.1157 520.484 20.1434 520.413C20.1711 520.343 20.218 520.281 20.2788 520.235C20.3396 520.19 20.412 520.162 20.4878 520.155C20.5635 520.148 20.6398 520.162 20.7079 520.196L63.8242 541.826C63.8732 541.85 63.9169 541.883 63.9526 541.925C63.9883 541.966 64.0154 542.014 64.0322 542.066C64.0489 542.118 64.0551 542.173 64.0503 542.227C64.0455 542.281 64.0298 542.334 64.0042 542.382C63.6354 543.094 63.2157 543.778 62.7484 544.43C61.8442 545.66 59.8712 546.146 58.5177 545.467ZM21.0777 521.295L21.9149 525.714C21.9565 525.893 22.0397 526.061 22.158 526.202C22.2763 526.343 22.4263 526.455 22.5958 526.528L58.8833 544.736C59.8879 545.241 61.4075 544.864 62.0716 543.945C62.4376 543.438 62.7717 542.91 63.0721 542.363L21.0777 521.295Z" fill="black"/>
<path d="M2.54659 511.536L0.77171 513.941C0.125663 514.816 0.365663 515.831 1.32985 516.317L9.17032 520.252C9.71437 520.505 10.3242 520.582 10.9145 520.473L18.0001 519.293L2.54659 511.536Z" fill="black"/>
<path d="M8.99181 520.616L1.14855 516.681C-0.0430742 516.085 -0.357029 514.78 0.441111 513.698L2.21599 511.294C2.27453 511.218 2.35775 511.164 2.45157 511.142C2.54538 511.119 2.64405 511.13 2.73088 511.172L18.1886 518.93C18.2655 518.969 18.3282 519.031 18.3676 519.108C18.4071 519.184 18.4213 519.271 18.4084 519.356C18.3954 519.441 18.3558 519.52 18.2953 519.581C18.2348 519.643 18.1564 519.684 18.0713 519.698C11.9472 520.49 10.5755 521.412 8.99181 520.616ZM2.67088 512.057L1.10111 514.183C0.605763 514.852 0.775996 515.581 1.51972 515.952L9.36297 519.887C9.82963 520.099 10.3504 520.163 10.8546 520.069L16.7039 519.095L2.67088 512.057Z" fill="black"/>
<path d="M134.093 275.927C145.116 400.508 140.338 407.368 60.3637 514.973C45.1948 508.634 31.2832 499.791 16.1855 493.3C62.1358 393.913 83.6479 414.081 56.2321 301.102C82.0949 292.478 108.139 284.307 134.093 275.927Z" fill="white"/>
<path d="M60.2061 515.35C45.054 509.014 31.0433 500.133 16.0209 493.676C15.9707 493.655 15.9253 493.623 15.8874 493.584C15.8495 493.545 15.8199 493.498 15.8003 493.447C15.7808 493.397 15.7718 493.342 15.7737 493.288C15.7756 493.233 15.7885 493.18 15.8116 493.131C27.9051 466.974 38.2544 449.18 46.5693 434.885C69.7628 395.015 75.9958 384.299 55.8275 301.198C55.8028 301.099 55.8166 300.994 55.8659 300.904C55.9153 300.814 55.9967 300.746 56.094 300.714C73.7158 294.841 91.7074 289.085 109.109 283.517C117.398 280.865 125.685 278.206 133.968 275.539C134.027 275.52 134.089 275.515 134.15 275.524C134.211 275.532 134.269 275.554 134.32 275.588C134.371 275.621 134.414 275.666 134.446 275.719C134.477 275.771 134.497 275.83 134.503 275.891C145.571 401.015 140.782 407.465 60.6888 515.217C60.6346 515.289 60.5578 515.342 60.4704 515.366C60.383 515.39 60.29 515.384 60.2061 515.35ZM16.7298 493.089C31.5512 499.507 45.3763 508.221 60.227 514.469C139.846 407.337 144.707 400.702 133.731 276.471C125.613 279.091 117.489 281.698 109.359 284.292C92.0786 289.821 74.2126 295.537 56.7107 301.368C76.8512 384.454 70.5665 395.257 47.2782 435.292C39.0121 449.503 28.734 467.173 16.7298 493.092V493.089Z" fill="black"/>
<path d="M87.5843 434.984C79.7146 423.268 80.0494 406.495 88.3867 395.103C91.5457 390.79 95.6341 387.278 99.0346 383.208C109.168 371.077 112.569 353.531 107.709 338.505C107.682 338.404 107.695 338.296 107.745 338.204C107.796 338.111 107.88 338.042 107.98 338.01C108.08 337.978 108.189 337.985 108.284 338.031C108.379 338.076 108.452 338.156 108.489 338.255C113.436 353.54 109.973 371.391 99.6639 383.732C96.2606 387.807 92.1527 391.342 89.0494 395.584C80.9104 406.715 80.5811 423.088 88.2653 434.529C88.3202 434.619 88.3381 434.727 88.3153 434.83C88.2926 434.933 88.2309 435.023 88.1431 435.081C88.0553 435.14 87.9482 435.163 87.8441 435.145C87.74 435.126 87.647 435.069 87.5843 434.984Z" fill="#6680FF"/>
<path d="M70.7584 501.104L23.2746 478.489C23.2261 478.466 23.1825 478.434 23.1465 478.394C23.1105 478.355 23.0827 478.308 23.0647 478.258C23.0467 478.207 23.0388 478.153 23.0416 478.1C23.0443 478.046 23.0576 477.994 23.0807 477.945C23.1038 477.897 23.1362 477.854 23.1761 477.818C23.216 477.782 23.2627 477.754 23.3133 477.736C23.364 477.718 23.4177 477.71 23.4714 477.713C23.5251 477.716 23.5777 477.729 23.6263 477.752L71.11 500.367C71.1585 500.39 71.2021 500.422 71.2381 500.462C71.2741 500.502 71.302 500.548 71.32 500.599C71.338 500.649 71.3458 500.703 71.3431 500.756C71.3403 500.81 71.327 500.862 71.3039 500.911C71.2809 500.959 71.2484 501.003 71.2085 501.039C71.1686 501.074 71.122 501.102 71.0713 501.12C71.0207 501.138 70.9669 501.146 70.9132 501.143C70.8596 501.14 70.8069 501.127 70.7584 501.104Z" fill="black"/>
<path d="M114.013 508.004L104.868 532.213C104.484 533.23 104.992 534.144 106.055 534.349L114.674 536.018C115.266 536.115 115.874 536.024 116.411 535.758L123.468 532.447C124.295 532.057 125.176 532.228 125.477 532.835L128.049 538.011C128.165 538.227 128.331 538.414 128.532 538.555C128.734 538.697 128.966 538.789 129.21 538.826L169.098 546.544C170.397 546.794 171.96 545.901 172.415 544.658C175.023 537.542 172.245 530.831 165.29 528.267L160.154 526.369L161.968 517.276L114.013 508.004Z" fill="#FFAE44"/>
<path d="M169.553 546.999C169.376 546.999 169.199 546.983 169.025 546.95L129.138 539.234C128.83 539.187 128.538 539.068 128.285 538.887C128.032 538.706 127.826 538.468 127.683 538.193L125.111 533.017C124.914 532.619 124.256 532.529 123.643 532.817L116.588 536.13C115.971 536.433 115.275 536.534 114.597 536.42L105.978 534.751C105.682 534.71 105.4 534.602 105.154 534.434C104.908 534.266 104.704 534.043 104.56 533.783C104.415 533.523 104.333 533.233 104.32 532.936C104.307 532.639 104.364 532.343 104.486 532.071L113.63 507.862C113.663 507.771 113.727 507.695 113.812 507.648C113.897 507.601 113.996 507.586 114.09 507.606L162.051 516.883C162.104 516.894 162.155 516.914 162.2 516.944C162.245 516.974 162.283 517.012 162.313 517.057C162.344 517.102 162.365 517.152 162.375 517.205C162.386 517.258 162.386 517.312 162.375 517.365L160.63 526.116L165.439 527.893C172.475 530.488 175.504 537.443 172.805 544.807C172.341 546.069 170.908 546.999 169.553 546.999ZM124.353 531.833C125.008 531.833 125.581 532.124 125.843 532.655L128.417 537.831C128.505 537.993 128.631 538.131 128.783 538.235C128.935 538.339 129.11 538.406 129.293 538.431L169.182 546.149C170.298 546.361 171.646 545.592 172.035 544.524C174.611 537.5 171.845 531.122 165.155 528.662L160.017 526.765C159.926 526.731 159.849 526.666 159.802 526.581C159.754 526.496 159.738 526.397 159.757 526.301L161.49 517.61L114.28 508.47L105.258 532.36C105.186 532.524 105.152 532.701 105.156 532.88C105.161 533.058 105.205 533.233 105.284 533.393C105.378 533.542 105.502 533.67 105.65 533.766C105.798 533.862 105.965 533.925 106.14 533.949L114.759 535.619C115.265 535.7 115.785 535.62 116.243 535.391L123.298 532.078C123.628 531.921 123.988 531.837 124.353 531.833Z" fill="#FFAE44"/>
<path d="M144.244 513.853L110.305 517.712L113.974 507.997L144.244 513.853Z" fill="black"/>
<path d="M110.304 518.12C110.237 518.121 110.171 518.105 110.112 518.074C110.052 518.043 110.002 517.999 109.964 517.944C109.926 517.889 109.902 517.825 109.895 517.759C109.888 517.693 109.897 517.626 109.921 517.564L113.59 507.848C113.623 507.757 113.687 507.681 113.772 507.634C113.857 507.586 113.955 507.571 114.05 507.591L144.321 513.447C144.417 513.466 144.502 513.518 144.562 513.595C144.623 513.671 144.654 513.766 144.65 513.863C144.646 513.96 144.608 514.053 144.542 514.124C144.476 514.196 144.387 514.242 144.29 514.254L110.351 518.113C110.336 518.117 110.32 518.119 110.304 518.12ZM114.235 508.463L110.923 517.228L141.551 513.75L114.235 508.463Z" fill="black"/>
<path d="M125.68 533.244L128.052 538.012C128.168 538.228 128.334 538.414 128.535 538.555C128.736 538.696 128.967 538.789 129.21 538.826L169.099 546.544C170.398 546.794 171.961 545.901 172.416 544.658C172.682 543.923 172.896 543.17 173.055 542.404L125.68 533.244Z" fill="black"/>
<path d="M169.552 546.999C169.375 546.999 169.198 546.983 169.024 546.95L129.137 539.232C128.466 539.103 127.949 538.734 127.681 538.193L125.309 533.425C125.276 533.357 125.262 533.28 125.27 533.205C125.277 533.129 125.305 533.057 125.352 532.997C125.398 532.936 125.46 532.89 125.531 532.863C125.602 532.836 125.68 532.829 125.754 532.843L173.132 542.009C173.24 542.031 173.335 542.094 173.397 542.185C173.427 542.23 173.447 542.28 173.457 542.333C173.468 542.386 173.467 542.441 173.456 542.493C173.294 543.279 173.075 544.051 172.8 544.804C172.34 546.069 170.907 546.999 169.552 546.999ZM126.419 533.802L128.42 537.837C128.508 537.998 128.634 538.136 128.786 538.24C128.938 538.345 129.113 538.412 129.296 538.436L169.185 546.153C170.291 546.367 171.649 545.596 172.038 544.529C172.253 543.943 172.431 543.345 172.571 542.737L126.419 533.802Z" fill="black"/>
<path d="M105.924 529.422L104.868 532.216C104.484 533.233 104.992 534.145 106.055 534.351L114.674 536.021C115.266 536.118 115.874 536.027 116.411 535.761L122.912 532.71L105.924 529.422Z" fill="black"/>
<path d="M115.126 536.469C114.948 536.47 114.771 536.454 114.597 536.42L105.978 534.751C105.682 534.71 105.4 534.602 105.154 534.434C104.908 534.266 104.704 534.043 104.56 533.783C104.415 533.523 104.333 533.233 104.32 532.936C104.307 532.639 104.364 532.343 104.486 532.071L105.543 529.277C105.575 529.186 105.639 529.109 105.724 529.062C105.809 529.014 105.908 529 106.003 529.02L122.99 532.306C123.075 532.323 123.152 532.365 123.211 532.428C123.27 532.491 123.307 532.571 123.318 532.656C123.329 532.742 123.313 532.828 123.271 532.904C123.23 532.979 123.166 533.04 123.088 533.077L116.588 536.128C116.131 536.347 115.632 536.463 115.126 536.469ZM106.187 529.889L105.252 532.36C105.181 532.524 105.146 532.701 105.151 532.88C105.155 533.058 105.199 533.233 105.279 533.393C105.372 533.542 105.497 533.67 105.645 533.766C105.792 533.862 105.959 533.925 106.134 533.949L114.753 535.619C115.26 535.7 115.779 535.62 116.238 535.391L121.604 532.872L106.187 529.889Z" fill="black"/>
<path d="M168.48 267.076C205.024 368.821 208.515 394.09 162.509 517.098C146.183 515.093 130.391 510.344 114.09 508.181C131.295 400.094 100.373 312.355 100.373 312.355C79.783 247.807 135.915 251.137 168.48 267.076Z" fill="white"/>
<path d="M162.51 517.508C162.494 517.509 162.477 517.509 162.46 517.508C154.039 516.474 145.629 514.684 137.496 512.953C129.844 511.324 121.931 509.639 114.036 508.591C113.982 508.584 113.929 508.566 113.882 508.539C113.835 508.511 113.794 508.475 113.761 508.431C113.728 508.387 113.705 508.337 113.692 508.284C113.679 508.231 113.677 508.176 113.686 508.122C130.678 401.372 100.29 313.372 99.9861 312.501C92.6912 289.63 94.3112 273.472 104.799 264.461C119.575 251.767 148.262 256.732 168.661 266.717C168.757 266.764 168.83 266.846 168.866 266.946C205.862 369.949 208.48 395.366 162.894 517.246C162.864 517.324 162.811 517.39 162.743 517.437C162.674 517.483 162.593 517.508 162.51 517.508ZM114.559 507.834C122.347 508.89 130.134 510.547 137.666 512.147C145.68 513.853 153.961 515.616 162.24 516.651C207.588 395.352 204.976 369.913 168.152 267.365C147.361 257.235 119.15 253.198 105.334 265.068C95.1177 273.844 93.58 289.713 100.763 312.234C101.067 313.099 131.443 401.068 114.559 507.834Z" fill="black"/>
<path d="M166.96 432.748C156.2 423.597 151.965 407.362 156.89 394.144C158.759 389.136 161.744 384.642 163.905 379.814C170.359 365.397 168.866 347.586 160.1 334.44C160.07 334.395 160.05 334.345 160.039 334.293C160.029 334.24 160.029 334.186 160.04 334.133C160.05 334.081 160.071 334.031 160.101 333.986C160.131 333.942 160.169 333.904 160.214 333.874C160.259 333.844 160.309 333.824 160.362 333.813C160.414 333.803 160.468 333.803 160.521 333.814C160.574 333.824 160.624 333.845 160.668 333.875C160.713 333.905 160.751 333.943 160.781 333.987C169.7 347.362 171.22 365.48 164.652 380.148C162.485 384.988 159.489 389.497 157.657 394.425C152.849 407.333 156.984 423.188 167.491 432.13C167.535 432.164 167.572 432.207 167.599 432.255C167.626 432.303 167.643 432.357 167.648 432.412C167.654 432.467 167.649 432.523 167.632 432.575C167.616 432.628 167.589 432.677 167.553 432.719C167.517 432.761 167.472 432.796 167.423 432.82C167.373 432.845 167.319 432.859 167.263 432.862C167.208 432.866 167.152 432.857 167.1 432.838C167.048 432.82 167 432.79 166.96 432.752V432.748Z" fill="#6680FF"/>
<path d="M168.812 500.946C168.789 500.948 168.765 500.948 168.742 500.946L116.888 492.015C116.835 492.006 116.785 491.986 116.739 491.958C116.694 491.929 116.655 491.892 116.624 491.848C116.593 491.804 116.571 491.755 116.559 491.702C116.547 491.65 116.546 491.596 116.555 491.543C116.564 491.49 116.583 491.44 116.612 491.395C116.641 491.349 116.678 491.31 116.722 491.279C116.766 491.248 116.816 491.226 116.868 491.215C116.921 491.203 116.975 491.201 117.028 491.211L168.882 500.14C168.982 500.159 169.071 500.214 169.133 500.294C169.195 500.375 169.224 500.476 169.215 500.577C169.207 500.678 169.161 500.773 169.086 500.842C169.011 500.911 168.914 500.95 168.812 500.951V500.946Z" fill="black"/>
<path d="M175.004 235.803C185.888 277.821 186.788 322.005 186.788 322.005C181.578 319.16 163.047 308.821 140.253 302.184C99.8312 290.416 47.4023 303.979 47.4023 303.979C71.567 150.193 142.271 162.532 145.904 163.693C173.521 172.575 167.056 205.146 175.004 235.803Z" fill="#6680FF"/>
<path d="M242.143 224.611C242.143 224.611 243.597 215.066 246.362 215.428C249.128 215.79 246.997 224.536 246.997 224.536" fill="white"/>
<path d="M242.14 225.036C242.119 225.038 242.098 225.038 242.077 225.036C241.965 225.019 241.865 224.959 241.797 224.868C241.73 224.777 241.701 224.663 241.717 224.551C241.971 222.888 243.383 214.617 246.418 215.016C246.654 215.048 246.88 215.13 247.08 215.258C247.28 215.385 247.45 215.555 247.578 215.755C249.012 217.842 247.578 223.955 247.412 224.646C247.399 224.7 247.375 224.751 247.342 224.796C247.309 224.841 247.267 224.88 247.219 224.909C247.171 224.938 247.118 224.957 247.063 224.966C247.007 224.975 246.951 224.972 246.896 224.959C246.842 224.946 246.79 224.922 246.745 224.889C246.7 224.856 246.661 224.815 246.632 224.767C246.603 224.719 246.583 224.666 246.575 224.611C246.566 224.556 246.568 224.5 246.582 224.445C247.013 222.673 247.906 217.743 246.873 216.236C246.813 216.135 246.73 216.049 246.631 215.984C246.533 215.919 246.421 215.877 246.304 215.861C244.726 215.644 243.142 220.886 242.563 224.679C242.547 224.779 242.495 224.87 242.418 224.935C242.34 225.001 242.242 225.037 242.14 225.036Z" fill="black"/>
<path d="M242.949 224.71C242.949 224.71 247.91 220.409 249.627 218.963C252.986 216.136 260.952 209.392 262.484 211.044C264.383 213.095 253.645 222.39 253.645 222.39C253.645 222.39 257.524 221.159 256.791 224.845C258.382 223.303 260.575 226.322 258.447 228.184C258.447 228.184 261.872 228.74 258.567 232.241C255.887 235.082 253.135 236.473 250.712 237.261C248.758 237.897 246.255 238.077 244.315 242.442L242.949 224.71Z" fill="white"/>
<path d="M243.889 242.48L242.523 224.742C242.518 224.675 242.529 224.609 242.554 224.548C242.579 224.486 242.619 224.432 242.669 224.388C242.669 224.388 247.632 220.085 249.351 218.638L249.478 218.531C256.399 212.704 261.312 209.156 262.797 210.756C262.921 210.894 263.015 211.057 263.073 211.234C263.13 211.41 263.15 211.597 263.132 211.781C262.992 214.275 257.443 219.55 254.986 221.768C255.561 221.768 256.189 221.896 256.653 222.311C257.118 222.726 257.32 223.293 257.309 224.053C257.604 223.97 257.917 223.974 258.209 224.065C258.926 224.28 259.508 224.966 259.695 225.811C259.777 226.188 259.776 226.577 259.692 226.952C259.609 227.328 259.444 227.681 259.211 227.988C259.636 228.178 260.137 228.523 260.341 229.121C260.651 230.03 260.158 231.179 258.876 232.539C256.568 234.986 253.939 236.665 250.844 237.671C250.599 237.75 250.343 237.824 250.083 237.898C248.322 238.403 246.325 238.975 244.705 242.62C244.666 242.707 244.6 242.778 244.516 242.823C244.432 242.868 244.336 242.884 244.242 242.867C244.148 242.851 244.062 242.804 243.998 242.734C243.934 242.664 243.896 242.574 243.889 242.48ZM243.39 224.89L244.624 240.906C246.28 238.101 248.237 237.54 249.848 237.08C253.074 236.155 255.79 234.567 258.255 231.954C259.272 230.876 259.726 229.969 259.533 229.398C259.323 228.776 258.386 228.611 258.376 228.609C258.297 228.596 258.222 228.561 258.162 228.507C258.101 228.454 258.058 228.384 258.035 228.306C258.013 228.229 258.013 228.147 258.036 228.069C258.059 227.992 258.104 227.922 258.164 227.869C258.971 227.161 258.946 226.39 258.862 225.994C258.745 225.453 258.385 225.006 257.966 224.881C257.665 224.789 257.369 224.881 257.091 225.151C257.027 225.215 256.943 225.257 256.853 225.269C256.762 225.282 256.67 225.265 256.59 225.22C256.51 225.177 256.446 225.109 256.407 225.027C256.368 224.944 256.357 224.852 256.374 224.762C256.549 223.883 256.454 223.271 256.087 222.945C255.487 222.411 254.216 222.656 253.775 222.795C253.681 222.824 253.58 222.82 253.489 222.785C253.398 222.749 253.321 222.684 253.272 222.599C253.224 222.513 253.207 222.414 253.224 222.317C253.241 222.221 253.291 222.133 253.366 222.069C255.803 219.958 262.156 213.989 262.282 211.735C262.295 211.664 262.291 211.592 262.272 211.522C262.253 211.452 262.219 211.388 262.172 211.333C261.614 210.725 259.045 211.594 250.032 219.18L249.904 219.288C248.372 220.577 244.258 224.139 243.39 224.89Z" fill="black"/>
<path d="M113.99 212.853C141.913 265.862 195.897 284.142 248.99 249.674L241.884 214.977C199.277 230.447 165.327 229.337 150.134 184.244" fill="#6680FF"/>
<path d="M171.45 264.336C167.386 263.121 163.424 261.591 159.598 259.761C140.9 250.839 125.003 234.687 113.612 213.05C113.559 212.95 113.548 212.833 113.582 212.726C113.615 212.618 113.691 212.527 113.791 212.475C113.891 212.422 114.008 212.412 114.117 212.445C114.225 212.479 114.315 212.554 114.368 212.654C125.67 234.127 141.438 250.151 159.968 258.993C163.751 260.804 167.67 262.317 171.689 263.521C171.795 263.555 171.884 263.629 171.935 263.728C171.987 263.827 171.998 263.942 171.966 264.048C171.934 264.155 171.861 264.245 171.764 264.298C171.666 264.352 171.551 264.366 171.443 264.336H171.45Z" fill="black"/>
<path d="M253.643 222.39C253.643 222.39 252.693 223.072 251.217 224.541L253.643 222.39Z" fill="white"/>
<path d="M251.218 224.967C251.134 224.966 251.052 224.941 250.982 224.894C250.912 224.847 250.858 224.781 250.825 224.703C250.793 224.625 250.785 224.54 250.801 224.457C250.817 224.375 250.858 224.299 250.917 224.239C252.399 222.763 253.355 222.073 253.395 222.044C253.488 221.978 253.603 221.951 253.715 221.969C253.827 221.988 253.927 222.05 253.994 222.142C254.06 222.235 254.087 222.349 254.068 222.461C254.05 222.573 253.987 222.673 253.895 222.739C253.883 222.746 252.949 223.424 251.523 224.847C251.441 224.926 251.332 224.969 251.218 224.967Z" fill="black"/>
<path d="M257.033 224.733C257.033 224.733 256.084 225.415 254.607 226.884L257.033 224.733Z" fill="white"/>
<path d="M254.609 227.307C254.525 227.307 254.442 227.282 254.372 227.236C254.302 227.189 254.247 227.123 254.214 227.045C254.182 226.967 254.173 226.882 254.19 226.799C254.206 226.716 254.247 226.641 254.306 226.581C255.789 225.103 256.745 224.413 256.786 224.384C256.878 224.318 256.993 224.291 257.106 224.31C257.218 224.328 257.318 224.391 257.384 224.483C257.451 224.575 257.477 224.69 257.459 224.802C257.44 224.914 257.378 225.014 257.285 225.08C257.274 225.087 256.339 225.764 254.913 227.187C254.832 227.266 254.722 227.309 254.609 227.307Z" fill="black"/>
<path d="M258.659 228.038C258.659 228.038 257.709 228.719 256.232 230.189L258.659 228.038Z" fill="white"/>
<path d="M256.232 230.614C256.148 230.614 256.065 230.588 255.996 230.541C255.926 230.494 255.871 230.428 255.839 230.35C255.807 230.273 255.798 230.187 255.815 230.105C255.831 230.022 255.871 229.946 255.931 229.887C257.414 228.41 258.37 227.72 258.409 227.691C258.455 227.658 258.506 227.635 258.561 227.622C258.616 227.61 258.673 227.608 258.729 227.617C258.784 227.626 258.837 227.646 258.885 227.676C258.933 227.705 258.975 227.744 259.007 227.79C259.04 227.836 259.064 227.887 259.076 227.942C259.089 227.997 259.091 228.053 259.082 228.109C259.073 228.164 259.053 228.217 259.023 228.265C258.993 228.313 258.954 228.354 258.908 228.387C258.069 229.033 257.276 229.737 256.536 230.495C256.496 230.534 256.449 230.565 256.396 230.585C256.344 230.606 256.288 230.616 256.232 230.614Z" fill="black"/>
<path d="M193.953 267.249C182.12 267.187 170.45 264.498 159.789 259.377C159.894 259.086 160 258.796 160.114 258.509C161.701 254.535 164.689 251.274 168.515 249.34C172.342 247.406 176.745 246.931 180.898 248.003C185.051 249.076 188.669 251.623 191.073 255.167C193.476 258.71 194.5 263.007 193.953 267.249Z" fill="black"/>
<path d="M235.886 257.055L226.537 229.706C226.519 229.653 226.511 229.597 226.514 229.541C226.518 229.485 226.532 229.43 226.557 229.38C226.582 229.329 226.616 229.284 226.658 229.247C226.7 229.21 226.749 229.182 226.802 229.163C226.855 229.145 226.912 229.137 226.968 229.141C227.024 229.144 227.079 229.158 227.129 229.183C227.18 229.208 227.225 229.242 227.262 229.284C227.299 229.326 227.328 229.375 227.346 229.428L236.695 256.778C236.732 256.885 236.725 257.003 236.675 257.104C236.626 257.206 236.537 257.284 236.43 257.321C236.323 257.358 236.205 257.351 236.103 257.301C236.001 257.252 235.923 257.164 235.886 257.057V257.055Z" fill="black"/>
<path d="M234.532 231.732C233.876 231.473 233.311 231.026 232.91 230.447C232.509 229.868 232.289 229.183 232.278 228.479C232.267 227.776 232.466 227.084 232.849 226.493C233.232 225.902 233.783 225.438 234.431 225.159C235.079 224.88 235.795 224.8 236.49 224.927C237.184 225.054 237.824 225.384 238.33 225.875C238.836 226.366 239.185 226.995 239.332 227.684C239.479 228.372 239.418 229.088 239.157 229.742C238.807 230.617 238.124 231.317 237.257 231.69C236.39 232.063 235.41 232.078 234.532 231.732ZM233.328 227.434C233.132 227.931 233.088 228.475 233.202 228.997C233.315 229.518 233.581 229.995 233.967 230.366C234.352 230.737 234.839 230.986 235.366 231.082C235.893 231.177 236.436 231.115 236.928 230.902C237.419 230.69 237.836 230.337 238.127 229.888C238.417 229.439 238.568 228.915 238.559 228.381C238.551 227.847 238.384 227.327 238.079 226.888C237.775 226.448 237.347 226.109 236.849 225.912C236.517 225.781 236.163 225.717 235.807 225.723C235.451 225.728 235.099 225.804 234.772 225.945C234.445 226.087 234.149 226.291 233.902 226.546C233.654 226.802 233.459 227.103 233.328 227.434Z" fill="black"/>
<path d="M536.138 341.701C536.138 341.701 455.815 365.109 435.295 325.911C414.775 286.713 523.565 293.731 536.138 341.701Z" fill="black"/>
<path d="M339.389 526.721L338.815 522.944C338.249 519.239 338.828 515.787 340.32 512.968C341.136 511.415 342.256 510.041 343.616 508.928C344.975 507.816 346.544 506.987 348.231 506.491L351.195 505.601L363.78 501.786L361.564 495.154L394.17 494.487L400.816 525.592C401.185 527.168 400.247 528.486 398.74 528.522L342.715 529.656C341.162 529.693 339.634 528.341 339.389 526.721Z" fill="#FFAF1E"/>
<path d="M338.816 522.944L339.39 526.719C339.637 528.342 341.162 529.689 342.718 529.657L398.738 528.518C400.248 528.487 401.186 527.168 400.82 525.596L400.036 522.223L338.816 522.944Z" fill="black"/>
<path d="M396.139 503.691L371.592 494.949L394.174 494.487L396.139 503.691Z" fill="black"/>
<path d="M340.326 512.968C341.142 511.415 342.263 510.041 343.622 508.928C344.981 507.816 346.551 506.987 348.238 506.492L351.202 505.601C351.224 505.743 351.239 505.886 351.246 506.03C351.545 510.973 347.839 514.422 342.952 513.731C342.046 513.599 341.162 513.343 340.326 512.968Z" fill="black"/>
<path d="M438.537 305.244C438.537 305.244 299.527 325.609 334.604 495.215L393.734 494.619C393.734 494.619 376.765 436.044 399.036 405.608C411.213 388.962 436.925 397.371 463.959 362.476C474.441 335.091 477.702 310.872 438.537 305.244Z" fill="#FFFEFE"/>
<path d="M334.605 495.624C334.511 495.624 334.419 495.592 334.346 495.532C334.272 495.472 334.222 495.389 334.204 495.297C322.544 438.912 328.81 392.977 352.829 358.768C384.844 313.172 437.953 304.917 438.486 304.839C438.525 304.834 438.565 304.834 438.604 304.839C453.605 306.996 463.184 311.921 467.886 319.899C474.733 331.516 469.935 348.018 464.337 362.627C464.323 362.664 464.303 362.698 464.279 362.73C448.284 383.371 432.714 388.941 420.202 393.417C411.666 396.469 404.295 399.106 399.364 405.848C377.469 435.78 393.959 493.919 394.128 494.505C394.146 494.566 394.149 494.629 394.138 494.691C394.127 494.753 394.101 494.812 394.064 494.863C394.026 494.913 393.977 494.954 393.921 494.983C393.864 495.011 393.802 495.026 393.739 495.027L334.605 495.624ZM438.548 305.656C436.52 305.976 384.827 314.606 353.493 359.246C329.662 393.194 323.419 438.802 334.935 494.803L393.195 494.216C391.597 488.336 377.681 434.098 398.697 405.367C403.777 398.423 411.255 395.746 419.921 392.647C432.323 388.212 447.756 382.691 463.596 362.279C469.116 347.865 473.846 331.618 467.183 320.312C462.612 312.573 453.245 307.779 438.541 305.656H438.548Z" fill="black"/>
<path d="M359.171 480.629C359.068 480.629 358.968 480.591 358.893 480.521C358.817 480.452 358.77 480.356 358.762 480.254C353.479 413.837 373.672 379.478 391.544 362.351C410.939 343.767 431.877 340.89 432.086 340.862C432.139 340.854 432.194 340.857 432.246 340.87C432.299 340.884 432.348 340.908 432.391 340.941C432.433 340.974 432.469 341.016 432.495 341.063C432.522 341.11 432.538 341.162 432.544 341.215C432.557 341.323 432.528 341.431 432.462 341.516C432.396 341.602 432.298 341.658 432.191 341.672C431.984 341.7 411.272 344.556 392.076 362.974C374.355 379.982 354.323 414.124 359.578 480.19C359.582 480.243 359.576 480.297 359.56 480.348C359.543 480.399 359.517 480.446 359.482 480.487C359.447 480.527 359.404 480.561 359.356 480.585C359.309 480.609 359.256 480.624 359.203 480.628L359.171 480.629Z" fill="black"/>
<path d="M332.86 486.772C332.847 486.72 332.844 486.666 332.852 486.613C332.86 486.56 332.878 486.509 332.906 486.463C332.933 486.417 332.97 486.377 333.013 486.345C333.056 486.313 333.105 486.29 333.157 486.277L389.174 472.33C389.227 472.315 389.282 472.311 389.337 472.317C389.391 472.324 389.444 472.341 389.492 472.369C389.539 472.396 389.581 472.433 389.614 472.477C389.647 472.52 389.671 472.57 389.685 472.624C389.698 472.677 389.701 472.732 389.692 472.787C389.684 472.841 389.664 472.893 389.635 472.939C389.606 472.986 389.568 473.026 389.523 473.058C389.478 473.089 389.427 473.112 389.373 473.123L333.357 487.068C333.252 487.095 333.14 487.078 333.047 487.023C332.954 486.967 332.887 486.877 332.86 486.772Z" fill="black"/>
<path d="M526.313 539.978L523.453 537.437C520.644 534.946 518.88 531.921 518.223 528.801C517.857 527.087 517.84 525.317 518.174 523.596C518.508 521.875 519.185 520.239 520.165 518.784L521.875 516.211L529.116 505.264L523.165 501.57L547.834 480.297L572.866 500.008C574.158 500.982 574.281 502.597 573.145 503.584L530.752 540.12C529.583 541.136 527.54 541.069 526.313 539.978Z" fill="#FFAF1E"/>
<path d="M523.453 537.435L526.312 539.974C527.541 541.066 529.579 541.131 530.755 540.113L573.14 503.568C574.281 502.585 574.159 500.972 572.869 499.993L570.105 497.897L523.453 537.435Z" fill="black"/>
<path d="M555.24 486.124L530.75 495.026L547.835 480.291L555.24 486.124Z" fill="black"/>
<path d="M518.223 528.808C517.857 527.094 517.84 525.324 518.174 523.603C518.508 521.882 519.185 520.246 520.165 518.791L521.875 516.218C521.984 516.313 522.087 516.414 522.184 516.52C525.579 520.138 524.935 525.146 520.733 527.727C519.951 528.202 519.106 528.566 518.223 528.808Z" fill="black"/>
<path d="M460.795 306.401C460.795 306.401 366.852 410.579 502.451 518.781L547.576 480.677C547.576 480.677 497.01 446.403 494.652 408.801C493.364 388.235 521.115 372.597 519.579 328.533L460.795 306.401Z" fill="#FFFEFE"/>
<path d="M502.194 519.1C457.114 483.128 432.522 443.786 429.101 402.168C424.542 346.693 460.13 306.528 460.496 306.129C460.551 306.067 460.623 306.024 460.704 306.005C460.784 305.985 460.868 305.991 460.945 306.02L519.731 328.151C519.807 328.18 519.872 328.23 519.919 328.295C519.966 328.361 519.992 328.439 519.995 328.519C520.905 354.578 511.588 370.787 504.103 383.811C498.977 392.736 494.541 400.44 495.07 408.774C497.386 445.75 547.309 479.998 547.814 480.339C547.866 480.374 547.91 480.421 547.941 480.476C547.972 480.531 547.99 480.592 547.994 480.655C547.997 480.718 547.986 480.781 547.961 480.839C547.936 480.896 547.897 480.948 547.849 480.988L502.723 519.093C502.651 519.157 502.557 519.193 502.46 519.194C502.363 519.195 502.269 519.162 502.194 519.1ZM460.916 306.891C458.152 310.091 425.552 349.061 429.92 402.119C433.316 443.42 457.716 482.494 502.443 518.259L546.906 480.716C541.91 477.207 496.469 444.325 494.245 408.833C493.708 400.254 498.194 392.448 503.388 383.412C510.794 370.524 520.006 354.491 519.18 328.826L460.916 306.891Z" fill="black"/>
<path d="M511.464 491.881C490.048 469.62 475.648 446.82 468.668 424.123C463.079 405.951 462.205 387.81 466.074 370.194C472.66 340.208 490.99 321.915 491.174 321.737C491.251 321.661 491.356 321.618 491.464 321.619C491.573 321.62 491.677 321.664 491.753 321.741C491.829 321.818 491.872 321.922 491.871 322.03C491.87 322.139 491.826 322.242 491.749 322.318C491.566 322.498 473.392 340.645 466.866 370.408C460.845 397.87 463.796 441.139 512.055 491.315C512.096 491.353 512.129 491.399 512.151 491.45C512.174 491.501 512.186 491.556 512.186 491.611C512.186 491.667 512.175 491.722 512.154 491.773C512.132 491.825 512.1 491.871 512.059 491.91C512.019 491.948 511.971 491.978 511.919 491.997C511.867 492.017 511.811 492.025 511.755 492.023C511.699 492.02 511.645 492.006 511.595 491.981C511.545 491.956 511.5 491.922 511.464 491.88V491.881Z" fill="black"/>
<path d="M495.707 513.39C495.664 513.358 495.627 513.318 495.599 513.273C495.571 513.227 495.552 513.176 495.544 513.123C495.536 513.07 495.538 513.016 495.551 512.964C495.563 512.912 495.586 512.863 495.618 512.819L529.804 466.421C529.871 466.34 529.966 466.287 530.07 466.274C530.175 466.261 530.28 466.289 530.365 466.351C530.449 466.413 530.507 466.505 530.525 466.608C530.544 466.711 530.522 466.818 530.464 466.905L496.278 513.302C496.214 513.389 496.118 513.447 496.011 513.463C495.904 513.48 495.795 513.453 495.707 513.39Z" fill="black"/>
<path d="M468.673 361.449C468.604 361.449 468.537 361.432 468.477 361.398C463.028 358.421 459.841 354.432 459.006 349.542C457.174 338.829 467.112 327.647 467.535 327.175C467.607 327.095 467.709 327.046 467.818 327.04C467.927 327.034 468.033 327.072 468.115 327.144C468.196 327.217 468.244 327.318 468.25 327.427C468.256 327.535 468.219 327.641 468.146 327.722C468.044 327.834 458.046 339.082 459.814 349.407C460.605 354.038 463.653 357.831 468.87 360.677C468.949 360.721 469.012 360.79 469.048 360.873C469.084 360.956 469.091 361.049 469.068 361.136C469.046 361.224 468.995 361.302 468.923 361.357C468.852 361.413 468.764 361.443 468.673 361.444V361.449Z" fill="black"/>
<path d="M420.42 135.191C419.04 136.243 416.478 138.126 415.249 138.572C411.325 140 411.455 122.681 406.511 123.373C403.494 123.791 408.078 136.936 408.078 136.936C408.078 136.936 402.942 126.263 400.543 125.555C398.479 124.947 398.45 130.525 401.436 136.503C399.81 133.767 397.389 130.092 395.896 129.65C393.87 129.049 393.337 133.064 396.1 138.874C394.731 136.833 393.152 134.839 392.038 134.519C389.641 133.811 389.926 142.89 400.496 153.494C400.589 153.592 400.69 153.684 400.801 153.773L418.949 152.003L420.42 135.191Z" fill="white"/>
<path d="M400.198 153.781C391.1 144.654 389.547 136.725 390.763 134.695C391.078 134.167 391.584 133.959 392.148 134.127C392.803 134.319 393.594 134.962 394.54 136.086C393.605 133.181 393.52 130.736 394.418 129.693C394.819 129.227 395.383 129.074 396.006 129.259C396.869 129.513 398.025 130.663 399.464 132.687C398.487 129.497 398.359 126.664 399.285 125.563C399.445 125.365 399.662 125.22 399.907 125.149C400.151 125.077 400.412 125.083 400.654 125.164C402.189 125.618 404.575 129.477 406.311 132.633C405.403 129.314 404.547 125.14 405.474 123.629C405.575 123.452 405.716 123.301 405.885 123.186C406.055 123.072 406.248 122.997 406.45 122.969C409.402 122.559 410.614 127.194 411.796 131.68C412.561 134.583 413.353 137.587 414.447 138.159C414.547 138.213 414.657 138.243 414.77 138.248C414.882 138.254 414.995 138.234 415.099 138.19C415.954 137.878 417.8 136.668 420.163 134.867C420.225 134.819 420.301 134.79 420.381 134.783C420.46 134.777 420.539 134.794 420.609 134.832C420.679 134.87 420.736 134.928 420.773 134.998C420.811 135.068 420.827 135.147 420.82 135.226L419.35 152.036C419.342 152.131 419.301 152.22 419.233 152.288C419.166 152.356 419.077 152.398 418.982 152.408L400.834 154.177C400.605 154.2 400.466 154.047 400.198 153.781ZM391.78 134.888C391.668 134.888 391.568 134.944 391.466 135.113C390.535 136.669 391.937 144.335 400.78 153.201C400.829 153.251 400.88 153.3 400.932 153.34L418.565 151.619L419.924 136.06C418.308 137.263 416.424 138.564 415.381 138.945C415.17 139.029 414.943 139.066 414.716 139.053C414.489 139.04 414.268 138.978 414.068 138.871C412.649 138.133 411.884 135.233 410.998 131.876C409.958 127.927 408.765 123.461 406.559 123.766C406.477 123.778 406.399 123.809 406.331 123.858C406.263 123.906 406.208 123.97 406.17 124.044C405.043 125.888 407.437 133.87 408.457 136.79C408.493 136.889 408.489 136.998 408.446 137.094C408.403 137.19 408.325 137.267 408.227 137.307C408.13 137.347 408.02 137.348 407.922 137.31C407.824 137.272 407.744 137.197 407.699 137.102C405.668 132.878 402.05 126.418 400.42 125.936C400.332 125.898 400.233 125.89 400.14 125.916C400.048 125.941 399.966 125.997 399.91 126.075C399.066 127.077 399.375 131.456 401.796 136.307C401.839 136.401 401.845 136.509 401.813 136.607C401.78 136.706 401.711 136.788 401.62 136.838C401.528 136.887 401.421 136.901 401.321 136.875C401.22 136.849 401.133 136.786 401.077 136.698C398.74 132.765 396.806 130.334 395.775 130.028C395.356 129.904 395.159 130.074 395.042 130.21C394.229 131.157 394.45 134.447 396.467 138.685C396.51 138.778 396.517 138.885 396.486 138.983C396.454 139.081 396.387 139.163 396.297 139.214C396.208 139.265 396.102 139.28 396.001 139.256C395.901 139.233 395.813 139.172 395.755 139.087C393.523 135.766 392.395 135.037 391.918 134.896C391.872 134.887 391.826 134.884 391.78 134.888Z" fill="black"/>
<path d="M421.01 151.48C421.01 151.48 424.817 135.248 419.784 134.338C414.964 133.466 413.802 143.968 413.802 143.968C413.802 143.968 408.828 143.698 409.255 149.358" fill="white"/>
<path d="M420.918 151.872C420.812 151.847 420.72 151.782 420.663 151.69C420.606 151.597 420.587 151.486 420.612 151.381C420.641 151.261 423.403 139.299 421.008 135.659C420.664 135.136 420.24 134.834 419.712 134.739C419.359 134.67 418.995 134.679 418.645 134.764C418.295 134.849 417.968 135.008 417.686 135.232C414.989 137.237 414.217 143.944 414.209 144.011C414.195 144.114 414.144 144.208 414.065 144.275C413.986 144.342 413.884 144.377 413.781 144.374C413.762 144.374 411.922 144.3 410.721 145.528C409.893 146.374 409.539 147.652 409.664 149.326C409.668 149.379 409.662 149.433 409.645 149.484C409.628 149.535 409.601 149.582 409.566 149.623C409.496 149.705 409.395 149.755 409.287 149.764C409.233 149.768 409.179 149.761 409.128 149.744C409.077 149.727 409.03 149.701 408.989 149.666C408.907 149.595 408.856 149.495 408.848 149.387C408.708 147.464 409.137 145.973 410.14 144.952C411.256 143.818 412.745 143.601 413.441 143.56C413.645 142.077 414.569 136.527 417.196 134.574C417.568 134.283 417.999 134.076 418.458 133.965C418.917 133.855 419.395 133.844 419.859 133.932C420.608 134.071 421.226 134.497 421.694 135.208C424.283 139.143 421.529 151.069 421.414 151.569C421.387 151.674 421.32 151.764 421.228 151.821C421.135 151.877 421.024 151.896 420.918 151.872Z" fill="black"/>
<path d="M570.514 131.958C571.691 133.232 573.887 135.528 575.021 136.181C578.638 138.268 581.514 121.183 586.262 122.717C589.16 123.653 582.366 135.805 582.366 135.805C582.366 135.805 589.276 126.18 591.76 125.895C593.899 125.651 592.956 131.15 588.982 136.524C591.058 134.109 594.08 130.907 595.626 130.729C597.726 130.486 597.555 134.533 593.826 139.773C595.529 138 597.429 136.314 598.583 136.185C601.77 135.82 596.921 147.642 586.612 153.639L569.045 148.769L570.514 131.958Z" fill="white"/>
<path d="M586.502 154.038L568.935 149.169C568.843 149.143 568.763 149.086 568.708 149.008C568.654 148.93 568.628 148.835 568.636 148.74L570.104 131.927C570.111 131.848 570.141 131.773 570.19 131.711C570.239 131.649 570.305 131.602 570.381 131.577C570.456 131.551 570.537 131.548 570.614 131.567C570.691 131.587 570.761 131.628 570.814 131.687C572.828 133.867 574.435 135.378 575.224 135.831C575.319 135.893 575.426 135.932 575.539 135.946C575.651 135.961 575.765 135.95 575.872 135.915C577.053 135.541 578.353 132.715 579.612 129.991C581.554 125.776 583.561 121.419 586.386 122.338C588.898 123.147 585.968 129.506 584.852 131.88C587.109 129.065 590.127 125.682 591.718 125.499C591.97 125.459 592.229 125.497 592.459 125.61C592.688 125.723 592.876 125.904 592.998 126.128C593.719 127.372 593.097 130.139 591.586 133.114C593.352 131.369 594.693 130.437 595.586 130.331C596.235 130.256 596.761 130.505 597.075 131.027C597.773 132.211 597.273 134.603 595.847 137.303C596.974 136.363 597.865 135.863 598.541 135.787C599.118 135.723 599.589 136.011 599.808 136.585C601.554 141.15 591.33 151.38 586.832 153.999C586.782 154.029 586.728 154.047 586.671 154.054C586.614 154.06 586.557 154.055 586.502 154.038ZM569.479 148.473L586.547 153.204C591.888 149.849 600.393 140.426 599.032 136.874C598.935 136.616 598.797 136.574 598.625 136.595C598.131 136.652 596.889 137.175 594.119 140.061C594.048 140.135 593.951 140.179 593.848 140.184C593.745 140.19 593.644 140.157 593.564 140.091C593.485 140.026 593.433 139.933 593.419 139.831C593.405 139.73 593.43 139.626 593.489 139.542C596.208 135.717 596.998 132.513 596.36 131.442C595.384 129.787 590.606 135.258 589.289 136.79C589.221 136.875 589.123 136.929 589.015 136.941C588.907 136.954 588.799 136.923 588.714 136.855C588.629 136.788 588.574 136.69 588.562 136.582C588.55 136.475 588.581 136.367 588.648 136.282C592.325 131.305 593.293 126.157 591.806 126.297C590.116 126.49 585.433 132.228 582.697 136.036C582.637 136.122 582.545 136.181 582.442 136.201C582.339 136.222 582.232 136.202 582.144 136.145C582.055 136.089 581.991 136.001 581.966 135.899C581.941 135.798 581.956 135.69 582.008 135.599C583.518 132.898 587.261 125.442 586.473 123.439C586.448 123.36 586.405 123.287 586.347 123.228C586.289 123.169 586.217 123.124 586.138 123.098C584 122.402 582.068 126.612 580.359 130.32C578.906 133.474 577.65 136.197 576.124 136.683C575.908 136.752 575.679 136.775 575.454 136.748C575.228 136.721 575.011 136.647 574.818 136.528C573.855 135.972 572.226 134.366 570.844 132.903L569.479 148.473Z" fill="black"/>
<path d="M567.1 147.893C567.1 147.893 566.165 131.251 571.286 131.222C576.184 131.194 575.507 141.738 575.507 141.738C575.507 141.738 580.455 142.33 579.053 147.83" fill="white"/>
<path d="M567.1 148.3C566.996 148.299 566.896 148.258 566.82 148.187C566.744 148.116 566.698 148.019 566.69 147.915C566.662 147.398 566.016 135.183 569.249 131.753C569.833 131.134 570.516 130.817 571.279 130.813C572.292 130.789 573.1 131.175 573.791 131.904C576.04 134.28 575.987 139.905 575.93 141.402C576.608 141.558 578.041 142.03 578.941 143.339C579.752 144.517 579.918 146.063 579.445 147.93C579.432 147.983 579.409 148.032 579.377 148.076C579.345 148.119 579.305 148.156 579.258 148.183C579.212 148.211 579.161 148.23 579.107 148.238C579.054 148.245 578.999 148.243 578.947 148.229C578.895 148.216 578.845 148.193 578.802 148.16C578.759 148.128 578.722 148.087 578.695 148.041C578.668 147.995 578.65 147.943 578.642 147.89C578.635 147.836 578.638 147.782 578.652 147.73C579.071 146.102 578.931 144.783 578.268 143.806C577.292 142.387 575.478 142.145 575.453 142.137C575.349 142.124 575.254 142.072 575.188 141.992C575.121 141.912 575.087 141.809 575.094 141.706C575.094 141.639 575.501 134.888 573.193 132.459C572.957 132.192 572.665 131.98 572.339 131.836C572.012 131.692 571.658 131.619 571.301 131.624H571.285C567.343 131.645 567.29 143.904 567.517 147.864C567.523 147.972 567.486 148.078 567.414 148.159C567.341 148.24 567.239 148.289 567.131 148.295L567.1 148.3Z" fill="black"/>
<path d="M587.303 198.433H587.292C586.625 200.58 585.896 202.728 585.139 204.862C585.139 204.875 585.126 204.886 585.126 204.897C582.073 213.462 578.422 221.722 574.315 228.945C574.198 229.155 574.081 229.354 573.963 229.551C573.742 229.949 573.507 230.346 573.273 230.742C570.535 235.363 567.598 239.508 564.509 242.958C535.71 275.209 537.536 313.106 536.12 341.186C481.562 318.189 452.547 314.071 396.707 320.464C406.335 274.256 434.406 261.446 407.172 219.617C406.165 218.078 405.081 216.514 403.919 214.927C390.956 197.363 387.902 172.972 391.995 151.9L428.949 150.926C425.403 172.407 434.624 193.21 452.375 211.171C489.656 248.916 518.455 221.777 523.732 217.88C544.093 202.909 555.677 166.108 555.912 144.335L594.977 154.516C595.181 166.335 592.337 182.541 587.303 198.433Z" fill="#FFAF1E"/>
<path d="M480.597 229.462L484.201 238.296L494.747 230.644L492.89 215.317C492.89 215.317 492.675 204.861 491.271 201.96C489.435 198.148 481.489 195.421 472.409 200.194C463.176 205.049 471.991 208.581 465.483 212.069C463.769 212.986 464.471 216.218 468.379 215.408C468.379 215.408 469.914 226.084 479.383 224.847C479.584 224.819 479.786 224.792 479.987 224.755L480.597 229.462Z" fill="white"/>
<path d="M483.822 238.45C479.955 228.96 480.195 229.592 480.195 229.515L479.636 225.217L479.456 225.242C470.775 226.372 468.472 217.878 468.052 215.875C465.866 216.199 464.695 215.286 464.327 214.275C464.147 213.803 464.146 213.282 464.324 212.809C464.501 212.337 464.845 211.945 465.291 211.706C468.006 210.249 467.819 208.903 467.583 207.197C467.285 205.043 466.946 202.605 472.219 199.823C477.153 197.231 482.405 196.546 486.649 197.942C489.022 198.725 490.845 200.122 491.641 201.773C493.067 204.724 493.291 214.871 493.3 215.303L495.154 230.589C495.163 230.661 495.152 230.734 495.122 230.801C495.093 230.867 495.047 230.925 494.988 230.968L484.443 238.62C484.394 238.657 484.336 238.682 484.275 238.693C484.214 238.704 484.151 238.701 484.092 238.685C484.032 238.669 483.977 238.639 483.93 238.599C483.883 238.558 483.847 238.507 483.822 238.45ZM480.998 229.358L484.383 237.659L494.313 230.456L492.483 215.367C492.483 215.228 492.252 204.932 490.902 202.134C490.205 200.681 488.558 199.437 486.391 198.724C482.364 197.398 477.338 198.064 472.601 200.553C467.836 203.058 468.121 205.106 468.394 207.093C468.641 208.869 468.896 210.71 465.679 212.432C465.407 212.579 465.199 212.819 465.091 213.108C464.984 213.397 464.985 213.714 465.095 214.002C465.375 214.753 466.351 215.414 468.296 215.009C468.351 214.998 468.408 214.998 468.462 215.009C468.517 215.02 468.569 215.042 468.615 215.074C468.66 215.106 468.699 215.147 468.728 215.195C468.758 215.242 468.777 215.295 468.785 215.35C468.846 215.767 470.394 225.606 479.329 224.442C479.535 224.415 479.724 224.388 479.914 224.353C479.969 224.343 480.025 224.344 480.079 224.357C480.133 224.369 480.185 224.392 480.23 224.425C480.274 224.458 480.312 224.499 480.341 224.547C480.369 224.595 480.387 224.648 480.394 224.703L480.998 229.358Z" fill="black"/>
<path d="M468.141 204.782C468.141 204.782 460.292 201.132 465.223 197.234C470.154 193.335 474.873 195.458 474.873 195.458C474.873 195.458 471.298 187.832 483.572 186.946C495.845 186.06 491.047 201.303 491.047 201.303C491.047 201.303 492.919 198.411 497.708 199.049C502.497 199.688 502.523 206.741 495.036 212.235L488.697 212.851C488.697 212.851 486.385 208.2 488.574 201.943C488.577 201.943 477.471 193.989 468.141 204.782Z" fill="black"/>
<path d="M488.884 213.85C489.017 214.57 489.361 215.235 489.873 215.759C490.384 216.284 491.04 216.646 491.758 216.8C492.476 216.953 493.223 216.89 493.906 216.62C494.588 216.35 495.175 215.884 495.592 215.282C496.008 214.679 496.237 213.967 496.248 213.235C496.259 212.503 496.052 211.785 495.654 211.17C495.256 210.555 494.683 210.072 494.01 209.781C493.336 209.491 492.591 209.406 491.869 209.537C490.9 209.716 490.042 210.271 489.483 211.079C488.924 211.888 488.708 212.884 488.884 213.85Z" fill="white"/>
<path d="M488.481 213.924C488.335 213.125 488.429 212.3 488.752 211.554C489.076 210.808 489.613 210.175 490.298 209.733C490.982 209.292 491.782 209.062 492.597 209.074C493.411 209.086 494.204 209.338 494.876 209.799C495.547 210.26 496.066 210.908 496.368 211.663C496.669 212.418 496.74 213.245 496.571 214.04C496.401 214.835 495.999 215.562 495.416 216.129C494.832 216.696 494.093 217.078 493.292 217.227C492.759 217.326 492.211 217.318 491.681 217.205C491.15 217.093 490.647 216.877 490.2 216.57C489.753 216.263 489.371 215.872 489.076 215.418C488.781 214.964 488.579 214.456 488.481 213.924ZM489.286 213.776C489.404 214.418 489.709 215.01 490.164 215.478C490.619 215.946 491.203 216.269 491.843 216.406C492.482 216.543 493.147 216.488 493.755 216.247C494.363 216.007 494.885 215.592 495.257 215.056C495.628 214.519 495.831 213.885 495.841 213.233C495.85 212.581 495.666 211.941 495.31 211.394C494.955 210.847 494.445 210.417 493.844 210.159C493.244 209.901 492.58 209.827 491.937 209.945C491.078 210.105 490.317 210.598 489.82 211.316C489.324 212.034 489.132 212.918 489.286 213.776Z" fill="black"/>
<path d="M473.729 207.222C473.773 207.462 473.888 207.685 474.059 207.86C474.23 208.036 474.449 208.157 474.689 208.208C474.929 208.259 475.178 208.239 475.406 208.149C475.634 208.058 475.83 207.903 475.97 207.702C476.109 207.501 476.186 207.263 476.19 207.018C476.193 206.774 476.124 206.533 475.991 206.328C475.858 206.122 475.667 205.961 475.442 205.864C475.217 205.766 474.968 205.738 474.727 205.782C474.403 205.841 474.116 206.026 473.929 206.296C473.742 206.566 473.67 206.899 473.729 207.222Z" fill="black"/>
<path d="M473.039 203.955C473.039 203.955 476.441 201.817 478.597 205.782L473.039 203.955Z" fill="white"/>
<path d="M478.237 205.977C477.616 204.833 476.832 204.129 475.905 203.89C474.533 203.529 473.269 204.297 473.254 204.307C473.161 204.365 473.05 204.383 472.943 204.359C472.837 204.334 472.745 204.269 472.687 204.176C472.63 204.084 472.611 203.973 472.636 203.867C472.66 203.761 472.726 203.669 472.818 203.611C472.88 203.572 474.383 202.646 476.103 203.095C477.26 203.397 478.218 204.238 478.954 205.591C479.005 205.687 479.017 205.798 478.986 205.902C478.955 206.006 478.884 206.093 478.788 206.144C478.693 206.196 478.581 206.207 478.477 206.176C478.373 206.146 478.285 206.075 478.234 205.979L478.237 205.977Z" fill="black"/>
<path d="M479.988 224.749C482.231 224.572 485.733 222.635 487.236 220.705C487.706 223.999 484.123 227.175 480.475 228.775L479.988 224.749Z" fill="black"/>
<path d="M480.068 228.818L479.582 224.803C479.571 224.693 479.605 224.583 479.675 224.497C479.745 224.412 479.847 224.357 479.957 224.346C482.109 224.178 485.49 222.29 486.913 220.46C486.963 220.398 487.03 220.351 487.106 220.325C487.182 220.3 487.264 220.297 487.341 220.318C487.419 220.339 487.489 220.381 487.542 220.441C487.595 220.501 487.63 220.575 487.642 220.654C488.147 224.186 484.488 227.471 480.641 229.149C480.582 229.175 480.518 229.187 480.453 229.183C480.389 229.18 480.326 229.161 480.27 229.129C480.214 229.097 480.167 229.052 480.132 228.998C480.096 228.944 480.074 228.882 480.068 228.818ZM480.444 225.105L480.814 228.166C483.725 226.774 486.542 224.335 486.841 221.749C485.184 223.349 482.477 224.789 480.444 225.105Z" fill="black"/>
<path d="M476.472 217.124C477.215 217.028 475.797 216.011 475.066 216.249C474.335 216.487 472.32 218.077 473.28 218.161C473.782 218.204 475.966 217.189 476.472 217.124Z" fill="white"/>
<path d="M424.219 169.182L393.923 164.802C393.77 164.779 393.631 164.697 393.538 164.573C393.445 164.449 393.406 164.293 393.428 164.139C393.453 163.988 393.536 163.851 393.659 163.759C393.783 163.668 393.938 163.627 394.091 163.647L424.387 168.027C424.463 168.038 424.536 168.064 424.602 168.103C424.668 168.142 424.726 168.194 424.772 168.255C424.817 168.316 424.851 168.386 424.87 168.46C424.889 168.535 424.893 168.612 424.882 168.688C424.871 168.763 424.845 168.836 424.806 168.902C424.767 168.968 424.715 169.026 424.653 169.071C424.592 169.117 424.522 169.151 424.447 169.17C424.373 169.188 424.295 169.193 424.219 169.182Z" fill="black"/>
<path d="M559.77 155.478C559.724 155.988 559.831 156.5 560.077 156.95C560.323 157.399 560.697 157.766 561.152 158.003C561.607 158.24 562.122 158.337 562.632 158.282C563.143 158.227 563.626 158.022 564.019 157.694C564.413 157.365 564.7 156.927 564.844 156.436C564.988 155.944 564.982 155.421 564.828 154.933C564.673 154.445 564.377 154.013 563.977 153.693C563.576 153.373 563.089 153.178 562.578 153.134C561.894 153.074 561.214 153.287 560.687 153.727C560.161 154.166 559.831 154.796 559.77 155.478Z" fill="white"/>
<path d="M591.315 167.86L558.609 165.41C558.533 165.404 558.458 165.383 558.389 165.349C558.321 165.314 558.26 165.266 558.21 165.208C558.109 165.091 558.058 164.939 558.07 164.784C558.082 164.63 558.154 164.487 558.272 164.386C558.39 164.285 558.543 164.235 558.697 164.247L591.401 166.697C591.556 166.708 591.7 166.78 591.801 166.897C591.902 167.015 591.953 167.167 591.941 167.321C591.93 167.476 591.858 167.619 591.74 167.72C591.623 167.821 591.47 167.871 591.315 167.86Z" fill="black"/>
<path d="M272.688 105.972C296.733 105.972 316.227 86.5313 316.227 62.55C316.227 38.5687 296.733 19.128 272.688 19.128C248.642 19.128 229.148 38.5687 229.148 62.55C229.148 86.5313 248.642 105.972 272.688 105.972Z" fill="white"/>
<path d="M272.686 106.38C248.083 106.38 228.732 86.4016 228.732 62.5528C228.732 38.3854 248.446 18.726 272.686 18.726C296.926 18.726 316.639 38.3896 316.639 62.5528C316.634 86.467 297.248 106.38 272.686 106.38ZM272.686 19.5357C248.905 19.5357 229.557 38.8307 229.557 62.5487C229.557 85.9578 248.546 105.563 272.686 105.563C296.795 105.563 315.816 86.0162 315.816 62.5487C315.816 38.8307 296.468 19.5357 272.686 19.5357Z" fill="black"/>
<path d="M301.929 94.7315C293.92 101.966 283.498 105.972 272.691 105.972C261.884 105.972 251.463 101.966 243.453 94.7315C251.461 87.4935 261.883 83.4846 272.691 83.4846C283.5 83.4846 293.921 87.4935 301.929 94.7315Z" fill="#6680FF"/>
<path d="M272.687 106.38C261.778 106.391 251.256 102.346 243.179 95.0348C243.137 94.9965 243.103 94.9498 243.08 94.8976C243.057 94.8455 243.045 94.7892 243.045 94.7322C243.045 94.6752 243.057 94.6189 243.08 94.5668C243.103 94.5146 243.137 94.4679 243.179 94.4296C251.262 87.1231 261.781 83.0761 272.691 83.0761C283.6 83.0761 294.12 87.1231 302.202 94.4296C302.245 94.4679 302.278 94.5146 302.302 94.5668C302.325 94.6189 302.337 94.6752 302.337 94.7322C302.337 94.7892 302.325 94.8455 302.302 94.8976C302.278 94.9498 302.245 94.9965 302.202 95.0348C294.122 102.347 283.598 106.392 272.687 106.38ZM244.067 94.7315C251.96 101.71 262.143 105.563 272.692 105.563C283.241 105.563 293.425 101.71 301.318 94.7315C293.427 87.7482 283.243 83.8916 272.692 83.8916C262.142 83.8916 251.957 87.7482 244.067 94.7315Z" fill="black"/>
<path d="M265.732 83.4673L271.184 91.4633L278.373 83.8499L278.383 72.0487C278.383 72.0487 279.341 62.5876 278.395 59.8147C277.157 56.1736 270.287 52.8469 261.569 56.1555C252.701 59.5239 260.261 63.6784 254.01 66.1132C252.362 66.7519 252.64 69.746 256.255 69.4399C256.255 69.4399 256.463 79.2404 265.145 79.1625C265.331 79.1625 265.516 79.1625 265.703 79.1458L265.732 83.4673Z" fill="white"/>
<path d="M270.845 91.6929C265.124 83.2558 265.324 83.701 265.324 83.4701L265.295 79.5744H265.045C257.216 79.5744 256.044 71.7829 255.875 69.8726C253.864 69.906 252.91 68.9516 252.686 67.9888C252.575 67.5347 252.633 67.0558 252.849 66.6411C253.065 66.2264 253.426 65.9043 253.863 65.7348C256.45 64.7275 256.43 63.5087 256.405 61.9518C256.371 59.9636 256.335 57.7096 261.428 55.7771C266.172 53.9683 271.007 53.9322 274.684 55.6602C276.752 56.6341 278.248 58.0992 278.786 59.6867C279.75 62.5139 278.834 71.7036 278.795 72.0932L278.785 83.8527C278.784 83.956 278.744 84.0552 278.673 84.131L271.484 91.7443C271.442 91.7893 271.391 91.8242 271.333 91.8465C271.276 91.8687 271.214 91.8777 271.152 91.8728C271.091 91.8678 271.031 91.8491 270.978 91.8179C270.925 91.7867 270.88 91.744 270.845 91.6929ZM266.142 83.3449L271.235 90.8177L277.963 83.6927L277.976 72.0542C277.987 71.9151 278.915 62.6127 278.008 59.9497C277.54 58.5709 276.201 57.2769 274.332 56.399C270.854 54.7656 266.253 54.817 261.716 56.5381C257.178 58.2592 257.195 60.1333 257.223 61.9379C257.25 63.581 257.277 65.2771 254.16 66.4945C253.906 66.593 253.698 66.7805 253.573 67.0215C253.449 67.2626 253.416 67.5408 253.483 67.8037C253.645 68.4994 254.444 69.1839 256.222 69.035C256.278 69.0303 256.334 69.037 256.387 69.0547C256.44 69.0724 256.489 69.1008 256.53 69.1382C256.571 69.1755 256.605 69.2209 256.628 69.2716C256.651 69.3224 256.663 69.3773 256.664 69.433C256.674 69.8142 256.97 78.7549 265.037 78.7549C265.187 78.7549 265.475 78.7549 265.67 78.7382C265.726 78.7346 265.781 78.7424 265.834 78.7611C265.886 78.7798 265.934 78.809 265.975 78.8469C266.016 78.8849 266.048 78.9307 266.07 78.9817C266.092 79.0326 266.104 79.0875 266.104 79.1431L266.142 83.3449Z" fill="black"/>
<path d="M257.212 59.83C257.212 59.83 250.533 55.6769 255.412 52.6994C260.292 49.722 264.316 52.154 264.316 52.154C264.316 52.154 261.932 44.8815 273.107 45.4256C284.282 45.9696 278.27 59.1997 278.27 59.1997C278.27 59.1997 280.279 56.7941 284.529 57.8946C288.779 58.9952 288.027 65.3619 280.665 69.5011L274.878 69.362C274.878 69.362 273.302 64.9097 275.969 59.5058C275.966 59.5128 266.821 51.1133 257.212 59.83Z" fill="black"/>
<path d="M274.931 70.2858C274.971 70.9503 275.207 71.5882 275.61 72.1188C276.013 72.6494 276.565 73.0489 277.196 73.2668C277.827 73.4846 278.508 73.511 279.154 73.3427C279.8 73.1743 280.381 72.8187 280.825 72.3209C281.268 71.8231 281.553 71.2054 281.644 70.546C281.735 69.8865 281.628 69.2149 281.337 68.6161C281.045 68.0173 280.582 67.5182 280.006 67.1819C279.429 66.8456 278.766 66.6872 278.1 66.7268C277.208 66.783 276.374 67.1887 275.78 67.8554C275.187 68.5221 274.881 69.3957 274.931 70.2858Z" fill="white"/>
<path d="M274.522 70.3109C274.478 69.5662 274.656 68.8249 275.033 68.1809C275.411 67.5368 275.971 67.0187 276.644 66.6921C277.317 66.3655 278.072 66.2451 278.813 66.3459C279.554 66.4468 280.249 66.7644 280.809 67.2588C281.37 67.7531 281.771 68.402 281.962 69.1234C282.152 69.8448 282.125 70.6064 281.882 71.312C281.638 72.0177 281.191 72.6356 280.596 73.0879C280.001 73.5402 279.285 73.8065 278.538 73.8532C278.041 73.8847 277.542 73.8179 277.071 73.6567C276.6 73.4956 276.165 73.2432 275.792 72.914C275.419 72.5849 275.115 72.1855 274.897 71.7388C274.679 71.292 274.552 70.8068 274.522 70.3109ZM278.311 67.1289C278.249 67.1289 278.188 67.1289 278.125 67.1289C277.736 67.1509 277.355 67.2493 277.004 67.4185C276.653 67.5876 276.338 67.8242 276.079 68.1146C275.82 68.405 275.621 68.7436 275.493 69.1109C275.365 69.4783 275.311 69.8671 275.334 70.2552C275.369 70.8311 275.571 71.3843 275.917 71.8468C276.263 72.3093 276.737 72.6608 277.28 72.8581C277.824 73.0555 278.413 73.0899 278.976 72.9573C279.539 72.8246 280.051 72.5306 280.449 72.1115C280.846 71.6924 281.112 71.1666 281.213 70.5987C281.315 70.0308 281.248 69.4457 281.02 68.9155C280.792 68.3853 280.414 67.9331 279.931 67.6147C279.449 67.2963 278.884 67.1255 278.305 67.1234L278.311 67.1289Z" fill="black"/>
<path d="M261.984 62.6433C261.997 62.8656 262.076 63.079 262.211 63.2566C262.346 63.4341 262.531 63.5678 262.742 63.6408C262.953 63.7137 263.181 63.7226 263.397 63.6663C263.613 63.61 263.807 63.491 263.955 63.3245C264.104 63.158 264.199 62.9513 264.23 62.7307C264.26 62.5101 264.224 62.2854 264.127 62.0852C264.029 61.8849 263.874 61.718 263.681 61.6056C263.488 61.4932 263.266 61.4403 263.043 61.4537C262.745 61.4716 262.466 61.607 262.267 61.83C262.068 62.053 261.967 62.3455 261.984 62.6433Z" fill="black"/>
<path d="M261.723 59.6199C261.723 59.6199 265.028 58.0644 266.537 61.878L261.723 59.6199Z" fill="white"/>
<path d="M266.155 62.0283C265.723 60.9347 265.097 60.2195 264.295 59.9037C263.105 59.4334 261.91 59.9844 261.898 59.99C261.849 60.016 261.795 60.0318 261.74 60.0365C261.684 60.0411 261.629 60.0346 261.576 60.0172C261.523 59.9997 261.475 59.9718 261.433 59.9352C261.392 59.8985 261.358 59.8537 261.334 59.8037C261.311 59.7536 261.297 59.6993 261.295 59.644C261.293 59.5887 261.302 59.5335 261.322 59.4819C261.342 59.4302 261.373 59.3831 261.411 59.3435C261.45 59.3038 261.496 59.2724 261.548 59.2512C261.61 59.2219 263.083 58.5458 264.597 59.144C265.617 59.5475 266.398 60.4171 266.916 61.7291C266.937 61.7792 266.947 61.8329 266.947 61.8871C266.947 61.9414 266.936 61.995 266.915 62.045C266.894 62.095 266.863 62.1402 266.824 62.1781C266.785 62.216 266.739 62.2458 266.688 62.2657C266.638 62.2856 266.584 62.2953 266.529 62.2941C266.475 62.2929 266.421 62.2809 266.372 62.2587C266.322 62.2366 266.277 62.2049 266.24 62.1653C266.203 62.1257 266.174 62.0791 266.155 62.0283Z" fill="black"/>
<path d="M265.702 79.1459C267.746 79.2321 271.12 77.8686 272.689 76.2922C272.75 79.3142 269.167 81.788 265.699 82.8315L265.702 79.1459Z" fill="black"/>
<path d="M265.287 82.8273V79.1458C265.287 79.0915 265.298 79.0376 265.319 78.9875C265.34 78.9374 265.371 78.8921 265.41 78.8541C265.449 78.8161 265.496 78.7863 265.546 78.7663C265.597 78.7464 265.651 78.7369 265.706 78.7382C267.675 78.8175 270.903 77.486 272.384 76.0042C272.441 75.9485 272.513 75.9105 272.591 75.8948C272.669 75.8791 272.75 75.8865 272.824 75.916C272.898 75.9456 272.962 75.9959 273.007 76.061C273.053 76.1261 273.079 76.203 273.082 76.2825C273.149 79.5451 269.472 82.1163 265.801 83.2169C265.74 83.2327 265.677 83.2347 265.616 83.2227C265.555 83.2106 265.498 83.1848 265.448 83.1472C265.399 83.1096 265.359 83.0613 265.331 83.0058C265.303 82.9504 265.288 82.8893 265.287 82.8273ZM266.109 79.5535V82.2666C268.823 81.3372 271.551 79.509 272.155 77.28C270.485 78.5114 267.952 79.4797 266.109 79.5479V79.5535Z" fill="black"/>
<path d="M260.025 72.3033C260.025 72.3033 261.735 73.344 263.779 71.8859L260.025 72.3033Z" fill="white"/>
<path d="M259.815 72.6524C259.732 72.5917 259.676 72.5024 259.656 72.4021C259.636 72.3018 259.655 72.1978 259.708 72.1105C259.762 72.0232 259.846 71.9591 259.944 71.9306C260.043 71.9022 260.149 71.9115 260.24 71.9568C260.305 71.9943 261.761 72.8291 263.545 71.5589C263.588 71.5277 263.638 71.5055 263.69 71.4933C263.742 71.4812 263.797 71.4795 263.85 71.4883C263.903 71.4971 263.953 71.5162 263.999 71.5445C264.045 71.5729 264.084 71.6099 264.115 71.6535C264.147 71.6971 264.169 71.7463 264.181 71.7985C264.193 71.8507 264.195 71.9047 264.186 71.9576C264.177 72.0104 264.158 72.061 264.13 72.1065C264.101 72.1519 264.064 72.1914 264.02 72.2225C262.48 73.3161 260.792 73.2451 259.815 72.6524Z" fill="black"/>
<path d="M328.102 126.893H219.84C218.212 126.893 216.893 128.209 216.893 129.832V147.022C216.893 148.645 218.212 149.96 219.84 149.96H328.102C329.729 149.96 331.049 148.645 331.049 147.022V129.832C331.049 128.209 329.729 126.893 328.102 126.893Z" fill="white"/>
<path d="M328.103 150.367H219.839C218.952 150.364 218.102 150.011 217.474 149.385C216.847 148.76 216.493 147.912 216.49 147.027V129.831C216.491 128.945 216.844 128.095 217.472 127.468C218.099 126.841 218.951 126.487 219.839 126.484H328.103C328.991 126.487 329.842 126.841 330.47 127.468C331.098 128.095 331.451 128.945 331.452 129.831V147.027C331.449 147.912 331.095 148.76 330.468 149.385C329.84 150.011 328.99 150.364 328.103 150.367ZM219.839 127.301C219.167 127.302 218.522 127.569 218.046 128.043C217.571 128.517 217.303 129.16 217.302 129.831V147.027C217.303 147.698 217.571 148.341 218.046 148.815C218.522 149.289 219.167 149.556 219.839 149.557H328.103C328.775 149.556 329.42 149.29 329.896 148.816C330.372 148.341 330.639 147.698 330.64 147.027V129.831C330.639 129.16 330.372 128.517 329.896 128.042C329.42 127.568 328.775 127.302 328.103 127.301H219.839Z" fill="black"/>
<path d="M328.102 164.479H219.84C218.212 164.479 216.893 165.794 216.893 167.417V184.607C216.893 186.23 218.212 187.546 219.84 187.546H328.102C329.729 187.546 331.049 186.23 331.049 184.607V167.417C331.049 165.794 329.729 164.479 328.102 164.479Z" fill="white"/>
<path d="M328.103 187.953H219.839C218.95 187.95 218.099 187.597 217.471 186.969C216.844 186.342 216.491 185.492 216.49 184.606V167.416C216.493 166.531 216.847 165.684 217.474 165.058C218.102 164.432 218.952 164.08 219.839 164.077H328.103C328.99 164.08 329.84 164.432 330.468 165.058C331.095 165.684 331.449 166.531 331.452 167.416V184.606C331.451 185.492 331.098 186.342 330.47 186.969C329.843 187.597 328.991 187.95 328.103 187.953ZM219.839 164.887C219.167 164.888 218.522 165.154 218.047 165.629C217.571 166.103 217.303 166.745 217.302 167.416V184.606C217.303 185.276 217.571 185.919 218.046 186.394C218.522 186.868 219.167 187.135 219.839 187.135H328.103C328.775 187.135 329.42 186.868 329.896 186.394C330.372 185.92 330.639 185.277 330.64 184.606V167.416C330.639 166.745 330.371 166.102 329.896 165.628C329.42 165.154 328.775 164.887 328.103 164.887H219.839Z" fill="black"/>
<path d="M237.198 126.892H219.838C219.057 126.892 218.308 127.202 217.755 127.753C217.203 128.304 216.893 129.051 216.893 129.831V147.027C216.893 147.807 217.203 148.554 217.755 149.105C218.308 149.656 219.057 149.966 219.838 149.966H237.198V126.892Z" fill="white"/>
<path d="M237.199 150.367H219.839C218.952 150.364 218.102 150.011 217.474 149.385C216.847 148.76 216.493 147.912 216.49 147.027V129.831C216.491 128.945 216.844 128.095 217.472 127.468C218.099 126.841 218.951 126.487 219.839 126.484H237.199C237.307 126.484 237.411 126.527 237.488 126.604C237.564 126.68 237.607 126.784 237.607 126.892V149.959C237.607 150.067 237.564 150.171 237.488 150.247C237.411 150.324 237.307 150.367 237.199 150.367ZM219.839 127.301C219.167 127.302 218.522 127.569 218.046 128.043C217.571 128.517 217.303 129.16 217.302 129.831V147.027C217.303 147.698 217.571 148.341 218.046 148.815C218.522 149.289 219.167 149.556 219.839 149.557H236.791V127.301H219.839Z" fill="black"/>
<path d="M237.198 164.477H219.838C219.057 164.478 218.308 164.788 217.755 165.339C217.203 165.89 216.893 166.637 216.893 167.416V184.606C216.892 184.992 216.968 185.374 217.116 185.73C217.264 186.087 217.481 186.411 217.755 186.684C218.028 186.956 218.353 187.173 218.711 187.321C219.068 187.468 219.451 187.544 219.838 187.544H237.198V164.477Z" fill="white"/>
<path d="M237.199 187.953H219.839C218.95 187.95 218.099 187.597 217.471 186.969C216.844 186.342 216.491 185.492 216.49 184.606V167.416C216.493 166.531 216.847 165.684 217.474 165.058C218.102 164.432 218.952 164.08 219.839 164.077H237.199C237.252 164.077 237.306 164.087 237.355 164.108C237.405 164.129 237.45 164.159 237.488 164.197C237.526 164.235 237.556 164.28 237.577 164.329C237.597 164.379 237.608 164.432 237.607 164.486V187.551C237.606 187.658 237.562 187.76 237.485 187.836C237.409 187.911 237.306 187.953 237.199 187.953ZM219.839 164.887C219.167 164.888 218.522 165.154 218.047 165.629C217.571 166.103 217.303 166.745 217.302 167.416V184.606C217.303 185.276 217.571 185.919 218.046 186.394C218.522 186.868 219.167 187.135 219.839 187.135H236.791V164.887H219.839Z" fill="black"/>
<path d="M223.064 142.553C223.064 141.5 223.484 140.49 224.23 139.746C224.977 139.002 225.99 138.583 227.045 138.583C228.101 138.583 229.114 139.002 229.86 139.746C230.607 140.49 231.026 141.5 231.026 142.553H223.064Z" fill="white"/>
<path d="M231.027 142.962H223.065C222.956 142.962 222.852 142.919 222.775 142.842C222.698 142.765 222.655 142.661 222.655 142.553C222.645 141.971 222.75 141.394 222.966 140.854C223.182 140.313 223.504 139.821 223.913 139.407C224.322 138.992 224.809 138.662 225.347 138.437C225.885 138.212 226.462 138.096 227.045 138.096C227.629 138.096 228.206 138.212 228.744 138.437C229.282 138.662 229.769 138.992 230.178 139.407C230.587 139.821 230.909 140.313 231.124 140.854C231.34 141.394 231.446 141.971 231.436 142.553C231.436 142.661 231.393 142.765 231.316 142.842C231.24 142.918 231.136 142.962 231.027 142.962ZM223.492 142.144H230.589C230.488 141.276 230.071 140.475 229.417 139.894C228.762 139.313 227.917 138.992 227.041 138.992C226.164 138.992 225.319 139.313 224.664 139.894C224.01 140.475 223.593 141.276 223.492 142.144Z" fill="black"/>
<path d="M229.199 136.453C229.199 136.878 229.073 137.294 228.836 137.647C228.599 138 228.263 138.276 227.869 138.438C227.475 138.601 227.042 138.643 226.624 138.56C226.206 138.477 225.822 138.272 225.521 137.972C225.22 137.671 225.015 137.288 224.932 136.872C224.849 136.455 224.892 136.023 225.055 135.63C225.218 135.238 225.495 134.902 225.849 134.666C226.204 134.431 226.62 134.305 227.046 134.305C227.329 134.305 227.61 134.36 227.871 134.468C228.133 134.575 228.371 134.734 228.571 134.933C228.771 135.133 228.929 135.37 229.037 135.631C229.145 135.892 229.2 136.171 229.199 136.453Z" fill="white"/>
<path d="M227.046 138.991C226.54 138.99 226.045 138.84 225.625 138.559C225.205 138.278 224.878 137.879 224.685 137.413C224.492 136.946 224.443 136.433 224.542 135.939C224.642 135.444 224.886 134.99 225.245 134.634C225.603 134.278 226.059 134.036 226.556 133.939C227.052 133.841 227.566 133.893 228.033 134.087C228.5 134.281 228.899 134.608 229.179 135.028C229.46 135.448 229.609 135.942 229.608 136.446C229.605 137.122 229.334 137.77 228.854 138.247C228.374 138.724 227.724 138.991 227.046 138.991ZM227.046 134.707C226.702 134.708 226.367 134.811 226.082 135.002C225.797 135.193 225.575 135.463 225.444 135.78C225.313 136.096 225.279 136.445 225.346 136.78C225.414 137.116 225.579 137.425 225.822 137.667C226.065 137.909 226.374 138.074 226.711 138.141C227.047 138.208 227.397 138.174 227.714 138.043C228.031 137.913 228.303 137.692 228.495 137.407C228.686 137.123 228.789 136.789 228.79 136.446C228.789 135.985 228.606 135.543 228.279 135.217C227.952 134.891 227.508 134.708 227.046 134.707Z" fill="black"/>
<path d="M230.373 182.573H223.727C223.189 182.572 222.674 182.359 222.294 181.98C221.914 181.601 221.7 181.087 221.699 180.552V176.327C221.7 175.791 221.913 175.277 222.293 174.898C222.673 174.519 223.189 174.305 223.727 174.304H230.373C230.911 174.305 231.427 174.518 231.807 174.897C232.187 175.277 232.401 175.791 232.402 176.327V180.558C232.399 181.093 232.184 181.606 231.804 181.983C231.424 182.361 230.909 182.573 230.373 182.573ZM223.727 175.121C223.406 175.122 223.098 175.249 222.872 175.475C222.645 175.701 222.517 176.008 222.517 176.327V180.558C222.518 180.878 222.645 181.184 222.872 181.41C223.099 181.636 223.406 181.763 223.727 181.763H230.373C230.693 181.763 231.001 181.637 231.228 181.411C231.455 181.185 231.583 180.878 231.584 180.558V176.334C231.584 176.014 231.456 175.708 231.229 175.481C231.002 175.255 230.694 175.128 230.373 175.128L223.727 175.121Z" fill="black"/>
<path d="M227.046 179.363C226.937 179.363 226.833 179.32 226.756 179.243C226.68 179.166 226.637 179.063 226.637 178.954V177.923C226.637 177.815 226.68 177.711 226.756 177.635C226.833 177.559 226.937 177.516 227.046 177.516C227.154 177.516 227.258 177.559 227.335 177.635C227.411 177.711 227.454 177.815 227.454 177.923V178.954C227.454 179.063 227.411 179.166 227.335 179.243C227.258 179.32 227.154 179.363 227.046 179.363Z" fill="black"/>
<path d="M230.103 175.121H223.954C223.9 175.121 223.847 175.111 223.797 175.09C223.748 175.07 223.703 175.04 223.665 175.002C223.627 174.964 223.597 174.919 223.576 174.87C223.556 174.82 223.545 174.767 223.545 174.714V172.923C223.592 172.033 223.98 171.196 224.628 170.583C225.276 169.97 226.135 169.629 227.028 169.629C227.922 169.629 228.781 169.97 229.429 170.583C230.077 171.196 230.465 172.033 230.512 172.923V174.715C230.512 174.823 230.468 174.926 230.392 175.002C230.315 175.078 230.211 175.121 230.103 175.121ZM224.365 174.304H229.694V172.923C229.678 172.229 229.391 171.568 228.893 171.083C228.395 170.598 227.726 170.326 227.03 170.326C226.334 170.326 225.665 170.598 225.167 171.083C224.669 171.568 224.381 172.229 224.365 172.923V174.304Z" fill="black"/>
<path d="M269.442 140.046C264.339 136.208 262.465 136.117 257.639 138.794C256.263 139.557 254.848 140.348 253.266 140.648C251.888 140.893 250.47 140.759 249.164 140.258C247.857 139.758 246.713 138.91 245.855 137.808C245.794 137.722 245.77 137.615 245.786 137.51C245.803 137.406 245.86 137.312 245.944 137.248C246.029 137.184 246.135 137.155 246.241 137.168C246.346 137.181 246.443 137.234 246.51 137.316C247.274 138.298 248.293 139.054 249.457 139.5C250.621 139.945 251.885 140.065 253.112 139.845C254.558 139.567 255.921 138.813 257.241 138.08C262.297 135.271 264.508 135.311 269.939 139.393C274.56 142.872 277.186 144.175 286.389 139.978C290.653 138.03 294.817 136.387 298.851 137.623C301.721 138.503 304.65 141.153 307.563 140.062C307.614 140.041 307.669 140.029 307.725 140.029C307.78 140.029 307.835 140.04 307.886 140.062C307.937 140.084 307.983 140.115 308.022 140.155C308.06 140.195 308.09 140.243 308.11 140.295C308.129 140.346 308.138 140.402 308.135 140.457C308.133 140.512 308.119 140.567 308.095 140.616C308.07 140.666 308.036 140.711 307.994 140.747C307.952 140.783 307.903 140.811 307.851 140.828C304.57 142.06 301.327 139.236 298.611 138.404C294.843 137.252 290.845 138.841 286.729 140.719C277.256 145.043 274.311 143.705 269.442 140.046Z" fill="black"/>
<path d="M309.666 179.386C306.069 174.631 299.918 172.024 293.983 172.739C286.247 173.674 279.131 179.835 271.226 178.484C267.04 177.766 263.551 175.022 259.801 173.315C256.375 171.756 251.401 171.028 248.658 174.105C248.584 174.18 248.484 174.224 248.379 174.227C248.274 174.231 248.171 174.194 248.093 174.124C248.014 174.055 247.965 173.957 247.957 173.853C247.948 173.749 247.979 173.645 248.045 173.563C251.087 170.153 256.463 170.897 260.141 172.572C263.895 174.281 267.364 176.992 271.365 177.68C278.97 178.983 286.001 172.881 293.884 171.928C300.094 171.175 306.549 173.911 310.319 178.893C310.352 178.936 310.375 178.984 310.389 179.036C310.403 179.088 310.406 179.142 310.398 179.195C310.391 179.248 310.373 179.3 310.346 179.346C310.319 179.392 310.283 179.433 310.24 179.465C310.197 179.497 310.148 179.521 310.096 179.534C310.044 179.548 309.99 179.551 309.937 179.544C309.883 179.536 309.832 179.519 309.786 179.491C309.739 179.464 309.699 179.428 309.666 179.386Z" fill="black"/>
<path d="M123.859 165.655L124.388 162.937C124.617 161.768 125.297 160.735 126.28 160.059C127.264 159.383 128.474 159.117 129.651 159.32L153.844 163.481C154.812 163.648 155.701 164.121 156.378 164.831C157.055 165.541 157.485 166.449 157.603 167.422L158.311 173.216L123.859 165.655Z" fill="#6680FF"/>
<path d="M419.272 158.914C419.226 159.423 419.333 159.935 419.579 160.385C419.825 160.834 420.199 161.201 420.654 161.438C421.109 161.675 421.624 161.773 422.134 161.717C422.645 161.662 423.128 161.458 423.521 161.129C423.915 160.8 424.202 160.362 424.346 159.871C424.49 159.38 424.484 158.857 424.33 158.368C424.175 157.88 423.879 157.449 423.479 157.128C423.078 156.808 422.591 156.613 422.08 156.569C421.396 156.509 420.716 156.722 420.189 157.162C419.663 157.601 419.333 158.232 419.272 158.914Z" fill="white"/>
<path d="M587.295 198.433C586.628 200.58 585.899 202.728 585.142 204.862C585.142 204.875 585.129 204.886 585.129 204.897C582.076 213.462 578.424 221.722 574.318 228.945C572.253 225.727 571.16 221.984 571.17 218.163C571.172 213.527 572.776 209.033 575.713 205.439C578.651 201.845 582.741 199.37 587.295 198.433Z" fill="black"/>
<path d="M412.465 210.778C412.473 214.888 411.211 218.901 408.85 222.271C407.844 220.601 406.045 217.843 403.912 214.92C398.533 207.631 394.909 199.234 392.795 190.651C398.059 190.785 403.062 192.964 406.737 196.724C410.412 200.485 412.467 205.528 412.465 210.778Z" fill="black"/>
<path d="M549.507 265.654C549.357 265.653 549.212 265.596 549.103 265.492C548.995 265.388 548.93 265.247 548.923 265.097C548.341 251.235 532.084 238.889 531.919 238.766C531.809 238.669 531.74 238.534 531.726 238.389C531.711 238.244 531.751 238.098 531.839 237.981C531.926 237.863 532.055 237.783 532.199 237.756C532.343 237.728 532.492 237.756 532.617 237.833C533.305 238.349 549.482 250.633 550.088 265.048C550.094 265.203 550.039 265.353 549.934 265.467C549.83 265.581 549.684 265.649 549.53 265.656L549.507 265.654Z" fill="black"/>
<path d="M418.447 256.965C418.294 256.945 418.154 256.865 418.06 256.742C417.965 256.62 417.923 256.465 417.942 256.312C417.96 256.173 419.947 241.958 433.373 230.143C433.491 230.046 433.641 229.999 433.792 230.011C433.944 230.023 434.085 230.093 434.185 230.206C434.286 230.32 434.338 230.468 434.332 230.619C434.325 230.771 434.259 230.914 434.149 231.018C421.047 242.545 419.12 256.323 419.103 256.461C419.093 256.537 419.068 256.61 419.03 256.677C418.992 256.743 418.941 256.802 418.88 256.849C418.819 256.895 418.749 256.93 418.675 256.95C418.601 256.97 418.523 256.975 418.447 256.965Z" fill="black"/>
<path d="M284.518 352.581C283.448 350.597 283.212 348.271 283.862 346.113C284.512 343.956 285.995 342.144 287.985 341.077C289.975 340.01 292.308 339.774 294.472 340.423C296.636 341.071 298.452 342.55 299.523 344.534C299.571 344.629 299.581 344.74 299.549 344.842C299.517 344.944 299.446 345.03 299.351 345.08C299.257 345.131 299.146 345.143 299.043 345.113C298.94 345.083 298.852 345.014 298.8 344.92C298.321 344.033 297.671 343.248 296.888 342.61C296.105 341.973 295.203 341.496 294.235 341.206C293.267 340.916 292.251 340.819 291.245 340.92C290.239 341.022 289.263 341.32 288.373 341.798C287.483 342.275 286.696 342.923 286.056 343.704C285.417 344.485 284.939 345.384 284.648 346.349C284.357 347.315 284.26 348.328 284.361 349.331C284.463 350.334 284.762 351.307 285.241 352.194C285.29 352.29 285.3 352.4 285.268 352.503C285.236 352.605 285.165 352.69 285.07 352.741C284.975 352.792 284.865 352.803 284.761 352.773C284.658 352.743 284.571 352.674 284.518 352.581Z" fill="black"/>
<path d="M119.524 87.7178C118.994 86.7354 118.664 85.6586 118.551 84.5489C118.438 83.4391 118.546 82.318 118.868 81.2498C119.19 80.1815 119.72 79.1869 120.427 78.3228C121.135 77.4587 122.006 76.742 122.991 76.2136C123.976 75.6852 125.056 75.3554 126.169 75.2432C127.282 75.1309 128.406 75.2384 129.478 75.5594C130.549 75.8804 131.547 76.4086 132.413 77.114C133.28 77.8193 133.999 78.688 134.528 79.6703C134.573 79.765 134.579 79.8729 134.546 79.9719C134.513 80.0709 134.443 80.1536 134.351 80.203C134.259 80.2525 134.151 80.2649 134.05 80.2378C133.949 80.2106 133.862 80.146 133.807 80.0571C133.336 79.1553 132.69 78.3557 131.906 77.7049C131.123 77.0541 130.217 76.5649 129.243 76.2659C128.268 75.9668 127.244 75.8638 126.229 75.9628C125.214 76.0618 124.229 76.3608 123.331 76.8426C122.432 77.3243 121.639 77.9791 120.997 78.7691C120.355 79.559 119.877 80.4682 119.59 81.444C119.303 82.4198 119.213 83.4427 119.326 84.4533C119.439 85.4639 119.752 86.442 120.247 87.331C120.296 87.4263 120.305 87.537 120.273 87.6392C120.241 87.7414 120.17 87.827 120.076 87.8777C119.981 87.9283 119.87 87.9399 119.767 87.91C119.664 87.8801 119.577 87.8111 119.524 87.7178Z" fill="black"/>
<path d="M419.329 31.2382C418.799 30.2558 418.468 29.179 418.356 28.0692C418.243 26.9595 418.351 25.8384 418.673 24.7702C418.995 23.7019 419.525 22.7073 420.232 21.8432C420.939 20.9791 421.81 20.2624 422.796 19.734C423.781 19.2056 424.861 18.8758 425.974 18.7636C427.087 18.6513 428.211 18.7588 429.282 19.0798C430.354 19.4007 431.351 19.929 432.218 20.6344C433.084 21.3397 433.803 22.2084 434.333 23.1907C434.362 23.2382 434.382 23.2911 434.39 23.3463C434.398 23.4014 434.394 23.4576 434.38 23.5114C434.365 23.5652 434.34 23.6155 434.305 23.6592C434.271 23.7028 434.227 23.739 434.178 23.7654C434.129 23.7918 434.075 23.8078 434.019 23.8126C433.963 23.8174 433.907 23.8108 433.854 23.7932C433.801 23.7756 433.752 23.7474 433.711 23.7103C433.669 23.6732 433.635 23.628 433.612 23.5775C433.141 22.6757 432.495 21.8761 431.711 21.2253C430.928 20.5744 430.022 20.0853 429.047 19.7862C428.073 19.4872 427.048 19.3841 426.033 19.4831C425.018 19.5822 424.033 19.8812 423.135 20.363C422.237 20.8447 421.444 21.4995 420.802 22.2894C420.16 23.0794 419.681 23.9886 419.394 24.9644C419.107 25.9402 419.018 26.9631 419.131 27.9737C419.244 28.9843 419.557 29.9624 420.052 30.8514C420.079 30.8988 420.095 30.9511 420.102 31.0051C420.108 31.0592 420.103 31.1139 420.088 31.1661C420.073 31.2184 420.047 31.2671 420.013 31.3093C419.979 31.3516 419.936 31.3866 419.888 31.4124C419.84 31.4381 419.787 31.454 419.733 31.4592C419.679 31.4643 419.624 31.4586 419.572 31.4424C419.52 31.4262 419.471 31.3997 419.43 31.3647C419.388 31.3296 419.354 31.2866 419.329 31.2382Z" fill="black"/>
</g>
<defs>
<clipPath id="clip0_1029_33">
<rect width="600" height="547" fill="white"/>
</clipPath>
</defs>
</svg>
